<svg enable-background="new 0 0 425 425.2" viewBox="0 0 425 425.2" xmlns="http://www.w3.org/2000/svg"><path d="m422.9 23.6c-2.4-3.3-4.9-6.7-6.8-10.4-.6-1.1-1.2-2.2-2-3.2-1.5-1.8-3.4-1.6-4.5.3-.4.7-.8 1.3-1.2 1.9-1.6 2-3.2 4-4.9 5.9-1.6 1.9-1.3 2.1-3.4.1-.1-.1-.1-.1-.1-.2-2.2-2.1-3.9-4.6-6.2-6.6-1.5-1.3-2.7-.9-3.7.7-1.9 3.3-4 6.3-6.3 9.3-.5.7-.8.6-1.2-.1-.6-1.1-1.2-2.1-2-2.9-1.6-1.7-2.5-4-4.9-5-1.3-.5-2.2-.4-3 .5-1.2 1.3-2.4 2.6-3.5 3.9-1.3 1.6-2.7 3.1-4.2 4.6-.7.7-1.5 1.4-2.3 2.1-.5-.9-1.1-1.7-1.8-2.5-2.1-2.2-4.1-4.4-6.5-6.3-2.3-1.7-3.6-1.4-5.3.8-2.5 3.4-5.2 6.8-7.7 10.2-.6.8-1 .5-1.5-.1-2.1-2.3-4.1-4.8-5.5-7.6-.7-1.5-1.7-2.8-2.6-4.2-1.2-2-3.1-2.2-4.8-.7-3.4 3.1-6.9 6.2-10.5 9.2-.8.7-1.4.7-2.1 0-3.3-3.1-6.8-6-9.6-9.6-2.2-2.8-4.4-2.7-6 .5-1.1 2.1-2.4 4.1-3.6 6.2-.5.9-.9 1-1.8.4-3.6-2.4-6.7-5.4-10-8.2-1.3-1.1-2.7-2.2-4.4-2.5-1.6-.3-3.1.3-4.5.9-2.8 1.2-4.9 3.2-6.9 5.4-1.3 1.4-2.6 2.8-4 4.1-.9.8-1.4.6-2.1-.2-2.4-2.5-4-5.4-5.2-8.6-.4-1-.8-2-1.7-2.8-1.2-1.2-2-1.3-3.5-.3-3.5 2.2-6.5 4.9-9.4 7.9-.5.5-1.1 1-1.6 1.4-.9.8-1 .7-1.5-.4-1-2.4-1.7-4.9-2.2-7.4-.2-.9-.3-1.7-.5-2.6-.3-1.6-1.5-2.5-2.7-3.4-.2 0-.5 0-.8 0-2.6 1.4-5.2 2.8-7.7 4.3-6.7 3.9-12.9 8.5-18.8 13.5-.8.7-1.4.6-2 0-2.9-3-5.4-6.3-7.1-10.1-.7-1.5-1.3-3.1-2.2-4.5-1.4-2.1-3.2-2.7-4.6-1.2-1.4 1.6-2.8 3-4.1 4.6-2.2 2.8-4.4 5.7-6.6 8.6-.5.7-.9.8-1.4 0-1.5-2.2-2.9-4.5-4.1-6.9-.8-1.7-2.1-3.1-3.5-4.3-.8-.7-1.6-1.3-2.8-1.1-3.5.8-6.6 2.4-9.5 4.4-2.6 1.8-4.9 4-7.2 6.3-.6.6-1.2 1-1.9.2-1.8-1.8-3.7-3.6-4.9-5.8-.6-1.1-1.5-2-2.6-2.8-.6-.4-1.2-.6-1.9-.2-1.4.6-2.7 1.3-3.9 2.3-2 1.7-4 3.5-5.9 5.4-1.1 1.2-1.1 1.1-2.2 0-1.9-1.9-3.4-4.1-5-6.2-1.3-1.7-2.3-3.5-4.1-4.7-1-.6-1.9-.8-3-.2-2.6 1.5-4.8 3.3-6.7 5.5-3.1 3.8-6.3 7.5-9.5 11.2-.7.7-1.1.9-1.8.1-3.8-3.7-7.3-7.8-10.7-11.9-1.3-1.6-2.6-3.2-4.5-4.2-.9-.5-1.7-.6-2.5.1-2.6 2.1-5.3 4.1-7.8 6.3-3.2 2.7-6.3 5.6-9.1 8.8-.8.9-1.4.7-2.2 0-2.8-2.4-5.4-5-7.9-7.7-.9-1-1.8-1.9-3-2.6-1.5-.9-2.3-.8-3.5.3-1.9 1.7-3.6 3.6-5.3 5.5-.6.8-1.1.8-1.7 0-1.2-1.5-2.1-3.2-3.3-4.7-1.3-1.8-3.3-2.6-5.1-.5-2.5 2.9-4.7 5.9-7.3 8.7-.5.6-.9.7-1.3 0-1.8-2.9-4.3-5.4-5.7-8.7-.3-.6-.8-1.2-1.2-1.8-1.4-1.7-3-1.7-4.3 0-.9 1.1-1.8 2.2-2.7 3.3-2.6 3.4-5.2 6.8-8 10.1 0 .2-.1.4-.3.5v7.3c.9.2 1.6-.2 2.4-1.3 2.1-2.7 4.1-5.4 6.1-8.1 1.2-1.6 2.4-3.2 3.7-4.7.5-.6 1-1.1 1.7-.2 2.2 2.9 4.5 5.8 6.4 8.9.6 1 1.4 1.7 2.4 2.3 1.5.9 2.5.7 3.3-.9.7-1.4 1.5-2.7 2.5-3.9 1.4-1.8 2.8-3.8 4.5-5.3.5-.4.6-.4.9 0 2 2.2 3.7 4.7 6.3 6.3 1.3.8 2.5.7 3.2-.7.9-1.7 2-3.3 3.2-4.8 1.5-2 2.4-2.1 4.1-.3 3.3 3.4 6.6 6.7 10.6 9.5 1.9 1.3 2.8 1.3 4.2-.6 4.3-5.9 9.6-10.7 15.8-14.5.5-.3.8-.3 1.1.1.8 1 1.7 1.9 2.5 2.9 3.9 4.9 8.3 9.3 12.9 13.6 1.4 1.3 2.7 1.1 3.8-.4 3-4.2 6.2-8.2 9.4-12.2 1.3-1.5 2.6-3 4.2-4.2 1.8-1.3 1.9-1.2 3.1.4 3.1 3.9 6 7.9 9.8 11.2 1.3 1.1 2.9 1.1 3.7-.3.5-.9 1.2-1.8 1.9-2.6 1.9-1.9 3.3-4.4 6.1-5.5.6-.2.7-.1 1 .2 2.5 3.4 5.5 6.2 8.9 8.6 1.4 1 2.8.9 3.7-.5.9-1.3 2-2.5 3-3.7 2.8-3 6-5.4 9.8-7 2-.9 2.2-.8 3.3 1.1.4.6.7 1.2 1 1.9 2 3.7 4.5 7 7 10.4 1.6 2.1 3.6 1.2 4.6-.5 1.4-2.5 2.7-5.1 4.4-7.4 1.4-1.8 2.5-3.8 4.3-5.2.6-.5 1.1-.7 1.6.3 1.2 2.2 2.4 4.5 4 6.5 2.3 2.9 4.7 5.7 7.4 8.2 1.6 1.5 2.9 1.5 4.2-.2 2.1-2.7 4.7-4.9 7.3-7.1 3.2-2.7 6.7-5 10.3-7.2 1.4-.8 2.7-1.6 4.1-2.4 1.3-.7 1.6-.5 2 .8.3 1 .6 2 .9 3 1.3 3.6 2.5 7.2 4.8 10.4 1.1 1.5 2.9 1.6 3.9.1 1.5-2.3 3.3-4.5 5.2-6.5 1.5-1.6 3-3.2 5.1-4 .5-.2.8-.1 1 .4 1.5 3.3 3.8 6.2 6.2 8.9 1 1.2 2.2 2.2 3.5 3 1.1.7 2.4.4 3.2-.5 1.5-1.8 3.1-3.5 4.6-5.3 1.8-2.2 4-3.9 6.5-5.3.9-.5 1.7-.6 2.6 0 1.7 1 3.3 2 4.7 3.3 3.3 3.1 7.1 5.6 10.8 8.3 1.3 1 2.8.5 3.6-.9 1.1-2.1 2.1-4.3 3.3-6.4.8-1.4 1.1-1.4 2.2-.4 3.5 3.3 7.1 6.7 10.6 10 1.2 1.1 2.6.9 3.8-.2 3-3 6-6 9.1-9 1.3-1.3 1.7-1.2 2.7.3 1.6 2.4 3.1 4.9 4.9 7.1 1.6 1.9 3.4 3.7 5 5.6.9 1.1 2.8 1.1 3.6-.1.8-1.1 1.4-2.2 2.1-3.3 1.7-3.1 3.8-5.9 6-8.6.5-.6 1-.8 1.7-.1 1.9 1.8 4 3.5 5.6 5.7.5.7 1 1.2 1.5 1.4.8 1.1 2.5 1.4 3.7.3 3.6-3.2 6.6-7 10.3-10.1.9-.7 1.2-.9 2 0 1.9 2.1 3.7 4.3 5.1 6.9 1.6 2.9 3.8 3.1 5.5.2 1.7-3 3.9-5.7 5.8-8.6.4-.7.9-.8 1.5-.2.7.8 1.5 1.6 2.2 2.3 1.9 1.8 3.3 4 5.6 5.3 1.7 1 2.4 1 3.6-.6 1.9-2.6 3.7-5.3 5.9-7.7.9-1 1-1 1.8.1 1.8 2.5 3.5 5 5.4 7.5 1.5 2 2.8 4.3 5.1 5.7.5.3.9.5 1.3.6v-7.2c-1.3.6-1.5.4-2.3-.6z" opacity=".1"/><path d="m422.2 78c-.5 1-1 1.9-1.9 2.6-2.2 1.7-4.2 3.6-6.4 5.3s-4.5 3.2-6.9 4.6c-.5.3-.9.3-1.2-.2-2.6-3.6-5.6-6.9-7.4-11-.7-1.7-2.3-2.2-3.9-2.4-.7-.1-1.3.2-1.7.8-.7 1-1.6 1.8-2.5 2.5-3 2.3-5.9 4.7-8.9 6.9-1.3.9-1.4 1-2.3-.2-1.6-2.2-3.3-4.3-4.6-6.8-.5-.9-1-1.7-1.6-2.5-1.5-2-4.1-2.1-5.8-.2-1.3 1.4-2.3 3-3.6 4.3-2.2 2.2-4.5 4.3-7.1 6-.9.6-1.3.4-1.6-.6-.3-.8-.3-1.7-.8-2.5-1.3-2-2-4.2-2.9-6.3-.7-1.5-1.5-2.9-2.7-4.1-1.6-1.7-4.3-1.7-5.7.1-2.5 3.1-5.4 5.7-8.5 8.1-1.2.9-2.2 2-3.3 3-1.2-1-2.3-2.1-3.4-3.2-2.8-3.1-6.2-5.4-9.5-8-1.3-1-2.5-.8-3.4.4-.3.4-.7.6-1.1.8-3.2 2.2-6.8 3.7-9.9 5.9-1.1.8-2.4 1.5-3.6 2.2-.9.6-1.4.3-1.9-.6s-.9-1.9-1.5-2.7c-1.7-2.4-3.2-5-5.7-6.8-1-.7-2.5-.5-3 .6-.6 1.4-1.9 2.2-3 3-3.7 2.9-7.4 5.7-11.1 8.6-1.3 1-2.6 1.9-3.9 2.9-.4.3-.8.5-1.2 0-1.4-1.7-3-3.2-4.2-5-.9-1.3-1.7-2.8-2.7-4-1.3-1.5-2.7-1.8-3.8-.8-.6.5-1.3 1-2 1.5-3.9 2.7-7.8 5.5-11.7 8.2-.6.4-1.1.5-1.5 0-.8-1-1.8-1.8-2.5-2.9-.9-1.5-1.5-3.1-2.3-4.7-.7-1.2-1.6-2.2-2.8-2.9-.9-.4-1.7-.4-2.3.3-1.3 1.5-3 2.5-4.4 4-2.4 2.6-4.8 5.1-7.2 7.7-.6.7-1 .6-1.5-.1-1.6-2.3-3.4-4.5-4.7-7-.6-1.1-1.3-2.1-2.3-2.9-1-.7-2.1-1.4-3.3-.5-1.8 1.2-3.7 2.3-5.6 3.5-2.3 1.5-4.4 3.2-6.6 4.9-1.8 1.4-3.4 2.9-5.2 4.3-.4.3-.7.6-1.3.1-3.5-3.3-7.3-6.4-9.9-10.6-.6-.9-1.4-1.5-2.3-2-1.9-1-2.9-.7-3.8 1.3-1.2 2.6-2.9 4.8-4 7.4-.3.7-.8.8-1.4.1-1.7-1.8-3-3.8-4.2-6-1.3-2.5-3.2-3.2-5.7-1.8-2.8 1.5-5.6 3-8.5 4.4-3 1.5-6 3-8.5 5.3-.7.7-1.3 1.8-2.3 1.8s-1.7-1.1-2.4-1.8c-2.7-2.2-5.4-4.5-7.1-7.6-.3-.6-.8-1.2-1.3-1.6-2-1.3-3-1.3-4.4.3-2.5 2.8-5 5.7-7.3 8.7-1.6 2.1-1.7 2.1-3.4.2-.1-.1-.1-.1-.2-.2-2.2-2.6-4.7-4.9-6.4-7.9-.6-1-1.1-1.9-2-2.7-1.6-1.4-3.3-1.1-4.4.8-.6 1-1.2 1.9-1.9 2.7-3.1 3.6-6.4 7.1-9.4 10.8-2 2.4-1.5 2.5-3.7.1-4.8-5.2-9.3-10.7-13-16.9-.7-1.2-1.9-1.7-3.2-1.8-1.2-.1-1.7.7-2.1 1.7-.1.3-.3.5-.5.7-3.5 4.3-7.3 8.4-11 12.5-1.6 1.8-1.7 1.7-3-.4-1.7-2.5-3.3-5.1-5-7.6-1.7-2.4-4-2.5-5.7-.2-.4.5-.8.9-1.2 1.3-2.2 1.9-4.5 3.7-6.7 5.5-1.4 1.2-1.3 1.2-2.4-.3-1.8-2.5-3.7-5-5.7-7.4-1-1.2-3.3-1.4-4.2-.6-.5.4-.4 1.1-.7 1.6-2.2 3.2-3.8 6.8-6.4 9.8-.8.9-1.1.9-1.8 0-2.9-4.2-6.3-8-9.5-12-1.1-1.4-2.3-2.8-4.2-3.1-.1 0-.2 0-.3-.1v6.4c.5-.1.9.1 1.4.6 5 4.8 8.5 10.8 12.7 16.2.6.7 1.1 1 2 .9 1.5-.1 2.2-1.3 2.8-2.4 1.8-3.4 4.1-6.6 5.8-10.1.4-.9.9-.8 1.5-.2.2.2.4.4.6.7 2.1 2.5 4 5.1 6.3 7.5 1.2 1.2 2.7 1.3 3.6.1 2.5-3.3 5.5-6.1 8.7-8.7.5-.4.8-.4 1.2.1.9 1.2 1.7 2.3 2.6 3.5 1.9 2.5 3.1 5.5 5.2 7.8 1.8 2 3.4 1.9 4.6-.5.8-1.7 1.8-3.3 2.9-4.8 2.6-3.6 5.6-7 8.6-10.3.7-.8 1-.7 1.6 0 2.4 3.1 5.1 6.1 7.6 9.2 2.7 3.4 5.8 6.4 9 9.5 1.7 1.6 2.9 1.4 4.2-.5 3.1-4.9 6.2-9.9 10.2-14.2 1.4-1.4 1.6-1.5 2.9.1l.1.1c2.8 3.3 5.6 6.6 8.5 9.9.8.9 1.5 1.9 2.6 2.5 1.2.7 1.9.6 2.6-.6.7-1 1.2-2.1 1.8-3.1 1.5-2.9 3.2-5.7 5.5-8.1.4-.4.7-.9 1.4-.2 3.8 3.9 7.9 7.3 11.9 10.9 1.9 1.7 3 1.5 4.4-.7 1-1.7 2.1-3.3 3.7-4.5 3.8-2.9 8.1-5.1 12.2-7.4.8-.4 1.2-.2 1.7.5 2.4 3.7 5.4 6.8 8.3 10 1.2 1.3 2.4 1.2 3.6-.1.8-.9 1.1-1.9 1.5-3 .7-2 1.4-3.9 2.3-5.8.3-.7.6-1.1 1.3-.2.6.7 1.3 1.3 2 1.9 3.2 2.9 6.1 6.1 9.7 8.5 3 2 3.4 1.8 5.7-.9 3.8-4.2 8.1-8 13.1-10.7.8-.4 1.3-.3 1.9.4 2.6 3.5 5.3 6.9 7.9 10.4 1.5 2 3.2 2.1 4.7.1.2-.3.4-.5.6-.8 2.4-3.8 5.5-7 8.4-10.3.5-.5 1-1.3 1.7-.1 2.1 3.8 5.2 6.7 8.7 9.2 1.8 1.3 3.2 1 4.3-.9.5-.9 1.1-1.5 1.8-2.2.9-.8 2-1.4 3.1-2.1 1.8-1.3 3.6-2.6 5.4-3.9.6-.4 1.2-1 2 0 2.6 3.3 5.6 6.2 8.4 9.4 1.7 1.9 3.1 1.4 4.6-.3.8-.9 1.6-1.9 2.5-2.8 4.3-4.1 8.9-7.6 13.5-11.4.7-.6 1.3-.5 1.9.2 1.5 1.7 2.4 3.8 3.5 5.7.7 1.2 1.3 2.5 2.3 3.5.7.8 2.2 1.1 3.1.6 2.8-1.5 5.6-2.9 8-4.9 2.2-1.8 4.6-3.3 7-4.7 1.5-.9 2.6-.7 4 .2 3.8 2.5 7 5.7 10 9.1.8.9 1.9 1.1 3 .5.5-.3.9-.7 1.2-1.2.3-.2.5-.4.7-.6.9-1 2-2 3.1-2.9.9-.8 2.1-1.3 2.9-2.2 1.3-1.3 2.6-2.5 4.1-3.6.6-.5.8-.3 1.3.1 2.6 2.7 4.2 6.1 6.2 9.3.5.8.6 1.8 1.2 2.4.8.8 1.9 1.5 3 2 1.8.8 3.4.8 4.9-.9 3.2-3.4 6.7-6.4 10.3-9.3.7-.5 1.1-.6 1.6.1 1.8 2.4 3.5 4.8 5.1 7.4.5.9 1.2 1.7 2 2.3.8.7 2.6.7 3.2-.1.9-1.2 2.1-2 3.1-3 2.7-2.6 5.5-5.2 8.6-7.3.5-.3.8-.5 1.2.1 2.3 3.5 5 6.7 7.4 10.1 2 2.8 3.4 3.4 6.8 1.4.6-.3 1.1-.8 1.6-1.2 4.3-3.6 8.6-7.1 12.9-10.7.3-.2.5-.4.7-.4v-6.4c-1.6-.2-2.2 0-2.8 1.2z" opacity=".1"/><path d="m423.3 161.4c-2.4 2.4-4.8 4.8-6.9 7.4-1 1.2-1.1 1.2-1.7-.2-2-4.2-4.9-7.9-7.1-11.9-.1-.2-.3-.4-.4-.6-1.5-1.8-2.9-2-4.7-.6-.4.3-.9.6-1.4.9-2.1 1.3-4.2 2.6-6.1 4.1-3.3 2.5-6.4 5.2-10 7.2-.5.3-.8.2-1.1-.2-.8-1.1-1.6-2.1-2.3-3.2-2-3-4.5-5.7-6.2-8.9-.6-1.2-1.8-1.7-2.9-2.2-1.2-.5-1.9-.1-2.5 1.1-.1.3-.4.6-.6.9-2.1 2.8-4.6 5.2-6.7 7.9-.8 1.1-1.9 2.1-2.8 3.1-.5.6-.7.4-1-.2-.7-1.6-1.5-3.1-2.3-4.7-1.6-3.4-3.8-6.4-5.2-9.9-.6-1.6-1.9-2.4-3.5-2.8-.5-.1-1-.2-1.3.3-.9 1.4-2.4 2.1-3.5 3.3-2.9 3.2-6.4 5.7-9.5 8.6-.2-.2-.4-.3-.6-.5-2.6-2.1-5-4.3-7.4-6.6-1.7-1.6-3.3-3.3-5.4-4.4-.9-.5-1.6-.5-2.4.2-.9.9-1.8 1.7-2.7 2.6-2.6 2.7-4.4 6.1-6.4 9.2-1.3 2-1.5 2-3.1.2-2.1-2.5-4.3-4.9-6.3-7.5-1.5-2-3.3-2.1-5.2-.7-.2.1-.4.3-.6.4-2.3 2.1-4.7 4.2-6.9 6.4-1.9 1.9-3.3 4.1-5.2 5.9-.7.7-1.1.6-1.6-.2-1.7-2.4-3.4-4.9-4.8-7.6-.9-1.9-1.6-3.9-2.7-5.7-.9-1.4-2.6-2.3-3.8-1.9-.9.3-1.2 1.1-1.9 1.6-2.8 2.2-5.9 3.9-8.8 6s-6.1 3.8-8.9 6c-3.1 2.5-3.5 2.5-6.4-.3-.2-.2-.5-.4-.7-.7-1.8-2.6-4-5-5.6-7.7-.6-1.1-1.4-2.1-2.5-2.8-1-.6-1.9-.5-2.7.4-.9.9-1.2 2.2-2 3.1-2.3 2.8-4.7 5.6-6.5 8.8-.4.7-.8.8-1.3.1-2.2-2.5-3.9-5.4-5.9-8.1-.9-1.2-1.5-2.5-2.7-3.5-1.1-1-2.9-.7-3.2.6-.9 4-3.3 7.2-5.1 10.8-.5.9-.8.8-1.4.2-1.1-1.3-2.2-2.7-3.4-3.9-1.5-1.6-2.9-3.4-4.7-4.8-1.7-1.3-2.8-1-4 .8-.2.3-.4.6-.5 1-1.2 2.4-2.5 4.6-4.4 6.5-.6.6-.9.6-1.4-.1-.9-1.5-2.1-2.7-3.3-3.8-1.9-1.8-3.4-3.8-4.4-6.3-.3-.8-.8-1.4-1.4-2-1.1-1.1-1.8-1.2-3-.2-.9.7-1.6 1.6-2.5 2.3-3.9 3-7.4 6.5-10.3 10.5-.4.6-.8.5-1.1 0-.6-.9-1.2-1.8-1.8-2.7-1.7-2.9-3.7-5.6-4.7-8.9-.6-2.2-2.8-2.7-4.7-1.5-.8.5-1.6 1-2.3 1.5-2.7 2-5.4 4-8.2 6s-5.8 3.7-8 6.3c-.5.5-.8.4-1-.2-.1-.3-.2-.5-.3-.8-1.3-3-2.3-6.2-3.9-9.1-1.4-2.6-3.1-3.2-5.2-1.2-1.1 1.1-2.3 2-3.5 3-3.9 3.2-7.7 6.5-11 10.3-.5.6-.7.3-1-.2-.9-1.7-1.9-3.5-2.9-5.2-.9-1.5-2-2.9-2.7-4.5-.5-1.3-1.4-2.3-2.4-3.2-.7-.7-1.6-.8-2.5-.3-1 .6-2 1.1-2.9 1.8-2.1 1.5-4.3 2.9-6.7 4.1-3 1.6-6.3 2.9-8.7 5.6-.7.8-1.1.1-1.4-.3-2.5-3.9-5.6-7.4-8.2-11.2-.4-.6-1-1.2-1.6-1.6-.8-.6-1.9-.4-2.6.3-1.9 2.1-3.8 4.2-5.8 6.1-3.2 3-6.6 5.8-9.2 9.4-.3.5-.6.5-1 0-1.1-1.2-1.8-2.7-3-3.6-3.1-2.2-5.1-5.3-7.2-8.4-.6-.8-1.4-1.4-2.3-1.9-.7-.3-1.4-.1-1.8.5-1.1 1.5-2.1 3-3.1 4.6-1.5 2.4-3 4.9-4.6 7.2-.6.9-.9.8-1.6.1-3.4-3.8-6.8-7.6-10.3-11.4-1.9-2.1-3.4-2.1-5.4-.1-.9.9-2 1.5-3 2.3-.8.6-1.6 1.1-2.3 1.7v7.9c1.9-2.1 4-4 6.4-5.6 2-1.3 1.9-1.4 3.6.2 3.9 3.8 7.7 7.7 10.8 12.2 1.4 2 3.4 1.9 4.4-.3 1.8-3.7 4-7 5.9-10.7.9-1.7 1.2-1.6 2.3 0 .8 1.2 1.7 2.3 2.9 3.2 1.4 1.1 3 1.9 3.8 3.6 1 1.9 2.4 3.4 3.6 5.1 1.3 1.9 3.4 1.9 4.5-.4 1.2-2.4 2.9-4.6 4.7-6.6 2.6-2.9 5.6-5.3 8.3-8.1 1-1.1 1.2-1 2.2 0 2.5 2.8 4.6 5.8 6.8 8.8.6.9 1.2 1.8 1.7 2.8 1.1 2.1 2.9 2.3 4.4.4.9-1.2 1.9-2.3 3-3.3 1.7-1.6 3.8-2.6 5.7-3.8 2.5-1.6 5.1-3.1 7.6-4.7.4-.3.8-.5 1.2.1 1.2 2.1 2.7 4.1 3.8 6.3 1.3 2.5 2.8 4.8 4.2 7.2 1.2 1.9 3.1 2 4.2.3 3.6-5.7 8.5-10.1 13.6-14.5.6-.5 1-.4 1.3.3.6 1.4 1.1 2.8 1.7 4.1 1.3 2.6 2.3 5.4 3.8 7.9 1 1.7 2.8 1.8 3.9.1.5-.8.8-1.7 1.3-2.4 2.2-3.4 6-5.1 8.7-8.1 2-2.2 5.1-2.8 7.2-5 .7-.7 1.3-.6 1.6.5.2.6.6 1.1.9 1.7 2.3 4.3 5.5 8 8 12.2.5.8 1.3 1.1 2.2 1.1s1-.8 1.2-1.5c.2-.4.3-.8.5-1.1 2.6-4.6 6-8.4 10.5-11.3.7-.4 1.2-.5 1.6.3 1.1 1.9 2.4 3.6 4 5 1.8 1.5 3.2 3.4 4.4 5.4.6 1 2.5 1.6 3 1.1 1.2-1.3 2.7-2.3 3.8-3.7 1.2-1.6 2-3.4 3.2-4.9.6-.8 1.1-.7 1.7-.1 2.9 2.7 5.5 5.7 8 8.8.6.8 1.4 1.3 2.3 1.7.5.3.9.1 1.3-.2 1-.6.6-1.6 1-2.3 1.3-3.1 3-6.1 4.6-9 .3-.5.6-.5.8-.1.7 1.1 1.9 1.9 2.5 3.1.9 1.7 2.1 3.1 3.3 4.6 1.3 1.7 2.7 3.1 4.8 3.7 1 .3 1.8 0 2.1-1 1.4-4.5 4.4-7.8 7.5-11.1.5-.5.9-.4 1.3.1.7 1 1.6 1.8 2.3 2.8 2.7 3.7 5.8 7 10 9 1.1.5 2 .4 2.8-.3 2.7-2.6 5.7-4.8 8.9-6.9 3.4-2.2 6.8-4.5 10.2-6.8.7-.5 1.2-.5 1.6.4.3.8.7 1.5 1.2 2.2 2.6 4.4 5.2 8.8 8.9 12.4 1.3 1.3 2.3 1.3 3.6-.1.9-1 1.8-2 2.6-3 2.7-3.5 5.4-7 9-9.7 1.5-1.1 2-1.2 3.2.2 2.9 3.3 5.9 6.6 9.6 9.1 1.5 1.1 3 .8 3.8-.9.9-2.1 2-4 3.3-5.9 1.5-2.2 2.6-4.6 4.6-6.4.7-.6 1-.5 1.5 0 3.8 3.3 7.5 6.7 11.3 10 .9.8 1.6 1 2.3.8.4-.1.9-.3 1.3-.7.5-.5.9-1.1 1.4-1.6 3.3-3.4 7.1-6.2 10.7-9.3.5-.4.8-.3 1.2.2 2 3.3 3.9 6.6 5.4 10.1 1.2 2.6 2.1 5.2 3.7 7.6 1.4 1.9 2.8 2 4.1-.1.8-1.1 1.5-2.3 2.2-3.4 2.2-3.2 4.8-6 7.2-9.1.7-.9 1.3-.9 2 0 .8 1.1 1.6 2.1 2.4 3.2 2.3 3.2 4.6 6.5 6.9 9.8 1.1 1.6 2.3 2 3.8.7 2.3-1.9 4.7-3.7 7-5.6 3.2-2.6 6.3-5.2 9.9-7.1.6-.3 1.1-.7 1.7.1 2.1 2.9 3.9 5.9 5.5 9.1 1.1 2.4 2.1 5 4.1 6.8.5 0 .9.1 1.4.1.4-.2 1-.4 1.2-.9.9-1.4 2.1-2.6 3.1-3.8 1.6-1.8 3.1-3.7 4.8-5.5v-7.9c-.4 1.1-1.1 1.6-1.7 2.2z" opacity=".1"/><path d="m418.7 53.6c-.4.6-1 .7-1.7.2-1.9-1.4-3.6-3-4.9-5-.8-1.3-1.6-2.6-2.4-3.9-1.2-1.9-3.4-2.4-5.2-1-3.5 2.6-6.6 5.5-9.1 9.1-.9 1.3-1.1 1.2-2 .1-1.9-2.3-3.5-4.7-5.2-7.2-1.1-1.6-3.2-1.9-4.5-.7-3.9 3.5-8.1 6.8-11.2 11.2-.4.5-.7.7-1.2.1-2.1-2.8-4.3-5.5-6.2-8.4-1.3-2-2.4-4-3.7-6-1.3-2.1-3.4-2.2-5.1-.4-.4.4-.7.9-1.1 1.3-1.9 2.6-3.7 5.3-5.9 7.7-2.1 2.4-4.5 4.6-6.5 7-.7.9-1 1-1.7 0-2.2-2.9-4.5-5.8-6.8-8.6-1.2-1.5-3.1-1.5-4.5-.2-.4.4-.9.8-1.3 1.1-2.4 1.7-5 3.2-7.2 5.2-.8.8-1.3.7-1.9-.1-2.7-3.3-5.4-6.6-8-10-2.1-2.7-4-2.5-5.7.2-.4.7-.8 1.4-1.2 2-2.4 3.4-5.2 6.5-7.7 9.8-.7.9-1.1.5-1.5-.2-1.4-2.7-3.5-4.9-5.1-7.5-1.4-2.2-3.3-2.4-5.1-.4-2.3 2.5-4.8 4.9-7.4 7.2-.9.8-1.4.7-2.1-.2-3.1-3.6-5.9-7.5-8.7-11.3-.9-1.2-1.7-2.5-2.9-3.5-1.6-1.4-3.9-.8-4.7 1.1-.3.6-.5 1.3-.9 1.9-2.6 4.2-5.7 7.9-8.7 11.8-.4.6-.8.6-1.3.1-1-1-2-2-2.9-3-1.3-1.5-2.2-3.3-3.5-4.8-1.4-1.5-4.1-1.3-4.8.6-1.1 2.9-3.3 5.1-5 7.5-.3.5-.7.5-1.1 0-.6-.8-1.3-1.6-1.8-2.5-1.7-2.7-3.2-5.5-5.2-7.9-.6-.7-1.3-1.4-2.4-1.2-.9-.1-1.7.3-2.3 1-1 1.2-2.1 2.4-3.1 3.4-2.4 2.4-4.7 4.9-7.3 7.2-2-1.3-3.7-2.8-5.6-4.2-4-3.1-8.2-6.1-12.9-8.1-2.1-.9-4.1-.1-5.3 1.8-1.1 1.7-1.8 3.7-3.1 5.3-.4.5-.7.9-1.3.3-2.4-2.2-5.1-4-6.8-6.9-.8-1.5-3-2.5-4.2-2.1-2.3.8-4.7 1.5-6.9 2.6-4.3 2.1-8.5 4.2-12.4 7.1-.9.6-1.4.4-1.8-.5-.6-1.2-1.2-2.4-1.5-3.6-.3-1.4-1.4-2-2.5-2.5-.5-.3-1.2-.7-2-.3-1.1.5-2.1.8-3.2 1.3-3.3 1.6-6.1 4-8.9 6.3-1.6 1.4-1.7 1.4-2.8-.5-1.5-2.4-2.7-4.9-4.1-7.3-1.2-2-3.3-2.6-5.3-1.6-4.1 2.1-7.7 4.8-10.9 7.9-1.4 1.3-2.7 2.9-4 4.3-.4.4-.8 1.1-1.4.2-2.4-4-5.3-7.6-7.3-11.8-1-2.2-3.2-3.5-5.7-1.8-3 2-5.9 4.3-8.8 6.6-4 3.2-8 6.4-11.8 9.8-1 .9-1.2.9-1.9-.3-1.4-2.1-2.7-4.3-3.7-6.7-1-2.3-3-2.9-5.2-1.7-.5.3-.9.6-1.4.8-2.3 1.2-3.9 3.2-5.8 4.7-.7.6-1.1.4-1.4-.3-.6-1.2-1.2-2.5-1.8-3.8-.3-.6-.6-1-1.1-1.4-1.6-1.4-3.5-1.1-5.3-.8-5.1.9-9.6 3.3-14 5.8-.9.5-1.4.4-1.8-.5-2.7-5.2-6.3-9.8-9.1-14.9-1-1.7-3-2.9-5.2-1.2-.4.3-.7.7-1.1.9-3.3 2.3-6.6 4.6-9.7 7.1v8.8c3.1-3.6 7.1-6.4 11-9.2.8-.6 1.5-.4 1.9.5.5 1 1.2 1.9 1.9 2.9 1.9 2.8 3.7 5.6 5.3 8.6 1.1 1.9 1.9 4 3.8 5.3 1.5 1.1 3.3.8 4.4-.6.3-.4.5-.9.9-1.2 3.6-2.8 7.5-4.8 11.9-5.9.7-.2 1.3 0 1.6.7 1.2 2.5 3 4.7 4.6 7 1.9 2.5 4.5 2.4 6-.4 1.1-2 2.5-3.7 4.2-5.3.6-.6.9-.5 1.4.2 1.6 2.6 3.2 5.2 4.8 7.7 1 1.5 2.2 2.6 4.1 2.7.7 0 1.2-.2 1.6-.9.7-1.4 1.7-2.7 2.9-3.8 3.3-3 6.4-6.1 9.9-8.8 2.3-1.7 4.5-3.5 6.8-5.3.4-.3.7-.6 1.2 0 3.1 4.5 6.1 9.1 8.8 13.8.8 1.3 1.9 2.1 3.3 2.5 1.3.4 2.1 0 2.6-1.1.6-1.1 1.3-2.2 2-3.2 2.9-4.3 6.5-7.9 11-10.6.5-.3 1.1-1 1.6.1 1.5 3.4 3.9 6.2 5.9 9.2.7 1.1 1.5 1.9 2.6 2.6s2.4.6 3.2-.3c1-1.1 1.8-2.3 2.7-3.5 1.9-2.2 3.9-4.3 6.5-5.7.5-.3 1.1-.7 1.5.2.9 2 2.4 3.6 3.7 5.3 1.1 1.4 2.5 2.2 4.3 2.3.4 0 .8 0 1-.3.6-1.1 1.7-1.7 2.6-2.5 4.2-3.8 9.2-6.3 14.3-8.5 1-.4 1.6-.2 2.2.6.4.6 1 1.1 1.6 1.6 1.8 1.6 3.6 3.2 5.4 4.8 1.4 1.3 2.5 2.9 4.2 3.9 1.3.7 2.2.7 3-.5 1.9-2.7 3.4-5.5 5-8.3.5-.8.9-.9 1.6-.5 2.6 1.3 5 2.9 7.4 4.7 2.6 1.9 5.1 3.9 7.6 5.8 3.2 2.4 6.7-1.8 8.7-3.7 1.8-1.7 3.6-3.4 5.4-5.2 1-1 1.2-1 2.1.2 1.1 1.5 2.1 2.9 3.2 4.4 1.5 2 3.1 4 4.3 6.3 1 2 3.3 2 4.7.2.3-.4.5-.8.7-1.2 1.1-2.1 2.4-4.1 3.7-6.1.8-1.2 1.1-1.3 2.1-.2 2.1 2.2 4.4 4.3 6.2 6.8 2 2.6 3.9 2.8 5.5-.8.3-.6.6-1.2 1-1.8 2.3-4 5.3-7.4 7.8-11.2.6-.9.9-.6 1.4 0 3.5 4.1 6.7 8.4 10.1 12.6.7.9 1.5 1.6 2.3 2.3 1.2 1 2.4.9 3.4-.3 2.3-2.4 4.6-4.8 6.9-7.2 1.2-1.2 1.7-1.2 2.8.1 1.9 2.3 3.3 5 4.7 7.6.7 1.4 1.8 2.3 3.2 2.4 1.3.1 2.3-.8 2.9-2.1 2.1-4.6 5.2-8.4 8.4-12.3.5-.6.9-.7 1.5 0s1.2 1.4 1.9 2.1c2.1 1.9 3.7 4.2 5.5 6.4.8 1.1 1.8 2 2.9 2.8.9.6 1.9.7 2.7-.1.5-.5 1-1 1.4-1.6 1.7-2.5 3.8-4.4 6.5-5.9 1.2-.7 1.9-.3 2.6.5 2.5 2.9 4.9 5.9 6.9 9.2.4.6.9 1 1.4 1.4 1.3.9 3.7.3 4-1.1.3-1 .8-1.9 1.4-2.7 1.4-2.1 3.1-4 4.8-5.9 2.2-2.3 4.1-4.9 6.1-7.4.9-1.1 1.2-1.1 2 .1s1.6 2.4 2.5 3.5c2.7 3.3 5.2 6.7 8 10 1.9 2.2 4.5 2.6 5.9-.6 1.8-4.1 4.9-7.3 8.4-10.1.6-.5 1.1-.6 1.6.1 1.1 1.4 2.3 2.8 3.5 4.1 1.6 1.8 2.8 4 4.9 5.3 1.5.9 3.7 1 4.3-1.3 1-3.8 3.2-6.8 6-9.4 1.3-1.2 1.4-1.2 2.4.2 3 4 7.1 6.9 11.2 9.4 1.5.9 2.9.7 3.7-1 .4-.8.8-1.5 1.3-2.2.7-1.1 1.5-2.1 2.3-3.1v-8.8c-1.8 2.1-4.2 4.4-6.2 7.1z" opacity=".1"/><path d="m415.1 119.5c-.8-1.4-3.7-1.6-4.1-.2-.5 1.4-1.4 2.6-1.9 3.9-.9 2.2-2 4.3-2.8 6.5-.3.8-.6 1.1-1.5.4-3.3-2.8-6.9-5.3-9.9-8.6-.4-.4-.8-.8-1.4-1-2.4-.7-4.6-.4-6.4 1.2-2.7 2.4-5.2 5.1-7.4 8-.5.7-.8.7-1.2 0-1.7-2.4-3.5-4.7-3.7-7.8-.2-1.8-2.8-2.8-4.2-1.9-4.9 3.1-8.8 7.1-12.1 11.9-.5.8-.8.8-1.4.1-2.5-3.3-4.7-6.7-5.8-10.7-.6-1.9-3.3-3-4.8-1.8-.9.6-1.4 1.6-2.1 2.5-2.2 2.7-4 5.6-5.9 8.5-.6.9-1 1-1.6.1-1-1.4-2.2-2.7-3.2-4.1-1.1-1.4-1.8-3-2.7-4.5-.9-1.6-4.3-1.7-5-.5-1.6 2.5-3.3 4.8-5.1 7.2-1.1 1.5-1.2 1.5-2.4 0-1.8-2.4-3.7-4.8-5.5-7.2-1.1-1.4-2.6-1.4-4.2-1.1-1 .2-.9 1.1-1.3 1.8-.1.3-.2.5-.4.7-1.5 2-2.6 4.3-4 6.3-.3.4-.4 1.1-.9 1-.4 0-.5-.7-.7-1.1-2-4-4.3-7.7-6.5-11.5-.9-1.6-3.1-1.9-4.6-.8-.9.7-1.7 1.4-2.6 2-2.8 2-5 4.6-7.4 7-.1-.4-.4-.8-.8-1.1-1.9-1.3-3.4-3.1-4.8-4.9-1.3-1.6-2.3-3.5-3.7-5-1.3-1.4-2.5-1.5-4-.4-1 .8-1.7 1.8-2.5 2.7-2.8 3.4-6.1 6.4-9.1 9.6-.4.4-.7.4-1.1 0-2.4-3.2-5-6.3-6.7-9.9-.4-.9-.7-1.8-1.2-2.7-.7-1.3-2.2-1.6-3.4-.6-.6.5-1.2 1-1.9 1.3-2.8 1.3-5 3.4-7.2 5.3-2.3 2-4.7 4.1-6.7 6.4-.4.5-.9.8-1.4.1-1.3-2-2.9-3.7-4.1-5.8-1.1-2.1-2.1-4.2-2.7-6.4-.2-.8-.8-1.3-1.6-1.5s-1.5.2-1.7.8c-.5 1.3-1.7 2.1-2.6 3-2.4 2.5-4.6 5.1-6.8 7.7-1 1.1-1.3 1.2-2.4.2-2.8-2.5-5.4-5.3-7.7-8.2-.6-.7-1.1-1.5-1.8-2.2-1.4-1.4-2.9-1.1-3.6.8-.2.5-.4 1.1-.7 1.6-2.7 4.7-6 9-9.1 13.5-.6.8-1.1.9-1.9.3-5-3.5-9.4-7.8-14-11.9-1.7-1.6-3.2-3.4-5.2-4.6-.8-.4-1.6-.7-2.4 0-1.1 1-2.2 2-3.2 3-2.6 2.5-4.9 5.4-7.9 7.5-1.8 1.2-1.7 1.2-3.3-.3-2.9-3-5.9-5.9-9.6-8-.9-.5-2-.6-2.6.1-1.1 1-2.3 1.6-3.4 2.5-2.4 1.8-4.5 3.9-6.8 5.8-1.7 1.4-3.5 2.7-5.3 3.9-.5.3-1 .4-1.5-.2-2-2.7-4.7-4.9-6.8-7.5-.6-.7-1.2-1.5-2.1-2.1-1.4-.9-2.3-.8-3.1.7-.9 1.5-2.1 2.8-3.4 4-2.5 2.1-4.9 4.2-6.9 6.8-.3.4-.5.5-.9 0-2.5-3.1-4.9-6.2-5.9-10.2-.4-1.5-2.9-2.4-4.3-1.6-2.5 1.5-4.6 3.4-6.2 5.8-.8 1.1-1.6 2.1-2.5 3.3-.3-.4-.5-.8-.7-1.2-.6-1.6-.8-3.3-.9-5.1-.1-2.1-2.2-3.7-3.8-3.1-2.5 1-4.9 2.1-7.2 3.3-3.6 1.9-6.7 4.6-9.8 7.3-1 .9-1.2.8-1.5-.5 0-.2 0-.3-.1-.5-.3-1.7-.3-3.3-.2-5 .1-1.8-.5-2.3-2.1-3-1.2-.5-1.8.3-2.6.8-2.2 1.4-4.6 2.4-7 3.6-2 1-3.7 2.2-5.2 3.8-1.1 1.3-2.2 2.7-2.9 4.2-.2.5-.6 1.1-1.1.3-.9-1.3-2.2-2.4-3.2-3.7-1.9-2.4-3.8-4.9-4.7-8-.4-1.5-2.9-2.1-4-1.2-2 1.6-3.7 3.4-4.8 5.8-1.1 2.1-2.2 4.1-3.2 6.2-.3.5-.6.7-1.2.3-1.8-1.1-3.6-2.1-5.3-3.2v4.9c2.3 1.4 4.7 2.6 7.2 3.9.8.4 1.5.3 2.1-.4.7-.7 1-1.6 1.3-2.5.9-2.7 1.9-5.4 3.5-7.8 1-1.7 1.3-1.6 2.4.1.2.3.5.7.7 1 3.2 3.9 6.7 7.7 10.3 11.3.5.5 1 .8 1.6.6.7-.3 1.2-.7 1.4-1.5 1.5-6.3 5.4-10.6 11.4-13.1.5-.2.8-.2.9.5.5 2.1.9 4.1 1.6 6.2.6 1.8.4 3.9 2.2 5.3 1.2.9 2.3.8 2.9-.5 3.2-6.7 8.7-10.7 15.3-13.6.6-.2.9-.1 1 .5.3 2.5 1.7 4.7 2.4 7.1.5 1.5.6 3 1.9 4.2 1.2 1.1 2.5 1.2 3.2-.3.6-1.4 1.3-2.7 2.1-4 1.3-2.2 2.5-4.4 4.4-6.2.7-.7 1.1-.6 1.5.2 1.7 3.7 4.5 6.6 6.7 9.9 1.5 2.3 3.2 2.5 5.3 1.1.6-.4 1.4-.8 1.8-1.4 1.9-2.7 4.5-4.6 6.8-6.8 2.9-2.7 3.1-2.6 5.7.2 1.5 1.6 2.5 3.6 4.1 5.1.7.6 1.5 1.1 2.1 1.8.7.7 1.7.6 2.6.7.7.1.5-.8.9-1 .3-.2.5-.4.7-.7 1.7-1.6 3.5-3.1 5.1-4.9 2.1-2.3 4.7-4.2 7.4-6 1.8-1.2 3.3-1.1 4.9.3.2.2.4.4.6.6 2.7 2.2 4.9 4.9 7.3 7.4 1.5 1.6 2 1.6 3.6.1.3-.3.7-.6 1.1-.8 1.7-1.4 3.4-2.9 4.9-4.6 1.5-1.8 3.1-3.6 5.1-5 1.3-.8 1.6-.9 2.8.1 3.2 2.8 6.3 5.7 9.5 8.5 3.2 2.9 6.7 5.4 10 8.1.9.8 1.6.5 2.3-.3 2.1-2.6 3.6-5.6 5.3-8.4 1.6-2.6 3.3-5.1 5.1-7.5.5-.7.9-.5 1.3 0 .7 1.1 1.6 1.9 2.5 2.8 2.6 2.6 5 5.6 8.2 7.6.7.4 1.4.8 2 .3 1.1-.9 2.3-1.8 2.9-2.9 1.5-2.8 3.8-5 5.7-7.5.8-1.1 1-1 1.6.2 2.2 4.1 5.1 7.8 7.8 11.6 1.3 1.8 2.1 1.7 3.6.1 2.1-2.4 4.1-4.8 6.3-7 2-2 3.9-4.3 6.6-5.6 2.4-1.1 2.4-1.2 3.9 1.1 0 .1.1.1.1.2 2.3 4 5.4 7.4 8 11.2 1.1 1.6 2.2 1.8 3.6.3 2.6-2.8 5.2-5.5 7.4-8.5 1.1-1.4 2.4-2.6 3.6-3.9.5-.5 1-.5 1.4 0 2.6 3.1 5.3 6 8.2 8.8.2.2.4.5.6.7.5.7 1.1 1.2 2.2 1.2 1-.1 1.8-.6 2.4-1.3 2.9-2.7 5.6-5.6 9-7.8.4-.3.8-.6 1.2 0 2 3.1 3.8 6.2 4.9 9.7.6 2 1.2 4.1 2.2 6 .6 1.1 1.3 2.4 2.8 2.2s2-1.3 2.5-2.7c1.1-3.7 3-7 5.1-10.2.5-.8.9-.6 1.4 0 1.2 1.6 2.4 3.1 3.6 4.6s1.7 3.4 3.3 4.7c1.4 1 2.9.9 3.8-.6 1.6-2.6 3.2-5.3 5-7.8.5-.7.8-.8 1.4 0 .9 1.3 1.9 2.5 2.9 3.6 1.8 2.1 3.3 4.5 5.4 6.4 1.5 1.4 3.2 1 4-.9 1.5-3.6 3.5-7 5.8-10.2.5-.7.9-.7 1.3 0 2 3.5 4.6 6.7 7 9.9.8 1.1 1.9 2 3.3 2.4.7.2 1.2.1 1.6-.7 1-1.7 1.7-3.6 2.8-5.3 1.9-2.7 3.6-5.5 6.1-7.6 1.1-.9 1.1-.8 1.8.4 2.2 3.6 4.3 7.4 7.4 10.4 1.3 1.2 2.7 1.1 3.3-.5.9-2.2 2-4.3 3.2-6.3 1.4-2.4 3.3-4.3 5.7-5.5.5-.3 1-.3 1.4.2 1.6 2 3.7 3.4 5.6 5.1 2.5 2.2 5.3 3.9 7.7 6.1.4.4 1.1.7 1.6.8.9.2 1.7-.2 2-1.1.3-.8.5-1.7.7-2.6.7-2.5 1.5-4.9 2.5-7.3.2-.4.4-1 1-.4 2.9 2.5 6.1 4.8 9.3 7 .7.5 1.5 1 2.2 1.4v-4.9c-3.9-2.4-7.6-5.1-10-9.3z" opacity=".1"/><path d="m422.9 202.7c-2.4-3.3-4.9-6.7-6.8-10.4-.6-1.1-1.2-2.2-2-3.2-1.5-1.8-3.4-1.6-4.5.3-.4.7-.8 1.3-1.2 1.9-1.6 2-3.2 4-4.9 5.9-1.6 1.9-1.3 2.1-3.4.1-.1-.1-.1-.1-.1-.2-2.2-2.1-3.9-4.6-6.2-6.6-1.5-1.3-2.7-.9-3.7.7-1.9 3.3-4 6.3-6.3 9.3-.5.7-.8.6-1.2-.1-.6-1.1-1.2-2.1-2-2.9-1.6-1.7-2.5-4-4.9-5-1.3-.5-2.2-.4-3 .5-1.2 1.3-2.4 2.6-3.5 3.9-1.3 1.6-2.7 3.1-4.2 4.6-.7.7-1.5 1.4-2.3 2.1-.5-.9-1.1-1.7-1.8-2.5-2.1-2.2-4.1-4.4-6.5-6.3-2.3-1.7-3.6-1.4-5.3.8-2.5 3.4-5.2 6.8-7.7 10.2-.6.8-1 .5-1.5-.1-2.1-2.3-4.1-4.8-5.5-7.6-.7-1.5-1.7-2.8-2.6-4.2-1.2-2-3.1-2.2-4.8-.7-3.4 3.1-6.9 6.2-10.5 9.2-.8.7-1.4.7-2.1 0-3.3-3.1-6.8-6-9.6-9.6-2.2-2.8-4.4-2.7-6 .5-1.1 2.1-2.4 4.1-3.6 6.2-.5.9-.9 1-1.8.4-3.6-2.4-6.7-5.4-10-8.2-1.3-1.1-2.7-2.2-4.4-2.5-1.6-.3-3.1.3-4.5.9-2.8 1.2-4.9 3.2-6.9 5.4-1.3 1.4-2.6 2.8-4 4.1-.9.8-1.4.6-2.1-.2-2.4-2.5-4-5.4-5.2-8.6-.4-1-.8-2-1.7-2.8-1.2-1.2-2-1.3-3.5-.3-3.5 2.2-6.5 4.9-9.4 7.9-.5.5-1.1 1-1.6 1.4-.9.8-1 .7-1.5-.4-1-2.4-1.7-4.9-2.2-7.4-.2-.9-.3-1.7-.5-2.6-.3-1.6-1.5-2.5-2.7-3.4-.2 0-.5 0-.8 0-2.6 1.4-5.2 2.8-7.7 4.3-6.7 3.9-12.9 8.5-18.8 13.5-.8.7-1.4.6-2 0-2.9-3-5.4-6.3-7.1-10.1-.7-1.5-1.3-3.1-2.2-4.5-1.4-2.1-3.2-2.7-4.6-1.2-1.4 1.6-2.8 3-4.1 4.6-2.2 2.8-4.4 5.7-6.6 8.6-.5.7-.9.8-1.4 0-1.5-2.2-2.9-4.5-4.1-6.9-.8-1.7-2.1-3.1-3.5-4.3-.8-.7-1.6-1.3-2.8-1.1-3.5.8-6.6 2.4-9.5 4.4-2.6 1.8-4.9 4-7.2 6.3-.6.6-1.2 1-1.9.2-1.8-1.8-3.7-3.6-4.9-5.8-.6-1.1-1.5-2-2.6-2.8-.6-.4-1.2-.6-1.9-.2-1.4.6-2.7 1.3-3.9 2.3-2 1.7-4 3.5-5.9 5.4-1.1 1.2-1.1 1.1-2.2 0-1.9-1.9-3.4-4.1-5-6.2-1.3-1.7-2.3-3.5-4.1-4.7-1-.6-1.9-.8-3-.2-2.6 1.5-4.8 3.3-6.7 5.5-3.1 3.8-6.3 7.5-9.5 11.2-.7.7-1.1.9-1.8.1-3.8-3.7-7.3-7.8-10.7-11.9-1.3-1.6-2.6-3.2-4.5-4.2-.9-.5-1.7-.6-2.5.1-2.6 2.1-5.3 4.1-7.8 6.3-3.2 2.7-6.3 5.6-9.1 8.8-.8.9-1.4.7-2.2 0-2.8-2.4-5.4-5-7.9-7.7-.9-1-1.8-1.9-3-2.6-1.5-.9-2.3-.8-3.5.3-1.9 1.7-3.6 3.6-5.3 5.5-.6.8-1.1.8-1.7 0-1.2-1.5-2.1-3.2-3.3-4.7-1.3-1.8-3.3-2.6-5.1-.5-2.5 2.9-4.7 5.9-7.3 8.7-.5.6-.9.7-1.3 0-1.8-2.9-4.3-5.4-5.7-8.7-.3-.6-.8-1.2-1.2-1.8-1.4-1.7-3-1.7-4.3 0-.9 1.1-1.8 2.2-2.7 3.3-2.6 3.4-5.2 6.8-8 10.1-.2.2-.3.4-.5.5v7.2c.9.2 1.6-.2 2.4-1.3 2.1-2.7 4.1-5.4 6.1-8.1 1.2-1.6 2.4-3.2 3.7-4.7.5-.6 1-1.1 1.7-.2 2.2 2.9 4.5 5.8 6.4 8.9.6 1 1.4 1.7 2.4 2.3 1.5.9 2.5.7 3.3-.9.7-1.4 1.5-2.7 2.5-3.9 1.4-1.8 2.8-3.8 4.5-5.3.5-.4.6-.4.9 0 2 2.2 3.7 4.7 6.3 6.3 1.3.8 2.5.7 3.2-.7.9-1.7 2-3.3 3.2-4.8 1.5-2 2.4-2.1 4.1-.3 3.3 3.4 6.6 6.7 10.6 9.5 1.9 1.3 2.8 1.3 4.2-.6 4.3-5.9 9.6-10.7 15.8-14.5.5-.3.8-.3 1.1.1.8 1 1.7 1.9 2.5 2.9 3.9 4.9 8.3 9.3 12.9 13.6 1.4 1.3 2.7 1.1 3.8-.4 3-4.2 6.2-8.2 9.4-12.2 1.3-1.5 2.6-3 4.2-4.2 1.8-1.3 1.9-1.2 3.1.4 3.1 3.9 6 7.9 9.8 11.2 1.3 1.1 2.9 1.1 3.7-.3.5-.9 1.2-1.8 1.9-2.6 1.9-1.9 3.3-4.4 6.1-5.5.6-.2.7-.1 1 .2 2.5 3.4 5.5 6.2 8.9 8.6 1.4 1 2.8.9 3.7-.5.9-1.3 2-2.5 3-3.7 2.8-3 6-5.4 9.8-7 2-.9 2.2-.8 3.3 1.1.4.6.7 1.2 1 1.9 2 3.7 4.5 7 7 10.4 1.6 2.1 3.6 1.2 4.6-.5 1.4-2.5 2.7-5.1 4.4-7.4 1.4-1.8 2.5-3.8 4.3-5.2.6-.5 1.1-.7 1.6.3 1.2 2.2 2.4 4.5 4 6.5 2.3 2.9 4.7 5.7 7.4 8.2 1.6 1.5 2.9 1.5 4.2-.2 2.1-2.7 4.7-4.9 7.3-7.1 3.2-2.7 6.7-5 10.3-7.2 1.4-.8 2.7-1.6 4.1-2.4 1.3-.7 1.6-.5 2 .8.3 1 .6 2 .9 3 1.3 3.6 2.5 7.2 4.8 10.4 1.1 1.5 2.9 1.6 3.9.1 1.5-2.3 3.3-4.5 5.2-6.5 1.5-1.6 3-3.2 5.1-4 .5-.2.8-.1 1 .4 1.5 3.3 3.8 6.2 6.2 8.9 1 1.2 2.2 2.2 3.5 3 1.1.7 2.4.4 3.2-.5 1.5-1.8 3.1-3.5 4.6-5.3 1.8-2.2 4-3.9 6.5-5.3.9-.5 1.7-.6 2.6 0 1.7 1 3.3 2 4.7 3.3 3.3 3.1 7.1 5.6 10.8 8.3 1.3 1 2.8.5 3.6-.9 1.1-2.1 2.1-4.3 3.3-6.4.8-1.4 1.1-1.4 2.2-.4 3.5 3.3 7.1 6.7 10.6 10 1.2 1.1 2.6.9 3.8-.2 3-3 6-6 9.1-9 1.3-1.3 1.7-1.2 2.7.3 1.6 2.4 3.1 4.9 4.9 7.1 1.6 1.9 3.4 3.7 5 5.6.9 1.1 2.8 1.1 3.6-.1.8-1.1 1.4-2.2 2.1-3.3 1.7-3.1 3.8-5.9 6-8.6.5-.6 1-.8 1.7-.1 1.9 1.8 4 3.5 5.6 5.7.5.7 1 1.2 1.5 1.4.8 1.1 2.5 1.4 3.7.3 3.6-3.2 6.6-7 10.3-10.1.9-.7 1.2-.9 2 0 1.9 2.1 3.7 4.3 5.1 6.9 1.6 2.9 3.8 3.1 5.5.2 1.7-3 3.9-5.7 5.8-8.6.4-.7.9-.8 1.5-.2.7.8 1.5 1.6 2.2 2.3 1.9 1.8 3.3 4 5.6 5.3 1.7 1 2.4 1 3.6-.6 1.9-2.6 3.7-5.3 5.9-7.7.9-1 1-1 1.8.1 1.8 2.5 3.5 5 5.4 7.5 1.5 2 2.8 4.3 5.1 5.7.5.3.9.5 1.3.6v-7.2c-1.1.7-1.3.6-2.1-.5z" opacity=".1"/><path d="m422.2 257.6c-.5 1-1 1.9-1.9 2.6-2.2 1.7-4.2 3.6-6.4 5.3s-4.5 3.2-6.9 4.6c-.5.3-.9.3-1.2-.2-2.6-3.6-5.6-6.9-7.4-11-.7-1.7-2.3-2.2-3.9-2.4-.7-.1-1.3.2-1.7.8-.7 1-1.6 1.8-2.5 2.5-3 2.3-5.9 4.7-8.9 6.9-1.3.9-1.4 1-2.3-.2-1.6-2.2-3.3-4.3-4.6-6.8-.5-.9-1-1.7-1.6-2.5-1.5-2-4.1-2.1-5.8-.2-1.3 1.4-2.3 3-3.6 4.3-2.2 2.2-4.5 4.3-7.1 6-.9.6-1.3.4-1.6-.6-.3-.8-.3-1.7-.8-2.5-1.3-2-2-4.2-2.9-6.3-.7-1.5-1.5-2.9-2.7-4.1-1.6-1.7-4.3-1.7-5.7.1-2.5 3.1-5.4 5.7-8.5 8.1-1.2.9-2.2 2-3.3 3-1.2-1-2.3-2.1-3.4-3.2-2.8-3.1-6.2-5.4-9.5-8-1.3-1-2.5-.8-3.4.4-.3.4-.7.6-1.1.8-3.2 2.2-6.8 3.7-9.9 5.9-1.1.8-2.4 1.5-3.6 2.2-.9.6-1.4.3-1.9-.6s-.9-1.9-1.5-2.7c-1.7-2.4-3.2-5-5.7-6.8-1-.7-2.5-.5-3 .6-.6 1.4-1.9 2.2-3 3-3.7 2.9-7.4 5.7-11.1 8.6-1.3 1-2.6 1.9-3.9 2.9-.4.3-.8.5-1.2 0-1.4-1.7-3-3.2-4.2-5-.9-1.3-1.7-2.8-2.7-4-1.3-1.5-2.7-1.8-3.8-.8-.6.5-1.3 1-2 1.5-3.9 2.7-7.8 5.5-11.7 8.2-.6.4-1.1.5-1.5 0-.8-1-1.8-1.8-2.5-2.9-.9-1.5-1.5-3.1-2.3-4.7-.7-1.2-1.6-2.2-2.8-2.9-.9-.4-1.7-.4-2.3.3-1.3 1.5-3 2.5-4.4 4-2.4 2.6-4.8 5.1-7.2 7.7-.6.7-1 .6-1.5-.1-1.6-2.3-3.4-4.5-4.7-7-.6-1.1-1.3-2.1-2.3-2.9-1-.7-2.1-1.4-3.3-.5-1.8 1.2-3.7 2.3-5.6 3.5-2.3 1.5-4.4 3.2-6.6 4.9-1.8 1.4-3.4 2.9-5.2 4.3-.4.3-.7.6-1.3.1-3.5-3.3-7.3-6.4-9.9-10.6-.6-.9-1.4-1.5-2.3-2-1.9-1-2.9-.7-3.8 1.3-1.2 2.6-2.9 4.8-4 7.4-.3.7-.8.8-1.4.1-1.7-1.8-3-3.8-4.2-6-1.3-2.5-3.2-3.2-5.7-1.8-2.8 1.5-5.6 3-8.5 4.4-3 1.5-6 3-8.5 5.3-.7.7-1.3 1.8-2.3 1.8s-1.7-1.1-2.4-1.8c-2.7-2.2-5.4-4.5-7.1-7.6-.3-.6-.8-1.2-1.3-1.6-2-1.3-3-1.3-4.4.3-2.5 2.8-5 5.7-7.3 8.7-1.6 2.1-1.7 2.1-3.4.2-.1-.1-.1-.1-.2-.2-2.2-2.6-4.7-4.9-6.4-7.9-.6-1-1.1-1.9-2-2.7-1.6-1.4-3.3-1.1-4.4.8-.6 1-1.2 1.9-1.9 2.7-3.1 3.6-6.4 7.1-9.4 10.8-2 2.4-1.5 2.5-3.7.1-4.8-5.2-9.3-10.7-13-16.9-.7-1.2-1.9-1.7-3.2-1.8-1.2-.1-1.7.7-2.1 1.7-.1.3-.3.5-.5.7-3.5 4.3-7.3 8.4-11 12.5-1.6 1.8-1.7 1.7-3-.4-1.7-2.5-3.3-5.1-5-7.6-1.7-2.4-4-2.5-5.7-.2-.4.5-.8.9-1.2 1.3-2.2 1.9-4.5 3.7-6.7 5.5-1.4 1.2-1.3 1.2-2.4-.3-1.8-2.5-3.7-5-5.7-7.4-1-1.2-3.3-1.4-4.2-.6-.5.4-.4 1.1-.7 1.6-2.2 3.2-3.8 6.8-6.4 9.8-.8.9-1.1.9-1.8 0-2.9-4.2-6.3-8-9.5-12-1.1-1.4-2.3-2.8-4.2-3.1-.1 0-.2 0-.3-.1v6.4c.5-.1.9.1 1.4.6 5 4.8 8.5 10.8 12.7 16.2.6.7 1.1 1 2 .9 1.5-.1 2.2-1.3 2.8-2.4 1.8-3.4 4.1-6.6 5.8-10.1.4-.9.9-.8 1.5-.2.2.2.4.4.6.7 2.1 2.5 4 5.1 6.3 7.5 1.2 1.2 2.7 1.3 3.6.1 2.5-3.3 5.5-6.1 8.7-8.7.5-.4.8-.4 1.2.1.9 1.2 1.7 2.3 2.6 3.5 1.9 2.5 3.1 5.5 5.2 7.8 1.8 2 3.4 1.9 4.6-.5.8-1.7 1.8-3.3 2.9-4.8 2.6-3.6 5.6-7 8.6-10.3.7-.8 1-.7 1.6 0 2.4 3.1 5.1 6.1 7.6 9.2 2.7 3.4 5.8 6.4 9 9.5 1.7 1.6 2.9 1.4 4.2-.5 3.1-4.9 6.2-9.9 10.2-14.2 1.4-1.4 1.6-1.5 2.9.1l.1.1c2.8 3.3 5.6 6.6 8.5 9.9.8.9 1.5 1.9 2.6 2.5 1.2.7 1.9.6 2.6-.6.7-1 1.2-2.1 1.8-3.1 1.5-2.9 3.2-5.7 5.5-8.1.4-.4.7-.9 1.4-.2 3.8 3.9 7.9 7.3 11.9 10.9 1.9 1.7 3 1.5 4.4-.7 1-1.7 2.1-3.3 3.7-4.5 3.8-2.9 8.1-5.1 12.2-7.4.8-.4 1.2-.2 1.7.5 2.4 3.7 5.4 6.8 8.3 10 1.2 1.3 2.4 1.2 3.6-.1.8-.9 1.1-1.9 1.5-3 .7-2 1.4-3.9 2.3-5.8.3-.7.6-1.1 1.3-.2.6.7 1.3 1.3 2 1.9 3.2 2.9 6.1 6.1 9.7 8.5 3 2 3.4 1.8 5.7-.9 3.8-4.2 8.1-8 13.1-10.7.8-.4 1.3-.3 1.9.4 2.6 3.5 5.3 6.9 7.9 10.4 1.5 2 3.2 2.1 4.7.1.2-.3.4-.5.6-.8 2.4-3.8 5.5-7 8.4-10.3.5-.5 1-1.3 1.7-.1 2.1 3.8 5.2 6.7 8.7 9.2 1.8 1.3 3.2 1 4.3-.9.5-.9 1.1-1.5 1.8-2.2.9-.8 2-1.4 3.1-2.1l5.4-3.9c.6-.4 1.2-1 2 0 2.6 3.3 5.6 6.2 8.4 9.4 1.7 1.9 3.1 1.4 4.6-.3.8-.9 1.6-1.9 2.5-2.8 4.3-4.1 8.9-7.6 13.5-11.4.7-.6 1.3-.5 1.9.2 1.5 1.7 2.4 3.8 3.5 5.7.7 1.2 1.3 2.5 2.3 3.5.7.8 2.2 1.1 3.1.6 2.8-1.5 5.6-2.9 8-4.9 2.2-1.8 4.6-3.3 7-4.7 1.5-.9 2.6-.7 4 .2 3.8 2.5 7 5.7 10 9.1.8.9 1.9 1.1 3 .5.5-.3.9-.7 1.2-1.2.3-.2.5-.4.7-.6.9-1 2-2 3.1-2.9.9-.8 2.1-1.3 2.9-2.2 1.3-1.3 2.6-2.5 4.1-3.6.6-.5.8-.3 1.3.1 2.6 2.7 4.2 6.1 6.2 9.3.5.8.6 1.8 1.2 2.4.8.8 1.9 1.5 3 2 1.8.8 3.4.8 4.9-.9 3.2-3.4 6.7-6.4 10.3-9.3.7-.5 1.1-.6 1.6.1 1.8 2.4 3.5 4.8 5.1 7.4.5.9 1.2 1.7 2 2.3.8.7 2.6.7 3.2-.1.9-1.2 2.1-2 3.1-3 2.7-2.6 5.5-5.2 8.6-7.3.5-.3.8-.5 1.2.1 2.3 3.5 5 6.7 7.4 10.1 2 2.8 3.4 3.4 6.8 1.4.6-.3 1.1-.8 1.6-1.2 4.3-3.6 8.6-7.1 12.9-10.7.3-.2.5-.4.7-.4v-6.4c-1.6-.2-2.2 0-2.8 1.2z" opacity=".1"/><path d="m423.3 341.5c-2.4 2.4-4.8 4.8-6.9 7.4-1 1.2-1.1 1.2-1.7-.2-2-4.2-4.9-7.9-7.1-11.9-.1-.2-.3-.4-.4-.6-1.5-1.8-2.9-2-4.7-.6-.4.3-.9.6-1.4.9-2.1 1.3-4.2 2.6-6.1 4.1-3.3 2.5-6.4 5.2-10 7.2-.5.3-.8.2-1.1-.2-.8-1.1-1.6-2.1-2.3-3.2-2-3-4.5-5.7-6.2-8.9-.6-1.2-1.8-1.7-2.9-2.2-1.2-.5-1.9-.1-2.5 1.1-.1.3-.4.6-.6.9-2.1 2.8-4.6 5.2-6.7 7.9-.8 1.1-1.9 2.1-2.8 3.1-.5.6-.7.4-1-.2-.7-1.6-1.5-3.1-2.3-4.7-1.6-3.4-3.8-6.4-5.2-9.9-.6-1.6-1.9-2.4-3.5-2.8-.5-.1-1-.2-1.3.3-.9 1.4-2.4 2.1-3.5 3.3-2.9 3.2-6.4 5.7-9.5 8.6-.2-.2-.4-.3-.6-.5-2.6-2.1-5-4.3-7.4-6.6-1.7-1.6-3.3-3.3-5.4-4.4-.9-.5-1.6-.5-2.4.2-.9.9-1.8 1.7-2.7 2.6-2.6 2.7-4.4 6.1-6.4 9.2-1.3 2-1.5 2-3.1.2-2.1-2.5-4.3-4.9-6.3-7.5-1.5-2-3.3-2.1-5.2-.7-.2.1-.4.3-.6.4-2.3 2.1-4.7 4.2-6.9 6.4-1.9 1.9-3.3 4.1-5.2 5.9-.7.7-1.1.6-1.6-.2-1.7-2.4-3.4-4.9-4.8-7.6-.9-1.9-1.6-3.9-2.7-5.7-.9-1.4-2.6-2.3-3.8-1.9-.9.3-1.2 1.1-1.9 1.6-2.8 2.2-5.9 3.9-8.8 6s-6.1 3.8-8.9 6c-3.1 2.5-3.5 2.5-6.4-.3-.2-.2-.5-.4-.7-.7-1.8-2.6-4-5-5.6-7.7-.6-1.1-1.4-2.1-2.5-2.8-1-.6-1.9-.5-2.7.4-.9.9-1.2 2.2-2 3.1-2.3 2.8-4.7 5.6-6.5 8.8-.4.7-.8.8-1.3.1-2.2-2.5-3.9-5.4-5.9-8.1-.9-1.2-1.5-2.5-2.7-3.5-1.1-1-2.9-.7-3.2.6-.9 4-3.3 7.2-5.1 10.8-.5.9-.8.8-1.4.2-1.1-1.3-2.2-2.7-3.4-3.9-1.5-1.6-2.9-3.4-4.7-4.8-1.7-1.3-2.8-1-4 .8-.2.3-.4.6-.5 1-1.2 2.4-2.5 4.6-4.4 6.5-.6.6-.9.6-1.4-.1-.9-1.5-2.1-2.7-3.3-3.8-1.9-1.8-3.4-3.8-4.4-6.3-.3-.8-.8-1.4-1.4-2-1.1-1.1-1.8-1.2-3-.2-.9.7-1.6 1.6-2.5 2.3-3.9 3-7.4 6.5-10.3 10.5-.4.6-.8.5-1.1 0-.6-.9-1.2-1.8-1.8-2.7-1.7-2.9-3.7-5.6-4.7-8.9-.6-2.2-2.8-2.7-4.7-1.5-.8.5-1.6 1-2.3 1.5-2.7 2-5.4 4-8.2 6s-5.8 3.7-8 6.3c-.5.5-.8.4-1-.2-.1-.3-.2-.5-.3-.8-1.3-3-2.3-6.2-3.9-9.1-1.4-2.6-3.1-3.2-5.2-1.2-1.1 1.1-2.3 2-3.5 3-3.9 3.2-7.7 6.5-11 10.3-.5.6-.7.3-1-.2-.9-1.7-1.9-3.5-2.9-5.2-.9-1.5-2-2.9-2.7-4.5-.5-1.3-1.4-2.3-2.4-3.2-.7-.7-1.6-.8-2.5-.3-1 .6-2 1.1-2.9 1.8-2.1 1.5-4.3 2.9-6.7 4.1-3 1.6-6.3 2.9-8.7 5.6-.7.8-1.1.1-1.4-.3-2.5-3.9-5.6-7.4-8.2-11.2-.4-.6-1-1.2-1.6-1.6-.8-.6-1.9-.4-2.6.3-1.9 2.1-3.8 4.2-5.8 6.1-3.2 3-6.6 5.8-9.2 9.4-.3.5-.6.5-1 0-1.1-1.2-1.8-2.7-3-3.6-3.1-2.2-5.1-5.3-7.2-8.4-.6-.8-1.4-1.4-2.3-1.9-.7-.3-1.4-.1-1.8.5-1.1 1.5-2.1 3-3.1 4.6-1.5 2.4-3 4.9-4.6 7.2-.6.9-.9.8-1.6.1-3.4-3.8-6.8-7.6-10.3-11.4-1.9-2.1-3.4-2.1-5.4-.1-.9.9-2 1.5-3 2.3-.8.6-1.6 1.1-2.3 1.7v7.9c1.9-2.1 4-4 6.4-5.6 2-1.3 1.9-1.4 3.6.2 3.9 3.8 7.7 7.7 10.8 12.2 1.4 2 3.4 1.9 4.4-.3 1.8-3.7 4-7 5.9-10.7.9-1.7 1.2-1.6 2.3 0 .8 1.2 1.7 2.3 2.9 3.2 1.4 1.1 3 1.9 3.8 3.6 1 1.9 2.4 3.4 3.6 5.1 1.3 1.9 3.4 1.9 4.5-.4 1.2-2.4 2.9-4.6 4.7-6.6 2.6-2.9 5.6-5.3 8.3-8.1 1-1.1 1.2-1 2.2 0 2.5 2.8 4.6 5.8 6.8 8.8.6.9 1.2 1.8 1.7 2.8 1.1 2.1 2.9 2.3 4.4.4.9-1.2 1.9-2.3 3-3.3 1.7-1.6 3.8-2.6 5.7-3.8 2.5-1.6 5.1-3.1 7.6-4.7.4-.3.8-.5 1.2.1 1.2 2.1 2.7 4.1 3.8 6.3 1.3 2.5 2.8 4.8 4.2 7.2 1.2 1.9 3.1 2 4.2.3 3.6-5.7 8.5-10.1 13.6-14.5.6-.5 1-.4 1.3.3.6 1.4 1.1 2.8 1.7 4.1 1.3 2.6 2.3 5.4 3.8 7.9 1 1.7 2.8 1.8 3.9.1.5-.8.8-1.7 1.3-2.4 2.2-3.4 6-5.1 8.7-8.1 2-2.2 5.1-2.8 7.2-5 .7-.7 1.3-.6 1.6.5.2.6.6 1.1.9 1.7 2.3 4.3 5.5 8 8 12.2.5.8 1.3 1.1 2.2 1.1s1-.8 1.2-1.5c.2-.4.3-.8.5-1.1 2.6-4.6 6-8.4 10.5-11.3.7-.4 1.2-.5 1.6.3 1.1 1.9 2.4 3.6 4 5 1.8 1.5 3.2 3.4 4.4 5.4.6 1 2.5 1.6 3 1.1 1.2-1.3 2.7-2.3 3.8-3.7 1.2-1.6 2-3.4 3.2-4.9.6-.8 1.1-.7 1.7-.1 2.9 2.7 5.5 5.7 8 8.8.6.8 1.4 1.3 2.3 1.7.5.3.9.1 1.3-.2 1-.6.6-1.6 1-2.3 1.3-3.1 3-6.1 4.6-9 .3-.5.6-.5.8-.1.7 1.1 1.9 1.9 2.5 3.1.9 1.7 2.1 3.1 3.3 4.6 1.3 1.7 2.7 3.1 4.8 3.7 1 .3 1.8 0 2.1-1 1.4-4.5 4.4-7.8 7.5-11.1.5-.5.9-.4 1.3.1.7 1 1.6 1.8 2.3 2.8 2.7 3.7 5.8 7 10 9 1.1.5 2 .4 2.8-.3 2.7-2.6 5.7-4.8 8.9-6.9 3.4-2.2 6.8-4.5 10.2-6.8.7-.5 1.2-.5 1.6.4.3.8.7 1.5 1.2 2.2 2.6 4.4 5.2 8.8 8.9 12.4 1.3 1.3 2.3 1.3 3.6-.1.9-1 1.8-2 2.6-3 2.7-3.5 5.4-7 9-9.7 1.5-1.1 2-1.2 3.2.2 2.9 3.3 5.9 6.6 9.6 9.1 1.5 1.1 3 .8 3.8-.9.9-2.1 2-4 3.3-5.9 1.5-2.2 2.6-4.6 4.6-6.4.7-.6 1-.5 1.5 0 3.8 3.3 7.5 6.7 11.3 10 .9.8 1.6 1 2.3.8.4-.1.9-.3 1.3-.7.5-.5.9-1.1 1.4-1.6 3.3-3.4 7.1-6.2 10.7-9.3.5-.4.8-.3 1.2.2 2 3.3 3.9 6.6 5.4 10.1 1.2 2.6 2.1 5.2 3.7 7.6 1.4 1.9 2.8 2 4.1-.1.8-1.1 1.5-2.3 2.2-3.4 2.2-3.2 4.8-6 7.2-9.1.7-.9 1.3-.9 2 0 .8 1.1 1.6 2.1 2.4 3.2 2.3 3.2 4.6 6.5 6.9 9.8 1.1 1.6 2.3 2 3.8.7 2.3-1.9 4.7-3.7 7-5.6 3.2-2.6 6.3-5.2 9.9-7.1.6-.3 1.1-.7 1.7.1 2.1 2.9 3.9 5.9 5.5 9.1 1.1 2.4 2.1 5 4.1 6.8.5 0 .9.1 1.4.1.4-.2 1-.4 1.2-.9.9-1.4 2.1-2.6 3.1-3.8 1.6-1.8 3.1-3.7 4.8-5.5v-7.9c-.4 1-1.1 1.6-1.7 2.2z" opacity=".1"/><path d="m418.7 233.3c-.4.6-1 .7-1.7.2-1.9-1.4-3.6-3-4.9-5-.8-1.3-1.6-2.6-2.4-3.9-1.2-1.9-3.4-2.4-5.2-1-3.5 2.6-6.6 5.5-9.1 9.1-.9 1.3-1.1 1.2-2 .1-1.9-2.3-3.5-4.7-5.2-7.2-1.1-1.6-3.2-1.9-4.5-.7-3.9 3.5-8.1 6.8-11.2 11.2-.4.5-.7.7-1.2.1-2.1-2.8-4.3-5.5-6.2-8.4-1.3-2-2.4-4-3.7-6-1.3-2.1-3.4-2.2-5.1-.4-.4.4-.7.9-1.1 1.3-1.9 2.6-3.7 5.3-5.9 7.7-2.1 2.4-4.5 4.6-6.5 7-.7.9-1 1-1.7 0-2.2-2.9-4.5-5.8-6.8-8.6-1.2-1.5-3.1-1.5-4.5-.2-.4.4-.9.8-1.3 1.1-2.4 1.7-5 3.2-7.2 5.2-.8.8-1.3.7-1.9-.1-2.7-3.3-5.4-6.6-8-10-2.1-2.7-4-2.5-5.7.2-.4.7-.8 1.4-1.2 2-2.4 3.4-5.2 6.5-7.7 9.8-.7.9-1.1.5-1.5-.2-1.4-2.7-3.5-4.9-5.1-7.5-1.4-2.2-3.3-2.4-5.1-.4-2.3 2.5-4.8 4.9-7.4 7.2-.9.8-1.4.7-2.1-.2-3.1-3.6-5.9-7.5-8.7-11.3-.9-1.2-1.7-2.5-2.9-3.5-1.6-1.4-3.9-.8-4.7 1.1-.3.6-.5 1.3-.9 1.9-2.6 4.2-5.7 7.9-8.7 11.8-.4.6-.8.6-1.3.1-1-1-2-2-2.9-3-1.3-1.5-2.2-3.3-3.5-4.8-1.4-1.5-4.1-1.3-4.8.6-1.1 2.9-3.3 5.1-5 7.5-.3.5-.7.5-1.1 0-.6-.8-1.3-1.6-1.8-2.5-1.7-2.7-3.2-5.5-5.2-7.9-.6-.7-1.3-1.4-2.4-1.2-.9-.1-1.7.3-2.3 1-1 1.2-2.1 2.4-3.1 3.4-2.4 2.4-4.7 4.9-7.3 7.2-2-1.3-3.7-2.8-5.6-4.2-4-3.1-8.2-6.1-12.9-8.1-2.1-.9-4.1-.1-5.3 1.8-1.1 1.7-1.8 3.7-3.1 5.3-.4.5-.7.9-1.3.3-2.4-2.2-5.1-4-6.8-6.9-.8-1.5-3-2.5-4.2-2.1-2.3.8-4.7 1.5-6.9 2.6-4.3 2.1-8.5 4.2-12.4 7.1-.9.6-1.4.4-1.8-.5-.6-1.2-1.2-2.4-1.5-3.6-.3-1.4-1.4-2-2.5-2.5-.5-.3-1.2-.7-2-.3-1.1.5-2.1.8-3.2 1.3-3.3 1.6-6.1 4-8.9 6.3-1.6 1.4-1.7 1.4-2.8-.5-1.5-2.4-2.7-4.9-4.1-7.3-1.2-2-3.3-2.6-5.3-1.6-4.1 2.1-7.7 4.8-10.9 7.9-1.4 1.3-2.7 2.9-4 4.3-.4.4-.8 1.1-1.4.2-2.4-4-5.3-7.6-7.3-11.8-1-2.2-3.2-3.5-5.7-1.8-3 2-5.9 4.3-8.8 6.6-4 3.2-8 6.4-11.8 9.8-1 .9-1.2.9-1.9-.3-1.4-2.1-2.7-4.3-3.7-6.7-1-2.3-3-2.9-5.2-1.7-.5.3-.9.6-1.4.8-2.2 1.2-3.8 3.2-5.7 4.7-.7.6-1.1.4-1.4-.3-.6-1.2-1.2-2.5-1.8-3.8-.3-.6-.6-1-1.1-1.4-1.6-1.4-3.5-1.1-5.3-.8-5.1.9-9.6 3.3-14 5.8-.9.5-1.4.4-1.8-.5-2.7-5.2-6.3-9.8-9.1-14.9-1-1.7-3-2.9-5.2-1.2-.4.3-.7.7-1.1.9-3.3 2.3-6.6 4.6-9.7 7.1v8.8c3.1-3.6 7.1-6.4 11-9.2.8-.6 1.5-.4 1.9.5.5 1 1.2 1.9 1.9 2.9 1.9 2.8 3.7 5.6 5.3 8.6 1.1 1.9 1.9 4 3.8 5.3 1.5 1.1 3.3.8 4.4-.6.3-.4.5-.9.9-1.2 3.6-2.8 7.5-4.8 11.9-5.9.7-.2 1.3 0 1.6.7 1.2 2.5 3 4.7 4.6 7 1.9 2.5 4.5 2.4 6-.4 1.1-2 2.5-3.7 4.2-5.3.6-.6.9-.5 1.4.2 1.6 2.6 3.2 5.2 4.8 7.7 1 1.5 2.2 2.6 4.1 2.7.7 0 1.2-.2 1.6-.9.7-1.4 1.7-2.7 2.9-3.8 3.3-3 6.4-6.1 9.9-8.8 2.3-1.7 4.5-3.5 6.8-5.3.4-.3.7-.6 1.2 0 3.1 4.5 6.1 9.1 8.8 13.8.8 1.3 1.9 2.1 3.3 2.5 1.3.4 2.1 0 2.6-1.1.6-1.1 1.3-2.2 2-3.2 2.9-4.3 6.5-7.9 11-10.6.5-.3 1.1-1 1.6.1 1.5 3.4 3.9 6.2 5.9 9.2.7 1.1 1.5 1.9 2.6 2.6s2.4.6 3.2-.3c1-1.1 1.8-2.3 2.7-3.5 1.9-2.2 3.9-4.3 6.5-5.7.5-.3 1.1-.7 1.5.2.9 2 2.4 3.6 3.7 5.3 1.1 1.4 2.5 2.2 4.3 2.3.4 0 .8 0 1-.3.6-1.1 1.7-1.7 2.6-2.5 4.2-3.8 9.2-6.3 14.3-8.5 1-.4 1.6-.2 2.2.6.4.6 1 1.1 1.6 1.6 1.8 1.6 3.6 3.2 5.4 4.8 1.4 1.3 2.5 2.9 4.2 3.9 1.3.7 2.2.7 3-.5 1.9-2.7 3.4-5.5 5-8.3.5-.8.9-.9 1.6-.5 2.6 1.3 5 2.9 7.4 4.7 2.6 1.9 5.1 3.9 7.6 5.8 3.2 2.4 6.7-1.8 8.7-3.7 1.8-1.7 3.6-3.4 5.4-5.2 1-1 1.2-1 2.1.2 1.1 1.5 2.1 2.9 3.2 4.4 1.5 2 3.1 4 4.3 6.3 1 2 3.3 2 4.7.2.3-.4.5-.8.7-1.2 1.1-2.1 2.4-4.1 3.7-6.1.8-1.2 1.1-1.3 2.1-.2 2.1 2.2 4.4 4.3 6.2 6.8 2 2.6 3.9 2.8 5.5-.8.3-.6.6-1.2 1-1.8 2.3-4 5.3-7.4 7.8-11.2.6-.9.9-.6 1.4 0 3.5 4.1 6.7 8.4 10.1 12.6.7.9 1.5 1.6 2.3 2.3 1.2 1 2.4.9 3.4-.3 2.3-2.4 4.6-4.8 6.9-7.2 1.2-1.2 1.7-1.2 2.8.1 1.9 2.3 3.3 5 4.7 7.6.7 1.4 1.8 2.3 3.2 2.4 1.3.1 2.3-.8 2.9-2.1 2.1-4.6 5.2-8.4 8.4-12.3.5-.6.9-.7 1.5 0s1.2 1.4 1.9 2.1c2.1 1.9 3.7 4.2 5.5 6.4.8 1.1 1.8 2 2.9 2.8.9.6 1.9.7 2.7-.1.5-.5 1-1 1.4-1.6 1.7-2.5 3.8-4.4 6.5-5.9 1.2-.7 1.9-.3 2.6.5 2.5 2.9 4.9 5.9 6.9 9.2.4.6.9 1 1.4 1.4 1.3.9 3.7.3 4-1.1.3-1 .8-1.9 1.4-2.7 1.4-2.1 3.1-4 4.8-5.9 2.2-2.3 4.1-4.9 6.1-7.4.9-1.1 1.2-1.1 2 .1s1.6 2.4 2.5 3.5c2.7 3.3 5.2 6.7 8 10 1.9 2.2 4.5 2.6 5.9-.6 1.8-4.1 4.9-7.3 8.4-10.1.6-.5 1.1-.6 1.6.1 1.1 1.4 2.3 2.8 3.5 4.1 1.6 1.8 2.8 4 4.9 5.3 1.5.9 3.7 1 4.3-1.3 1-3.8 3.2-6.8 6-9.4 1.3-1.2 1.4-1.2 2.4.2 3 4 7.1 6.8 11.2 9.4 1.5.9 2.9.7 3.7-1 .4-.8.8-1.5 1.3-2.2.7-1.1 1.5-2.1 2.3-3.1v-8.8c-1.9 2.1-4.3 4.4-6.3 7.1z" opacity=".1"/><path d="m422.2 398c-.5 1-1 1.9-1.9 2.6-2.2 1.7-4.2 3.6-6.4 5.3s-4.5 3.2-6.9 4.6c-.5.3-.9.3-1.2-.2-2.6-3.6-5.6-6.9-7.4-11-.7-1.7-2.3-2.2-3.9-2.4-.7-.1-1.3.2-1.7.8-.7 1-1.6 1.8-2.5 2.5-3 2.3-5.9 4.7-8.9 6.9-1.3.9-1.4 1-2.3-.2-1.6-2.2-3.3-4.3-4.6-6.8-.5-.9-1-1.7-1.6-2.5-1.5-2-4.1-2.1-5.8-.2-1.3 1.4-2.3 3-3.6 4.3-2.2 2.2-4.5 4.3-7.1 6-.9.6-1.3.4-1.6-.6-.3-.8-.3-1.7-.8-2.5-1.3-2-2-4.2-2.9-6.3-.7-1.5-1.5-2.9-2.7-4.1-1.6-1.7-4.3-1.7-5.7.1-2.5 3.1-5.4 5.7-8.5 8.1-1.2.9-2.2 2-3.3 3-1.2-1-2.3-2.1-3.4-3.2-2.8-3.1-6.2-5.4-9.5-8-1.3-1-2.5-.8-3.4.4-.3.4-.7.6-1.1.8-3.2 2.2-6.8 3.7-9.9 5.9-1.1.8-2.4 1.5-3.6 2.2-.9.6-1.4.3-1.9-.6s-.9-1.9-1.5-2.7c-1.7-2.4-3.2-5-5.7-6.8-1-.7-2.5-.5-3 .6-.6 1.4-1.9 2.2-3 3-3.7 2.9-7.4 5.7-11.1 8.6-1.3 1-2.6 1.9-3.9 2.9-.4.3-.8.5-1.2 0-1.4-1.7-3-3.2-4.2-5-.9-1.3-1.7-2.8-2.7-4-1.3-1.5-2.7-1.8-3.8-.8-.6.5-1.3 1-2 1.5-3.9 2.7-7.8 5.5-11.7 8.2-.6.4-1.1.5-1.5 0-.8-1-1.8-1.8-2.5-2.9-.9-1.5-1.5-3.1-2.3-4.7-.7-1.2-1.6-2.2-2.8-2.9-.9-.4-1.7-.4-2.3.3-1.3 1.5-3 2.5-4.4 4-2.4 2.6-4.8 5.1-7.2 7.7-.6.7-1 .6-1.5-.1-1.6-2.3-3.4-4.5-4.7-7-.6-1.1-1.3-2.1-2.3-2.9-1-.7-2.1-1.4-3.3-.5-1.8 1.2-3.7 2.3-5.6 3.5-2.3 1.5-4.4 3.2-6.6 4.9-1.8 1.4-3.4 2.9-5.2 4.3-.4.3-.7.6-1.3.1-3.5-3.3-7.3-6.4-9.9-10.6-.6-.9-1.4-1.5-2.3-2-1.9-1-2.9-.7-3.8 1.3-1.2 2.6-2.9 4.8-4 7.4-.3.7-.8.8-1.4.1-1.7-1.8-3-3.8-4.2-6-1.3-2.5-3.2-3.2-5.7-1.8-2.8 1.5-5.6 3-8.5 4.4-3 1.5-6 3-8.5 5.3-.7.7-1.3 1.8-2.3 1.8s-1.7-1.1-2.4-1.8c-2.7-2.2-5.4-4.5-7.1-7.6-.3-.6-.8-1.2-1.3-1.6-2-1.3-3-1.3-4.4.3-2.5 2.8-5 5.7-7.3 8.7-1.6 2.1-1.7 2.1-3.4.2-.1-.1-.1-.1-.2-.2-2.2-2.6-4.7-4.9-6.4-7.9-.6-1-1.1-1.9-2-2.7-1.6-1.4-3.3-1.1-4.4.8-.6 1-1.2 1.9-1.9 2.7-3.1 3.6-6.4 7.1-9.4 10.8-2 2.4-1.5 2.5-3.7.1-4.8-5.2-9.3-10.7-13-16.9-.7-1.2-1.9-1.7-3.2-1.8-1.2-.1-1.7.7-2.1 1.7-.1.3-.3.5-.5.7-3.5 4.3-7.3 8.4-11 12.5-1.6 1.8-1.7 1.7-3-.4-1.7-2.5-3.3-5.1-5-7.6-1.7-2.4-4-2.5-5.7-.2-.4.5-.8.9-1.2 1.3-2.2 1.9-4.5 3.7-6.7 5.5-1.4 1.2-1.3 1.2-2.4-.3-1.8-2.5-3.7-5-5.7-7.4-1-1.2-3.3-1.4-4.2-.6-.5.4-.4 1.1-.7 1.6-2.2 3.2-3.8 6.8-6.4 9.8-.8.9-1.1.9-1.8 0-2.9-4.2-6.3-8-9.5-12-1.1-1.4-2.3-2.8-4.2-3.1-.1 0-.2 0-.3-.1v6.4c.5-.1.9.1 1.4.6 5 4.8 8.5 10.8 12.7 16.2.6.7 1.1 1 2 .9 1.5-.1 2.2-1.3 2.8-2.4 1.8-3.4 4.1-6.6 5.8-10.1.4-.9.9-.8 1.5-.2.2.2.4.4.6.7 2.1 2.5 4 5.1 6.3 7.5 1.2 1.2 2.7 1.3 3.6.1 2.5-3.3 5.5-6.1 8.7-8.7.5-.4.8-.4 1.2.1.9 1.2 1.7 2.3 2.6 3.5 1.9 2.5 3.1 5.5 5.2 7.8 1.8 2 3.4 1.9 4.6-.5.8-1.7 1.8-3.3 2.9-4.8 2.6-3.6 5.6-7 8.6-10.3.7-.8 1-.7 1.6 0 2.4 3.1 5.1 6.1 7.6 9.2 2.7 3.4 5.8 6.4 9 9.5 1.7 1.6 2.9 1.4 4.2-.5 3.1-4.9 6.2-9.9 10.2-14.2 1.4-1.4 1.6-1.5 2.9.1l.1.1c2.8 3.3 5.6 6.6 8.5 9.9.8.9 1.5 1.9 2.6 2.5 1.2.7 1.9.6 2.6-.6.7-1 1.2-2.1 1.8-3.1 1.5-2.9 3.2-5.7 5.5-8.1.4-.4.7-.9 1.4-.2 3.8 3.9 7.9 7.3 11.9 10.9 1.9 1.7 3 1.5 4.4-.7 1-1.7 2.1-3.3 3.7-4.5 3.8-2.9 8.1-5.1 12.2-7.4.8-.4 1.2-.2 1.7.5 2.4 3.7 5.4 6.8 8.3 10 1.2 1.3 2.4 1.2 3.6-.1.8-.9 1.1-1.9 1.5-3 .7-2 1.4-3.9 2.3-5.8.3-.7.6-1.1 1.3-.2.6.7 1.3 1.3 2 1.9 3.2 2.9 6.1 6.1 9.7 8.5 3 2 3.4 1.8 5.7-.9 3.8-4.2 8.1-8 13.1-10.7.8-.4 1.3-.3 1.9.4 2.6 3.5 5.3 6.9 7.9 10.4 1.5 2 3.2 2.1 4.7.1.2-.3.4-.5.6-.8 2.4-3.8 5.5-7 8.4-10.3.5-.5 1-1.3 1.7-.1 2.1 3.8 5.2 6.7 8.7 9.2 1.8 1.3 3.2 1 4.3-.9.5-.9 1.1-1.5 1.8-2.2.9-.8 2-1.4 3.1-2.1 1.8-1.3 3.6-2.6 5.4-3.9.6-.4 1.2-1 2 0 2.6 3.3 5.6 6.2 8.4 9.4 1.7 1.9 3.1 1.4 4.6-.3.8-.9 1.6-1.9 2.5-2.8 4.3-4.1 8.9-7.6 13.5-11.4.7-.6 1.3-.5 1.9.2 1.5 1.7 2.4 3.8 3.5 5.7.7 1.2 1.3 2.5 2.3 3.5.7.8 2.2 1.1 3.1.6 2.8-1.5 5.6-2.9 8-4.9 2.2-1.8 4.6-3.3 7-4.7 1.5-.9 2.6-.7 4 .2 3.8 2.5 7 5.7 10 9.1.8.9 1.9 1.1 3 .5.5-.3.9-.7 1.2-1.2.3-.2.5-.4.7-.6.9-1 2-2 3.1-2.9.9-.8 2.1-1.3 2.9-2.2 1.3-1.3 2.6-2.5 4.1-3.6.6-.5.8-.3 1.3.1 2.6 2.7 4.2 6.1 6.2 9.3.5.8.6 1.8 1.2 2.4.8.8 1.9 1.5 3 2 1.8.8 3.4.8 4.9-.9 3.2-3.4 6.7-6.4 10.3-9.3.7-.5 1.1-.6 1.6.1 1.8 2.4 3.5 4.8 5.1 7.4.5.9 1.2 1.7 2 2.3.8.7 2.6.7 3.2-.1.9-1.2 2.1-2 3.1-3 2.7-2.6 5.5-5.2 8.6-7.3.5-.3.8-.5 1.2.1 2.3 3.5 5 6.7 7.4 10.1 2 2.8 3.4 3.4 6.8 1.4.6-.3 1.1-.8 1.6-1.2 4.3-3.6 8.6-7.1 12.9-10.7.3-.2.5-.4.7-.4v-6.4c-1.6-.3-2.2 0-2.8 1.2z" opacity=".1"/><path d="m418.7 373.6c-.4.6-1 .7-1.7.2-1.9-1.4-3.6-3-4.9-5-.8-1.3-1.6-2.6-2.4-3.9-1.2-1.9-3.4-2.4-5.2-1-3.5 2.6-6.6 5.5-9.1 9.1-.9 1.3-1.1 1.2-2 .1-1.9-2.3-3.5-4.7-5.2-7.2-1.1-1.6-3.2-1.9-4.5-.7-3.9 3.5-8.1 6.8-11.2 11.2-.4.5-.7.7-1.2.1-2.1-2.8-4.3-5.5-6.2-8.4-1.3-2-2.4-4-3.7-6-1.3-2.1-3.4-2.2-5.1-.4-.4.4-.7.9-1.1 1.3-1.9 2.6-3.7 5.3-5.9 7.7-2.1 2.4-4.5 4.6-6.5 7-.7.9-1 1-1.7 0-2.2-2.9-4.5-5.8-6.8-8.6-1.2-1.5-3.1-1.5-4.5-.2-.4.4-.9.8-1.3 1.1-2.4 1.7-5 3.2-7.2 5.2-.8.8-1.3.7-1.9-.1-2.7-3.3-5.4-6.6-8-10-2.1-2.7-4-2.5-5.7.2-.4.7-.8 1.4-1.2 2-2.4 3.4-5.2 6.5-7.7 9.8-.7.9-1.1.5-1.5-.2-1.4-2.7-3.5-4.9-5.1-7.5-1.4-2.2-3.3-2.4-5.1-.4-2.3 2.5-4.8 4.9-7.4 7.2-.9.8-1.4.7-2.1-.2-3.1-3.6-5.9-7.5-8.7-11.3-.9-1.2-1.7-2.5-2.9-3.5-1.6-1.4-3.9-.8-4.7 1.1-.3.6-.5 1.3-.9 1.9-2.6 4.2-5.7 7.9-8.7 11.8-.4.6-.8.6-1.3.1-1-1-2-2-2.9-3-1.3-1.5-2.2-3.3-3.5-4.8-1.4-1.5-4.1-1.3-4.8.6-1.1 2.9-3.3 5.1-5 7.5-.3.5-.7.5-1.1 0-.6-.8-1.3-1.6-1.8-2.5-1.7-2.7-3.2-5.5-5.2-7.9-.6-.7-1.3-1.4-2.4-1.2-.9-.1-1.7.3-2.3 1-1 1.2-2.1 2.4-3.1 3.4-2.4 2.4-4.7 4.9-7.3 7.2-2-1.3-3.7-2.8-5.6-4.2-4-3.1-8.2-6.1-12.9-8.1-2.1-.9-4.1-.1-5.3 1.8-1.1 1.7-1.8 3.7-3.1 5.3-.4.5-.7.9-1.3.3-2.4-2.2-5.1-4-6.8-6.9-.8-1.5-3-2.5-4.2-2.1-2.3.8-4.7 1.5-6.9 2.6-4.3 2.1-8.5 4.2-12.4 7.1-.9.6-1.4.4-1.8-.5-.6-1.2-1.2-2.4-1.5-3.6-.3-1.4-1.4-2-2.5-2.5-.5-.3-1.2-.7-2-.3-1.1.5-2.1.8-3.2 1.3-3.3 1.6-6.1 4-8.9 6.3-1.6 1.4-1.7 1.4-2.8-.5-1.5-2.4-2.7-4.9-4.1-7.3-1.2-2-3.3-2.6-5.3-1.6-4.1 2.1-7.7 4.8-10.9 7.9-1.4 1.3-2.7 2.9-4 4.3-.4.4-.8 1.1-1.4.2-2.4-4-5.3-7.6-7.3-11.8-1-2.2-3.2-3.5-5.7-1.8-3 2-5.9 4.3-8.8 6.6-4 3.2-8 6.4-11.8 9.8-1 .9-1.2.9-1.9-.3-1.4-2.1-2.7-4.3-3.7-6.7-1-2.3-3-2.9-5.2-1.7-.5.3-.9.6-1.4.8-2.2 1.2-3.8 3.2-5.7 4.7-.7.6-1.1.4-1.4-.3-.6-1.2-1.2-2.5-1.8-3.8-.3-.6-.6-1-1.1-1.4-1.6-1.4-3.5-1.1-5.3-.8-5.1.9-9.6 3.3-14 5.8-.9.5-1.4.4-1.8-.5-2.7-5.2-6.3-9.8-9.1-14.9-1-1.7-3-2.9-5.2-1.2-.4.3-.7.7-1.1.9-3.3 2.3-6.6 4.6-9.7 7.1v8.8c3.1-3.6 7.1-6.4 11-9.2.8-.6 1.5-.4 1.9.5.5 1 1.2 1.9 1.9 2.9 1.9 2.8 3.7 5.6 5.3 8.6 1.1 1.9 1.9 4 3.8 5.3 1.5 1.1 3.3.8 4.4-.6.3-.4.5-.9.9-1.2 3.6-2.8 7.5-4.8 11.9-5.9.7-.2 1.3 0 1.6.7 1.2 2.5 3 4.7 4.6 7 1.9 2.5 4.5 2.4 6-.4 1.1-2 2.5-3.7 4.2-5.3.6-.6.9-.5 1.4.2 1.6 2.6 3.2 5.2 4.8 7.7 1 1.5 2.2 2.6 4.1 2.7.7 0 1.2-.2 1.6-.9.7-1.4 1.7-2.7 2.9-3.8 3.3-3 6.4-6.1 9.9-8.8 2.3-1.7 4.5-3.5 6.8-5.3.4-.3.7-.6 1.2 0 3.1 4.5 6.1 9.1 8.8 13.8.8 1.3 1.9 2.1 3.3 2.5 1.3.4 2.1 0 2.6-1.1.6-1.1 1.3-2.2 2-3.2 2.9-4.3 6.5-7.9 11-10.6.5-.3 1.1-1 1.6.1 1.5 3.4 3.9 6.2 5.9 9.2.7 1.1 1.5 1.9 2.6 2.6s2.4.6 3.2-.3c1-1.1 1.8-2.3 2.7-3.5 1.9-2.2 3.9-4.3 6.5-5.7.5-.3 1.1-.7 1.5.2.9 2 2.4 3.6 3.7 5.3 1.1 1.4 2.5 2.2 4.3 2.3.4 0 .8 0 1-.3.6-1.1 1.7-1.7 2.6-2.5 4.2-3.8 9.2-6.3 14.3-8.5 1-.4 1.6-.2 2.2.6.4.6 1 1.1 1.6 1.6l5.4 4.8c1.4 1.3 2.5 2.9 4.2 3.9 1.3.7 2.2.7 3-.5 1.9-2.7 3.4-5.5 5-8.3.5-.8.9-.9 1.6-.5 2.6 1.3 5 2.9 7.4 4.7 2.6 1.9 5.1 3.9 7.6 5.8 3.2 2.4 6.7-1.8 8.7-3.7 1.8-1.7 3.6-3.4 5.4-5.2 1-1 1.2-1 2.1.2 1.1 1.5 2.1 2.9 3.2 4.4 1.5 2 3.1 4 4.3 6.3 1 2 3.3 2 4.7.2.3-.4.5-.8.7-1.2 1.1-2.1 2.4-4.1 3.7-6.1.8-1.2 1.1-1.3 2.1-.2 2.1 2.2 4.4 4.3 6.2 6.8 2 2.6 3.9 2.8 5.5-.8.3-.6.6-1.2 1-1.8 2.3-4 5.3-7.4 7.8-11.2.6-.9.9-.6 1.4 0 3.5 4.1 6.7 8.4 10.1 12.6.7.9 1.5 1.6 2.3 2.3 1.2 1 2.4.9 3.4-.3 2.3-2.4 4.6-4.8 6.9-7.2 1.2-1.2 1.7-1.2 2.8.1 1.9 2.3 3.3 5 4.7 7.6.7 1.4 1.8 2.3 3.2 2.4 1.3.1 2.3-.8 2.9-2.1 2.1-4.6 5.2-8.4 8.4-12.3.5-.6.9-.7 1.5 0s1.2 1.4 1.9 2.1c2.1 1.9 3.7 4.2 5.5 6.4.8 1.1 1.8 2 2.9 2.8.9.6 1.9.7 2.7-.1.5-.5 1-1 1.4-1.6 1.7-2.5 3.8-4.4 6.5-5.9 1.2-.7 1.9-.3 2.6.5 2.5 2.9 4.9 5.9 6.9 9.2.4.6.9 1 1.4 1.4 1.3.9 3.7.3 4-1.1.3-1 .8-1.9 1.4-2.7 1.4-2.1 3.1-4 4.8-5.9 2.2-2.3 4.1-4.9 6.1-7.4.9-1.1 1.2-1.1 2 .1s1.6 2.4 2.5 3.5c2.7 3.3 5.2 6.7 8 10 1.9 2.2 4.5 2.6 5.9-.6 1.8-4.1 4.9-7.3 8.4-10.1.6-.5 1.1-.6 1.6.1 1.1 1.4 2.3 2.8 3.5 4.1 1.6 1.8 2.8 4 4.9 5.3 1.5.9 3.7 1 4.3-1.3 1-3.8 3.2-6.8 6-9.4 1.3-1.2 1.4-1.2 2.4.2 3 4 7.1 6.8 11.2 9.4 1.5.9 2.9.7 3.7-1 .4-.8.8-1.5 1.3-2.2.7-1.1 1.5-2.1 2.3-3.1v-8.8c-1.9 2.1-4.3 4.4-6.3 7.1z" opacity=".1"/><path d="m415.1 299c-.8-1.4-3.7-1.6-4.1-.2-.5 1.4-1.4 2.6-1.9 3.9-.9 2.2-2 4.3-2.8 6.5-.3.8-.6 1.1-1.5.4-3.3-2.8-6.9-5.3-9.9-8.6-.4-.4-.8-.8-1.4-1-2.4-.7-4.6-.4-6.4 1.2-2.7 2.4-5.2 5.1-7.4 8-.5.7-.8.7-1.2 0-1.7-2.4-3.5-4.7-3.7-7.8-.2-1.8-2.8-2.8-4.2-1.9-4.9 3.1-8.8 7.1-12.1 11.9-.5.8-.8.8-1.4.1-2.5-3.3-4.7-6.7-5.8-10.7-.6-1.9-3.3-3-4.8-1.8-.9.6-1.4 1.6-2.1 2.5-2.2 2.7-4 5.6-5.9 8.5-.6.9-1 1-1.6.1-1-1.4-2.2-2.7-3.2-4.1-1.1-1.4-1.8-3-2.7-4.5-.9-1.6-4.3-1.7-5-.5-1.6 2.5-3.3 4.8-5.1 7.2-1.1 1.5-1.2 1.5-2.4 0-1.8-2.4-3.7-4.8-5.5-7.2-1.1-1.4-2.6-1.4-4.2-1.1-1 .2-.9 1.1-1.3 1.8-.1.3-.2.5-.4.7-1.5 2-2.6 4.3-4 6.3-.3.4-.4 1.1-.9 1-.4 0-.5-.7-.7-1.1-2-4-4.3-7.7-6.5-11.5-.9-1.6-3.1-1.9-4.6-.8-.9.7-1.7 1.4-2.6 2-2.8 2-5 4.6-7.4 7-.1-.4-.4-.8-.8-1.1-1.9-1.3-3.4-3.1-4.8-4.9-1.3-1.6-2.3-3.5-3.7-5-1.3-1.4-2.5-1.5-4-.4-1 .8-1.7 1.8-2.5 2.7-2.8 3.4-6.1 6.4-9.1 9.6-.4.4-.7.4-1.1 0-2.4-3.2-5-6.3-6.7-9.9-.4-.9-.7-1.8-1.2-2.7-.7-1.3-2.2-1.6-3.4-.6-.6.5-1.2 1-1.9 1.3-2.8 1.3-5 3.4-7.2 5.3-2.3 2-4.7 4.1-6.7 6.4-.4.5-.9.8-1.4.1-1.3-2-2.9-3.7-4.1-5.8-1.1-2.1-2.1-4.2-2.7-6.4-.2-.8-.8-1.3-1.6-1.5s-1.5.2-1.7.8c-.5 1.3-1.7 2.1-2.6 3-2.4 2.5-4.6 5.1-6.8 7.7-1 1.1-1.3 1.2-2.4.2-2.8-2.5-5.4-5.3-7.7-8.2-.6-.7-1.1-1.5-1.8-2.2-1.4-1.4-2.9-1.1-3.6.8-.2.5-.4 1.1-.7 1.6-2.7 4.7-6 9-9.1 13.5-.6.8-1.1.9-1.9.3-5-3.5-9.4-7.8-14-11.9-1.7-1.6-3.2-3.4-5.2-4.6-.8-.4-1.6-.7-2.4 0-1.1 1-2.2 2-3.2 3-2.6 2.5-4.9 5.4-7.9 7.5-1.8 1.2-1.7 1.2-3.3-.3-2.9-3-5.9-5.9-9.6-8-.9-.5-2-.6-2.6.1-1.1 1-2.3 1.6-3.4 2.5-2.4 1.8-4.5 3.9-6.8 5.8-1.7 1.4-3.5 2.7-5.3 3.9-.5.3-1 .4-1.5-.2-2-2.7-4.7-4.9-6.8-7.5-.6-.7-1.2-1.5-2.1-2.1-1.4-.9-2.3-.8-3.1.7-.9 1.5-2.1 2.8-3.4 4-2.5 2.1-4.9 4.2-6.9 6.8-.3.4-.5.5-.9 0-2.5-3.1-4.9-6.2-5.9-10.2-.4-1.5-2.9-2.4-4.3-1.6-2.5 1.5-4.6 3.4-6.2 5.8-.8 1.1-1.6 2.1-2.5 3.3-.3-.4-.5-.8-.7-1.2-.6-1.6-.8-3.3-.9-5.1-.1-2.1-2.2-3.7-3.8-3.1-2.5 1-4.9 2.1-7.2 3.3-3.6 1.9-6.7 4.6-9.8 7.3-1 .9-1.2.8-1.5-.5 0-.2 0-.3-.1-.5-.3-1.7-.3-3.3-.2-5 .1-1.8-.5-2.3-2.1-3-1.2-.5-1.8.3-2.6.8-2.2 1.4-4.6 2.4-7 3.6-2 1-3.7 2.2-5.2 3.8-1.1 1.3-2.2 2.7-2.9 4.2-.2.5-.6 1.1-1.1.3-.9-1.3-2.2-2.4-3.2-3.7-1.9-2.4-3.8-4.9-4.7-8-.4-1.5-2.9-2.1-4-1.2-2 1.6-3.7 3.4-4.8 5.8-1.1 2.1-2.2 4.1-3.2 6.2-.3.5-.6.7-1.2.3-1.8-1.1-3.6-2.1-5.3-3.2v4.9c2.3 1.4 4.7 2.6 7.2 3.9.8.4 1.5.3 2.1-.4.7-.7 1-1.6 1.3-2.5.9-2.7 1.9-5.4 3.5-7.8 1-1.8 1.3-1.6 2.5.3.2.3.4.6.6.9 3.2 3.9 6.7 7.7 10.3 11.2.5.5 1 .8 1.6.6.7-.3 1.2-.7 1.4-1.5 1.5-6.3 5.4-10.6 11.4-13.1.5-.2.8-.2.9.5.5 2.1.9 4.1 1.6 6.2.6 1.8.4 3.9 2.2 5.3 1.2.9 2.3.8 2.9-.5 3.2-6.7 8.7-10.7 15.3-13.6.6-.2.9-.1 1 .5.3 2.5 1.7 4.7 2.4 7.1.5 1.5.6 3 1.9 4.2 1.2 1.1 2.5 1.2 3.2-.3.6-1.4 1.3-2.7 2.1-4 1.3-2.2 2.5-4.4 4.4-6.2.7-.7 1.1-.6 1.5.2 1.7 3.7 4.5 6.6 6.7 9.9 1.5 2.3 3.2 2.5 5.3 1.1.6-.4 1.4-.8 1.8-1.4 1.9-2.7 4.5-4.6 6.8-6.8 2.9-2.7 3.1-2.6 5.7.2 1.5 1.6 2.5 3.6 4.1 5.1.7.6 1.5 1.1 2.1 1.8.7.7 1.7.6 2.6.7.7.1.5-.8.9-1 .3-.2.5-.4.7-.7 1.7-1.6 3.5-3.1 5.1-4.9 2.1-2.3 4.7-4.2 7.4-6 1.8-1.2 3.3-1.1 4.9.3.2.2.4.4.6.6 2.7 2.2 4.9 4.9 7.3 7.4 1.5 1.6 2 1.6 3.6.1.3-.3.7-.6 1.1-.8 1.7-1.4 3.4-2.9 4.9-4.6 1.5-1.8 3.1-3.6 5.1-5 1.3-.8 1.6-.9 2.8.1 3.2 2.8 6.3 5.7 9.5 8.5 3.2 2.9 6.7 5.4 10 8.1.9.8 1.6.5 2.3-.3 2.1-2.6 3.6-5.6 5.3-8.4 1.6-2.6 3.3-5.1 5.1-7.5.5-.7.9-.5 1.3 0 .7 1.1 1.6 1.9 2.5 2.8 2.6 2.6 5 5.6 8.2 7.6.7.4 1.4.8 2 .3 1.1-.9 2.3-1.8 2.9-2.9 1.5-2.8 3.8-5 5.7-7.5.8-1.1 1-1 1.6.2 2.2 4.1 5.1 7.8 7.8 11.6 1.3 1.8 2.1 1.7 3.6.1 2.1-2.4 4.1-4.8 6.3-7 2-2 3.9-4.3 6.6-5.6 2.4-1.1 2.4-1.2 3.9 1.1 0 .1.1.1.1.2 2.3 4 5.4 7.4 8 11.2 1.1 1.6 2.2 1.8 3.6.3 2.6-2.8 5.2-5.5 7.4-8.5 1.1-1.4 2.4-2.6 3.6-3.9.5-.5 1-.5 1.4 0 2.6 3.1 5.3 6 8.2 8.8.2.2.4.5.6.7.5.7 1.1 1.2 2.2 1.2 1-.1 1.8-.6 2.4-1.2 2.9-2.7 5.6-5.6 9-7.8.4-.3.8-.6 1.2 0 2 3.1 3.8 6.2 4.9 9.7.6 2 1.2 4.1 2.2 6 .6 1.1 1.3 2.4 2.8 2.2s2-1.3 2.5-2.7c1.1-3.7 3-7 5.1-10.2.5-.8.9-.6 1.4 0 1.2 1.6 2.4 3.1 3.6 4.6s1.7 3.4 3.3 4.7c1.4 1 2.9.9 3.8-.6 1.6-2.6 3.2-5.3 5-7.8.5-.7.8-.8 1.4 0 .9 1.3 1.9 2.5 2.9 3.6 1.8 2.1 3.3 4.5 5.4 6.4 1.5 1.4 3.2 1 4-.9 1.5-3.6 3.5-7 5.8-10.2.5-.7.9-.7 1.3 0 2 3.5 4.6 6.7 7 9.9.8 1.1 1.9 2 3.3 2.4.7.2 1.2.1 1.6-.7 1-1.7 1.7-3.6 2.8-5.3 1.9-2.7 3.6-5.5 6.1-7.6 1.1-.9 1.1-.8 1.8.4 2.2 3.6 4.3 7.4 7.4 10.4 1.3 1.2 2.7 1.1 3.3-.5.9-2.2 2-4.3 3.2-6.3 1.4-2.4 3.3-4.3 5.7-5.5.5-.3 1-.3 1.4.2 1.6 2 3.7 3.4 5.6 5.1 2.5 2.2 5.3 3.9 7.7 6.1.4.4 1.1.7 1.6.8.9.2 1.7-.2 2-1.1.3-.8.5-1.7.7-2.6.7-2.5 1.5-4.9 2.5-7.3.2-.4.4-1 1-.4 2.9 2.5 6.1 4.8 9.3 7 .7.5 1.5 1 2.2 1.4v-4.9c-3.9-2.4-7.6-5.2-10-9.4z" opacity=".1"/></svg>