<svg enable-background="new 0 0 425.2 425.2" viewBox="0 0 425.2 425.2" xmlns="http://www.w3.org/2000/svg"><g opacity=".1"><path d="m186.5 34.1c-.6 0-1.3.1-1.8-.4-.8-.8-.9-1.6-.3-2.5 2.1-3.3 4-6.7 6-10 .9-1.4 1.4-3.1 2.3-4.5 1-1.6 1.7-1.6 2.8-.2.8 1 1.5 2 1.9 3.2.7 2.1 2.2 3.8 3.3 5.7 1.2 2 2.5 4 3.8 5.9.4.6.5 1.3.6 2 .1.5-.6 1-1.4 1-1.3 0-2.7 0-4-.1-2.1-.1-4.2-.1-6.3-.2-2-.1-4 .2-6.1-.1-.2.2-.5.2-.8.2z"/><path d="m238.7 41c.1 1-.3 1.4-1.2 1.4-2.5-.1-5.1-.2-7.6-.3-1.9-.1-3.7-.1-5.6-.2-1 0-2.1 0-3.1-.2-1.9-.4-2.7-2-1.6-3.6 1.7-2.5 3.1-5.1 4.4-7.7 1-2 2.1-3.9 3.5-5.7.5-.7 1.2-.8 1.9-.3.4.3.7.5.9.9 1.6 3.2 3.5 6.2 5.3 9.3.9 1.6 1.9 3.2 2.7 4.9.2.6.4 1 .4 1.5z"/><path d="m201.4 72.1c-2.2 0-4.4 0-6.6 0-3 0-6.1.3-9.1-.3-.5-.1-1-.2-1.6-.3-1.1-.1-2-1.7-1.4-2.6 1.4-2.3 2.5-4.8 3.9-7.2.5-.8.9-1.6 1.2-2.5 1-2.5 2.3-4.9 3.7-7.1 1.1-1.6 1.5-1.7 2.6 0 .8 1.3 1.7 2.5 2 4.1.1.4.3.9.6 1.2 1 1.3 1.8 2.8 2.4 4.3 1.2 2.9 3.4 5.2 4.6 8.1.2.6.2 1.1.1 1.6-.2.7-.7 1-1.4.8-.2 0-.4 0-.6 0 0-.2-.2-.1-.4-.1z"/><path d="m236.3 76.4c-3.4-.2-6.8-.1-10.2-.2-1.2 0-2.4 0-3.6-.1-1.7 0-2.4-1.3-1.7-2.8 1.9-3.6 3.7-7.2 5.5-10.8.8-1.5 1.7-3 2.5-4.5.5-.8 1.2-.6 2.1.1.3.3.5.7.6 1.1.4 1.8 1.3 3.3 2.1 4.9.7 1.3 1.1 2.7 1.7 4 .9 1.8 1.9 3.6 3.1 5.2.2.3.4.6.6.9.6 1.2 0 2.1-1.4 2.1-.3 0-.8.1-1.3.1z"/><path d="m201.4 269.6c-2.2 0-4.4 0-6.6 0-3 0-6.1.3-9.1-.3-.5-.1-1-.2-1.6-.3-1.1-.1-2-1.7-1.4-2.6 1.4-2.3 2.5-4.8 3.9-7.2.5-.8.9-1.6 1.2-2.5 1-2.5 2.3-4.9 3.7-7.1 1.1-1.6 1.5-1.7 2.6 0 .8 1.3 1.7 2.5 2 4.1.1.4.3.9.6 1.2 1 1.3 1.8 2.8 2.4 4.3 1.2 2.9 3.4 5.2 4.6 8.1.2.6.2 1.1.1 1.6-.2.7-.7 1-1.4.8-.2 0-.4 0-.6 0 0-.1-.2-.1-.4-.1z"/><path d="m186.5 148.3c-.6 0-1.3.1-1.8-.4-.8-.8-.9-1.6-.3-2.5 2.1-3.3 4-6.7 6-10 .9-1.4 1.4-3.1 2.3-4.5 1-1.6 1.7-1.6 2.8-.2.8 1 1.5 2 1.9 3.2.7 2.1 2.2 3.8 3.3 5.7 1.2 2 2.5 4 3.8 5.9.4.6.5 1.3.6 2 .1.5-.6 1-1.4 1-1.3 0-2.7 0-4-.1-2.1-.1-4.2-.1-6.3-.2-2-.1-4 .2-6.1-.1-.2.1-.5.2-.8.2z"/><path d="m238.7 149.1c.1 1-.3 1.4-1.2 1.4-2.5-.1-5.1-.2-7.6-.3-1.9-.1-3.7-.1-5.6-.2-1 0-2.1 0-3.1-.2-1.9-.4-2.7-2-1.6-3.6 1.7-2.5 3.1-5.1 4.4-7.7 1-2 2.1-3.9 3.5-5.7.5-.7 1.2-.8 1.9-.3.4.3.7.5.9 1 1.6 3.2 3.5 6.2 5.3 9.3.9 1.6 1.9 3.2 2.7 4.9.2.5.4.9.4 1.4z"/><path d="m201.4 186.1c-2.2 0-4.4 0-6.6 0-3 0-6.1.3-9.1-.3-.5-.1-1-.2-1.6-.3-1.1-.1-2-1.7-1.4-2.6 1.4-2.3 2.5-4.8 3.9-7.2.5-.8.9-1.6 1.2-2.5 1-2.5 2.3-4.9 3.7-7.1 1.1-1.6 1.5-1.7 2.6 0 .8 1.3 1.7 2.5 2 4.1.1.4.3.9.6 1.2 1 1.3 1.8 2.8 2.4 4.3 1.2 2.9 3.4 5.2 4.6 8.1.2.6.2 1.1.1 1.6-.2.7-.7 1-1.4.8-.2 0-.4 0-.6 0 0-.1-.2-.1-.4-.1z"/><path d="m237.3 204.2c-3.4-.2-6.8-.1-10.2-.2-1.2 0-2.4 0-3.6-.1-1.7 0-2.4-1.3-1.7-2.8 1.9-3.6 3.7-7.2 5.5-10.8.8-1.5 1.7-3 2.5-4.5.5-.8 1.2-.6 2.1.1.3.3.5.7.6 1.1.4 1.8 1.3 3.3 2.1 4.9.7 1.3 1.1 2.7 1.7 4 .9 1.8 1.9 3.6 3.1 5.2.2.3.4.6.6.9.6 1.2 0 2.1-1.4 2.1-.3.1-.8.1-1.3.1z"/><path d="m201.1 232.4c-3.4-.3-6.9-.4-10.3-.7-1.9-.2-3.8-.6-5.6-1.3-1.7-.7-2-1.6-1.3-3.2.5-1.2 1.1-2.4 1.8-3.5 1.2-2.1 1.9-4.4 2.9-6.5.9-1.9 1.7-3.9 2.8-5.8.3-.5.5-.9 1.1-.9.7 0 1.2.3 1.4.9.8 1.8 1.9 3.4 2.9 5 1.3 2.2 3 4.2 4.1 6.5 1.1 2.4 2.5 4.7 2.9 7.3.1.4.1.8 0 1.2-.1.6-.5 1-1.2 1.1-.6-.1-1-.1-1.5-.1zm-1.4-3.4c.8.1.6-.3.4-.7-1.2-2.8-2.4-5.6-4.2-8.1-1-1.4-2-2.8-2.8-4.3-.1-.2-.2-.4-.4-.4s-.2.2-.3.4c-.3.5-.6 1.1-.9 1.6-.7 1.5-1.2 3-1.8 4.5-.6 1.7-1.4 3.4-2.3 5-.3.5-.3.8.4.9 1.1.3 2.2.5 3.4.6 2.9.1 5.7.4 8.5.5z"/><path d="m306.5 41.1c-2.2.1-4.4.1-6.6.2-3 .1-6.1.4-9.1-.1-.5-.1-1-.2-1.6-.3-1.1-.1-2-1.6-1.5-2.6 1.4-2.4 2.4-4.9 3.7-7.3.4-.8.9-1.6 1.2-2.5 1-2.5 2.2-4.9 3.6-7.2 1-1.7 1.5-1.7 2.6-.1.9 1.3 1.8 2.5 2.1 4 .1.4.4.9.6 1.2 1 1.3 1.8 2.7 2.5 4.2 1.3 2.8 3.5 5.1 4.8 8 .3.6.3 1.1.1 1.6-.2.7-.6 1-1.4.9-.2 0-.4 0-.6 0 0 0-.2 0-.4 0z"/><path d="m414.2 59c.1 1-.3 1.4-1.2 1.4-2.5 0-5.1-.1-7.6-.1-1.9 0-3.7 0-5.6-.1-1 0-2.1.1-3.1-.1-1.9-.3-2.7-2-1.7-3.5 1.6-2.5 3-5.2 4.2-7.8 1-2 2-4 3.4-5.7.5-.7 1.2-.8 1.9-.4.4.2.7.5.9.9 1.6 3.2 3.7 6.1 5.5 9.2.9 1.6 2 3.1 2.8 4.8.3.5.5 1 .5 1.4z"/><path d="m341.7 54.6c-3.4-.1-6.8.1-10.2.1-1.2 0-2.4 0-3.6 0-1.7 0-2.5-1.2-1.7-2.8 1.8-3.6 3.5-7.3 5.3-11 .8-1.6 1.6-3.1 2.4-4.6.5-.9 1.2-.6 2.1.1.3.2.5.6.6 1.1.4 1.8 1.4 3.3 2.2 4.9.7 1.3 1.2 2.7 1.8 4 .9 1.8 2 3.5 3.2 5.1.2.3.4.6.6.9.6 1.2.1 2.1-1.3 2.1-.4 0-.9 0-1.4.1z"/><path d="m268.3 52.2c-.6 0-1.3-.1-1.9-.2-1-.1-2-.3-3.1-.4-2.7-.3-5.5-.4-8.2-.2-.9.1-1.6-.2-2.2-1s-.6-1.6-.4-2.4c.2-.9.9-1.6 1.4-2.4 2.1-3.1 3.9-6.4 5.7-9.7.2-.5.6-.9.9-1.4.5-.7 1.1-.7 1.7-.1.5.5.8 1.1.9 1.8.5 2.1 1.7 3.8 2.7 5.7 1.1 1.8 1.9 3.7 2.8 5.6.4.8 1 1.4 1.2 2.2.3 1.2-.3 2.4-1.5 2.5z"/><path d="m264.2 100.5c1.1.4 1.7 2.2 2.2 3.1s1 1.8 1.6 2.6c.8 1.3 1.5 2.7 2.2 4.1.7 1.3 1.6 2.6 2.3 3.9.8 1.4 1.7 2.9 1.1 4.4-.5 1.3-3.5.7-4.6.7-1.5 0-2.9-.1-4.4-.1-2.8-.1-5.6-.2-8.4-.3-.8 0-1.9-1-2.1-1.7-.1-.4 0-.7.2-1.1 1.1-1.9 2.3-3.7 3.3-5.6 1.1-2 1.8-4 2.6-6 .4-.9 1.2-1.6 1.5-2.6s1.6-1.7 2.5-1.4z"/><path d="m343.4 114.1c-2.2.1-4.4.1-6.6.2-3 .1-6.1.4-9.1-.1-.5-.1-1-.2-1.6-.3-1.1-.1-2-1.6-1.5-2.6 1.4-2.4 2.4-4.9 3.7-7.3.4-.8.9-1.6 1.2-2.5 1-2.5 2.2-4.9 3.6-7.2 1-1.7 1.5-1.7 2.6-.1.9 1.3 1.8 2.5 2.2 4 .1.4.4.9.6 1.2 1 1.3 1.8 2.7 2.5 4.2 1.3 2.8 3.5 5.1 4.8 8 .3.6.3 1.1.1 1.6-.2.7-.6 1-1.4.9-.2 0-.4 0-.6 0-.1 0-.3 0-.5 0z"/><path d="m307.4 114.2c-.6 0-1.3-.1-1.9-.2-1-.1-2-.3-3.1-.4-2.7-.3-5.5-.4-8.2-.2-.9.1-1.6-.2-2.2-1s-.6-1.6-.4-2.4c.2-.9.9-1.6 1.4-2.4 2.1-3.1 3.9-6.4 5.7-9.7.2-.5.6-.9.9-1.4.5-.7 1.1-.7 1.7-.1.5.5.8 1.1 1 1.8.5 2.1 1.7 3.8 2.7 5.7 1.1 1.8 1.9 3.7 2.8 5.6.4.8 1 1.4 1.2 2.2.3 1.2-.4 2.4-1.6 2.5z"/><path d="m412.4 94.5c-3.4-.1-6.8.1-10.2.1-1.2 0-2.4 0-3.6 0-1.7 0-2.5-1.2-1.7-2.8 1.8-3.6 3.5-7.3 5.3-11 .8-1.6 1.6-3.1 2.4-4.6.5-.9 1.2-.6 2.1.1.3.2.5.6.6 1.1.4 1.8 1.4 3.3 2.2 4.9.7 1.3 1.2 2.7 1.8 4 .9 1.8 2 3.5 3.2 5.1.2.3.4.6.6.9.6 1.2.1 2.1-1.3 2.1-.4.1-.9.1-1.4.1z"/><path d="m379.2 74.6c-.6 0-1.3-.1-1.9-.2-1-.1-2-.3-3.1-.4-2.8-.3-5.5-.4-8.2-.2-.9.1-1.6-.2-2.2-1s-.6-1.6-.4-2.4c.2-.9.9-1.6 1.4-2.4 2.1-3.1 3.9-6.4 5.7-9.7.2-.5.6-.9.9-1.4.5-.7 1.1-.7 1.7-.1.5.5.8 1.1.9 1.8.5 2.1 1.7 3.8 2.7 5.7 1.1 1.8 1.9 3.7 2.8 5.6.4.8 1 1.4 1.2 2.2.3 1.2-.3 2.4-1.5 2.5z"/><path d="m307.6 81.8c-2.2-.3-4.7-.2-7.1-.4-2.5-.1-5.1-.3-7.6-.6-.7-.1-1.3-.2-2-.4-1.8-.4-2.4-2-1.3-3.5.8-1.3 1.6-2.6 2.5-3.9 1.9-2.8 3.5-5.7 4.8-8.8.5-1.1 1.1-2.1 2-2.9.4-.4.9-.5 1.4-.2 1.1.5 1.6 1.5 2 2.6.9 2.1 2 4.1 2.9 6.1 1.5 3 3.2 6 4.2 9.2.2.5.3 1 .2 1.6-.3.9-.7 1.2-2 1.2zm-1.9-3.4c.6 0 .4-.3.3-.6-.5-.9-1-1.8-1.4-2.8-.8-2-1.7-3.9-2.8-5.8-.7-1.2-1.4-2.3-1.6-3.7 0-.2-.1-.4-.2-.4-.2 0-.3.2-.4.4-.5 1.1-1.1 2.3-1.6 3.5-1.2 2.8-2.9 5.3-4.5 7.9-.4.7-.4.7.4.9 1.4.2 2.8.3 4.2.4 2.6.1 5.1.2 7.6.2z"/><path d="m350.1 242.4c-4.5-.3-8.6 0-12.7-.5-.6-.1-1.3 0-1.9 0-1.1 0-2.1.1-3.2-.1-1.2-.1-2-1.4-1.5-2.6.5-1.3 1.4-2.5 2.2-3.6 1.4-2.1 3-4.1 4.2-6.3.7-1.4 1.4-2.7 2.1-4.1.3-.6.7-1.1 1-1.6.3-.4.7-.5 1.2-.4.6.2 1.1.6 1.3 1.2.6 1.7 1.6 3.2 2.4 4.8 1.8 3.8 3.7 7.5 5.6 11.3.4 1.1 0 1.9-.7 1.9z"/><path d="m256.6 269c-.6 0-1.2.2-1.8-.3-.8-.7-1-1.6-.4-2.5 2-3.3 3.8-6.8 5.8-10.1.8-1.5 1.3-3.1 2.2-4.6.9-1.6 1.7-1.7 2.8-.2.8 1 1.5 2 1.9 3.2.7 2.1 2.3 3.7 3.5 5.6 1.3 2 2.6 3.9 3.9 5.8.4.6.5 1.3.6 2 .1.5-.6 1-1.4 1.1-1.3.1-2.7 0-4 0-2.1 0-4.2 0-6.3-.1-2 0-4 .3-6.1 0-.1 0-.4 0-.7.1z"/><path d="m413.4 276.4c-3.4-.1-6.8.1-10.2.1-1.2 0-2.4 0-3.6 0-1.7 0-2.5-1.2-1.7-2.8 1.8-3.6 3.5-7.3 5.3-11 .8-1.6 1.6-3.1 2.4-4.6.5-.9 1.2-.6 2.1.1.3.2.5.6.6 1.1.4 1.8 1.4 3.3 2.2 4.9.7 1.3 1.2 2.7 1.8 4 .9 1.8 2 3.5 3.2 5.1.2.3.4.6.6.9.6 1.2.1 2.1-1.3 2.1-.4 0-.9.1-1.4.1z"/><path d="m381.9 260.1c-.6 0-1.3-.1-1.9-.2-1-.1-2-.3-3.1-.4-2.8-.3-5.5-.4-8.2-.2-.9.1-1.6-.2-2.2-1s-.6-1.6-.4-2.4c.2-.9.9-1.6 1.4-2.4 2.1-3.1 3.9-6.4 5.7-9.7.2-.5.6-.9.9-1.4.5-.7 1.1-.7 1.7-.1.5.5.8 1.1 1 1.8.5 2.1 1.7 3.8 2.7 5.7 1.1 1.8 1.9 3.7 2.8 5.6.4.8 1 1.4 1.2 2.2.2 1.2-.4 2.4-1.6 2.5z"/><path d="m381.1 39.5c0 1.3-.5 2.2-1.4 2.1-1.2-.2-2.4.1-3.6 0-1.3-.1-2.6-.1-3.9-.2-2.5-.1-5 .1-7.5-.3-.9-.1-1.8-.2-2.7-.4-1.4-.3-1.9-1.4-1.3-2.7.5-1.2 1.2-2.2 1.8-3.3 1-1.7 1.8-3.5 2.7-5.3 1.2-2.3 2.3-4.7 3.4-7 .3-.5.3-1.2 1-1.4.6-.2 1.2-.1 1.6.5.6 1 1.3 1.9 1.9 2.9.8 1.3 1.5 2.5 2.1 3.9.4 1.2 1.2 2.3 1.9 3.4 1.3 1.9 2.4 3.9 3.6 6 .3.5.3 1.2.4 1.8zm-4.9-.9h.7c1 0 1.1-.1.6-1-.6-1.3-1.3-2.5-2.2-3.7-1-1.4-2-2.8-2.7-4.5-.5-1.3-1.3-2.4-1.9-3.6-.1-.2-.2-.4-.5-.4-.2 0-.2.3-.3.4-.7 1.6-1.3 3.2-2.1 4.7-1.1 2.2-2.2 4.5-3.5 6.6-.4.7-.4.9.5.9 3.8.5 7.6.5 11.4.6z"/><path d="m347.1 183.7c-4.5-.3-8.6 0-12.7-.5-.6-.1-1.3 0-1.9 0-1.1 0-2.1.1-3.1-.1-1.2-.1-2-1.4-1.5-2.6.5-1.3 1.4-2.5 2.2-3.6 1.4-2.1 3-4.1 4.2-6.3.7-1.4 1.4-2.7 2.1-4.1.3-.6.7-1.1 1-1.6.3-.4.7-.5 1.2-.4.6.2 1.1.6 1.3 1.2.6 1.7 1.6 3.2 2.4 4.8 1.8 3.8 3.7 7.5 5.6 11.3.4 1.1-.1 1.9-.8 1.9z"/><path d="m416.2 127.7c.1 1-.3 1.4-1.2 1.4-2.5 0-5.1-.1-7.6-.1-1.9 0-3.7 0-5.6-.1-1 0-2.1.1-3.1-.1-1.9-.3-2.7-2-1.7-3.5 1.6-2.5 3-5.2 4.2-7.8 1-2 2-4 3.4-5.7.5-.7 1.2-.8 1.9-.4.4.2.7.5.9.9 1.6 3.2 3.7 6.1 5.5 9.2.9 1.6 2 3.1 2.8 4.8.3.5.5 1 .5 1.4z"/><path d="m257.7 185.3c-.6 0-1.2.2-1.8-.3-.8-.7-1-1.6-.4-2.5 2-3.3 3.8-6.7 5.8-10.1.8-1.5 1.3-3.1 2.2-4.6.9-1.6 1.7-1.7 2.8-.2.8 1 1.5 2 1.9 3.2.7 2.1 2.3 3.8 3.5 5.6 1.3 2 2.6 3.9 3.9 5.8.4.6.5 1.3.6 2 .1.5-.6 1-1.4 1.1-1.3.1-2.7 0-4 0-2.1 0-4.2 0-6.3-.1-2 0-4 .3-6.1 0-.2 0-.5.1-.7.1z"/><path d="m344.3 147.6c-3.4-.1-6.8.1-10.2.1-1.2 0-2.4 0-3.6 0-1.7 0-2.5-1.2-1.7-2.8 1.8-3.6 3.5-7.3 5.3-11 .8-1.6 1.6-3.1 2.4-4.6.5-.9 1.2-.6 2.1.1.3.2.5.6.6 1.1.4 1.8 1.4 3.3 2.2 4.9.7 1.3 1.2 2.7 1.8 4 .9 1.8 2 3.5 3.2 5.1.2.3.4.6.6.9.6 1.2.1 2.1-1.3 2.1-.3 0-.9.1-1.4.1z"/><path d="m382.8 198.8c-3.4-.1-6.8.1-10.2.1-1.2 0-2.4 0-3.6 0-1.7 0-2.5-1.2-1.7-2.8 1.8-3.6 3.5-7.3 5.3-11 .8-1.6 1.6-3.1 2.4-4.6.5-.9 1.2-.6 2.1.1.3.2.5.6.6 1.1.4 1.8 1.4 3.3 2.2 4.9.7 1.3 1.2 2.7 1.8 4 .9 1.8 2 3.5 3.2 5.1.2.3.4.6.6.9.6 1.2.1 2.1-1.3 2.1-.4 0-.9.1-1.4.1z"/><path d="m310.2 239c-.6 0-1.3-.1-1.9-.2-1-.1-2-.3-3.1-.4-2.8-.3-5.5-.4-8.2-.2-.9.1-1.6-.2-2.2-1s-.6-1.6-.4-2.4c.2-.9.9-1.6 1.4-2.4 2.1-3.1 3.9-6.4 5.7-9.7.2-.5.6-.9.9-1.4.5-.7 1.1-.7 1.7-.1.5.5.8 1.1 1 1.8.5 2.1 1.7 3.8 2.7 5.7 1.1 1.8 1.9 3.7 2.8 5.6.4.8 1 1.4 1.2 2.2.3 1.2-.4 2.4-1.6 2.5z"/><path d="m415.4 187.8c-3.4-.1-6.8.1-10.2.1-1.2 0-2.4 0-3.6 0-1.7 0-2.5-1.2-1.7-2.8 1.8-3.6 3.5-7.3 5.3-11 .8-1.6 1.6-3.1 2.4-4.6.5-.9 1.2-.6 2.1.1.3.2.5.6.6 1.1.4 1.8 1.4 3.3 2.2 4.9.7 1.3 1.2 2.7 1.8 4 .9 1.8 2 3.5 3.2 5.1.2.3.4.6.6.9.6 1.2.1 2.1-1.3 2.1-.3 0-.8 0-1.4.1z"/><path d="m381.9 163.4c-.6 0-1.3-.1-1.9-.2-1-.1-2-.3-3.1-.4-2.8-.3-5.5-.4-8.2-.2-.9.1-1.6-.2-2.2-1s-.6-1.6-.4-2.4c.2-.9.9-1.6 1.4-2.4 2.1-3.1 3.9-6.4 5.7-9.7.2-.5.6-.9.9-1.4.5-.7 1.1-.7 1.7-.1.5.5.8 1.1.9 1.8.5 2.1 1.7 3.8 2.7 5.7 1.1 1.8 1.9 3.7 2.8 5.6.4.8 1 1.4 1.2 2.2.3 1.2-.3 2.4-1.5 2.5z"/><path d="m310.3 205.6c-2.2-.3-4.7-.2-7.1-.4-2.5-.1-5.1-.3-7.6-.6-.7-.1-1.3-.2-2-.4-1.8-.4-2.4-2-1.3-3.5.8-1.3 1.6-2.6 2.5-3.9 1.9-2.8 3.5-5.7 4.8-8.8.5-1.1 1.1-2.1 2-2.9.5-.4.9-.5 1.5-.2 1.1.5 1.6 1.5 2 2.6.9 2.1 2 4.1 2.9 6.1 1.5 3 3.2 6 4.2 9.2.2.5.3 1 .2 1.6-.4.9-.7 1.1-2.1 1.2zm-1.9-3.4c.6 0 .4-.3.3-.6-.5-.9-1-1.8-1.4-2.8-.8-2-1.7-3.9-2.8-5.8-.7-1.2-1.4-2.3-1.6-3.7 0-.2-.1-.4-.2-.4-.2 0-.3.2-.4.4-.5 1.1-1.1 2.3-1.6 3.5-1.2 2.8-2.9 5.3-4.5 7.9-.4.7-.4.7.4.8 1.4.2 2.8.3 4.2.4 2.6.2 5.1.3 7.6.3z"/><path d="m385 241.4c0 1.3-.5 2.2-1.4 2.1-1.2-.2-2.4.1-3.6 0-1.3-.1-2.6-.1-3.9-.2-2.5-.1-5 .1-7.5-.3-.9-.1-1.8-.2-2.7-.4-1.4-.3-1.9-1.4-1.3-2.7.5-1.2 1.2-2.2 1.8-3.3 1-1.7 1.8-3.5 2.7-5.3 1.2-2.3 2.3-4.7 3.4-7 .3-.5.3-1.2 1-1.4.6-.2 1.2-.1 1.6.5.6 1 1.3 1.9 1.9 2.9.8 1.3 1.5 2.5 2.1 3.9.4 1.2 1.2 2.3 1.9 3.4 1.3 1.9 2.4 3.9 3.6 5.9.3.5.3 1.3.4 1.9zm-4.9-.9h.7c1 0 1.1-.1.6-1-.6-1.3-1.3-2.5-2.2-3.7-1-1.4-2-2.8-2.7-4.5-.5-1.3-1.3-2.4-1.9-3.6-.1-.2-.2-.4-.5-.4-.2 0-.2.3-.3.4-.7 1.6-1.3 3.2-2.1 4.7-1.1 2.2-2.2 4.5-3.5 6.6-.4.7-.4.9.5.9 3.9.4 7.7.4 11.4.6z"/><path d="m217 346.3c0-1.7.9-3.2 1.7-4.7 2-3.8 4-7.6 6.1-11.4.9-1.6 1.8-3.3 2.9-4.8.4-.5.8-.7 1.3-.3.8.6 1.7 1.1 2.1 2.2.4 1.3 1.2 2.4 1.9 3.6 1 1.7 1.8 3.5 2.5 5.4 1.2 3.3 2.5 6.6 3.4 10 .3 1.1.7 2.2.5 3.4-.2.8-.6 1.1-1.4 1.1-3.3-.1-6.6-.3-9.8-.6-1.8-.2-3.6-.2-5.4-.2-.9 0-1.8-.1-2.6-.2-2.1-.3-3.3-1.7-3.2-3.5zm17.5.9c0-.1 0-.1 0 0h.8c.5.1.7-.2.6-.7-.1-.4-.2-.8-.3-1.1-.5-1.3-.9-2.6-1.4-3.9-.6-1.4-1.1-2.9-1.6-4.4-.8-2.2-1.8-4.2-3-6.1-.2-.4-.4-1.1-.7-1.1-.5 0-.6.7-.9 1.2-1.7 3.2-3.4 6.4-5 9.6-.8 1.5-1.4 3-2.3 4.4-.5.9-.3 1.2.8 1.3.8.1 1.6 0 2.3.1 3.5.1 7.1.4 10.7.7z"/><path d="m201.4 306.9c-2.2 0-4.4 0-6.6 0-3 0-6.1.3-9.1-.3-.5-.1-1-.2-1.6-.3-1.1-.1-2-1.7-1.4-2.6 1.4-2.3 2.5-4.8 3.9-7.2.5-.8.9-1.6 1.2-2.5 1-2.5 2.3-4.9 3.7-7.1 1.1-1.6 1.5-1.7 2.6 0 .8 1.3 1.7 2.5 2 4.1.1.4.3.9.6 1.2 1 1.3 1.8 2.8 2.4 4.3 1.2 2.9 3.4 5.2 4.6 8.1.2.6.2 1.1.1 1.6-.2.7-.7 1-1.4.8-.2 0-.4 0-.6 0 0-.1-.2-.1-.4-.1z"/><path d="m237.3 310.3c-3.4-.2-6.8-.1-10.2-.2-1.2 0-2.4 0-3.6-.1-1.7 0-2.4-1.3-1.7-2.8 1.9-3.6 3.7-7.2 5.5-10.8.8-1.5 1.7-3 2.5-4.5.5-.8 1.2-.6 2.1.1.3.3.5.7.6 1.1.4 1.8 1.3 3.3 2.1 4.9.7 1.3 1.1 2.7 1.7 4 .9 1.8 1.9 3.6 3.1 5.2.2.3.4.6.6.9.6 1.2 0 2.1-1.4 2.1-.3 0-.8.1-1.3.1z"/><path d="m186.5 384.4c-.6 0-1.3.1-1.8-.4-.8-.8-.9-1.6-.3-2.5 2.1-3.3 4-6.7 6-10 .9-1.4 1.4-3.1 2.3-4.5 1-1.6 1.7-1.6 2.8-.2.8 1 1.5 2 1.9 3.2.7 2.1 2.2 3.8 3.3 5.7 1.2 2 2.5 4 3.8 5.9.4.6.5 1.3.6 2 .1.5-.6 1-1.4 1-1.3 0-2.7 0-4-.1-2.1-.1-4.2-.1-6.3-.2-2-.1-4 .2-6.1-.1-.2.1-.5.2-.8.2z"/><path d="m238.7 383.2c.1 1-.3 1.4-1.2 1.4-2.5-.1-5.1-.2-7.6-.3-1.9-.1-3.7-.1-5.6-.2-1 0-2.1 0-3.1-.2-1.9-.4-2.7-2-1.6-3.6 1.7-2.5 3.1-5.1 4.4-7.7 1-2 2.1-3.9 3.5-5.7.5-.7 1.2-.8 1.9-.3.4.3.7.5.9 1 1.6 3.2 3.5 6.2 5.3 9.3.9 1.6 1.9 3.2 2.7 4.9.2.5.4 1 .4 1.4z"/><path d="m201.4 422c-2.2 0-4.4 0-6.6 0-3 0-6.1.3-9.1-.3-.5-.1-1-.2-1.6-.3-1.1-.1-2-1.7-1.4-2.6 1.4-2.3 2.5-4.8 3.9-7.2.5-.8.9-1.6 1.2-2.5 1-2.5 2.3-4.9 3.7-7.1 1.1-1.6 1.5-1.7 2.6 0 .8 1.3 1.7 2.5 2 4.1.1.4.3.9.6 1.2 1 1.3 1.8 2.8 2.4 4.3 1.2 2.9 3.4 5.2 4.6 8.1.2.6.2 1.1.1 1.6-.2.7-.7 1-1.4.8-.2 0-.4 0-.6 0 0-.1-.2-.1-.4-.1z"/><path d="m347.4 311.8c-4.5-.3-8.6 0-12.7-.5-.6-.1-1.3 0-1.9 0-1.1 0-2.1.1-3.2-.1-1.2-.1-2-1.4-1.5-2.6.5-1.3 1.4-2.5 2.2-3.6 1.4-2.1 3-4.1 4.2-6.3.7-1.4 1.4-2.7 2.1-4.1.3-.6.7-1.1 1-1.6.3-.4.7-.5 1.2-.4.6.2 1.1.6 1.3 1.2.6 1.7 1.6 3.2 2.4 4.8 1.8 3.8 3.7 7.5 5.6 11.3.4 1.1 0 1.9-.7 1.9z"/><path d="m255.9 304.4c-.6 0-1.2.2-1.8-.3-.8-.7-1-1.6-.4-2.5 2-3.3 3.8-6.8 5.8-10.1.8-1.5 1.3-3.1 2.2-4.6.9-1.6 1.7-1.7 2.8-.2.8 1 1.5 2 1.9 3.2.7 2.1 2.3 3.8 3.5 5.6 1.3 2 2.6 3.9 3.9 5.8.4.6.5 1.3.6 2 .1.5-.6 1-1.4 1.1-1.3.1-2.7 0-4 0-2.1 0-4.2 0-6.3-.1-2 0-4 .3-6.1 0-.1 0-.4.1-.7.1z"/><path d="m265.2 322.3s0 .1 0 0c1.1.4 1.7 2.2 2.2 3.1s1 1.8 1.6 2.6c.8 1.3 1.5 2.7 2.2 4.1.7 1.3 1.6 2.6 2.3 3.9.8 1.4 1.7 2.9 1.1 4.4-.5 1.3-3.5.7-4.6.7-1.5 0-2.9-.1-4.4-.1-2.8-.1-5.6-.2-8.4-.3-.8 0-1.9-1-2.1-1.7-.1-.4 0-.7.2-1.1 1.1-1.9 2.3-3.7 3.3-5.6 1.1-2 1.8-4 2.6-6 .4-.9 1.2-1.6 1.5-2.6.3-.9 1.6-1.6 2.5-1.4z"/><path d="m346.4 347c-2.2.1-4.4.1-6.6.2-3 .1-6.1.4-9.1-.1-.5-.1-1-.2-1.6-.3-1.1-.1-2-1.6-1.5-2.6 1.4-2.4 2.4-4.9 3.7-7.3.4-.8.9-1.6 1.2-2.5 1-2.5 2.2-4.9 3.6-7.2 1-1.7 1.5-1.7 2.6-.1.9 1.3 1.8 2.5 2.2 4 .1.4.4.9.6 1.2 1 1.3 1.8 2.7 2.5 4.2 1.3 2.8 3.5 5.1 4.8 8 .3.6.3 1.1.1 1.6-.2.7-.6 1-1.4.9-.2 0-.4 0-.6 0-.1 0-.3 0-.5 0z"/><path d="m380 343.9c-3.4-.1-6.8.1-10.2.1-1.2 0-2.4 0-3.6 0-1.7 0-2.5-1.2-1.7-2.8 1.8-3.6 3.5-7.3 5.3-11 .8-1.6 1.6-3.1 2.4-4.6.5-.9 1.2-.6 2.1.1.3.2.5.6.6 1.1.4 1.8 1.4 3.3 2.2 4.9.7 1.3 1.2 2.7 1.8 4 .9 1.8 2 3.5 3.2 5.1.2.3.4.6.6.9.6 1.2.1 2.1-1.3 2.1-.4 0-.9.1-1.4.1z"/><path d="m307.4 349.1c-.6 0-1.3-.1-1.9-.2-1-.1-2-.3-3.1-.4-2.7-.3-5.5-.4-8.2-.2-.9.1-1.6-.2-2.2-1s-.6-1.6-.4-2.4c.2-.9.9-1.6 1.4-2.4 2.1-3.1 3.9-6.4 5.7-9.7.2-.5.6-.9.9-1.4.5-.7 1.1-.7 1.7-.1.5.5.8 1.1 1 1.8.5 2.1 1.7 3.8 2.7 5.7 1.1 1.8 1.9 3.7 2.8 5.6.4.8 1 1.4 1.2 2.2.3 1.2-.4 2.4-1.6 2.5z"/><path d="m412.7 311.8c-3.4-.1-6.8.1-10.2.1-1.2 0-2.4 0-3.6 0-1.7 0-2.5-1.2-1.7-2.8 1.8-3.6 3.5-7.3 5.3-11 .8-1.6 1.6-3.1 2.4-4.6.5-.9 1.2-.6 2.1.1.3.2.5.6.6 1.1.4 1.8 1.4 3.3 2.2 4.9.7 1.3 1.2 2.7 1.8 4 .9 1.8 2 3.5 3.2 5.1.2.3.4.6.6.9.6 1.2.1 2.1-1.3 2.1-.4.1-.9.1-1.4.1z"/><path d="m380.2 310.5c-.6 0-1.3-.1-1.9-.2-1-.1-2-.3-3.1-.4-2.8-.3-5.5-.4-8.2-.2-.9.1-1.6-.2-2.2-1s-.6-1.6-.4-2.4c.2-.9.9-1.6 1.4-2.4 2.1-3.1 3.9-6.4 5.7-9.7.2-.5.6-.9.9-1.4.5-.7 1.1-.7 1.7-.1.5.5.8 1.1.9 1.8.5 2.1 1.7 3.8 2.7 5.7 1.1 1.8 1.9 3.7 2.8 5.6.4.8 1 1.4 1.2 2.2.3 1.2-.3 2.4-1.5 2.5z"/><path d="m307.6 317.7c-2.2-.3-4.7-.2-7.1-.4-2.5-.1-5.1-.3-7.6-.6-.7-.1-1.3-.2-2-.4-1.8-.4-2.4-2-1.3-3.5.8-1.3 1.6-2.6 2.5-3.9 1.9-2.8 3.5-5.7 4.8-8.8.5-1.1 1.1-2.1 2-2.9.4-.4.9-.5 1.4-.2 1.1.5 1.6 1.5 2 2.6.9 2.1 2 4.1 2.9 6.1 1.5 3 3.2 6 4.2 9.2.2.5.3 1 .2 1.6-.3.9-.7 1.1-2 1.2zm-1.9-3.4c.6 0 .4-.3.3-.6-.5-.9-1-1.8-1.4-2.8-.8-2-1.7-3.9-2.8-5.8-.7-1.2-1.4-2.3-1.6-3.7 0-.2-.1-.4-.2-.4-.2 0-.3.2-.4.4-.5 1.1-1.1 2.3-1.6 3.5-1.2 2.8-2.9 5.3-4.5 7.9-.4.7-.4.7.4.8 1.4.2 2.8.3 4.2.4 2.6.2 5.1.2 7.6.3z"/><path d="m309.2 386.3c-2.2.1-4.4.1-6.6.2-3 .1-6.1.4-9.1-.1-.5-.1-1-.2-1.6-.3-1.1-.1-2-1.6-1.5-2.6 1.4-2.4 2.4-4.9 3.7-7.3.4-.8.9-1.6 1.2-2.5 1-2.5 2.2-4.9 3.6-7.2 1-1.7 1.5-1.7 2.6-.1.9 1.3 1.8 2.5 2.2 4 .1.4.4.9.6 1.2 1 1.3 1.8 2.7 2.5 4.2 1.3 2.8 3.5 5.1 4.8 8 .3.6.3 1.1.1 1.6-.2.7-.6 1-1.4.9-.2 0-.4 0-.6 0-.1 0-.3 0-.5 0z"/><path d="m349.1 421.9c-4.5-.3-8.6 0-12.7-.5-.6-.1-1.3 0-1.9 0-1.1 0-2.1.1-3.1-.1-1.2-.1-2-1.4-1.5-2.6.5-1.3 1.4-2.5 2.2-3.6 1.4-2.1 3-4.1 4.2-6.3.7-1.4 1.4-2.7 2.1-4.1.3-.6.7-1.1 1-1.6.3-.4.7-.5 1.2-.4.6.2 1.1.6 1.3 1.2.6 1.7 1.6 3.2 2.4 4.8 1.8 3.8 3.7 7.5 5.6 11.3.4 1.1-.1 1.9-.8 1.9z"/><path d="m257.7 418.4c-.6 0-1.2.2-1.8-.3-.8-.7-1-1.6-.4-2.5 2-3.3 3.8-6.8 5.8-10.1.8-1.5 1.3-3.1 2.2-4.6.9-1.6 1.7-1.7 2.8-.2.8 1 1.5 2 1.9 3.2.7 2.1 2.3 3.7 3.5 5.6 1.3 2 2.6 3.9 3.9 5.8.4.6.5 1.3.6 2 .1.5-.6 1-1.4 1.1-1.3.1-2.7 0-4 0-2.1 0-4.2 0-6.3-.1-2 0-4 .3-6.1 0-.2 0-.5.1-.7.1z"/><path d="m346.1 385.9c-3.4-.1-6.8.1-10.2.1-1.2 0-2.4 0-3.6 0-1.7 0-2.5-1.2-1.7-2.8 1.8-3.6 3.5-7.3 5.3-11 .8-1.6 1.6-3.1 2.4-4.6.5-.9 1.2-.6 2.1.1.3.2.5.6.6 1.1.4 1.8 1.4 3.3 2.2 4.9.7 1.3 1.2 2.7 1.8 4 .9 1.8 2 3.5 3.2 5.1.2.3.4.6.6.9.6 1.2.1 2.1-1.3 2.1-.4 0-.9.1-1.4.1z"/><path d="m270.9 384.4c-.6 0-1.3-.1-1.9-.2-1-.1-2-.3-3.1-.4-2.7-.3-5.5-.4-8.2-.2-.9.1-1.6-.2-2.2-1s-.6-1.6-.4-2.4c.2-.9.9-1.6 1.4-2.4 2.1-3.1 3.9-6.4 5.7-9.7.2-.5.6-.9.9-1.4.5-.7 1.1-.7 1.7-.1.5.5.8 1.1.9 1.8.5 2.1 1.7 3.8 2.7 5.7 1.1 1.8 1.9 3.7 2.8 5.6.4.8 1 1.4 1.2 2.2.4 1.2-.3 2.4-1.5 2.5z"/><path d="m415.4 420.9c-3.4-.1-6.8.1-10.2.1-1.2 0-2.4 0-3.6 0-1.7 0-2.5-1.2-1.7-2.8 1.8-3.6 3.5-7.3 5.3-11 .8-1.6 1.6-3.1 2.4-4.6.5-.9 1.2-.6 2.1.1.3.2.5.6.6 1.1.4 1.8 1.4 3.3 2.2 4.9.7 1.3 1.2 2.7 1.8 4 .9 1.8 2 3.5 3.2 5.1.2.3.4.6.6.9.6 1.2.1 2.1-1.3 2.1-.3 0-.8.1-1.4.1z"/><path d="m383.8 385.7c0 1.3-.5 2.2-1.4 2.1-1.2-.2-2.4.1-3.6 0-1.3-.1-2.6-.1-3.9-.2-2.5-.1-5 .1-7.5-.3-.9-.1-1.8-.2-2.7-.4-1.4-.3-1.9-1.4-1.3-2.7.5-1.2 1.2-2.2 1.8-3.3 1-1.7 1.8-3.5 2.7-5.3 1.2-2.3 2.3-4.7 3.4-7 .3-.5.3-1.2 1-1.4.6-.2 1.2-.1 1.6.5.6 1 1.3 1.9 1.9 2.9.8 1.3 1.5 2.5 2.1 3.9.4 1.2 1.2 2.3 1.9 3.4 1.3 1.9 2.4 3.9 3.6 6 .2.5.3 1.2.4 1.8zm-5-.9h.7c1 0 1.1-.1.6-1.1-.6-1.3-1.3-2.5-2.2-3.7-1-1.4-2-2.8-2.7-4.5-.5-1.3-1.3-2.4-1.9-3.6-.1-.2-.2-.4-.5-.4-.2 0-.2.3-.3.4-.7 1.6-1.3 3.2-2.1 4.7-1.1 2.2-2.2 4.5-3.5 6.6-.4.7-.4.9.5.9 3.9.6 7.7.6 11.4.7z"/><path d="m238.7 23.1c.1 1-.3 1.4-1.2 1.4-2.5-.1-5.1-.2-7.6-.3-1.9-.1-3.7-.1-5.6-.2-1 0-2.1 0-3.1-.2-1.9-.4-2.7-2-1.6-3.6 1.7-2.5 3.1-5.1 4.4-7.7 1-2 2.1-3.9 3.5-5.7.5-.7 1.2-.8 1.9-.3.4.3.7.5.9.9 1.6 3.2 3.5 6.2 5.3 9.3.9 1.6 1.9 3.2 2.7 4.9.2.6.4 1.1.4 1.5z"/><path d="m201.4 54.2c-2.2 0-4.4 0-6.6 0-3 0-6.1.3-9.1-.3-.5-.1-1-.2-1.6-.3-1.1-.1-2-1.7-1.4-2.6 1.4-2.3 2.5-4.8 3.9-7.2.5-.8.9-1.6 1.2-2.5 1-2.5 2.3-4.9 3.7-7.1 1.1-1.6 1.5-1.7 2.6 0 .8 1.3 1.7 2.5 2 4.1.1.4.3.9.6 1.2 1 1.3 1.8 2.8 2.4 4.3 1.2 2.9 3.4 5.2 4.6 8.1.2.6.2 1.1.1 1.6-.2.7-.7 1-1.4.8-.2 0-.4 0-.6 0 0-.1-.2-.1-.4-.1z"/><path d="m236.3 58.5c-3.4-.2-6.8-.1-10.2-.2-1.2 0-2.4 0-3.6-.1-1.7 0-2.4-1.3-1.7-2.8 1.9-3.6 3.7-7.2 5.5-10.8.8-1.5 1.7-3 2.5-4.5.5-.8 1.2-.6 2.1.1.3.3.5.7.6 1.1.4 1.8 1.3 3.3 2.1 4.9.7 1.3 1.1 2.7 1.7 4 .9 1.8 1.9 3.6 3.1 5.2.2.3.4.6.6.9.6 1.2 0 2.1-1.4 2.1-.3.1-.8.1-1.3.1z"/><path d="m202.1 92.7c-3.4-.3-6.9-.4-10.3-.7-1.9-.2-3.8-.6-5.6-1.3-1.7-.7-2-1.6-1.3-3.2.5-1.2 1.1-2.4 1.8-3.5 1.2-2.1 1.9-4.4 2.9-6.5.9-1.9 1.7-3.9 2.8-5.8.3-.5.5-.9 1.1-.9.7 0 1.2.3 1.4.9.8 1.8 1.9 3.4 2.9 5 1.3 2.2 3 4.2 4.1 6.5 1.1 2.4 2.5 4.7 2.9 7.3.1.4.1.8 0 1.2-.1.6-.5 1-1.2 1.1-.6-.1-1-.1-1.5-.1zm-1.4-3.4c.8.1.6-.3.4-.7-1.2-2.8-2.4-5.6-4.2-8.1-1-1.4-2-2.8-2.8-4.3-.1-.2-.2-.4-.4-.4s-.2.2-.3.4c-.3.5-.6 1.1-.9 1.6-.7 1.5-1.2 3-1.8 4.5-.6 1.7-1.4 3.4-2.3 5-.3.5-.3.8.4.9 1.1.3 2.2.5 3.4.6 2.9.1 5.7.4 8.5.5z"/><path d="m201.4 251.7c-2.2 0-4.4 0-6.6 0-3 0-6.1.3-9.1-.3-.5-.1-1-.2-1.6-.3-1.1-.1-2-1.7-1.4-2.6 1.4-2.3 2.5-4.8 3.9-7.2.5-.8.9-1.6 1.2-2.5 1-2.5 2.3-4.9 3.7-7.1 1.1-1.6 1.5-1.7 2.6 0 .8 1.3 1.7 2.5 2 4.1.1.4.3.9.6 1.2 1 1.3 1.8 2.8 2.4 4.3 1.2 2.9 3.4 5.2 4.6 8.1.2.6.2 1.1.1 1.6-.2.7-.7 1-1.4.8-.2 0-.4 0-.6 0 0-.1-.2-.1-.4-.1z"/><path d="m186.5 130.4c-.6 0-1.3.1-1.8-.4-.8-.8-.9-1.6-.3-2.5 2.1-3.3 4-6.7 6-10 .9-1.4 1.4-3.1 2.3-4.5 1-1.6 1.7-1.6 2.8-.2.8 1 1.5 2 1.9 3.2.7 2.1 2.2 3.8 3.3 5.7 1.2 2 2.5 4 3.8 5.9.4.6.5 1.3.6 2 .1.5-.6 1-1.4 1-1.3 0-2.7 0-4-.1-2.1-.1-4.2-.1-6.3-.2-2-.1-4 .2-6.1-.1-.2.2-.5.2-.8.2z"/><path d="m238.7 131.2c.1 1-.3 1.4-1.2 1.4-2.5-.1-5.1-.2-7.6-.3-1.9-.1-3.7-.1-5.6-.2-1 0-2.1 0-3.1-.2-1.9-.4-2.7-2-1.6-3.6 1.7-2.5 3.1-5.1 4.4-7.7 1-2 2.1-3.9 3.5-5.7.5-.7 1.2-.8 1.9-.3.4.3.7.5.9 1 1.6 3.2 3.5 6.2 5.3 9.3.9 1.6 1.9 3.2 2.7 4.9.2.5.4 1 .4 1.4z"/><path d="m218 222.4c0-1.7.9-3.2 1.7-4.7 2-3.8 4-7.6 6.1-11.4.9-1.6 1.8-3.3 2.9-4.8.4-.5.8-.7 1.3-.3.8.6 1.7 1.1 2.1 2.2.4 1.3 1.2 2.4 1.9 3.6 1 1.7 1.8 3.5 2.5 5.4 1.2 3.3 2.5 6.6 3.4 10 .3 1.1.7 2.2.5 3.4-.2.8-.6 1.1-1.4 1.1-3.3-.1-6.6-.3-9.8-.6-1.8-.2-3.6-.2-5.4-.2-.9 0-1.8-.1-2.6-.2-2.1-.3-3.3-1.7-3.2-3.5zm17.5.9c0-.1 0-.1 0 0h.8c.5.1.7-.2.6-.7-.1-.4-.2-.8-.3-1.1-.5-1.3-.9-2.6-1.4-3.9-.6-1.4-1.1-2.9-1.6-4.4-.8-2.2-1.8-4.2-3-6.1-.2-.4-.4-1.1-.7-1.1-.5 0-.6.7-.9 1.2-1.7 3.2-3.4 6.4-5 9.6-.8 1.5-1.4 3-2.3 4.4-.5.9-.3 1.2.8 1.3.8 0 1.6 0 2.3.1 3.5.2 7.1.4 10.7.7z"/><path d="m201.4 168.3c-2.2 0-4.4 0-6.6 0-3 0-6.1.3-9.1-.3-.5-.1-1-.2-1.6-.3-1.1-.1-2-1.7-1.4-2.6 1.4-2.3 2.5-4.8 3.9-7.2.5-.8.9-1.6 1.2-2.5 1-2.5 2.3-4.9 3.7-7.1 1.1-1.6 1.5-1.7 2.6 0 .8 1.3 1.7 2.5 2 4.1.1.4.3.9.6 1.2 1 1.3 1.8 2.8 2.4 4.3 1.2 2.9 3.4 5.2 4.6 8.1.2.6.2 1.1.1 1.6-.2.7-.7 1-1.4.8-.2 0-.4 0-.6 0 0-.1-.2-.1-.4-.1z"/><path d="m237.3 186.4c-3.4-.2-6.8-.1-10.2-.2-1.2 0-2.4 0-3.6-.1-1.7 0-2.4-1.3-1.7-2.8 1.9-3.6 3.7-7.2 5.5-10.8.8-1.5 1.7-3 2.5-4.5.5-.8 1.2-.6 2.1.1.3.3.5.7.6 1.1.4 1.8 1.3 3.3 2.1 4.9.7 1.3 1.1 2.7 1.7 4 .9 1.8 1.9 3.6 3.1 5.2.2.3.4.6.6.9.6 1.2 0 2.1-1.4 2.1-.3 0-.8.1-1.3.1z"/><path d="m306.5 23.3c-2.2.1-4.4.1-6.6.2-3 .1-6.1.4-9.1-.1-.5-.1-1-.2-1.6-.3-1.1-.1-2-1.6-1.5-2.6 1.4-2.4 2.4-4.9 3.7-7.3.4-.8.9-1.6 1.2-2.5 1-2.5 2.2-4.9 3.6-7.2 1-1.7 1.5-1.7 2.6-.1.9 1.3 1.8 2.5 2.1 4 .1.4.4.9.6 1.2 1 1.3 1.8 2.7 2.5 4.2 1.3 2.8 3.5 5.1 4.8 8 .3.6.3 1.1.1 1.6-.2.7-.6 1-1.4.9-.2 0-.4 0-.6 0 0-.1-.2 0-.4 0z"/><path d="m254.9 82.7c-.6 0-1.2.2-1.8-.3-.8-.7-1-1.6-.4-2.5 2-3.3 3.8-6.8 5.8-10.1.8-1.5 1.3-3.1 2.2-4.6.9-1.6 1.7-1.7 2.8-.2.8 1 1.5 2 1.9 3.2.7 2.1 2.3 3.7 3.5 5.6 1.3 2 2.6 3.9 3.9 5.8.4.6.5 1.3.6 2 .1.5-.6 1-1.4 1.1-1.3.1-2.7 0-4 0-2.1 0-4.2 0-6.3-.1-2 0-4 .3-6.1 0-.1-.1-.4 0-.7.1z"/><path d="m341.7 36.7c-3.4-.1-6.8.1-10.2.1-1.2 0-2.4 0-3.6 0-1.7 0-2.5-1.2-1.7-2.8 1.8-3.6 3.5-7.3 5.3-11 .8-1.6 1.6-3.1 2.4-4.6.5-.9 1.2-.6 2.1.1.3.2.5.6.6 1.1.4 1.8 1.4 3.3 2.2 4.9.7 1.3 1.2 2.7 1.8 4 .9 1.8 2 3.5 3.2 5.1.2.3.4.6.6.9.6 1.2.1 2.1-1.3 2.1-.4 0-.9.1-1.4.1z"/><path d="m268.3 36.4c-.6 0-1.3-.1-1.9-.2-1-.1-2-.3-3.1-.4-2.7-.3-5.5-.4-8.2-.2-.9.1-1.6-.2-2.2-1s-.6-1.6-.4-2.4c.2-.9.9-1.6 1.4-2.4 2.1-3.1 3.9-6.4 5.7-9.7.2-.5.6-.9.9-1.4.5-.7 1.1-.7 1.7-.1.5.5.8 1.1.9 1.8.5 2.1 1.7 3.8 2.7 5.7 1.1 1.8 1.9 3.7 2.8 5.6.4.8 1 1.4 1.2 2.2.3 1.2-.3 2.4-1.5 2.5z"/><path d="m264.2 82.6c1.1.4 1.7 2.2 2.2 3.1s1 1.8 1.6 2.6c.8 1.3 1.5 2.7 2.2 4.1.7 1.3 1.6 2.6 2.3 3.9.8 1.4 1.7 2.9 1.1 4.4-.5 1.3-3.5.7-4.6.7-1.5 0-2.9-.1-4.4-.1-2.8-.1-5.6-.2-8.4-.3-.8 0-1.9-1-2.1-1.7-.1-.4 0-.7.2-1.1 1.1-1.9 2.3-3.7 3.3-5.6 1.1-2 1.8-4 2.6-6 .4-.9 1.2-1.6 1.5-2.6.3-.9 1.6-1.7 2.5-1.4z"/><path d="m343.4 96.3c-2.2.1-4.4.1-6.6.2-3 .1-6.1.4-9.1-.1-.5-.1-1-.2-1.6-.3-1.1-.1-2-1.6-1.5-2.6 1.4-2.4 2.4-4.9 3.7-7.3.4-.8.9-1.6 1.2-2.5 1-2.5 2.2-4.9 3.6-7.2 1-1.7 1.5-1.7 2.6-.1.9 1.3 1.8 2.5 2.2 4 .1.4.4.9.6 1.2 1 1.3 1.8 2.7 2.5 4.2 1.3 2.8 3.5 5.1 4.8 8 .3.6.3 1.1.1 1.6-.2.7-.6 1-1.4.9-.2 0-.4 0-.6 0-.1 0-.3 0-.5 0z"/><path d="m380 93.1c-3.4-.1-6.8.1-10.2.1-1.2 0-2.4 0-3.6 0-1.7 0-2.5-1.2-1.7-2.8 1.8-3.6 3.5-7.3 5.3-11 .8-1.6 1.6-3.1 2.4-4.6.5-.9 1.2-.6 2.1.1.3.2.5.6.6 1.1.4 1.8 1.4 3.3 2.2 4.9.7 1.3 1.2 2.7 1.8 4 .9 1.8 2 3.5 3.2 5.1.2.3.4.6.6.9.6 1.2.1 2.1-1.3 2.1-.4.1-.9.1-1.4.1z"/><path d="m307.4 98.4c-.6 0-1.3-.1-1.9-.2-1-.1-2-.3-3.1-.4-2.7-.3-5.5-.4-8.2-.2-.9.1-1.6-.2-2.2-1s-.6-1.6-.4-2.4c.2-.9.9-1.6 1.4-2.4 2.1-3.1 3.9-6.4 5.7-9.7.2-.5.6-.9.9-1.4.5-.7 1.1-.7 1.7-.1.5.5.8 1.1 1 1.8.5 2.1 1.7 3.8 2.7 5.7 1.1 1.8 1.9 3.7 2.8 5.6.4.8 1 1.4 1.2 2.2.3 1.1-.4 2.4-1.6 2.5z"/><path d="m412.4 76.7c-3.4-.1-6.8.1-10.2.1-1.2 0-2.4 0-3.6 0-1.7 0-2.5-1.2-1.7-2.8 1.8-3.6 3.5-7.3 5.3-11 .8-1.6 1.6-3.1 2.4-4.6.5-.9 1.2-.6 2.1.1.3.2.5.6.6 1.1.4 1.8 1.4 3.3 2.2 4.9.7 1.3 1.2 2.7 1.8 4 .9 1.8 2 3.5 3.2 5.1.2.3.4.6.6.9.6 1.2.1 2.1-1.3 2.1-.4 0-.9.1-1.4.1z"/><path d="m379.2 56.8c-.6 0-1.3-.1-1.9-.2-1-.1-2-.3-3.1-.4-2.8-.3-5.5-.4-8.2-.2-.9.1-1.6-.2-2.2-1s-.6-1.6-.4-2.4c.2-.9.9-1.6 1.4-2.4 2.1-3.1 3.9-6.4 5.7-9.7.2-.5.6-.9.9-1.4.5-.7 1.1-.7 1.7-.1.5.5.8 1.1.9 1.8.5 2.1 1.7 3.8 2.7 5.7 1.1 1.8 1.9 3.7 2.8 5.6.4.8 1 1.4 1.2 2.2.3 1.1-.3 2.4-1.5 2.5z"/><path d="m350.1 224.6c-4.5-.3-8.6 0-12.7-.5-.6-.1-1.3 0-1.9 0-1.1 0-2.1.1-3.2-.1-1.2-.1-2-1.4-1.5-2.6.5-1.3 1.4-2.5 2.2-3.6 1.4-2.1 3-4.1 4.2-6.3.7-1.4 1.4-2.7 2.1-4.1.3-.6.7-1.1 1-1.6.3-.4.7-.5 1.2-.4.6.2 1.1.6 1.3 1.2.6 1.7 1.6 3.2 2.4 4.8 1.8 3.8 3.7 7.5 5.6 11.3.4 1 0 1.8-.7 1.9z"/><path d="m256.6 251.1c-.6 0-1.2.2-1.8-.3-.8-.7-1-1.6-.4-2.5 2-3.3 3.8-6.8 5.8-10.1.8-1.5 1.3-3.1 2.2-4.6.9-1.6 1.7-1.7 2.8-.2.8 1 1.5 2 1.9 3.2.7 2.1 2.3 3.7 3.5 5.6 1.3 2 2.6 3.9 3.9 5.8.4.6.5 1.3.6 2 .1.5-.6 1-1.4 1.1-1.3.1-2.7 0-4 0-2.1 0-4.2 0-6.3-.1-2 0-4 .3-6.1 0-.1 0-.4.1-.7.1z"/><path d="m413.4 258.6c-3.4-.1-6.8.1-10.2.1-1.2 0-2.4 0-3.6 0-1.7 0-2.5-1.2-1.7-2.8 1.8-3.6 3.5-7.3 5.3-11 .8-1.6 1.6-3.1 2.4-4.6.5-.9 1.2-.6 2.1.1.3.2.5.6.6 1.1.4 1.8 1.4 3.3 2.2 4.9.7 1.3 1.2 2.7 1.8 4 .9 1.8 2 3.5 3.2 5.1.2.3.4.6.6.9.6 1.2.1 2.1-1.3 2.1-.4 0-.9.1-1.4.1z"/><path d="m381.1 21.7c0 1.3-.5 2.2-1.4 2.1-1.2-.2-2.4.1-3.6 0-1.3-.1-2.6-.1-3.9-.2-2.5-.1-5 .1-7.5-.3-.9-.1-1.8-.2-2.7-.4-1.4-.3-1.9-1.4-1.3-2.7.5-1.2 1.2-2.2 1.8-3.3 1-1.7 1.8-3.5 2.7-5.3 1.2-2.3 2.3-4.7 3.4-7 .3-.5.3-1.2 1-1.4.6-.2 1.2-.1 1.6.5.6 1 1.3 1.9 1.9 2.9.8 1.3 1.5 2.5 2.1 3.9.4 1.2 1.2 2.3 1.9 3.4 1.3 1.9 2.4 3.9 3.6 6 .3.4.3 1.2.4 1.8zm-4.9-.9h.7c1 0 1.1-.1.6-1-.6-1.3-1.3-2.5-2.2-3.7-1-1.4-2-2.8-2.7-4.5-.5-1.3-1.3-2.4-1.9-3.6-.1-.2-.2-.4-.5-.4-.2 0-.2.3-.3.4-.7 1.6-1.3 3.2-2.1 4.7-1.1 2.2-2.2 4.5-3.5 6.6-.4.7-.4.9.5.9 3.8.4 7.6.4 11.4.6z"/><path d="m309.2 129.3c-2.2.1-4.4.1-6.6.2-3 .1-6.1.4-9.1-.1-.5-.1-1-.2-1.6-.3-1.1-.1-2-1.6-1.5-2.6 1.4-2.4 2.4-4.9 3.7-7.3.4-.8.9-1.6 1.2-2.5 1-2.5 2.2-4.9 3.6-7.2 1-1.7 1.5-1.7 2.6-.1.9 1.3 1.8 2.5 2.2 4 .1.4.4.9.6 1.2 1 1.3 1.8 2.7 2.5 4.2 1.3 2.8 3.5 5.1 4.8 8 .3.6.3 1.1.1 1.6-.2.7-.6 1-1.4.9-.2 0-.4 0-.6 0-.1 0-.3 0-.5 0z"/><path d="m347.1 165.9c-4.5-.3-8.6 0-12.7-.5-.6-.1-1.3 0-1.9 0-1.1 0-2.1.1-3.1-.1-1.2-.1-2-1.4-1.5-2.6.5-1.3 1.4-2.5 2.2-3.6 1.4-2.1 3-4.1 4.2-6.3.7-1.4 1.4-2.7 2.1-4.1.3-.6.7-1.1 1-1.6.3-.4.7-.5 1.2-.4.6.2 1.1.6 1.3 1.2.6 1.7 1.6 3.2 2.4 4.8 1.8 3.8 3.7 7.5 5.6 11.3.4 1.1-.1 1.9-.8 1.9z"/><path d="m416.2 109.9c.1 1-.3 1.4-1.2 1.4-2.5 0-5.1-.1-7.6-.1-1.9 0-3.7 0-5.6-.1-1 0-2.1.1-3.1-.1-1.9-.3-2.7-2-1.7-3.5 1.6-2.5 3-5.2 4.2-7.8 1-2 2-4 3.4-5.7.5-.7 1.2-.8 1.9-.4.4.2.7.5.9.9 1.6 3.2 3.7 6.1 5.5 9.2.9 1.6 2 3.1 2.8 4.8.3.5.5.9.5 1.4z"/><path d="m257.7 167.4c-.6 0-1.2.2-1.8-.3-.8-.7-1-1.6-.4-2.5 2-3.3 3.8-6.7 5.8-10.1.8-1.5 1.3-3.1 2.2-4.6.9-1.6 1.7-1.7 2.8-.2.8 1 1.5 2 1.9 3.2.7 2.1 2.3 3.8 3.5 5.6 1.3 2 2.6 3.9 3.9 5.8.4.6.5 1.3.6 2 .1.5-.6 1-1.4 1.1-1.3.1-2.7 0-4 0-2.1 0-4.2 0-6.3-.1-2 0-4 .3-6.1 0-.2 0-.5.1-.7.1z"/><path d="m344.3 129.8c-3.4-.1-6.8.1-10.2.1-1.2 0-2.4 0-3.6 0-1.7 0-2.5-1.2-1.7-2.8 1.8-3.6 3.5-7.3 5.3-11 .8-1.6 1.6-3.1 2.4-4.6.5-.9 1.2-.6 2.1.1.3.2.5.6.6 1.1.4 1.8 1.4 3.3 2.2 4.9.7 1.3 1.2 2.7 1.8 4 .9 1.8 2 3.5 3.2 5.1.2.3.4.6.6.9.6 1.2.1 2.1-1.3 2.1-.3 0-.9.1-1.4.1z"/><path d="m396 203.5c-.1-1.7.8-3.2 1.5-4.8 1.9-3.9 3.8-7.7 5.8-11.6.8-1.7 1.7-3.3 2.7-4.9.4-.5.8-.7 1.3-.3.8.6 1.7 1.1 2.1 2.2.5 1.3 1.2 2.4 2 3.5 1.1 1.7 1.9 3.5 2.7 5.3 1.3 3.3 2.7 6.5 3.7 9.9.3 1.1.7 2.2.5 3.3-.1.8-.6 1.1-1.3 1.1-3.3-.1-6.6-.1-9.9-.4-1.8-.1-3.6-.1-5.4-.1-.9 0-1.8 0-2.6-.1-1.9 0-3.1-1.4-3.1-3.1zm17.5.3h.8c.5 0 .7-.2.6-.7-.1-.4-.2-.8-.3-1.1-.5-1.3-1-2.6-1.5-3.9-.6-1.4-1.1-2.9-1.7-4.3-.8-2.2-1.9-4.1-3.2-6-.3-.4-.4-1.1-.8-1.1-.5.1-.6.8-.8 1.2-1.6 3.2-3.2 6.5-4.8 9.7-.7 1.5-1.4 3-2.2 4.5-.5.9-.3 1.2.8 1.3h2.3c3.6.1 7.2.3 10.8.4z"/><path d="m382.8 180.9c-3.4-.1-6.8.1-10.2.1-1.2 0-2.4 0-3.6 0-1.7 0-2.5-1.2-1.7-2.8 1.8-3.6 3.5-7.3 5.3-11 .8-1.6 1.6-3.1 2.4-4.6.5-.9 1.2-.6 2.1.1.3.2.5.6.6 1.1.4 1.8 1.4 3.3 2.2 4.9.7 1.3 1.2 2.7 1.8 4 .9 1.8 2 3.5 3.2 5.1.2.3.4.6.6.9.6 1.2.1 2.1-1.3 2.1-.4.1-.9.1-1.4.1z"/><path d="m310.2 222.1c-.6 0-1.3-.1-1.9-.2-1-.1-2-.3-3.1-.4-2.8-.3-5.5-.4-8.2-.2-.9.1-1.6-.2-2.2-1s-.6-1.6-.4-2.4c.2-.9.9-1.6 1.4-2.4 2.1-3.1 3.9-6.4 5.7-9.7.2-.5.6-.9.9-1.4.5-.7 1.1-.7 1.7-.1.5.5.8 1.1 1 1.8.5 2.1 1.7 3.8 2.7 5.7 1.1 1.8 1.9 3.7 2.8 5.6.4.8 1 1.4 1.2 2.2.3 1.2-.4 2.5-1.6 2.5z"/><path d="m415.4 169.9c-3.4-.1-6.8.1-10.2.1-1.2 0-2.4 0-3.6 0-1.7 0-2.5-1.2-1.7-2.8 1.8-3.6 3.5-7.3 5.3-11 .8-1.6 1.6-3.1 2.4-4.6.5-.9 1.2-.6 2.1.1.3.2.5.6.6 1.1.4 1.8 1.4 3.3 2.2 4.9.7 1.3 1.2 2.7 1.8 4 .9 1.8 2 3.5 3.2 5.1.2.3.4.6.6.9.6 1.2.1 2.1-1.3 2.1-.3 0-.8.1-1.4.1z"/><path d="m381.9 146.5c-.6 0-1.3-.1-1.9-.2-1-.1-2-.3-3.1-.4-2.8-.3-5.5-.4-8.2-.2-.9.1-1.6-.2-2.2-1s-.6-1.6-.4-2.4c.2-.9.9-1.6 1.4-2.4 2.1-3.1 3.9-6.4 5.7-9.7.2-.5.6-.9.9-1.4.5-.7 1.1-.7 1.7-.1.5.5.8 1.1.9 1.8.5 2.1 1.7 3.8 2.7 5.7 1.1 1.8 1.9 3.7 2.8 5.6.4.8 1 1.4 1.2 2.2.3 1.2-.3 2.5-1.5 2.5z"/><path d="m310.3 187.7c-2.2-.3-4.7-.2-7.1-.4-2.5-.1-5.1-.3-7.6-.6-.7-.1-1.3-.2-2-.4-1.8-.4-2.4-2-1.3-3.5.8-1.3 1.6-2.6 2.5-3.9 1.9-2.8 3.5-5.7 4.8-8.8.5-1.1 1.1-2.1 2-2.9.5-.4.9-.5 1.5-.2 1.1.5 1.6 1.5 2 2.6.9 2.1 2 4.1 2.9 6.1 1.5 3 3.2 6 4.2 9.2.2.5.3 1 .2 1.6-.4 1-.7 1.2-2.1 1.2zm-1.9-3.3c.6 0 .4-.3.3-.6-.5-.9-1-1.8-1.4-2.8-.8-2-1.7-3.9-2.8-5.8-.7-1.2-1.4-2.3-1.6-3.7 0-.2-.1-.4-.2-.4-.2 0-.3.2-.4.4-.5 1.1-1.1 2.3-1.6 3.5-1.2 2.8-2.9 5.3-4.5 7.9-.4.7-.4.7.4.8 1.4.2 2.8.3 4.2.4 2.6.1 5.1.2 7.6.3z"/><path d="m384.8 109.9c0 1.3-.5 2.2-1.4 2.1-1.2-.2-2.4.1-3.6 0-1.3-.1-2.6-.1-3.9-.2-2.5-.1-5 .1-7.5-.3-.9-.1-1.8-.2-2.7-.4-1.4-.3-1.9-1.4-1.3-2.7.5-1.2 1.2-2.2 1.8-3.3 1-1.7 1.8-3.5 2.7-5.3 1.2-2.3 2.3-4.7 3.4-7 .3-.5.3-1.2 1-1.4.6-.2 1.2-.1 1.6.5.6 1 1.3 1.9 1.9 2.9.8 1.3 1.5 2.5 2.1 3.9.4 1.2 1.2 2.3 1.9 3.4 1.3 1.9 2.4 3.9 3.6 5.9.3.6.3 1.4.4 1.9zm-4.9-.8h.7c1 0 1.1-.1.6-1-.6-1.3-1.3-2.5-2.2-3.7-1-1.4-2-2.8-2.7-4.5-.5-1.3-1.3-2.4-1.9-3.6-.1-.2-.2-.4-.5-.4-.2 0-.2.3-.3.4-.7 1.6-1.3 3.2-2.1 4.7-1.1 2.2-2.2 4.5-3.5 6.6-.4.7-.4.9.5.9 3.9.4 7.6.4 11.4.6z"/><path d="m201.4 289.1c-2.2 0-4.4 0-6.6 0-3 0-6.1.3-9.1-.3-.5-.1-1-.2-1.6-.3-1.1-.1-2-1.7-1.4-2.6 1.4-2.3 2.5-4.8 3.9-7.2.5-.8.9-1.6 1.2-2.5 1-2.5 2.3-4.9 3.7-7.1 1.1-1.6 1.5-1.7 2.6 0 .8 1.3 1.7 2.5 2 4.1.1.4.3.9.6 1.2 1 1.3 1.8 2.8 2.4 4.3 1.2 2.9 3.4 5.2 4.6 8.1.2.6.2 1.1.1 1.6-.2.7-.7 1-1.4.8-.2 0-.4 0-.6 0 0-.1-.2-.1-.4-.1z"/><path d="m237.3 292.4c-3.4-.2-6.8-.1-10.2-.2-1.2 0-2.4 0-3.6-.1-1.7 0-2.4-1.3-1.7-2.8 1.9-3.6 3.7-7.2 5.5-10.8.8-1.5 1.7-3 2.5-4.5.5-.8 1.2-.6 2.1.1.3.3.5.7.6 1.1.4 1.8 1.3 3.3 2.1 4.9.7 1.3 1.1 2.7 1.7 4 .9 1.8 1.9 3.6 3.1 5.2.2.3.4.6.6.9.6 1.2 0 2.1-1.4 2.1-.3.1-.8.1-1.3.1z"/><path d="m202.1 324.6c-3.4-.3-6.9-.4-10.3-.7-1.9-.2-3.8-.6-5.6-1.3-1.7-.7-2-1.6-1.3-3.2.5-1.2 1.1-2.4 1.8-3.5 1.2-2.1 1.9-4.4 2.9-6.5.9-1.9 1.7-3.9 2.8-5.8.3-.5.5-.9 1.1-.9.7 0 1.2.3 1.4.9.8 1.8 1.9 3.4 2.9 5 1.3 2.2 3 4.2 4.1 6.5 1.1 2.4 2.5 4.7 2.9 7.3.1.4.1.8 0 1.2-.1.6-.5 1-1.2 1.1-.6-.1-1-.1-1.5-.1zm-1.4-3.5c.8.1.6-.3.4-.7-1.2-2.8-2.4-5.6-4.2-8.1-1-1.4-2-2.8-2.8-4.3-.1-.2-.2-.4-.4-.4s-.2.2-.3.4c-.3.5-.6 1.1-.9 1.6-.7 1.5-1.2 3-1.8 4.5-.6 1.7-1.4 3.4-2.3 5-.3.5-.3.8.4.9 1.1.3 2.2.5 3.4.6 2.9.2 5.7.5 8.5.5z"/><path d="m186.5 366.5c-.6 0-1.3.1-1.8-.4-.8-.8-.9-1.6-.3-2.5 2.1-3.3 4-6.7 6-10 .9-1.4 1.4-3.1 2.3-4.5 1-1.6 1.7-1.6 2.8-.2.8 1 1.5 2 1.9 3.2.7 2.1 2.2 3.8 3.3 5.7 1.2 2 2.5 4 3.8 5.9.4.6.5 1.3.6 2 .1.5-.6 1-1.4 1-1.3 0-2.7 0-4-.1-2.1-.1-4.2-.1-6.3-.2-2-.1-4 .2-6.1-.1-.2.1-.5.2-.8.2z"/><path d="m238.7 365.4c.1 1-.3 1.4-1.2 1.4-2.5-.1-5.1-.2-7.6-.3-1.9-.1-3.7-.1-5.6-.2-1 0-2.1 0-3.1-.2-1.9-.4-2.7-2-1.6-3.6 1.7-2.5 3.1-5.1 4.4-7.7 1-2 2.1-3.9 3.5-5.7.5-.7 1.2-.8 1.9-.3.4.3.7.5.9 1 1.6 3.2 3.5 6.2 5.3 9.3.9 1.6 1.9 3.2 2.7 4.9.2.4.4.9.4 1.4z"/><path d="m201.4 404.2c-2.2 0-4.4 0-6.6 0-3 0-6.1.3-9.1-.3-.5-.1-1-.2-1.6-.3-1.1-.1-2-1.7-1.4-2.6 1.4-2.3 2.5-4.8 3.9-7.2.5-.8.9-1.6 1.2-2.5 1-2.5 2.3-4.9 3.7-7.1 1.1-1.6 1.5-1.7 2.6 0 .8 1.3 1.7 2.5 2 4.1.1.4.3.9.6 1.2 1 1.3 1.8 2.8 2.4 4.3 1.2 2.9 3.4 5.2 4.6 8.1.2.6.2 1.1.1 1.6-.2.7-.7 1-1.4.8-.2 0-.4 0-.6 0 0-.1-.2-.1-.4-.1z"/><path d="m237.3 404.5c-3.4-.2-6.8-.1-10.2-.2-1.2 0-2.4 0-3.6-.1-1.7 0-2.4-1.3-1.7-2.8 1.9-3.6 3.7-7.2 5.5-10.8.8-1.5 1.7-3 2.5-4.5.5-.8 1.2-.6 2.1.1.3.3.5.7.6 1.1.4 1.8 1.3 3.3 2.1 4.9.7 1.3 1.1 2.7 1.7 4 .9 1.8 1.9 3.6 3.1 5.2.2.3.4.6.6.9.6 1.2 0 2.1-1.4 2.1-.3.1-.8.1-1.3.1z"/><path d="m347.4 294c-4.5-.3-8.6 0-12.7-.5-.6-.1-1.3 0-1.9 0-1.1 0-2.1.1-3.2-.1-1.2-.1-2-1.4-1.5-2.6.5-1.3 1.4-2.5 2.2-3.6 1.4-2.1 3-4.1 4.2-6.3.7-1.4 1.4-2.7 2.1-4.1.3-.6.7-1.1 1-1.6.3-.4.7-.5 1.2-.4.6.2 1.1.6 1.3 1.2.6 1.7 1.6 3.2 2.4 4.8 1.8 3.8 3.7 7.5 5.6 11.3.4 1.1 0 1.9-.7 1.9z"/><path d="m255.9 286.5c-.6 0-1.2.2-1.8-.3-.8-.7-1-1.6-.4-2.5 2-3.3 3.8-6.8 5.8-10.1.8-1.5 1.3-3.1 2.2-4.6.9-1.6 1.7-1.7 2.8-.2.8 1 1.5 2 1.9 3.2.7 2.1 2.3 3.8 3.5 5.6 1.3 2 2.6 3.9 3.9 5.8.4.6.5 1.3.6 2 .1.5-.6 1-1.4 1.1-1.3.1-2.7 0-4 0-2.1 0-4.2 0-6.3-.1-2 0-4 .3-6.1 0-.1 0-.4.1-.7.1z"/><path d="m395.2 329.5c-.1-1.7.8-3.2 1.5-4.8 1.9-3.9 3.8-7.7 5.8-11.6.8-1.7 1.7-3.3 2.7-4.9.4-.5.8-.7 1.3-.3.8.6 1.7 1.1 2.1 2.2.5 1.3 1.2 2.4 2 3.5 1.1 1.7 1.9 3.5 2.7 5.3 1.3 3.3 2.7 6.5 3.7 9.9.3 1.1.7 2.2.5 3.3-.1.8-.6 1.1-1.3 1.1-3.3-.1-6.6-.1-9.9-.4-1.8-.1-3.6-.1-5.4-.1-.9 0-1.8 0-2.6-.1-1.9.1-3.1-1.3-3.1-3.1zm17.5.4h.8c.5 0 .7-.2.6-.7-.1-.4-.2-.8-.3-1.1-.5-1.3-1-2.6-1.5-3.9-.6-1.4-1.1-2.9-1.7-4.3-.8-2.2-1.9-4.1-3.2-6-.3-.4-.4-1.1-.8-1.1-.5 0-.6.8-.8 1.2-1.6 3.2-3.2 6.5-4.8 9.7-.7 1.5-1.4 3-2.2 4.5-.5.9-.3 1.2.8 1.3h2.3c3.6.1 7.2.3 10.8.4z"/><path d="m265.2 304.5c1.1.4 1.7 2.2 2.2 3.1s1 1.8 1.6 2.6c.8 1.3 1.5 2.7 2.2 4.1.7 1.3 1.6 2.6 2.3 3.9.8 1.4 1.7 2.9 1.1 4.4-.5 1.3-3.5.7-4.6.7-1.5 0-2.9-.1-4.4-.1-2.8-.1-5.6-.2-8.4-.3-.8 0-1.9-1-2.1-1.7-.1-.4 0-.7.2-1.1 1.1-1.9 2.3-3.7 3.3-5.6 1.1-2 1.8-4 2.6-6 .4-.9 1.2-1.6 1.5-2.6s1.6-1.7 2.5-1.4z"/><path d="m346.4 329.2c-2.2.1-4.4.1-6.6.2-3 .1-6.1.4-9.1-.1-.5-.1-1-.2-1.6-.3-1.1-.1-2-1.6-1.5-2.6 1.4-2.4 2.4-4.9 3.7-7.3.4-.8.9-1.6 1.2-2.5 1-2.5 2.2-4.9 3.6-7.2 1-1.7 1.5-1.7 2.6-.1.9 1.3 1.8 2.5 2.2 4 .1.4.4.9.6 1.2 1 1.3 1.8 2.7 2.5 4.2 1.3 2.8 3.5 5.1 4.8 8 .3.6.3 1.1.1 1.6-.2.7-.6 1-1.4.9-.2 0-.4 0-.6 0-.1-.1-.3 0-.5 0z"/><path d="m380 326c-3.4-.1-6.8.1-10.2.1-1.2 0-2.4 0-3.6 0-1.7 0-2.5-1.2-1.7-2.8 1.8-3.6 3.5-7.3 5.3-11 .8-1.6 1.6-3.1 2.4-4.6.5-.9 1.2-.6 2.1.1.3.2.5.6.6 1.1.4 1.8 1.4 3.3 2.2 4.9.7 1.3 1.2 2.7 1.8 4 .9 1.8 2 3.5 3.2 5.1.2.3.4.6.6.9.6 1.2.1 2.1-1.3 2.1-.4 0-.9.1-1.4.1z"/><path d="m307.4 333.2c-.6 0-1.3-.1-1.9-.2-1-.1-2-.3-3.1-.4-2.7-.3-5.5-.4-8.2-.2-.9.1-1.6-.2-2.2-1s-.6-1.6-.4-2.4c.2-.9.9-1.6 1.4-2.4 2.1-3.1 3.9-6.4 5.7-9.7.2-.5.6-.9.9-1.4.5-.7 1.1-.7 1.7-.1.5.5.8 1.1 1 1.8.5 2.1 1.7 3.8 2.7 5.7 1.1 1.8 1.9 3.7 2.8 5.6.4.8 1 1.4 1.2 2.2.3 1.2-.4 2.4-1.6 2.5z"/><path d="m412.7 294c-3.4-.1-6.8.1-10.2.1-1.2 0-2.4 0-3.6 0-1.7 0-2.5-1.2-1.7-2.8 1.8-3.6 3.5-7.3 5.3-11 .8-1.6 1.6-3.1 2.4-4.6.5-.9 1.2-.6 2.1.1.3.2.5.6.6 1.1.4 1.8 1.4 3.3 2.2 4.9.7 1.3 1.2 2.7 1.8 4 .9 1.8 2 3.5 3.2 5.1.2.3.4.6.6.9.6 1.2.1 2.1-1.3 2.1-.4 0-.9.1-1.4.1z"/><path d="m380.2 293.6c-.6 0-1.3-.1-1.9-.2-1-.1-2-.3-3.1-.4-2.8-.3-5.5-.4-8.2-.2-.9.1-1.6-.2-2.2-1s-.6-1.6-.4-2.4c.2-.9.9-1.6 1.4-2.4 2.1-3.1 3.9-6.4 5.7-9.7.2-.5.6-.9.9-1.4.5-.7 1.1-.7 1.7-.1.5.5.8 1.1.9 1.8.5 2.1 1.7 3.8 2.7 5.7 1.1 1.8 1.9 3.7 2.8 5.6.4.8 1 1.4 1.2 2.2.3 1.2-.3 2.5-1.5 2.5z"/><path d="m307.6 299.8c-2.2-.3-4.7-.2-7.1-.4-2.5-.1-5.1-.3-7.6-.6-.7-.1-1.3-.2-2-.4-1.8-.4-2.4-2-1.3-3.5.8-1.3 1.6-2.6 2.5-3.9 1.9-2.8 3.5-5.7 4.8-8.8.5-1.1 1.1-2.1 2-2.9.4-.4.9-.5 1.4-.2 1.1.5 1.6 1.5 2 2.6.9 2.1 2 4.1 2.9 6.1 1.5 3 3.2 6 4.2 9.2.2.5.3 1 .2 1.6-.3 1-.7 1.2-2 1.2zm-1.9-3.3c.6 0 .4-.3.3-.6-.5-.9-1-1.8-1.4-2.8-.8-2-1.7-3.9-2.8-5.8-.7-1.2-1.4-2.3-1.6-3.7 0-.2-.1-.4-.2-.4-.2 0-.3.2-.4.4-.5 1.1-1.1 2.3-1.6 3.5-1.2 2.8-2.9 5.3-4.5 7.9-.4.7-.4.7.4.8 1.4.2 2.8.3 4.2.4 2.6.1 5.1.2 7.6.3z"/><path d="m309.2 368.5c-2.2.1-4.4.1-6.6.2-3 .1-6.1.4-9.1-.1-.5-.1-1-.2-1.6-.3-1.1-.1-2-1.6-1.5-2.6 1.4-2.4 2.4-4.9 3.7-7.3.4-.8.9-1.6 1.2-2.5 1-2.5 2.2-4.9 3.6-7.2 1-1.7 1.5-1.7 2.6-.1.9 1.3 1.8 2.5 2.2 4 .1.4.4.9.6 1.2 1 1.3 1.8 2.7 2.5 4.2 1.3 2.8 3.5 5.1 4.8 8 .3.6.3 1.1.1 1.6-.2.7-.6 1-1.4.9-.2 0-.4 0-.6 0-.1-.1-.3 0-.5 0z"/><path d="m349.1 404c-4.5-.3-8.6 0-12.7-.5-.6-.1-1.3 0-1.9 0-1.1 0-2.1.1-3.1-.1-1.2-.1-2-1.4-1.5-2.6.5-1.3 1.4-2.5 2.2-3.6 1.4-2.1 3-4.1 4.2-6.3.7-1.4 1.4-2.7 2.1-4.1.3-.6.7-1.1 1-1.6.3-.4.7-.5 1.2-.4.6.2 1.1.6 1.3 1.2.6 1.7 1.6 3.2 2.4 4.8 1.8 3.8 3.7 7.5 5.6 11.3.4 1.1-.1 1.9-.8 1.9z"/><path d="m257.7 400.6c-.6 0-1.2.2-1.8-.3-.8-.7-1-1.6-.4-2.5 2-3.3 3.8-6.8 5.8-10.1.8-1.5 1.3-3.1 2.2-4.6.9-1.6 1.7-1.7 2.8-.2.8 1 1.5 2 1.9 3.2.7 2.1 2.3 3.7 3.5 5.6 1.3 2 2.6 3.9 3.9 5.8.4.6.5 1.3.6 2 .1.5-.6 1-1.4 1.1-1.3.1-2.7 0-4 0-2.1 0-4.2 0-6.3-.1-2 0-4 .3-6.1 0-.2 0-.5.1-.7.1z"/><path d="m415.4 403c-3.4-.1-6.8.1-10.2.1-1.2 0-2.4 0-3.6 0-1.7 0-2.5-1.2-1.7-2.8 1.8-3.6 3.5-7.3 5.3-11 .8-1.6 1.6-3.1 2.4-4.6.5-.9 1.2-.6 2.1.1.3.2.5.6.6 1.1.4 1.8 1.4 3.3 2.2 4.9.7 1.3 1.2 2.7 1.8 4 .9 1.8 2 3.5 3.2 5.1.2.3.4.6.6.9.6 1.2.1 2.1-1.3 2.1-.3.1-.8.1-1.4.1z"/><path d="m310.3 405.9c-2.2-.3-4.7-.2-7.1-.4-2.5-.1-5.1-.3-7.6-.6-.7-.1-1.3-.2-2-.4-1.8-.4-2.4-2-1.3-3.5.8-1.3 1.6-2.6 2.5-3.9 1.9-2.8 3.5-5.7 4.8-8.8.5-1.1 1.1-2.1 2-2.9.5-.4.9-.5 1.5-.2 1.1.5 1.6 1.5 2 2.6.9 2.1 2 4.1 2.9 6.1 1.5 3 3.2 6 4.2 9.2.2.5.3 1 .2 1.6-.4.9-.7 1.1-2.1 1.2zm-1.9-3.4c.6 0 .4-.3.3-.6-.5-.9-1-1.8-1.4-2.8-.8-2-1.7-3.9-2.8-5.8-.7-1.2-1.4-2.3-1.6-3.7 0-.2-.1-.4-.2-.4-.2 0-.3.2-.4.4-.5 1.1-1.1 2.3-1.6 3.5-1.2 2.8-2.9 5.3-4.5 7.9-.4.7-.4.7.4.9 1.4.2 2.8.3 4.2.4 2.6.1 5.1.1 7.6.2z"/><path d="m383.8 367.9c0 1.3-.5 2.2-1.4 2.1-1.2-.2-2.4.1-3.6 0-1.3-.1-2.6-.1-3.9-.2-2.5-.1-5 .1-7.5-.3-.9-.1-1.8-.2-2.7-.4-1.4-.3-1.9-1.4-1.3-2.7.5-1.2 1.2-2.2 1.8-3.3 1-1.7 1.8-3.5 2.7-5.3 1.2-2.3 2.3-4.7 3.4-7 .3-.5.3-1.2 1-1.4.6-.2 1.2-.1 1.6.5.6 1 1.3 1.9 1.9 2.9.8 1.3 1.5 2.5 2.1 3.9.4 1.2 1.2 2.3 1.9 3.4 1.3 1.9 2.4 3.9 3.6 6 .2.4.3 1.2.4 1.8zm-5-.9h.7c1 0 1.1-.1.6-1.1-.6-1.3-1.3-2.5-2.2-3.7-1-1.4-2-2.8-2.7-4.5-.5-1.3-1.3-2.4-1.9-3.6-.1-.2-.2-.4-.5-.4-.2 0-.2.3-.3.4-.7 1.6-1.3 3.2-2.1 4.7-1.1 2.2-2.2 4.5-3.5 6.6-.4.7-.4.9.5.9 3.9.5 7.7.5 11.4.7z"/><path d="m57.9 41.1c-2.2.1-4.4.1-6.6.2-3 .1-6.1.4-9.1-.1-.5-.1-1-.2-1.6-.3-1.1-.1-2-1.6-1.5-2.6 1.4-2.4 2.4-4.9 3.7-7.3.4-.8.9-1.6 1.2-2.5 1-2.5 2.2-4.9 3.6-7.2 1-1.7 1.5-1.7 2.6-.1.9 1.3 1.8 2.5 2.1 4 .1.4.4.9.6 1.2 1 1.3 1.8 2.7 2.5 4.2 1.3 2.8 3.5 5.1 4.8 8 .3.6.3 1.1.1 1.6-.2.7-.6 1-1.4.9-.2 0-.4 0-.6 0 0 0-.2 0-.4 0z"/><path d="m165.6 21.2c.1 1-.3 1.4-1.2 1.4-2.5 0-5.1-.1-7.6-.1-1.9 0-3.7 0-5.6-.1-1 0-2.1.1-3.1-.1-1.9-.3-2.7-2-1.7-3.5 1.6-2.5 3-5.2 4.2-7.8 1-2 2-4 3.4-5.7.5-.7 1.2-.8 1.9-.4.4.2.7.5.9.9 1.6 3.2 3.7 6.1 5.5 9.2.9 1.6 2 3.1 2.8 4.8.3.5.5 1 .5 1.4z"/><path d="m93.1 54.6c-3.4-.1-6.8.1-10.2.1-1.2 0-2.4 0-3.6 0-1.7 0-2.5-1.2-1.7-2.8 1.8-3.6 3.5-7.3 5.3-11 .8-1.6 1.6-3.1 2.4-4.6.5-.9 1.2-.6 2.1.1.3.2.5.6.6 1.1.4 1.8 1.4 3.3 2.2 4.9.7 1.3 1.2 2.7 1.8 4 .9 1.8 2 3.5 3.2 5.1.2.3.4.6.6.9.6 1.2.1 2.1-1.3 2.1-.4 0-.9 0-1.4.1z"/><path d="m19.7 52.2c-.6 0-1.3-.1-1.9-.2-1-.1-2-.3-3.1-.4-2.7-.3-5.5-.4-8.2-.2-.9.1-1.6-.2-2.2-1s-.6-1.6-.4-2.4c.2-.9.9-1.6 1.4-2.4 2.1-3.1 3.9-6.4 5.7-9.7.2-.5.6-.9.9-1.4.5-.7 1.1-.7 1.7-.1.5.5.8 1.1.9 1.8.5 2.1 1.7 3.8 2.7 5.7 1.1 1.8 1.9 3.7 2.8 5.6.4.8 1 1.4 1.2 2.2.3 1.2-.3 2.4-1.5 2.5z"/><path d="m15.6 100.5c1.1.4 1.7 2.2 2.2 3.1s1 1.8 1.6 2.6c.8 1.3 1.5 2.7 2.2 4.1.7 1.3 1.6 2.6 2.3 3.9.8 1.4 1.7 2.9 1.1 4.4-.5 1.3-3.5.7-4.6.7-1.5 0-2.9-.1-4.4-.1-2.8-.1-5.6-.2-8.4-.3-.8 0-1.9-1-2.1-1.7-.1-.4 0-.7.2-1.1 1.1-1.9 2.3-3.7 3.3-5.6 1.1-2 1.8-4 2.6-6 .4-.9 1.2-1.6 1.5-2.6s1.6-1.7 2.5-1.4z"/><path d="m94.8 114.1c-2.2.1-4.4.1-6.6.2-3 .1-6.1.4-9.1-.1-.5-.1-1-.2-1.6-.3-1.1-.1-2-1.6-1.5-2.6 1.4-2.4 2.4-4.9 3.7-7.3.4-.8.9-1.6 1.2-2.5 1-2.5 2.2-4.9 3.6-7.2 1-1.7 1.5-1.7 2.6-.1.9 1.3 1.8 2.5 2.2 4 .1.4.4.9.6 1.2 1 1.3 1.8 2.7 2.5 4.2 1.3 2.8 3.5 5.1 4.8 8 .3.6.3 1.1.1 1.6-.2.7-.6 1-1.4.9-.2 0-.4 0-.6 0-.1 0-.3 0-.5 0z"/><path d="m58.8 114.2c-.6 0-1.3-.1-1.9-.2-1-.1-2-.3-3.1-.4-2.7-.3-5.5-.4-8.2-.2-.9.1-1.6-.2-2.2-1s-.6-1.6-.4-2.4c.2-.9.9-1.6 1.4-2.4 2.1-3.1 3.9-6.4 5.7-9.7.2-.5.6-.9.9-1.4.5-.7 1.1-.7 1.7-.1.5.5.8 1.1 1 1.8.5 2.1 1.7 3.8 2.7 5.7 1.1 1.8 1.9 3.7 2.8 5.6.4.8 1 1.4 1.2 2.2.3 1.2-.4 2.4-1.6 2.5z"/><path d="m163.8 56.7c-3.4-.1-6.8.1-10.2.1-1.2 0-2.4 0-3.6 0-1.7 0-2.5-1.2-1.7-2.8 1.8-3.6 3.5-7.3 5.3-11 .8-1.6 1.6-3.1 2.4-4.6.5-.9 1.2-.6 2.1.1.3.2.5.6.6 1.1.4 1.8 1.4 3.3 2.2 4.9.7 1.3 1.2 2.7 1.8 4 .9 1.8 2 3.5 3.2 5.1.2.3.4.6.6.9.6 1.2.1 2.1-1.3 2.1-.4.1-.9.1-1.4.1z"/><path d="m130.6 80.6c-.6 0-1.3-.1-1.9-.2-1-.1-2-.3-3.1-.4-2.8-.3-5.5-.4-8.2-.2-.9.1-1.6-.2-2.2-1s-.6-1.6-.4-2.4c.2-.9.9-1.6 1.4-2.4 2.1-3.1 3.9-6.4 5.7-9.7.2-.5.6-.9.9-1.4.5-.7 1.1-.7 1.7-.1.5.5.8 1.1.9 1.8.5 2.1 1.7 3.8 2.7 5.7 1.1 1.8 1.9 3.7 2.8 5.6.4.8 1 1.4 1.2 2.2.3 1.2-.3 2.4-1.5 2.5z"/><path d="m59 81.8c-2.2-.3-4.7-.2-7.1-.4-2.5-.1-5.1-.3-7.6-.6-.7-.1-1.3-.2-2-.4-1.8-.4-2.4-2-1.3-3.5.8-1.3 1.6-2.6 2.5-3.9 1.9-2.8 3.5-5.7 4.8-8.8.5-1.1 1.1-2.1 2-2.9.4-.4.9-.5 1.4-.2 1.1.5 1.6 1.5 2 2.6.9 2.1 2 4.1 2.9 6.1 1.5 3 3.2 6 4.2 9.2.2.5.3 1 .2 1.6-.3.9-.7 1.2-2 1.2zm-1.9-3.4c.6 0 .4-.3.3-.6-.5-.9-1-1.8-1.4-2.8-.8-2-1.7-3.9-2.8-5.8-.7-1.2-1.4-2.3-1.6-3.7 0-.2-.1-.4-.2-.4-.2 0-.3.2-.4.4-.5 1.1-1.1 2.3-1.6 3.5-1.2 2.8-2.9 5.3-4.5 7.9-.4.7-.4.7.4.9 1.4.2 2.8.3 4.2.4 2.6.1 5.1.2 7.6.2z"/><path d="m101.5 242.4c-4.5-.3-8.6 0-12.7-.5-.6-.1-1.3 0-1.9 0-1.1 0-2.1.1-3.2-.1-1.2-.1-2-1.4-1.5-2.6.5-1.3 1.4-2.5 2.2-3.6 1.4-2.1 3-4.1 4.2-6.3.7-1.4 1.4-2.7 2.1-4.1.3-.6.7-1.1 1-1.6.3-.4.7-.5 1.2-.4.6.2 1.1.6 1.3 1.2.6 1.7 1.6 3.2 2.4 4.8 1.8 3.8 3.7 7.5 5.6 11.3.4 1.1 0 1.9-.7 1.9z"/><path d="m8 269c-.6 0-1.2.2-1.8-.3-.8-.7-1-1.6-.4-2.5 2-3.3 3.8-6.8 5.8-10.1.8-1.5 1.3-3.1 2.2-4.6.9-1.6 1.7-1.7 2.8-.2.8 1 1.5 2 1.9 3.2.7 2.1 2.3 3.7 3.5 5.6 1.3 2 2.6 3.9 3.9 5.8.4.6.5 1.3.6 2 .1.5-.6 1-1.4 1.1-1.3.1-2.7 0-4 0-2.1 0-4.2 0-6.3-.1-2 0-4 .3-6.1 0-.1 0-.4 0-.7.1z"/><path d="m164.8 276.4c-3.4-.1-6.8.1-10.2.1-1.2 0-2.4 0-3.6 0-1.7 0-2.5-1.2-1.7-2.8 1.8-3.6 3.5-7.3 5.3-11 .8-1.6 1.6-3.1 2.4-4.6.5-.9 1.2-.6 2.1.1.3.2.5.6.6 1.1.4 1.8 1.4 3.3 2.2 4.9.7 1.3 1.2 2.7 1.8 4 .9 1.8 2 3.5 3.2 5.1l.6.9c.6 1.2.1 2.1-1.3 2.1-.4 0-.9.1-1.4.1z"/><path d="m133.2 260.1c-.6 0-1.3-.1-1.9-.2-1-.1-2-.3-3.1-.4-2.7-.3-5.5-.4-8.2-.2-.9.1-1.6-.2-2.2-1s-.6-1.6-.4-2.4c.2-.9.9-1.6 1.4-2.4 2.1-3.1 3.9-6.4 5.7-9.7.2-.5.6-.9.9-1.4.5-.7 1.1-.7 1.7-.1.5.5.8 1.1 1 1.8.5 2.1 1.7 3.8 2.7 5.7 1.1 1.8 1.9 3.7 2.8 5.6.4.8 1 1.4 1.2 2.2.3 1.2-.4 2.4-1.6 2.5z"/><path d="m132.5 39.5c0 1.3-.5 2.2-1.4 2.1-1.2-.2-2.4.1-3.6 0-1.3-.1-2.6-.1-3.9-.2-2.5-.1-5 .1-7.5-.3-.9-.1-1.8-.2-2.7-.4-1.4-.3-1.9-1.4-1.3-2.7.5-1.2 1.2-2.2 1.8-3.3 1-1.7 1.8-3.5 2.7-5.3 1.2-2.3 2.3-4.7 3.4-7 .3-.5.3-1.2 1-1.4.6-.2 1.2-.1 1.6.5.6 1 1.3 1.9 1.9 2.9.8 1.3 1.5 2.5 2.1 3.9.4 1.2 1.2 2.3 1.9 3.4 1.3 1.9 2.4 3.9 3.6 6 .3.5.3 1.2.4 1.8zm-4.9-.9h.7c1 0 1.1-.1.6-1-.6-1.3-1.3-2.5-2.2-3.7-1-1.4-2-2.8-2.7-4.5-.5-1.3-1.3-2.4-1.9-3.6-.1-.2-.2-.4-.5-.4-.2 0-.2.3-.3.4-.7 1.6-1.3 3.2-2.1 4.7-1.1 2.2-2.2 4.5-3.5 6.6-.4.7-.4.9.5.9 3.8.5 7.6.5 11.4.6z"/><path d="m98.5 183.7c-4.5-.3-8.6 0-12.7-.5-.6-.1-1.3 0-1.9 0-1.1 0-2.1.1-3.1-.1-1.2-.1-2-1.4-1.5-2.6.5-1.3 1.4-2.5 2.2-3.6 1.4-2.1 3-4.1 4.2-6.3.7-1.4 1.4-2.7 2.1-4.1.3-.6.7-1.1 1-1.6.3-.4.7-.5 1.2-.4.6.2 1.1.6 1.3 1.2.6 1.7 1.6 3.2 2.4 4.8 1.8 3.8 3.7 7.5 5.6 11.3.3 1.1-.1 1.9-.8 1.9z"/><path d="m167.6 127.7c.1 1-.3 1.4-1.2 1.4-2.5 0-5.1-.1-7.6-.1-1.9 0-3.7 0-5.6-.1-1 0-2.1.1-3.1-.1-1.9-.3-2.7-2-1.7-3.5 1.6-2.5 3-5.2 4.2-7.8 1-2 2-4 3.4-5.7.5-.7 1.2-.8 1.9-.4.4.2.7.5.9.9 1.6 3.2 3.7 6.1 5.5 9.2.9 1.6 2 3.1 2.8 4.8.2.5.5 1 .5 1.4z"/><path d="m9 185.3c-.6 0-1.2.2-1.8-.3-.8-.7-1-1.6-.4-2.5 2-3.3 3.8-6.7 5.8-10.1.8-1.5 1.3-3.1 2.2-4.6.9-1.6 1.7-1.7 2.8-.2.8 1 1.5 2 1.9 3.2.7 2.1 2.3 3.8 3.5 5.6 1.3 2 2.6 3.9 3.9 5.8.4.6.5 1.3.6 2 .1.5-.6 1-1.4 1.1-1.3.1-2.7 0-4 0-2.1 0-4.2 0-6.3-.1-2 0-4 .3-6.1 0-.1 0-.4.1-.7.1z"/><path d="m95.7 147.6c-3.4-.1-6.8.1-10.2.1-1.2 0-2.4 0-3.6 0-1.7 0-2.5-1.2-1.7-2.8 1.8-3.6 3.5-7.3 5.3-11 .8-1.6 1.6-3.1 2.4-4.6.5-.9 1.2-.6 2.1.1.3.2.5.6.6 1.1.4 1.8 1.4 3.3 2.2 4.9.7 1.3 1.2 2.7 1.8 4 .9 1.8 2 3.5 3.2 5.1.2.3.4.6.6.9.6 1.2.1 2.1-1.3 2.1-.4 0-.9.1-1.4.1z"/><path d="m134.2 198.8c-3.4-.1-6.8.1-10.2.1-1.2 0-2.4 0-3.6 0-1.7 0-2.5-1.2-1.7-2.8 1.8-3.6 3.5-7.3 5.3-11 .8-1.6 1.6-3.1 2.4-4.6.5-.9 1.2-.6 2.1.1.3.2.5.6.6 1.1.4 1.8 1.4 3.3 2.2 4.9.7 1.3 1.2 2.7 1.8 4 .9 1.8 2 3.5 3.2 5.1.2.3.4.6.6.9.6 1.2.1 2.1-1.3 2.1-.4 0-.9.1-1.4.1z"/><path d="m61.6 239c-.6 0-1.3-.1-1.9-.2-1-.1-2-.3-3.1-.4-2.8-.3-5.5-.4-8.2-.2-.9.1-1.6-.2-2.2-1s-.6-1.6-.4-2.4c.2-.9.9-1.6 1.4-2.4 2.1-3.1 3.9-6.4 5.7-9.7.2-.5.6-.9.9-1.4.5-.7 1.1-.7 1.7-.1.5.5.8 1.1 1 1.8.5 2.1 1.7 3.8 2.7 5.7 1.1 1.8 1.9 3.7 2.8 5.6.4.8 1 1.4 1.2 2.2.3 1.2-.4 2.4-1.6 2.5z"/><path d="m166.8 187.8c-3.4-.1-6.8.1-10.2.1-1.2 0-2.4 0-3.6 0-1.7 0-2.5-1.2-1.7-2.8 1.8-3.6 3.5-7.3 5.3-11 .8-1.6 1.6-3.1 2.4-4.6.5-.9 1.2-.6 2.1.1.3.2.5.6.6 1.1.4 1.8 1.4 3.3 2.2 4.9.7 1.3 1.2 2.7 1.8 4 .9 1.8 2 3.5 3.2 5.1.2.3.4.6.6.9.6 1.2.1 2.1-1.3 2.1-.3 0-.8 0-1.4.1z"/><path d="m133.3 163.4c-.6 0-1.3-.1-1.9-.2-1-.1-2-.3-3.1-.4-2.8-.3-5.5-.4-8.2-.2-.9.1-1.6-.2-2.2-1s-.6-1.6-.4-2.4c.2-.9.9-1.6 1.4-2.4 2.1-3.1 3.9-6.4 5.7-9.7.2-.5.6-.9.9-1.4.5-.7 1.1-.7 1.7-.1.5.5.8 1.1.9 1.8.5 2.1 1.7 3.8 2.7 5.7 1.1 1.8 1.9 3.7 2.8 5.6.4.8 1 1.4 1.2 2.2.3 1.2-.3 2.4-1.5 2.5z"/><path d="m61.7 205.6c-2.2-.3-4.7-.2-7.1-.4-2.5-.1-5.1-.3-7.6-.6-.7-.1-1.3-.2-2-.4-1.8-.4-2.4-2-1.3-3.5.8-1.3 1.6-2.6 2.5-3.9 1.9-2.8 3.5-5.7 4.8-8.8.5-1.1 1.1-2.1 2-2.9.5-.4.9-.5 1.5-.2 1.1.5 1.6 1.5 2 2.6.9 2.1 2 4.1 2.9 6.1 1.5 3 3.2 6 4.2 9.2.2.5.3 1 .2 1.6-.4.9-.7 1.1-2.1 1.2zm-1.9-3.4c.6 0 .4-.3.3-.6-.5-.9-1-1.8-1.4-2.8-.8-2-1.7-3.9-2.8-5.8-.7-1.2-1.4-2.3-1.6-3.7 0-.2-.1-.4-.2-.4-.2 0-.3.2-.4.4-.5 1.1-1.1 2.3-1.6 3.5-1.2 2.8-2.9 5.3-4.5 7.9-.4.7-.4.7.4.8 1.4.2 2.8.3 4.2.4 2.6.2 5.1.3 7.6.3z"/><path d="m136.4 241.4c0 1.3-.5 2.2-1.4 2.1-1.2-.2-2.4.1-3.6 0-1.3-.1-2.6-.1-3.9-.2-2.5-.1-5 .1-7.5-.3-.9-.1-1.8-.2-2.7-.4-1.4-.3-1.9-1.4-1.3-2.7.5-1.2 1.2-2.2 1.8-3.3 1-1.7 1.8-3.5 2.7-5.3 1.2-2.3 2.3-4.7 3.4-7 .3-.5.3-1.2 1-1.4.6-.2 1.2-.1 1.6.5.6 1 1.3 1.9 1.9 2.9.8 1.3 1.5 2.5 2.1 3.9.4 1.2 1.2 2.3 1.9 3.4 1.3 1.9 2.4 3.9 3.6 5.9.3.5.3 1.3.4 1.9zm-4.9-.9h.7c1 0 1.1-.1.6-1-.6-1.3-1.3-2.5-2.2-3.7-1-1.4-2-2.8-2.7-4.5-.5-1.3-1.3-2.4-1.9-3.6-.1-.2-.2-.4-.5-.4-.2 0-.2.3-.3.4-.7 1.6-1.3 3.2-2.1 4.7-1.1 2.2-2.2 4.5-3.5 6.6-.4.7-.4.9.5.9 3.9.4 7.7.4 11.4.6z"/><path d="m98.8 311.8c-4.5-.3-8.6 0-12.7-.5-.6-.1-1.3 0-1.9 0-1.1 0-2.1.1-3.2-.1-1.2-.1-2-1.4-1.5-2.6.5-1.3 1.4-2.5 2.2-3.6 1.4-2.1 3-4.1 4.2-6.3.7-1.4 1.4-2.7 2.1-4.1.3-.6.7-1.1 1-1.6.3-.4.7-.5 1.2-.4.6.2 1.1.6 1.3 1.2.6 1.7 1.6 3.2 2.4 4.8 1.8 3.8 3.7 7.5 5.6 11.3.4 1.1 0 1.9-.7 1.9z"/><path d="m7.3 304.4c-.6 0-1.2.2-1.8-.3-.8-.7-1-1.6-.4-2.5 2-3.3 3.8-6.8 5.8-10.1.8-1.5 1.3-3.1 2.2-4.6.9-1.6 1.7-1.7 2.8-.2.8 1 1.5 2 1.9 3.2.7 2.1 2.3 3.8 3.5 5.6 1.3 2 2.6 3.9 3.9 5.8.4.6.5 1.3.6 2 .1.5-.6 1-1.4 1.1-1.3.1-2.7 0-4 0-2.1 0-4.2 0-6.3-.1-2 0-4 .3-6.1 0-.1 0-.4.1-.7.1z"/><path d="m16.6 322.3s0 .1 0 0c1.1.4 1.7 2.2 2.2 3.1s1 1.8 1.6 2.6c.8 1.3 1.5 2.7 2.2 4.1.7 1.3 1.6 2.6 2.3 3.9.8 1.4 1.7 2.9 1.1 4.4-.5 1.3-3.5.7-4.6.7-1.5 0-2.9-.1-4.4-.1-2.8-.1-5.6-.2-8.4-.3-.8 0-1.9-1-2.1-1.7-.1-.4 0-.7.2-1.1 1.1-1.9 2.3-3.7 3.3-5.6 1.1-2 1.8-4 2.6-6 .4-.9 1.2-1.6 1.5-2.6.3-.9 1.6-1.6 2.5-1.4z"/><path d="m97.8 347c-2.2.1-4.4.1-6.6.2-3 .1-6.1.4-9.1-.1-.5-.1-1-.2-1.6-.3-1.1-.1-2-1.6-1.5-2.6 1.4-2.4 2.4-4.9 3.7-7.3.4-.8.9-1.6 1.2-2.5 1-2.5 2.2-4.9 3.6-7.2 1-1.7 1.5-1.7 2.6-.1.9 1.3 1.8 2.5 2.2 4 .1.4.4.9.6 1.2 1 1.3 1.8 2.7 2.5 4.2 1.3 2.8 3.5 5.1 4.8 8 .3.6.3 1.1.1 1.6-.2.7-.6 1-1.4.9-.2 0-.4 0-.6 0-.1 0-.3 0-.5 0z"/><path d="m131.4 343.9c-3.4-.1-6.8.1-10.2.1-1.2 0-2.4 0-3.6 0-1.7 0-2.5-1.2-1.7-2.8 1.8-3.6 3.5-7.3 5.3-11 .8-1.6 1.6-3.1 2.4-4.6.5-.9 1.2-.6 2.1.1.3.2.5.6.6 1.1.4 1.8 1.4 3.3 2.2 4.9.7 1.3 1.2 2.7 1.8 4 .9 1.8 2 3.5 3.2 5.1l.6.9c.6 1.2.1 2.1-1.3 2.1-.4 0-.9.1-1.4.1z"/><path d="m58.8 349.1c-.6 0-1.3-.1-1.9-.2-1-.1-2-.3-3.1-.4-2.7-.3-5.5-.4-8.2-.2-.9.1-1.6-.2-2.2-1s-.6-1.6-.4-2.4c.2-.9.9-1.6 1.4-2.4 2.1-3.1 3.9-6.4 5.7-9.7.2-.5.6-.9.9-1.4.5-.7 1.1-.7 1.7-.1.5.5.8 1.1 1 1.8.5 2.1 1.7 3.8 2.7 5.7 1.1 1.8 1.9 3.7 2.8 5.6.4.8 1 1.4 1.2 2.2.3 1.2-.4 2.4-1.6 2.5z"/><path d="m164.1 311.8c-3.4-.1-6.8.1-10.2.1-1.2 0-2.4 0-3.6 0-1.7 0-2.5-1.2-1.7-2.8 1.8-3.6 3.5-7.3 5.3-11 .8-1.6 1.6-3.1 2.4-4.6.5-.9 1.2-.6 2.1.1.3.2.5.6.6 1.1.4 1.8 1.4 3.3 2.2 4.9.7 1.3 1.2 2.7 1.8 4 .9 1.8 2 3.5 3.2 5.1.2.3.4.6.6.9.6 1.2.1 2.1-1.3 2.1-.4.1-.9.1-1.4.1z"/><path d="m131.6 310.5c-.6 0-1.3-.1-1.9-.2-1-.1-2-.3-3.1-.4-2.8-.3-5.5-.4-8.2-.2-.9.1-1.6-.2-2.2-1s-.6-1.6-.4-2.4c.2-.9.9-1.6 1.4-2.4 2.1-3.1 3.9-6.4 5.7-9.7.2-.5.6-.9.9-1.4.5-.7 1.1-.7 1.7-.1.5.5.8 1.1.9 1.8.5 2.1 1.7 3.8 2.7 5.7 1.1 1.8 1.9 3.7 2.8 5.6.4.8 1 1.4 1.2 2.2.3 1.2-.3 2.4-1.5 2.5z"/><path d="m59 290.6c-2.2-.3-4.7-.2-7.1-.4-2.5-.1-5.1-.3-7.6-.6-.7-.1-1.3-.2-2-.4-1.8-.4-2.4-2-1.3-3.5.8-1.3 1.6-2.6 2.5-3.9 1.9-2.8 3.5-5.7 4.8-8.8.5-1.1 1.1-2.1 2-2.9.4-.4.9-.5 1.4-.2 1.1.5 1.6 1.5 2 2.6.9 2.1 2 4.1 2.9 6.1 1.5 3 3.2 6 4.2 9.2.2.5.3 1 .2 1.6-.3.9-.7 1.1-2 1.2zm-1.9-3.4c.6 0 .4-.3.3-.6-.5-.9-1-1.8-1.4-2.8-.8-2-1.7-3.9-2.8-5.8-.7-1.2-1.4-2.3-1.6-3.7 0-.2-.1-.4-.2-.4-.2 0-.3.2-.4.4-.5 1.1-1.1 2.3-1.6 3.5-1.2 2.8-2.9 5.3-4.5 7.9-.4.7-.4.7.4.8 1.4.2 2.8.3 4.2.4 2.6.2 5.1.2 7.6.3z"/><path d="m60.6 386.3c-2.2.1-4.4.1-6.6.2-3 .1-6.1.4-9.1-.1-.5-.1-1-.2-1.6-.3-1.1-.1-2-1.6-1.5-2.6 1.4-2.4 2.4-4.9 3.7-7.3.4-.8.9-1.6 1.2-2.5 1-2.5 2.2-4.9 3.6-7.2 1-1.7 1.5-1.7 2.6-.1.9 1.3 1.8 2.5 2.2 4 .1.4.4.9.6 1.2 1 1.3 1.8 2.7 2.5 4.2 1.3 2.8 3.5 5.1 4.8 8 .3.6.3 1.1.1 1.6-.2.7-.6 1-1.4.9-.2 0-.4 0-.6 0-.1 0-.3 0-.5 0z"/><path d="m100.5 421.9c-4.5-.3-8.6 0-12.7-.5-.6-.1-1.3 0-1.9 0-1.1 0-2.1.1-3.1-.1-1.2-.1-2-1.4-1.5-2.6.5-1.3 1.4-2.5 2.2-3.6 1.4-2.1 3-4.1 4.2-6.3.7-1.4 1.4-2.7 2.1-4.1.3-.6.7-1.1 1-1.6.3-.4.7-.5 1.2-.4.6.2 1.1.6 1.3 1.2.6 1.7 1.6 3.2 2.4 4.8 1.8 3.8 3.7 7.5 5.6 11.3.3 1.1-.1 1.9-.8 1.9z"/><path d="m9 418.4c-.6 0-1.2.2-1.8-.3-.8-.7-1-1.6-.4-2.5 2-3.3 3.8-6.8 5.8-10.1.8-1.5 1.3-3.1 2.2-4.6.9-1.6 1.7-1.7 2.8-.2.8 1 1.5 2 1.9 3.2.7 2.1 2.3 3.7 3.5 5.6 1.3 2 2.6 3.9 3.9 5.8.4.6.5 1.3.6 2 .1.5-.6 1-1.4 1.1-1.3.1-2.7 0-4 0-2.1 0-4.2 0-6.3-.1-2 0-4 .3-6.1 0-.1 0-.4.1-.7.1z"/><path d="m97.5 385.9c-3.4-.1-6.8.1-10.2.1-1.2 0-2.4 0-3.6 0-1.7 0-2.5-1.2-1.7-2.8 1.8-3.6 3.5-7.3 5.3-11 .8-1.6 1.6-3.1 2.4-4.6.5-.9 1.2-.6 2.1.1.3.2.5.6.6 1.1.4 1.8 1.4 3.3 2.2 4.9.7 1.3 1.2 2.7 1.8 4 .9 1.8 2 3.5 3.2 5.1.2.3.4.6.6.9.6 1.2.1 2.1-1.3 2.1-.4 0-.9.1-1.4.1z"/><path d="m22.3 384.4c-.6 0-1.3-.1-1.9-.2-1-.1-2-.3-3.1-.4-2.7-.3-5.5-.4-8.2-.2-.9.1-1.6-.2-2.2-1s-.6-1.6-.4-2.4c.2-.9.9-1.6 1.4-2.4 2.1-3.1 3.9-6.4 5.7-9.7.2-.5.6-.9.9-1.4.5-.7 1.1-.7 1.7-.1.5.5.8 1.1.9 1.8.5 2.1 1.7 3.8 2.7 5.7 1.1 1.8 1.9 3.7 2.8 5.6.4.8 1 1.4 1.2 2.2.4 1.2-.3 2.4-1.5 2.5z"/><path d="m166.8 404.3c-3.4-.1-6.8.1-10.2.1-1.2 0-2.4 0-3.6 0-1.7 0-2.5-1.2-1.7-2.8 1.8-3.6 3.5-7.3 5.3-11 .8-1.6 1.6-3.1 2.4-4.6.5-.9 1.2-.6 2.1.1.3.2.5.6.6 1.1.4 1.8 1.4 3.3 2.2 4.9.7 1.3 1.2 2.7 1.8 4 .9 1.8 2 3.5 3.2 5.1.2.3.4.6.6.9.6 1.2.1 2.1-1.3 2.1-.3 0-.8 0-1.4.1z"/><path d="m135.2 385.7c0 1.3-.5 2.2-1.4 2.1-1.2-.2-2.4.1-3.6 0-1.3-.1-2.6-.1-3.9-.2-2.5-.1-5 .1-7.5-.3-.9-.1-1.8-.2-2.7-.4-1.4-.3-1.9-1.4-1.3-2.7.5-1.2 1.2-2.2 1.8-3.3 1-1.7 1.8-3.5 2.7-5.3 1.2-2.3 2.3-4.7 3.4-7 .3-.5.3-1.2 1-1.4.6-.2 1.2-.1 1.6.5.6 1 1.3 1.9 1.9 2.9.8 1.3 1.5 2.5 2.1 3.9.4 1.2 1.2 2.3 1.9 3.4 1.3 1.9 2.4 3.9 3.6 6 .2.5.3 1.2.4 1.8zm-5-.9h.7c1 0 1.1-.1.6-1.1-.6-1.3-1.3-2.5-2.2-3.7-1-1.4-2-2.8-2.7-4.5-.5-1.3-1.3-2.4-1.9-3.6-.1-.2-.2-.4-.5-.4-.2 0-.2.3-.3.4-.7 1.6-1.3 3.2-2.1 4.7-1.1 2.2-2.2 4.5-3.5 6.6-.4.7-.4.9.5.9 3.9.6 7.7.6 11.4.7z"/><path d="m57.9 23.3c-2.2.1-4.4.1-6.6.2-3 .1-6.1.4-9.1-.1-.5-.1-1-.2-1.6-.3-1.1-.1-2-1.6-1.5-2.6 1.4-2.4 2.4-4.9 3.7-7.3.4-.8.9-1.6 1.2-2.5 1-2.5 2.2-4.9 3.6-7.2 1-1.7 1.5-1.7 2.6-.1.9 1.3 1.8 2.5 2.1 4 .1.4.4.9.6 1.2 1 1.3 1.8 2.7 2.5 4.2 1.3 2.8 3.5 5.1 4.8 8 .3.6.3 1.1.1 1.6-.2.7-.6 1-1.4.9-.2 0-.4 0-.6 0 0-.1-.2 0-.4 0z"/><path d="m6.3 82.7c-.6 0-1.2.2-1.8-.3-.8-.7-1-1.6-.4-2.5 2-3.3 3.8-6.8 5.8-10.1.8-1.5 1.3-3.1 2.2-4.6.9-1.6 1.7-1.7 2.8-.2.8 1 1.5 2 1.9 3.2.7 2.1 2.3 3.7 3.5 5.6 1.3 2 2.6 3.9 3.9 5.8.4.6.5 1.3.6 2 .1.5-.6 1-1.4 1.1-1.3.1-2.7 0-4 0-2.1 0-4.2 0-6.3-.1-2 0-4 .3-6.1 0-.1-.1-.4 0-.7.1z"/><path d="m93.1 36.7c-3.4-.1-6.8.1-10.2.1-1.2 0-2.4 0-3.6 0-1.7 0-2.5-1.2-1.7-2.8 1.8-3.6 3.5-7.3 5.3-11 .8-1.6 1.6-3.1 2.4-4.6.5-.9 1.2-.6 2.1.1.3.2.5.6.6 1.1.4 1.8 1.4 3.3 2.2 4.9.7 1.3 1.2 2.7 1.8 4 .9 1.8 2 3.5 3.2 5.1.2.3.4.6.6.9.6 1.2.1 2.1-1.3 2.1-.4 0-.9.1-1.4.1z"/><path d="m19.7 36.4c-.6 0-1.3-.1-1.9-.2-1-.1-2-.3-3.1-.4-2.7-.3-5.5-.4-8.2-.2-.9.1-1.6-.2-2.2-1s-.6-1.6-.4-2.4c.2-.9.9-1.6 1.4-2.4 2.1-3.1 3.9-6.4 5.7-9.7.2-.5.6-.9.9-1.4.5-.7 1.1-.7 1.7-.1.5.5.8 1.1.9 1.8.5 2.1 1.7 3.8 2.7 5.7 1.1 1.8 1.9 3.7 2.8 5.6.4.8 1 1.4 1.2 2.2.3 1.2-.3 2.4-1.5 2.5z"/><path d="m15.6 82.6c1.1.4 1.7 2.2 2.2 3.1s1 1.8 1.6 2.6c.8 1.3 1.5 2.7 2.2 4.1.7 1.3 1.6 2.6 2.3 3.9.8 1.4 1.7 2.9 1.1 4.4-.5 1.3-3.5.7-4.6.7-1.5 0-2.9-.1-4.4-.1-2.8-.1-5.6-.2-8.4-.3-.8 0-1.9-1-2.1-1.7-.1-.4 0-.7.2-1.1 1.1-2 2.3-3.8 3.3-5.7 1.1-2 1.8-4 2.6-6 .4-.9 1.2-1.6 1.5-2.6.3-.8 1.6-1.6 2.5-1.3z"/><path d="m94.8 96.3c-2.2.1-4.4.1-6.6.2-3 .1-6.1.4-9.1-.1-.5-.1-1-.2-1.6-.3-1.1-.1-2-1.6-1.5-2.6 1.4-2.4 2.4-4.9 3.7-7.3.4-.8.9-1.6 1.2-2.5 1-2.5 2.2-4.9 3.6-7.2 1-1.7 1.5-1.7 2.6-.1.9 1.3 1.8 2.5 2.2 4 .1.4.4.9.6 1.2 1 1.3 1.8 2.7 2.5 4.2 1.3 2.8 3.5 5.1 4.8 8 .3.6.3 1.1.1 1.6-.2.7-.6 1-1.4.9-.2 0-.4 0-.6 0-.1 0-.3 0-.5 0z"/><path d="m131.4 99.1c-3.4-.1-6.8.1-10.2.1-1.2 0-2.4 0-3.6 0-1.7 0-2.5-1.2-1.7-2.8 1.8-3.6 3.5-7.3 5.3-11 .8-1.6 1.6-3.1 2.4-4.6.5-.9 1.2-.6 2.1.1.3.2.5.6.6 1.1.4 1.8 1.4 3.3 2.2 4.9.7 1.3 1.2 2.7 1.8 4 .9 1.8 2 3.5 3.2 5.1.2.3.4.6.6.9.6 1.2.1 2.1-1.3 2.1-.4.1-.9.1-1.4.1z"/><path d="m58.8 98.4c-.6 0-1.3-.1-1.9-.2-1-.1-2-.3-3.1-.4-2.7-.3-5.5-.4-8.2-.2-.9.1-1.6-.2-2.2-1s-.6-1.6-.4-2.4c.2-.9.9-1.6 1.4-2.4 2.1-3.1 3.9-6.4 5.7-9.7.2-.5.6-.9.9-1.4.5-.7 1.1-.7 1.7-.1.5.5.8 1.1 1 1.8.5 2.1 1.7 3.8 2.7 5.7 1.1 1.8 1.9 3.7 2.8 5.6.4.8 1 1.4 1.2 2.2.3 1.1-.4 2.4-1.6 2.5z"/><path d="m163.8 38.9c-3.4-.1-6.8.1-10.2.1-1.2 0-2.4 0-3.6 0-1.7 0-2.5-1.2-1.7-2.8 1.8-3.6 3.5-7.3 5.3-11 .8-1.6 1.6-3.1 2.4-4.6.5-.9 1.2-.6 2.1.1.3.2.5.6.6 1.1.4 1.8 1.4 3.3 2.2 4.9.7 1.3 1.2 2.7 1.8 4 .9 1.8 2 3.5 3.2 5.1.2.3.4.6.6.9.6 1.2.1 2.1-1.3 2.1-.4 0-.9.1-1.4.1z"/><path d="m130.6 62.8c-.6 0-1.3-.1-1.9-.2-1-.1-2-.3-3.1-.4-2.8-.3-5.5-.4-8.2-.2-.9.1-1.6-.2-2.2-1s-.6-1.6-.4-2.4c.2-.9.9-1.6 1.4-2.4 2.1-3.1 3.9-6.4 5.7-9.7.2-.5.6-.9.9-1.4.5-.7 1.1-.7 1.7-.1.5.5.8 1.1.9 1.8.5 2.1 1.7 3.8 2.7 5.7 1.1 1.8 1.9 3.7 2.8 5.6.4.8 1 1.4 1.2 2.2.3 1.1-.3 2.4-1.5 2.5z"/><path d="m101.5 224.6c-4.5-.3-8.6 0-12.7-.5-.6-.1-1.3 0-1.9 0-1.1 0-2.1.1-3.2-.1-1.2-.1-2-1.4-1.5-2.6.5-1.3 1.4-2.5 2.2-3.6 1.4-2.1 3-4.1 4.2-6.3.7-1.4 1.4-2.7 2.1-4.1.3-.6.7-1.1 1-1.6.3-.4.7-.5 1.2-.4.6.2 1.1.6 1.3 1.2.6 1.7 1.6 3.2 2.4 4.8 1.8 3.8 3.7 7.5 5.6 11.3.4 1 0 1.8-.7 1.9z"/><path d="m8 251.1c-.6 0-1.2.2-1.8-.3-.8-.7-1-1.6-.4-2.5 2-3.3 3.8-6.8 5.8-10.1.8-1.5 1.3-3.1 2.2-4.6.9-1.6 1.7-1.7 2.8-.2.8 1 1.5 2 1.9 3.2.7 2.1 2.3 3.7 3.5 5.6 1.3 2 2.6 3.9 3.9 5.8.4.6.5 1.3.6 2 .1.5-.6 1-1.4 1.1-1.3.1-2.7 0-4 0-2.1 0-4.2 0-6.3-.1-2 0-4 .3-6.1 0-.1 0-.4.1-.7.1z"/><path d="m164.8 258.6c-3.4-.1-6.8.1-10.2.1-1.2 0-2.4 0-3.6 0-1.7 0-2.5-1.2-1.7-2.8 1.8-3.6 3.5-7.3 5.3-11 .8-1.6 1.6-3.1 2.4-4.6.5-.9 1.2-.6 2.1.1.3.2.5.6.6 1.1.4 1.8 1.4 3.3 2.2 4.9.7 1.3 1.2 2.7 1.8 4 .9 1.8 2 3.5 3.2 5.1.2.3.4.6.6.9.6 1.2.1 2.1-1.3 2.1-.4 0-.9.1-1.4.1z"/><path d="m132.5 21.7c0 1.3-.5 2.2-1.4 2.1-1.2-.2-2.4.1-3.6 0-1.3-.1-2.6-.1-3.9-.2-2.5-.1-5 .1-7.5-.3-.9-.1-1.8-.2-2.7-.4-1.4-.3-1.9-1.4-1.3-2.7.5-1.2 1.2-2.2 1.8-3.3 1-1.7 1.8-3.5 2.7-5.3 1.2-2.3 2.3-4.7 3.4-7 .3-.5.3-1.2 1-1.4.6-.2 1.2-.1 1.6.5.6 1 1.3 1.9 1.9 2.9.8 1.3 1.5 2.5 2.1 3.9.4 1.2 1.2 2.3 1.9 3.4 1.3 1.9 2.4 3.9 3.6 6 .3.4.3 1.2.4 1.8zm-4.9-.9h.7c1 0 1.1-.1.6-1-.6-1.3-1.3-2.5-2.2-3.7-1-1.4-2-2.8-2.7-4.5-.5-1.3-1.3-2.4-1.9-3.6-.1-.2-.2-.4-.5-.4-.2 0-.2.3-.3.4-.7 1.6-1.3 3.2-2.1 4.7-1.1 2.2-2.2 4.5-3.5 6.6-.4.7-.4.9.5.9 3.8.4 7.6.4 11.4.6z"/><path d="m60.6 129.3c-2.2.1-4.4.1-6.6.2-3 .1-6.1.4-9.1-.1-.5-.1-1-.2-1.6-.3-1.1-.1-2-1.6-1.5-2.6 1.4-2.4 2.4-4.9 3.7-7.3.4-.8.9-1.6 1.2-2.5 1-2.5 2.2-4.9 3.6-7.2 1-1.7 1.5-1.7 2.6-.1.9 1.3 1.8 2.5 2.2 4 .1.4.4.9.6 1.2 1 1.3 1.8 2.7 2.5 4.2 1.3 2.8 3.5 5.1 4.8 8 .3.6.3 1.1.1 1.6-.2.7-.6 1-1.4.9-.2 0-.4 0-.6 0-.1 0-.3 0-.5 0z"/><path d="m98.5 165.9c-4.5-.3-8.6 0-12.7-.5-.6-.1-1.3 0-1.9 0-1.1 0-2.1.1-3.1-.1-1.2-.1-2-1.4-1.5-2.6.5-1.3 1.4-2.5 2.2-3.6 1.4-2.1 3-4.1 4.2-6.3.7-1.4 1.4-2.7 2.1-4.1.3-.6.7-1.1 1-1.6.3-.4.7-.5 1.2-.4.6.2 1.1.6 1.3 1.2.6 1.7 1.6 3.2 2.4 4.8 1.8 3.8 3.7 7.5 5.6 11.3.3 1.1-.1 1.9-.8 1.9z"/><path d="m167.6 109.9c.1 1-.3 1.4-1.2 1.4-2.5 0-5.1-.1-7.6-.1-1.9 0-3.7 0-5.6-.1-1 0-2.1.1-3.1-.1-1.9-.3-2.7-2-1.7-3.5 1.6-2.5 3-5.2 4.2-7.8 1-2 2-4 3.4-5.7.5-.7 1.2-.8 1.9-.4.4.2.7.5.9.9 1.6 3.2 3.7 6.1 5.5 9.2.9 1.6 2 3.1 2.8 4.8.2.5.5.9.5 1.4z"/><path d="m9 167.4c-.6 0-1.2.2-1.8-.3-.8-.7-1-1.6-.4-2.5 2-3.3 3.8-6.7 5.8-10.1.8-1.5 1.3-3.1 2.2-4.6.9-1.6 1.7-1.7 2.8-.2.8 1 1.5 2 1.9 3.2.7 2.1 2.3 3.8 3.5 5.6 1.3 2 2.6 3.9 3.9 5.8.4.6.5 1.3.6 2 .1.5-.6 1-1.4 1.1-1.3.1-2.7 0-4 0-2.1 0-4.2 0-6.3-.1-2 0-4 .3-6.1 0-.1 0-.4.1-.7.1z"/><path d="m95.7 129.8c-3.4-.1-6.8.1-10.2.1-1.2 0-2.4 0-3.6 0-1.7 0-2.5-1.2-1.7-2.8 1.8-3.6 3.5-7.3 5.3-11 .8-1.6 1.6-3.1 2.4-4.6.5-.9 1.2-.6 2.1.1.3.2.5.6.6 1.1.4 1.8 1.4 3.3 2.2 4.9.7 1.3 1.2 2.7 1.8 4 .9 1.8 2 3.5 3.2 5.1.2.3.4.6.6.9.6 1.2.1 2.1-1.3 2.1-.4 0-.9.1-1.4.1z"/><path d="m147.4 203.5c-.1-1.7.8-3.2 1.5-4.8 1.9-3.9 3.8-7.7 5.8-11.6.8-1.7 1.7-3.3 2.7-4.9.4-.5.8-.7 1.3-.3.8.6 1.7 1.1 2.1 2.2.5 1.3 1.2 2.4 2 3.5 1.1 1.7 1.9 3.5 2.7 5.3 1.3 3.3 2.7 6.5 3.7 9.9.3 1.1.7 2.2.5 3.3-.1.8-.6 1.1-1.3 1.1-3.3-.1-6.6-.1-9.9-.4-1.8-.1-3.6-.1-5.4-.1-.9 0-1.8 0-2.6-.1-1.9 0-3.1-1.4-3.1-3.1zm17.5.3h.8c.5 0 .7-.2.6-.7-.1-.4-.2-.8-.3-1.1-.5-1.3-1-2.6-1.5-3.9-.6-1.4-1.1-2.9-1.7-4.3-.8-2.2-1.9-4.1-3.2-6-.3-.4-.4-1.1-.8-1.1-.5.1-.6.8-.8 1.2-1.6 3.2-3.2 6.5-4.8 9.7-.7 1.5-1.4 3-2.2 4.5-.5.9-.3 1.2.8 1.3h2.3c3.6.1 7.2.3 10.8.4z"/><path d="m134.2 180.9c-3.4-.1-6.8.1-10.2.1-1.2 0-2.4 0-3.6 0-1.7 0-2.5-1.2-1.7-2.8 1.8-3.6 3.5-7.3 5.3-11 .8-1.6 1.6-3.1 2.4-4.6.5-.9 1.2-.6 2.1.1.3.2.5.6.6 1.1.4 1.8 1.4 3.3 2.2 4.9.7 1.3 1.2 2.7 1.8 4 .9 1.8 2 3.5 3.2 5.1.2.3.4.6.6.9.6 1.2.1 2.1-1.3 2.1-.4.1-.9.1-1.4.1z"/><path d="m61.6 222.1c-.6 0-1.3-.1-1.9-.2-1-.1-2-.3-3.1-.4-2.8-.3-5.5-.4-8.2-.2-.9.1-1.6-.2-2.2-1s-.6-1.6-.4-2.4c.2-.9.9-1.6 1.4-2.4 2.1-3.1 3.9-6.4 5.7-9.7.2-.5.6-.9.9-1.4.5-.7 1.1-.7 1.7-.1.5.5.8 1.1 1 1.8.5 2.1 1.7 3.8 2.7 5.7 1.1 1.8 1.9 3.7 2.8 5.6.4.8 1 1.4 1.2 2.2.3 1.2-.4 2.5-1.6 2.5z"/><path d="m166.8 169.9c-3.4-.1-6.8.1-10.2.1-1.2 0-2.4 0-3.6 0-1.7 0-2.5-1.2-1.7-2.8 1.8-3.6 3.5-7.3 5.3-11 .8-1.6 1.6-3.1 2.4-4.6.5-.9 1.2-.6 2.1.1.3.2.5.6.6 1.1.4 1.8 1.4 3.3 2.2 4.9.7 1.3 1.2 2.7 1.8 4 .9 1.8 2 3.5 3.2 5.1.2.3.4.6.6.9.6 1.2.1 2.1-1.3 2.1-.3 0-.8.1-1.4.1z"/><path d="m133.3 146.5c-.6 0-1.3-.1-1.9-.2-1-.1-2-.3-3.1-.4-2.8-.3-5.5-.4-8.2-.2-.9.1-1.6-.2-2.2-1s-.6-1.6-.4-2.4c.2-.9.9-1.6 1.4-2.4 2.1-3.1 3.9-6.4 5.7-9.7.2-.5.6-.9.9-1.4.5-.7 1.1-.7 1.7-.1.5.5.8 1.1.9 1.8.5 2.1 1.7 3.8 2.7 5.7 1.1 1.8 1.9 3.7 2.8 5.6.4.8 1 1.4 1.2 2.2.3 1.2-.3 2.5-1.5 2.5z"/><path d="m61.7 187.7c-2.2-.3-4.7-.2-7.1-.4-2.5-.1-5.1-.3-7.6-.6-.7-.1-1.3-.2-2-.4-1.8-.4-2.4-2-1.3-3.5.8-1.3 1.6-2.6 2.5-3.9 1.9-2.8 3.5-5.7 4.8-8.8.5-1.1 1.1-2.1 2-2.9.5-.4.9-.5 1.5-.2 1.1.5 1.6 1.5 2 2.6.9 2.1 2 4.1 2.9 6.1 1.5 3 3.2 6 4.2 9.2.2.5.3 1 .2 1.6-.4 1-.7 1.2-2.1 1.2zm-1.9-3.3c.6 0 .4-.3.3-.6-.5-.9-1-1.8-1.4-2.8-.8-2-1.7-3.9-2.8-5.8-.7-1.2-1.4-2.3-1.6-3.7 0-.2-.1-.4-.2-.4-.2 0-.3.2-.4.4-.5 1.1-1.1 2.3-1.6 3.5-1.2 2.8-2.9 5.3-4.5 7.9-.4.7-.4.7.4.8 1.4.2 2.8.3 4.2.4 2.6.1 5.1.2 7.6.3z"/><path d="m136.2 115.9c0 1.3-.5 2.2-1.4 2.1-1.2-.2-2.4.1-3.6 0-1.3-.1-2.6-.1-3.9-.2-2.5-.1-5 .1-7.5-.3-.9-.1-1.8-.2-2.7-.4-1.4-.3-1.9-1.4-1.3-2.7.5-1.2 1.2-2.2 1.8-3.3 1-1.7 1.8-3.5 2.7-5.3 1.2-2.3 2.3-4.7 3.4-7 .3-.5.3-1.2 1-1.4.6-.2 1.2-.1 1.6.5.6 1 1.3 1.9 1.9 2.9.8 1.3 1.5 2.5 2.1 3.9.4 1.2 1.2 2.3 1.9 3.4 1.3 1.9 2.4 3.9 3.6 5.9.3.6.3 1.4.4 1.9zm-4.9-.8h.7c1 0 1.1-.1.6-1-.6-1.3-1.3-2.5-2.2-3.7-1-1.4-2-2.8-2.7-4.5-.5-1.3-1.3-2.4-1.9-3.6-.1-.2-.2-.4-.5-.4-.2 0-.2.3-.3.4-.7 1.6-1.3 3.2-2.1 4.7-1.1 2.2-2.2 4.5-3.5 6.6-.4.7-.4.9.5.9 3.9.4 7.6.4 11.4.6z"/><path d="m98.8 294c-4.5-.3-8.6 0-12.7-.5-.6-.1-1.3 0-1.9 0-1.1 0-2.1.1-3.2-.1-1.2-.1-2-1.4-1.5-2.6.5-1.3 1.4-2.5 2.2-3.6 1.4-2.1 3-4.1 4.2-6.3.7-1.4 1.4-2.7 2.1-4.1.3-.6.7-1.1 1-1.6.3-.4.7-.5 1.2-.4.6.2 1.1.6 1.3 1.2.6 1.7 1.6 3.2 2.4 4.8 1.8 3.8 3.7 7.5 5.6 11.3.4 1.1 0 1.9-.7 1.9z"/><path d="m7.3 286.5c-.6 0-1.2.2-1.8-.3-.8-.7-1-1.6-.4-2.5 2-3.3 3.8-6.8 5.8-10.1.8-1.5 1.3-3.1 2.2-4.6.9-1.6 1.7-1.7 2.8-.2.8 1 1.5 2 1.9 3.2.7 2.1 2.3 3.8 3.5 5.6 1.3 2 2.6 3.9 3.9 5.8.4.6.5 1.3.6 2 .1.5-.6 1-1.4 1.1-1.3.1-2.7 0-4 0-2.1 0-4.2 0-6.3-.1-2 0-4 .3-6.1 0-.1 0-.4.1-.7.1z"/><path d="m146.6 329.5c-.1-1.7.8-3.2 1.5-4.8 1.9-3.9 3.8-7.7 5.8-11.6.8-1.7 1.7-3.3 2.7-4.9.4-.5.8-.7 1.3-.3.8.6 1.7 1.1 2.1 2.2.5 1.3 1.2 2.4 2 3.5 1.1 1.7 1.9 3.5 2.7 5.3 1.3 3.3 2.7 6.5 3.7 9.9.3 1.1.7 2.2.5 3.3-.1.8-.6 1.1-1.3 1.1-3.3-.1-6.6-.1-9.9-.4-1.8-.1-3.6-.1-5.4-.1-.9 0-1.8 0-2.6-.1-1.9.1-3.1-1.3-3.1-3.1zm17.5.4h.8c.5 0 .7-.2.6-.7-.1-.4-.2-.8-.3-1.1-.5-1.3-1-2.6-1.5-3.9-.6-1.4-1.1-2.9-1.7-4.3-.8-2.2-1.9-4.1-3.2-6-.3-.4-.4-1.1-.8-1.1-.5 0-.6.8-.8 1.2-1.6 3.2-3.2 6.5-4.8 9.7-.7 1.5-1.4 3-2.2 4.5-.5.9-.3 1.2.8 1.3h2.3c3.6.1 7.2.3 10.8.4z"/><path d="m16.6 304.5c1.1.4 1.7 2.2 2.2 3.1s1 1.8 1.6 2.6c.8 1.3 1.5 2.7 2.2 4.1.7 1.3 1.6 2.6 2.3 3.9.8 1.4 1.7 2.9 1.1 4.4-.5 1.3-3.5.7-4.6.7-1.5 0-2.9-.1-4.4-.1-2.8-.1-5.6-.2-8.4-.3-.8 0-1.9-1-2.1-1.7-.1-.4 0-.7.2-1.1 1.1-1.9 2.3-3.7 3.3-5.6 1.1-2 1.8-4 2.6-6 .4-.9 1.2-1.6 1.5-2.6s1.6-1.7 2.5-1.4z"/><path d="m97.8 329.2c-2.2.1-4.4.1-6.6.2-3 .1-6.1.4-9.1-.1-.5-.1-1-.2-1.6-.3-1.1-.1-2-1.6-1.5-2.6 1.4-2.4 2.4-4.9 3.7-7.3.4-.8.9-1.6 1.2-2.5 1-2.5 2.2-4.9 3.6-7.2 1-1.7 1.5-1.7 2.6-.1.9 1.3 1.8 2.5 2.2 4 .1.4.4.9.6 1.2 1 1.3 1.8 2.7 2.5 4.2 1.3 2.8 3.5 5.1 4.8 8 .3.6.3 1.1.1 1.6-.2.7-.6 1-1.4.9-.2 0-.4 0-.6 0-.1-.1-.3 0-.5 0z"/><path d="m131.4 326c-3.4-.1-6.8.1-10.2.1-1.2 0-2.4 0-3.6 0-1.7 0-2.5-1.2-1.7-2.8 1.8-3.6 3.5-7.3 5.3-11 .8-1.6 1.6-3.1 2.4-4.6.5-.9 1.2-.6 2.1.1.3.2.5.6.6 1.1.4 1.8 1.4 3.3 2.2 4.9.7 1.3 1.2 2.7 1.8 4 .9 1.8 2 3.5 3.2 5.1l.6.9c.6 1.2.1 2.1-1.3 2.1-.4 0-.9.1-1.4.1z"/><path d="m58.8 306.1c-.6 0-1.3-.1-1.9-.2-1-.1-2-.3-3.1-.4-2.7-.3-5.5-.4-8.2-.2-.9.1-1.6-.2-2.2-1s-.6-1.6-.4-2.4c.2-.9.9-1.6 1.4-2.4 2.1-3.1 3.9-6.4 5.7-9.7.2-.5.6-.9.9-1.4.5-.7 1.1-.7 1.7-.1.5.5.8 1.1 1 1.8.5 2.1 1.7 3.8 2.7 5.7 1.1 1.8 1.9 3.7 2.8 5.6.4.8 1 1.4 1.2 2.2.3 1.2-.4 2.4-1.6 2.5z"/><path d="m164.1 294c-3.4-.1-6.8.1-10.2.1-1.2 0-2.4 0-3.6 0-1.7 0-2.5-1.2-1.7-2.8 1.8-3.6 3.5-7.3 5.3-11 .8-1.6 1.6-3.1 2.4-4.6.5-.9 1.2-.6 2.1.1.3.2.5.6.6 1.1.4 1.8 1.4 3.3 2.2 4.9.7 1.3 1.2 2.7 1.8 4 .9 1.8 2 3.5 3.2 5.1.2.3.4.6.6.9.6 1.2.1 2.1-1.3 2.1-.4 0-.9.1-1.4.1z"/><path d="m131.6 293.6c-.6 0-1.3-.1-1.9-.2-1-.1-2-.3-3.1-.4-2.8-.3-5.5-.4-8.2-.2-.9.1-1.6-.2-2.2-1s-.6-1.6-.4-2.4c.2-.9.9-1.6 1.4-2.4 2.1-3.1 3.9-6.4 5.7-9.7.2-.5.6-.9.9-1.4.5-.7 1.1-.7 1.7-.1.5.5.8 1.1.9 1.8.5 2.1 1.7 3.8 2.7 5.7 1.1 1.8 1.9 3.7 2.8 5.6.4.8 1 1.4 1.2 2.2.3 1.2-.3 2.5-1.5 2.5z"/><path d="m59 272.7c-2.2-.3-4.7-.2-7.1-.4-2.5-.1-5.1-.3-7.6-.6-.7-.1-1.3-.2-2-.4-1.8-.4-2.4-2-1.3-3.5.8-1.3 1.6-2.6 2.5-3.9 1.9-2.8 3.5-5.7 4.8-8.8.5-1.1 1.1-2.1 2-2.9.4-.4.9-.5 1.4-.2 1.1.5 1.6 1.5 2 2.6.9 2.1 2 4.1 2.9 6.1 1.5 3 3.2 6 4.2 9.2.2.5.3 1 .2 1.6-.3 1-.7 1.2-2 1.2zm-1.9-3.3c.6 0 .4-.3.3-.6-.5-.9-1-1.8-1.4-2.8-.8-2-1.7-3.9-2.8-5.8-.7-1.2-1.4-2.3-1.6-3.7 0-.2-.1-.4-.2-.4-.2 0-.3.2-.4.4-.5 1.1-1.1 2.3-1.6 3.5-1.2 2.8-2.9 5.3-4.5 7.9-.4.7-.4.7.4.8 1.4.2 2.8.3 4.2.4 2.6.1 5.1.2 7.6.3z"/><path d="m60.6 368.5c-2.2.1-4.4.1-6.6.2-3 .1-6.1.4-9.1-.1-.5-.1-1-.2-1.6-.3-1.1-.1-2-1.6-1.5-2.6 1.4-2.4 2.4-4.9 3.7-7.3.4-.8.9-1.6 1.2-2.5 1-2.5 2.2-4.9 3.6-7.2 1-1.7 1.5-1.7 2.6-.1.9 1.3 1.8 2.5 2.2 4 .1.4.4.9.6 1.2 1 1.3 1.8 2.7 2.5 4.2 1.3 2.8 3.5 5.1 4.8 8 .3.6.3 1.1.1 1.6-.2.7-.6 1-1.4.9-.2 0-.4 0-.6 0-.1-.1-.3 0-.5 0z"/><path d="m100.5 404c-4.5-.3-8.6 0-12.7-.5-.6-.1-1.3 0-1.9 0-1.1 0-2.1.1-3.1-.1-1.2-.1-2-1.4-1.5-2.6.5-1.3 1.4-2.5 2.2-3.6 1.4-2.1 3-4.1 4.2-6.3.7-1.4 1.4-2.7 2.1-4.1.3-.6.7-1.1 1-1.6.3-.4.7-.5 1.2-.4.6.2 1.1.6 1.3 1.2.6 1.7 1.6 3.2 2.4 4.8 1.8 3.8 3.7 7.5 5.6 11.3.3 1.1-.1 1.9-.8 1.9z"/><path d="m9 400.6c-.6 0-1.2.2-1.8-.3-.8-.7-1-1.6-.4-2.5 2-3.3 3.8-6.8 5.8-10.1.8-1.5 1.3-3.1 2.2-4.6.9-1.6 1.7-1.7 2.8-.2.8 1 1.5 2 1.9 3.2.7 2.1 2.3 3.7 3.5 5.6 1.3 2 2.6 3.9 3.9 5.8.4.6.5 1.3.6 2 .1.5-.6 1-1.4 1.1-1.3.1-2.7 0-4 0-2.1 0-4.2 0-6.3-.1-2 0-4 .3-6.1 0-.1 0-.4.1-.7.1z"/><path d="m166.8 386.4c-3.4-.1-6.8.1-10.2.1-1.2 0-2.4 0-3.6 0-1.7 0-2.5-1.2-1.7-2.8 1.8-3.6 3.5-7.3 5.3-11 .8-1.6 1.6-3.1 2.4-4.6.5-.9 1.2-.6 2.1.1.3.2.5.6.6 1.1.4 1.8 1.4 3.3 2.2 4.9.7 1.3 1.2 2.7 1.8 4 .9 1.8 2 3.5 3.2 5.1.2.3.4.6.6.9.6 1.2.1 2.1-1.3 2.1-.3 0-.8.1-1.4.1z"/><path d="m61.7 405.9c-2.2-.3-4.7-.2-7.1-.4-2.5-.1-5.1-.3-7.6-.6-.7-.1-1.3-.2-2-.4-1.8-.4-2.4-2-1.3-3.5.8-1.3 1.6-2.6 2.5-3.9 1.9-2.8 3.5-5.7 4.8-8.8.5-1.1 1.1-2.1 2-2.9.5-.4.9-.5 1.5-.2 1.1.5 1.6 1.5 2 2.6.9 2.1 2 4.1 2.9 6.1 1.5 3 3.2 6 4.2 9.2.2.5.3 1 .2 1.6-.4.9-.7 1.1-2.1 1.2zm-1.9-3.4c.6 0 .4-.3.3-.6-.5-.9-1-1.8-1.4-2.8-.8-2-1.7-3.9-2.8-5.8-.7-1.2-1.4-2.3-1.6-3.7 0-.2-.1-.4-.2-.4-.2 0-.3.2-.4.4-.5 1.1-1.1 2.3-1.6 3.5-1.2 2.8-2.9 5.3-4.5 7.9-.4.7-.4.7.4.9 1.4.2 2.8.3 4.2.4 2.6.1 5.1.1 7.6.2z"/><path d="m135.2 367.9c0 1.3-.5 2.2-1.4 2.1-1.2-.2-2.4.1-3.6 0-1.3-.1-2.6-.1-3.9-.2-2.5-.1-5 .1-7.5-.3-.9-.1-1.8-.2-2.7-.4-1.4-.3-1.9-1.4-1.3-2.7.5-1.2 1.2-2.2 1.8-3.3 1-1.7 1.8-3.5 2.7-5.3 1.2-2.3 2.3-4.7 3.4-7 .3-.5.3-1.2 1-1.4.6-.2 1.2-.1 1.6.5.6 1 1.3 1.9 1.9 2.9.8 1.3 1.5 2.5 2.1 3.9.4 1.2 1.2 2.3 1.9 3.4 1.3 1.9 2.4 3.9 3.6 6 .2.4.3 1.2.4 1.8zm-5-.9h.7c1 0 1.1-.1.6-1.1-.6-1.3-1.3-2.5-2.2-3.7-1-1.4-2-2.8-2.7-4.5-.5-1.3-1.3-2.4-1.9-3.6-.1-.2-.2-.4-.5-.4-.2 0-.2.3-.3.4-.7 1.6-1.3 3.2-2.1 4.7-1.1 2.2-2.2 4.5-3.5 6.6-.4.7-.4.9.5.9 3.9.5 7.7.5 11.4.7z"/></g></svg>