<svg enable-background="new 0 0 425.2 425.2" viewBox="0 0 425.2 425.2" xmlns="http://www.w3.org/2000/svg"><path d="m24.7 7.5c1.5.9 1.9 1.6 1.6 3.4-.2 1.1-.3 2.2-.4 3.4-.1.6.2.8.8.8s1.1.1 1.7.1c1.2.2 2.2 1.2 2.1 2.4-.2 2.1 0 4.1.5 6.2.3 1.2 0 2.1-2.2 2.1-.9 0-1.9 0-2.8 0-.5 0-.8.2-.9.7-.2 1.7-.4 3.4-.4 5.1 0 1-.7 1.8-1.6 1.6-1.7-.4-3.4-.2-5.1-.6-.6-.2-1-.5-1.4-1.2-.8-1.4-.5-2.8-.5-4.2-.1-1.2-.1-1.2-1.3-1.3-.9 0-1.8.1-2.7.2-1.4.1-2.4-.6-2.6-2-.3-1.7-.1-3.5-.2-5.3 0-.3-.1-.7 0-1 .2-1.1.7-1.4 1.8-1.4 1.4 0 2.8-.1 4.3-.1.5 0 .7-.2.8-.8.2-2.1.2-4.2-.6-6.3-.3-1-.1-1.3.9-1.6.2 0 .3-.2.5-.3 2.5.1 5.1.1 7.7.1z" opacity=".1"/><path d="m193 8.9h1.5c1.1 0 1.8.9 1.6 1.9s-.5 2-.7 3.1c0 .1-.1.2-.1.3-.2 1.8-.1 1.8 1.6 2 1.2.2 2.4 0 3.6.3.8.2 1.4.7 1.4 1.5 0 2.1.4 4.2.4 6.4 0 1.6-.8 2.3-2.3 2.3-1.3.1-2.6.2-3.9.3-.5 0-.7.3-.7.8 0 1.2-.3 2.4 0 3.6.2 1.2-.2 1.8-1.4 2.2-1.7.6-3.5.7-5.2.2-1.2-.3-1.4-1.3-1.8-2.3-.6-1.2-.5-2.6-.6-3.9-.1-.6-.3-.7-.9-.7-1.3 0-2.5.1-3.7-.5-1-.5-1.6-1.2-1.4-2.3.2-1.6-.1-3.2 0-4.8 0-.5.1-1 .3-1.5.4-1 .8-1.3 1.9-1.4 1.2 0 2.4-.1 3.5-.1.5 0 .6-.2.6-.6 0-1.7.1-3.4.1-5.1 0-1 .4-1.4 1.4-1.6 1.5 0 3.1-.1 4.8-.1z" opacity=".1"/><path d="m101.6 10.9c.1-.6.2-1.3.3-1.9.2-1.1.7-1.6 1.9-1.5 1.6.2 3.3 0 4.9.1 1.4 0 2.5 1 2.5 2.4 0 1.9-.1 3.8-.4 5.6 0 .2-.1.3-.1.5-.1 1.3-.1 1.3 1.2 1.4s2.7 0 4 .3c1.1.2 1.7.8 1.7 2 0 1-.1 2.1 0 3.1 0 .4.1.8.2 1.2.3 1-.3 1.8-1.4 1.9-2 .1-3.9.1-5.9.1-.7 0-.9.2-.9.9 0 1.3-.1 2.6-.2 3.9-.1.9-.3 1.8-.5 2.6-.2.5-.7.7-1.2.7-1.6.1-3.1-.4-4.5-1-.4-.2-.8-.4-1.3-.5-.3-.1-.6-.3-.7-.6-.2-.4-.3-.7-.7-.9-.4-.3-.4-.7-.3-1 .3-1.5.1-3 .1-4.5 0-.5-.2-.7-.7-.7-.3 0-.7 0-1.1 0-2.1-.1-2.9-.9-3.1-2.9-.1-.9-.1-1.9-.1-2.8 0-1.2.6-1.8 1.8-1.9 1-.1 2.1-.1 3.1 0 .6.1.8-.1.9-.7.4-2.1.5-3.9.5-5.8z" opacity=".1"/><path d="m282 11.3c-.1 1-.2 2.1-.3 3.1-.1.6.1.8.7.8.7-.1 1.4.1 2.1.2 1.7.1 3 1.3 2.7 3.2-.2 2-.1 4-.2 6.1-.2 2.2-.5 2.2-2.5 2.1-2.8 0-2 0-2.3 2.2-.2 1.3-.1 2.6-.6 3.9-.6 1.3-1.4 1.9-2.7 1.6-1.6-.4-3.3-.4-4.9-.7-.6-.1-1.2-.3-1.7-.5-.4-.2-.6-.5-.9-.9-1.2-1.6-.8-3.4-.8-5.1 0-.2 0-.5 0-.7.1-.7-.3-.9-.9-.8-.9.2-1.8.2-2.7.1-1.6-.1-2.5-1.3-2.4-2.9.1-1.9 0-3.9-.2-5.8-.2-1.5.7-2.3 2.2-2.3 1.1 0 2.2.2 3.4.2.5 0 .8-.2.8-.7-.1-1.2.3-2.4.1-3.6-.1-.6.1-1.3.2-1.9.1-.7 1.1-1.1 1.9-1.2 1.5-.1 3 .3 4.4.4.5 0 1 .1 1.5.1 2.6-.1 3.2.7 3.1 3.1z" opacity=".1"/><path d="m281.3 95.7c1.5.9 1.9 1.6 1.6 3.4-.2 1.1-.3 2.2-.4 3.4-.1.6.2.8.8.8s1.1.1 1.7.1c1.2.2 2.2 1.2 2.1 2.4-.2 2.1 0 4.1.5 6.2.3 1.2 0 2.1-2.2 2.1-.9 0-1.9 0-2.8 0-.5 0-.8.2-.9.7-.2 1.7-.4 3.4-.4 5.1 0 1-.7 1.8-1.6 1.6-1.7-.4-3.4-.2-5.1-.6-.6-.2-1-.5-1.4-1.2-.8-1.4-.5-2.8-.5-4.2-.1-1.2-.1-1.3-1.3-1.3-.9 0-1.8.1-2.7.2-1.4.1-2.4-.6-2.6-2-.3-1.7-.1-3.5-.2-5.3 0-.3-.1-.7 0-1 .2-1.1.7-1.4 1.8-1.4 1.4 0 2.9-.1 4.3-.1.5 0 .7-.2.8-.8.2-2.1.2-4.2-.6-6.3-.3-1-.1-1.3.9-1.6.2 0 .3-.2.5-.3 2.5.1 5.1.1 7.7.1z" opacity=".1"/><path d="m21.7 97.1h1.5c1.1 0 1.8.9 1.6 1.9s-.5 2-.7 3.1c0 .1-.1.2-.1.3-.2 1.8-.1 1.8 1.6 2 1.2.2 2.4 0 3.6.3.8.2 1.4.7 1.4 1.5 0 2.1.4 4.2.4 6.4 0 1.6-.8 2.3-2.3 2.3-1.3.1-2.6.2-3.9.3-.5 0-.7.3-.7.8 0 1.2-.3 2.4 0 3.6.2 1.2-.2 1.8-1.4 2.2-1.7.6-3.5.7-5.2.2-1.2-.3-1.4-1.3-1.8-2.3-.6-1.2-.5-2.6-.6-3.9-.1-.6-.3-.7-.9-.7-1.3 0-2.5.1-3.7-.5-1-.5-1.6-1.2-1.4-2.3.2-1.6-.1-3.2 0-4.8 0-.5.1-1 .3-1.5.4-1 .8-1.3 1.9-1.4 1.2 0 2.4-.1 3.5-.1.5 0 .6-.2.6-.6 0-1.7.1-3.4.1-5.1 0-1 .4-1.4 1.4-1.6 1.5 0 3.1-.1 4.8-.1z" opacity=".1"/><path d="m200.9 107c.2 1.7.1 3.3.2 5 .1 1.1-.3 1.6-1.4 1.9-.8.2-1.5.3-2.3.2s-1.1.2-1.1 1c0 1.6 0 3.1-.3 4.7-.2 1.4-2 2.6-3.4 2.5-1.7-.2-3.4-.6-4.8-1.6-.6-.5-.9-1.2-.9-2 0-1.3.1-2.7.1-4 0-.8-.1-1-.9-.8-1.4.5-2.8 0-4.1-.5-.4-.2-1.1-1.7-1.1-2.2.2-1.3.1-2.5.1-3.8 0-.3-.1-.6 0-.8.2-1.1.1-1.5 1.5-1.6 1.3-.1 2.6-.3 3.9-.2.6 0 .7-.1.8-.8 0-2.5.3-5 .7-7.5.1-.6 1.1-1.2 1.9-1.2 1.9.1 3.8.3 5.6.5.7.1 1.2.6 1.3 1.4.2 1.4 0 2.7-.1 4.1 0 .8 0 1.7-.1 2.5 0 .4.2.6.6.6.7 0 1.4 0 2.1.1 1.4.2 1.8.7 1.7 2.1z" opacity=".1"/><path d="m15.3 184.9c.1-.6.2-1.3.3-1.9.2-1.1.7-1.6 1.9-1.5 1.6.2 3.3 0 4.9.1 1.4 0 2.5 1 2.5 2.4 0 1.9-.1 3.8-.4 5.6 0 .2-.1.3-.1.5-.1 1.3-.1 1.3 1.2 1.4s2.7 0 4 .3c1.1.2 1.7.8 1.7 2 0 1.1-.1 2.1 0 3.1 0 .4.1.8.2 1.2.3 1-.3 1.8-1.4 1.9-2 0-3.9.1-5.9.1-.7 0-.9.2-.9.9 0 1.3-.1 2.6-.2 3.9-.1.9-.3 1.8-.5 2.6-.2.5-.7.7-1.2.7-1.6.1-3.1-.4-4.5-1-.4-.2-.8-.4-1.3-.5-.3-.1-.6-.3-.7-.6-.2-.3-.3-.7-.7-.9-.4-.3-.4-.7-.3-1 .3-1.5.1-3 .1-4.5 0-.5-.2-.7-.7-.7-.3 0-.7 0-1.1 0-2.1-.1-2.9-.9-3.1-2.9-.1-.9-.1-1.9-.1-2.8 0-1.2.6-1.8 1.8-1.9 1-.1 2.1-.1 3.1 0 .6.1.8-.1.9-.7.3-2 .5-3.9.5-5.8z" opacity=".1"/><path d="m197.6 185.4c-.1 1-.2 2.1-.3 3.1-.1.6.1.8.7.8.7-.1 1.4.1 2.1.2 1.7.1 3 1.3 2.7 3.2-.2 2-.1 4-.2 6.1-.2 2.2-.5 2.2-2.5 2.1-2.8-.1-2 0-2.3 2.2-.2 1.3-.1 2.6-.6 3.9-.6 1.3-1.4 1.9-2.7 1.6-1.6-.4-3.3-.4-4.9-.7-.6-.1-1.2-.3-1.7-.5-.4-.2-.6-.5-.9-.9-1.2-1.6-.8-3.4-.8-5.1 0-.2 0-.5 0-.7.1-.7-.3-.9-.9-.8-.9.2-1.8.2-2.7.1-1.6-.1-2.5-1.3-2.4-2.9.1-1.9 0-3.9-.2-5.8-.2-1.5.7-2.3 2.2-2.3 1.1 0 2.2.2 3.4.2.5 0 .8-.2.8-.7-.1-1.2.3-2.4.1-3.6-.1-.6.1-1.3.2-1.9.1-.7 1.1-1.1 1.9-1.2 1.5-.1 3 .3 4.4.4.5 0 1 .1 1.5.1 2.7-.2 3.3.7 3.1 3.1z" opacity=".1"/><path d="m285.8 192.9c.2 1.7.1 3.3.2 5 .1 1.1-.3 1.6-1.4 1.9-.8.2-1.5.3-2.3.2s-1.1.2-1.1 1c0 1.6 0 3.1-.3 4.7-.2 1.4-2 2.6-3.4 2.5-1.7-.2-3.4-.6-4.8-1.6-.6-.5-.9-1.2-.9-2 0-1.3.1-2.7.1-4 0-.8-.1-1-.9-.8-1.4.5-2.8 0-4.1-.5-.4-.2-1.1-1.7-1.1-2.2.2-1.3.1-2.5.1-3.8 0-.3-.1-.6 0-.8.2-1.1.1-1.5 1.5-1.6 1.3-.1 2.6-.3 3.9-.2.6 0 .8-.1.8-.8 0-2.5.3-5 .7-7.5.1-.6 1.1-1.2 1.9-1.2 1.9.1 3.8.3 5.6.5.7.1 1.2.6 1.3 1.4.2 1.4 0 2.7-.1 4.1 0 .8-.1 1.7-.1 2.5 0 .4.2.6.6.6.7 0 1.4 0 2.1.1 1.4.2 1.8.7 1.7 2.1z" opacity=".1"/><path d="m101.6 266.2c.1-.6.2-1.3.3-1.9.2-1.1.7-1.6 1.9-1.5 1.6.2 3.3 0 4.9.1 1.4 0 2.5 1 2.5 2.4 0 1.9-.1 3.8-.4 5.6 0 .2-.1.3-.1.5-.1 1.3-.1 1.3 1.2 1.4s2.7 0 4 .3c1.1.2 1.7.8 1.7 2 0 1-.1 2.1 0 3.1 0 .4.1.8.2 1.2.3 1-.3 1.8-1.4 1.9-2 .1-3.9.1-5.9.1-.7 0-.9.2-.9.9 0 1.3-.1 2.6-.2 3.9-.1.9-.3 1.8-.5 2.6-.2.5-.7.7-1.2.7-1.6.1-3.1-.4-4.5-1-.4-.2-.8-.4-1.3-.5-.3-.1-.6-.3-.7-.6-.2-.4-.3-.7-.7-.9-.4-.3-.4-.7-.3-1 .3-1.5.1-3 .1-4.5 0-.5-.2-.7-.7-.7-.3 0-.7 0-1.1 0-2.1-.1-2.9-.9-3.1-2.9-.1-.9-.1-1.9-.1-2.8 0-1.2.6-1.8 1.8-1.9 1-.1 2.1-.1 3.1 0 .6.1.8-.1.9-.7.4-2 .5-3.9.5-5.8z" opacity=".1"/><path d="m282 266.6c-.1 1-.2 2.1-.3 3.1-.1.6.1.8.7.8.7-.1 1.4.1 2.1.2 1.7.1 3 1.3 2.7 3.2-.2 2-.1 4-.2 6.1-.2 2.2-.5 2.2-2.5 2.1-2.8 0-2 0-2.3 2.2-.2 1.3-.1 2.6-.6 3.9-.6 1.3-1.4 1.9-2.7 1.6-1.6-.4-3.3-.4-4.9-.7-.6-.1-1.2-.3-1.7-.5-.4-.2-.6-.5-.9-.9-1.2-1.6-.8-3.4-.8-5.1 0-.2 0-.5 0-.7.1-.7-.3-.9-.9-.8-.9.2-1.8.2-2.7.1-1.6-.1-2.5-1.3-2.4-2.9.1-1.9 0-3.9-.2-5.8-.2-1.5.7-2.3 2.2-2.3 1.1 0 2.2.2 3.4.1.5 0 .8-.2.8-.7-.1-1.2.3-2.4.1-3.6-.1-.6.1-1.3.2-1.9.1-.7 1.1-1.1 1.9-1.2 1.5-.1 3 .3 4.4.4.5 0 1 .1 1.5.1 2.6 0 3.2.9 3.1 3.2z" opacity=".1"/><path d="m281.3 348c1.5.9 1.9 1.6 1.6 3.4-.2 1.1-.3 2.2-.4 3.4-.1.6.2.8.8.8s1.1.1 1.7.1c1.2.2 2.2 1.2 2.1 2.4-.2 2.1 0 4.1.5 6.2.3 1.2 0 2.1-2.2 2.1-.9 0-1.9 0-2.8 0-.5 0-.8.2-.9.7-.2 1.7-.4 3.4-.4 5.1 0 1-.7 1.8-1.6 1.6-1.7-.4-3.4-.2-5.1-.6-.6-.2-1-.5-1.4-1.2-.8-1.4-.5-2.8-.5-4.2-.1-1.2-.1-1.3-1.3-1.3-.9 0-1.8.1-2.7.2-1.4.1-2.4-.6-2.6-2-.3-1.7-.1-3.5-.2-5.3 0-.3-.1-.7 0-1 .2-1.1.7-1.4 1.8-1.4 1.4 0 2.9-.1 4.3-.1.5 0 .7-.2.8-.8.2-2.1.2-4.2-.6-6.3-.3-1-.1-1.3.9-1.6.2 0 .3-.2.5-.3 2.5.1 5.1.1 7.7.1z" opacity=".1"/><path d="m21.7 349.4h1.5c1.1 0 1.8.9 1.6 1.9s-.5 2-.7 3.1c0 .1-.1.2-.1.3-.2 1.8-.1 1.8 1.6 2 1.2.2 2.4 0 3.6.3.8.2 1.4.7 1.4 1.5 0 2.1.4 4.2.4 6.4 0 1.6-.8 2.3-2.3 2.3-1.3.1-2.6.2-3.9.3-.5 0-.7.3-.7.8 0 1.2-.3 2.4 0 3.6.2 1.2-.2 1.8-1.4 2.2-1.7.6-3.5.7-5.2.2-1.2-.3-1.4-1.3-1.8-2.3-.6-1.2-.5-2.6-.6-3.9-.1-.6-.3-.7-.9-.7-1.3 0-2.5.1-3.7-.5-1-.5-1.6-1.2-1.4-2.3.2-1.6-.1-3.2 0-4.8 0-.5.1-1 .3-1.5.4-1 .8-1.3 1.9-1.4 1.2 0 2.4-.1 3.5-.1.5 0 .6-.2.6-.6 0-1.7.1-3.4.1-5.1 0-1 .4-1.4 1.4-1.6 1.5 0 3.1-.1 4.8-.1z" opacity=".1"/><path d="m112.7 351.8c-.1 1-.2 2.1-.3 3.1-.1.6.1.8.7.8.7-.1 1.4.1 2.1.2 1.7.1 3 1.3 2.7 3.2-.2 2-.1 4-.2 6.1-.2 2.2-.5 2.2-2.5 2.1-2.8 0-2 0-2.3 2.2-.2 1.3-.1 2.6-.6 3.9-.6 1.3-1.4 1.9-2.7 1.6-1.6-.4-3.3-.4-4.9-.7-.6-.1-1.2-.3-1.7-.5-.4-.2-.6-.5-.9-.9-1.2-1.6-.8-3.4-.8-5.1 0-.2 0-.5 0-.7.1-.7-.3-.9-.9-.8-.9.2-1.8.2-2.7.1-1.6-.1-2.5-1.3-2.4-2.9.1-1.9 0-3.9-.2-5.8-.2-1.5.7-2.3 2.2-2.3 1.1 0 2.2.2 3.4.1.5 0 .8-.2.8-.7-.1-1.2.3-2.4.1-3.6-.1-.6.1-1.3.2-1.9.1-.7 1.1-1.1 1.9-1.2 1.5-.1 3 .3 4.4.4.5 0 1 .1 1.5.1 2.6-.1 3.3.8 3.1 3.2z" opacity=".1"/><path d="m200.9 359.3c.2 1.7.1 3.3.2 5 .1 1.1-.3 1.6-1.4 1.9-.8.2-1.5.3-2.3.2s-1.1.2-1.1 1c0 1.6 0 3.1-.3 4.7-.2 1.4-2 2.6-3.4 2.5-1.7-.2-3.4-.6-4.8-1.6-.6-.5-.9-1.2-.9-2 0-1.3.1-2.7.1-4 0-.8-.1-1-.9-.8-1.4.5-2.8 0-4.1-.5-.4-.2-1.1-1.7-1.1-2.2.2-1.3.1-2.5.1-3.8 0-.3-.1-.5 0-.8.2-1.1.1-1.5 1.5-1.6 1.3-.1 2.6-.3 3.9-.2.6 0 .7-.1.8-.8 0-2.5.3-5 .7-7.5.1-.6 1.1-1.2 1.9-1.2 1.9.1 3.8.3 5.6.5.7.1 1.2.6 1.3 1.4.2 1.4 0 2.7-.1 4.1 0 .8 0 1.7-.1 2.5 0 .4.2.6.6.6.7 0 1.4 0 2.1.1 1.4.2 1.8.7 1.7 2.1z" opacity=".1"/><path d="m403.3 8.9h1.5c1.1 0 1.8.9 1.6 1.9s-.5 2-.7 3.1c0 .1-.1.2-.1.3-.2 1.8-.1 1.8 1.6 2 1.2.2 2.4 0 3.6.3.8.2 1.4.7 1.4 1.5 0 2.1.4 4.2.4 6.4 0 1.6-.8 2.3-2.3 2.3-1.3.1-2.6.2-3.9.3-.5 0-.7.3-.7.8 0 1.2-.3 2.4 0 3.6.2 1.2-.2 1.8-1.4 2.2-1.7.6-3.5.7-5.2.2-1.2-.3-1.4-1.3-1.8-2.3-.6-1.2-.5-2.6-.6-3.9-.1-.6-.3-.7-.9-.7-1.3 0-2.5.1-3.7-.5-1-.5-1.6-1.2-1.4-2.3.2-1.6-.1-3.2 0-4.8 0-.5.1-1 .3-1.5.4-1 .8-1.3 1.9-1.4 1.2 0 2.4-.1 3.5-.1.5 0 .6-.2.6-.6 0-1.7.1-3.4.1-5.1 0-1 .4-1.4 1.4-1.6 1.5 0 3.1-.1 4.8-.1z" opacity=".1"/><path d="m311.9 10.9c.1-.6.2-1.3.3-1.9.2-1.1.7-1.6 1.9-1.5 1.6.2 3.3 0 4.9.1 1.4 0 2.5 1 2.5 2.4 0 1.9-.1 3.8-.4 5.6 0 .2-.1.3-.1.5-.1 1.3-.1 1.3 1.2 1.4s2.7 0 4 .3c1.1.2 1.7.8 1.7 2 0 1-.1 2.1 0 3.1 0 .4.1.8.2 1.2.3 1-.3 1.8-1.4 1.9-2 .1-3.9.1-5.9.1-.7 0-.9.2-.9.9 0 1.3-.1 2.6-.2 3.9-.1.9-.3 1.8-.5 2.6-.2.5-.7.7-1.2.7-1.6.1-3.1-.4-4.5-1-.4-.2-.8-.4-1.3-.5-.3-.1-.6-.3-.7-.6-.2-.4-.3-.7-.7-.9-.4-.3-.4-.7-.3-1 .3-1.5.1-3 .1-4.5 0-.5-.2-.7-.7-.7-.3 0-.7 0-1.1 0-2.1-.1-2.9-.9-3.1-2.9-.1-.9-.1-1.9-.1-2.8 0-1.2.6-1.8 1.8-1.9 1-.1 2.1-.1 3.1 0 .6.1.8-.1.9-.7.4-2.1.5-3.9.5-5.8z" opacity=".1"/><path d="m366.2 51.6c1.5.9 1.9 1.6 1.6 3.4-.2 1.1-.3 2.2-.4 3.4-.1.6.2.8.8.8s1.1.1 1.7.2c1.2.2 2.2 1.2 2.1 2.4-.2 2.1 0 4.1.5 6.2.3 1.2 0 2.1-2.2 2.1-.9 0-1.9 0-2.8 0-.5 0-.8.2-.9.7-.2 1.7-.4 3.4-.4 5.1 0 1-.7 1.8-1.6 1.6-1.7-.4-3.4-.2-5.1-.6-.6-.2-1-.5-1.4-1.2-.8-1.4-.5-2.8-.5-4.2-.1-1.2-.1-1.3-1.3-1.3-.9 0-1.8.1-2.7.2-1.4.1-2.4-.6-2.6-2-.3-1.7-.1-3.5-.2-5.3 0-.3-.1-.7 0-1 .2-1.1.7-1.4 1.8-1.4 1.4 0 2.9-.1 4.3-.1.5 0 .7-.2.8-.8.2-2.1.2-4.2-.6-6.3-.3-1-.1-1.3.9-1.6.2 0 .3-.2.5-.3z" opacity=".1"/><path d="m409.1 55.4c-.1 1-.2 2.1-.3 3.1-.1.6.1.8.7.8.7-.1 1.4.1 2.1.2 1.7.1 3 1.3 2.7 3.2-.2 2-.1 4-.2 6.1-.2 2.2-.5 2.2-2.5 2.1-2.8 0-2 0-2.3 2.2-.2 1.3-.1 2.6-.6 3.9-.6 1.3-1.4 1.9-2.7 1.6-1.6-.4-3.3-.4-4.9-.7-.6-.1-1.2-.3-1.7-.5-.4-.2-.6-.5-.9-.9-1.2-1.6-.8-3.4-.8-5.1 0-.2 0-.5 0-.7.1-.7-.3-.9-.9-.8-.9.2-1.8.2-2.7.1-1.6-.1-2.5-1.3-2.4-2.9.1-1.9 0-3.9-.2-5.8-.2-1.5.7-2.3 2.2-2.3 1.1 0 2.2.2 3.4.2.5 0 .8-.2.8-.7-.1-1.2.3-2.4.1-3.6-.1-.6.1-1.3.2-1.9.1-.7 1.1-1.1 1.9-1.2 1.5-.1 3 .3 4.4.4.5 0 1 .1 1.5.1 2.7-.1 3.3.7 3.1 3.1z" opacity=".1"/><path d="m108.7 53h1.5c1.1 0 1.8.9 1.6 1.9s-.5 2-.7 3.1c0 .1-.1.2-.1.3-.2 1.8-.1 1.8 1.6 2 1.2.2 2.4 0 3.6.3.8.2 1.4.7 1.4 1.5 0 2.1.4 4.2.4 6.4 0 1.6-.8 2.3-2.3 2.3-1.3.1-2.6.2-3.9.3-.5 0-.7.3-.7.8 0 1.2-.3 2.4 0 3.6.2 1.2-.2 1.8-1.4 2.2-1.7.6-3.5.7-5.2.2-1.2-.3-1.4-1.3-1.8-2.3-.6-1.2-.5-2.6-.6-3.9-.1-.6-.3-.7-.9-.7-1.3 0-2.5.1-3.7-.5-1-.5-1.6-1.2-1.4-2.3.2-1.6-.1-3.2 0-4.8 0-.5.1-1 .3-1.5.4-1 .8-1.3 1.9-1.4 1.2 0 2.4-.1 3.5-.1.5 0 .6-.2.6-.6 0-1.7.1-3.4.1-5.1 0-1 .4-1.4 1.4-1.6 1.4 0 3.1-.1 4.8-.1z" opacity=".1"/><path d="m154.7 51.6c1.5.9 1.9 1.6 1.6 3.4-.2 1.1-.3 2.2-.4 3.4-.1.6.2.8.8.8s1.1.1 1.7.2c1.2.2 2.2 1.2 2.1 2.4-.2 2.1 0 4.1.5 6.2.3 1.2 0 2.1-2.2 2.1-.9 0-1.9 0-2.8 0-.5 0-.8.2-.9.7-.2 1.7-.4 3.4-.4 5.1 0 1-.7 1.8-1.6 1.6-1.7-.4-3.4-.2-5.1-.6-.6-.2-1-.5-1.4-1.2-.8-1.4-.5-2.8-.5-4.2-.1-1.2-.1-1.3-1.3-1.3-.9 0-1.8.1-2.7.2-1.4.1-2.4-.6-2.6-2-.3-1.7-.1-3.5-.2-5.3 0-.3-.1-.7 0-1 .2-1.1.7-1.4 1.8-1.4 1.4 0 2.8-.1 4.3-.1.5 0 .7-.2.8-.8.2-2.1.2-4.2-.6-6.3-.3-1-.1-1.3.9-1.6.2 0 .3-.2.5-.3z" opacity=".1"/><path d="m227.6 55c.1-.6.2-1.3.3-1.9.2-1.1.7-1.6 1.9-1.5 1.6.2 3.3 0 4.9.1 1.4 0 2.5 1 2.5 2.4 0 1.9-.1 3.8-.4 5.6 0 .2-.1.3-.1.5-.1 1.3-.1 1.3 1.2 1.4s2.7 0 4 .3c1.1.2 1.7.8 1.7 2 0 1-.1 2.1 0 3.1 0 .4.1.8.2 1.2.3 1-.3 1.8-1.4 1.9-2 .1-3.9.1-5.9.1-.7 0-.9.2-.9.9 0 1.3-.1 2.6-.2 3.9-.1.9-.3 1.8-.5 2.6-.2.5-.7.7-1.2.7-1.6.1-3.1-.4-4.5-1-.4-.2-.8-.4-1.3-.5-.3-.1-.6-.3-.7-.6-.2-.4-.3-.7-.7-.9-.4-.3-.4-.7-.3-1 .3-1.5.1-3 .1-4.5 0-.5-.2-.7-.7-.7-.3 0-.7 0-1.1 0-2.1-.1-2.9-.9-3.1-2.9-.1-.9-.1-1.9-.1-2.8 0-1.2.6-1.8 1.8-1.9 1-.1 2.1-.1 3.1 0 .6.1.8-.1.9-.7.4-2.1.5-3.9.5-5.8z" opacity=".1"/><path d="m285.8 62.9c.2 1.7.1 3.3.2 5 .1 1.1-.3 1.6-1.4 1.9-.8.2-1.5.3-2.3.2s-1.1.2-1.1 1c0 1.6 0 3.1-.3 4.7-.2 1.4-2 2.6-3.4 2.5-1.7-.2-3.4-.6-4.8-1.6-.6-.5-.9-1.2-.9-2 0-1.3.1-2.7.1-4 0-.8-.1-1-.9-.8-1.4.5-2.8 0-4.1-.5-.4-.2-1.1-1.7-1.1-2.2.2-1.3.1-2.5.1-3.8 0-.3-.1-.6 0-.8.2-1.1.1-1.5 1.5-1.6 1.3-.1 2.6-.3 3.9-.2.6 0 .8-.1.8-.8 0-2.5.3-5 .7-7.5.1-.6 1.1-1.2 1.9-1.2 1.9.1 3.8.3 5.6.5.7.1 1.2.6 1.3 1.4.2 1.4 0 2.7-.1 4.1 0 .8-.1 1.7-.1 2.5 0 .4.2.6.6.6.7 0 1.4 0 2.1.1 1.4.2 1.8.7 1.7 2.1z" opacity=".1"/><path d="m324.2 99.5c-.1 1-.2 2.1-.3 3.1-.1.6.1.8.7.8.7-.1 1.4.1 2.1.2 1.7.1 3 1.3 2.7 3.2-.2 2-.1 4-.2 6.1-.2 2.2-.5 2.2-2.5 2.1-2.8 0-2 0-2.3 2.2-.2 1.3-.1 2.6-.6 3.9-.6 1.3-1.4 1.9-2.7 1.6-1.6-.4-3.3-.4-4.9-.7-.6-.1-1.2-.3-1.7-.5-.4-.2-.6-.5-.9-.9-1.2-1.6-.8-3.4-.8-5.1 0-.2 0-.5 0-.7.1-.7-.3-.9-.9-.8-.9.2-1.8.2-2.7.1-1.6-.1-2.5-1.3-2.4-2.9.1-1.9 0-3.9-.2-5.8-.2-1.5.7-2.3 2.2-2.3 1.1 0 2.2.2 3.4.2.5 0 .8-.2.8-.7-.1-1.2.3-2.4.1-3.6-.1-.6.1-1.3.2-1.9.1-.7 1.1-1.1 1.9-1.2 1.5-.1 3 .3 4.4.4.5 0 1 .1 1.5.1 2.6-.1 3.2.7 3.1 3.1z" opacity=".1"/><path d="m412.4 107c.2 1.7.1 3.3.2 5 .1 1.1-.3 1.6-1.4 1.9-.8.2-1.5.3-2.3.2s-1.1.2-1.1 1c0 1.6 0 3.1-.3 4.7-.2 1.4-2 2.6-3.4 2.5-1.7-.2-3.4-.6-4.8-1.6-.6-.5-.9-1.2-.9-2 0-1.3.1-2.7.1-4 0-.8-.1-1-.9-.8-1.4.5-2.8 0-4.1-.5-.4-.2-1.2-1.7-1.1-2.2.2-1.3.1-2.5.1-3.8 0-.3-.1-.6 0-.8.2-1.1.1-1.5 1.5-1.6 1.3-.1 2.6-.3 3.9-.2.6 0 .7-.1.8-.8 0-2.5.3-5 .7-7.5.1-.6 1.1-1.2 1.9-1.2 1.9.1 3.8.3 5.6.5.7.1 1.2.6 1.3 1.4.2 1.4 0 2.7-.1 4.1 0 .8 0 1.7-.1 2.5 0 .4.2.6.6.6.7 0 1.4 0 2.1.1 1.4.2 1.8.7 1.7 2.1z" opacity=".1"/><path d="m144.7 99.1c.1-.6.2-1.3.3-1.9.2-1.1.7-1.6 1.9-1.5 1.6.2 3.3 0 4.9.1 1.4 0 2.5 1 2.5 2.4 0 1.9-.1 3.8-.4 5.7 0 .2-.1.3-.1.5-.1 1.3-.1 1.3 1.2 1.4s2.7 0 4 .3c1.1.2 1.7.8 1.7 2 0 1-.1 2.1 0 3.1 0 .4.1.8.2 1.2.3 1-.3 1.8-1.4 1.9-2 0-3.9.1-5.9.1-.7 0-.9.2-.9.9 0 1.3-.1 2.6-.2 3.9-.1.9-.3 1.8-.5 2.6-.2.5-.7.7-1.2.7-1.6.1-3.1-.4-4.5-1-.4-.2-.8-.4-1.3-.5-.3-.1-.6-.3-.7-.6-.2-.3-.3-.7-.7-.9-.4-.3-.4-.7-.3-1 .3-1.5.1-3 .1-4.5 0-.5-.2-.7-.7-.7-.3 0-.7 0-1.1 0-2.1-.1-2.9-.9-3.1-2.9-.1-.9-.1-1.9-.1-2.8 0-1.2.6-1.8 1.8-1.9 1-.1 2.1-.1 3.1 0 .6.1.8-.1.9-.7.3-2.2.5-4 .5-5.9z" opacity=".1"/><path d="m67.6 142.3c-.1 1-.2 2.1-.3 3.1-.1.6.1.8.7.8.7-.1 1.4.1 2.1.2 1.7.1 3 1.3 2.7 3.2-.2 2-.1 4-.2 6.1-.2 2.2-.5 2.2-2.5 2.1-2.8 0-2 0-2.3 2.2-.2 1.3-.1 2.6-.6 3.9-.6 1.3-1.4 1.9-2.7 1.6-1.6-.4-3.3-.4-4.9-.7-.6-.1-1.2-.3-1.7-.5-.4-.2-.6-.5-.9-.9-1.2-1.6-.8-3.4-.8-5.1 0-.2 0-.5 0-.7.1-.7-.3-.9-.9-.8-.9.2-1.8.2-2.7.1-1.6-.1-2.5-1.3-2.4-2.9.1-1.9 0-3.9-.2-5.8-.2-1.5.7-2.3 2.2-2.3 1.1 0 2.2.2 3.4.2.5 0 .8-.2.8-.7-.1-1.2.3-2.4.1-3.6-.1-.6.1-1.3.2-1.9.1-.7 1.1-1.1 1.9-1.2 1.5-.1 3 .3 4.4.4.5 0 1 .1 1.5.1 2.7-.2 3.3.7 3.1 3.1z" opacity=".1"/><path d="m101.6 141.8c.1-.6.2-1.3.3-1.9.2-1.1.7-1.6 1.9-1.5 1.6.2 3.3 0 4.9.1 1.4 0 2.5 1 2.5 2.4 0 1.9-.1 3.8-.4 5.6 0 .2-.1.3-.1.5-.1 1.3-.1 1.3 1.2 1.4s2.7 0 4 .3c1.1.2 1.7.8 1.7 2 0 1-.1 2.1 0 3.1 0 .4.1.8.2 1.2.3 1-.3 1.8-1.4 1.9-2 0-3.9.1-5.9.1-.7 0-.9.2-.9.9 0 1.3-.1 2.6-.2 3.9-.1.9-.3 1.8-.5 2.6-.2.5-.7.7-1.2.7-1.6.1-3.1-.4-4.5-1-.4-.2-.8-.4-1.3-.5-.3-.1-.6-.3-.7-.6-.2-.4-.3-.7-.7-.9-.4-.3-.4-.7-.3-1 .3-1.5.1-3 .1-4.5 0-.5-.2-.7-.7-.7-.3 0-.7 0-1.1 0-2.1-.1-2.9-.9-3.1-2.9-.1-.9-.1-1.9-.1-2.8 0-1.2.6-1.8 1.8-1.9 1-.1 2.1-.1 3.1 0 .6.1.8-.1.9-.7.4-2 .5-3.9.5-5.8z" opacity=".1"/><path d="m311.9 141.8c.1-.6.2-1.3.3-1.9.2-1.1.7-1.6 1.9-1.5 1.6.2 3.3 0 4.9.1 1.4 0 2.5 1 2.5 2.4 0 1.9-.1 3.8-.4 5.6 0 .2-.1.3-.1.5-.1 1.3-.1 1.3 1.2 1.4s2.7 0 4 .3c1.1.2 1.7.8 1.7 2 0 1-.1 2.1 0 3.1 0 .4.1.8.2 1.2.3 1-.3 1.8-1.4 1.9-2 0-3.9.1-5.9.1-.7 0-.9.2-.9.9 0 1.3-.1 2.6-.2 3.9-.1.9-.3 1.8-.5 2.6-.2.5-.7.7-1.2.7-1.6.1-3.1-.4-4.5-1-.4-.2-.8-.4-1.3-.5-.3-.1-.6-.3-.7-.6-.2-.4-.3-.7-.7-.9-.4-.3-.4-.7-.3-1 .3-1.5.1-3 .1-4.5 0-.5-.2-.7-.7-.7-.3 0-.7 0-1.1 0-2.1-.1-2.9-.9-3.1-2.9-.1-.9-.1-1.9-.1-2.8 0-1.2.6-1.8 1.8-1.9 1-.1 2.1-.1 3.1 0 .6.1.8-.1.9-.7.4-2 .5-3.9.5-5.8z" opacity=".1"/><path d="m370.2 149.8c.2 1.7.1 3.3.2 5 .1 1.1-.3 1.6-1.4 1.9-.8.2-1.5.3-2.3.2s-1.1.2-1.1 1c0 1.6 0 3.1-.3 4.7-.2 1.4-2 2.6-3.4 2.5-1.7-.2-3.4-.6-4.8-1.6-.6-.5-.9-1.2-.9-2 0-1.3.1-2.7.1-4 0-.8-.1-1-.9-.8-1.4.5-2.8 0-4.1-.5-.4-.2-1.1-1.7-1.1-2.2.2-1.3.1-2.5.1-3.8 0-.3-.1-.6 0-.8.2-1.1.1-1.5 1.5-1.6 1.3-.1 2.6-.3 3.9-.2.6 0 .7-.1.8-.8 0-2.5.3-5 .7-7.5.1-.6 1.1-1.2 1.9-1.2 1.9.1 3.8.3 5.6.5.7.1 1.2.6 1.3 1.4.2 1.4 0 2.7-.1 4.1 0 .8 0 1.7-.1 2.5 0 .4.2.6.6.6.7 0 1.4 0 2.1.1 1.4.2 1.8.7 1.7 2.1z" opacity=".1"/><path d="m409.1 185.4c-.1 1-.2 2.1-.3 3.1-.1.6.1.8.7.8.7-.1 1.4.1 2.1.2 1.7.1 3 1.3 2.7 3.2-.2 2-.1 4-.2 6.1-.2 2.2-.5 2.2-2.5 2.1-2.8-.1-2 0-2.3 2.2-.2 1.3-.1 2.6-.6 3.9-.6 1.3-1.4 1.9-2.7 1.6-1.6-.4-3.3-.4-4.9-.7-.6-.1-1.2-.3-1.7-.5-.4-.2-.6-.5-.9-.9-1.2-1.6-.8-3.4-.8-5.1 0-.2 0-.5 0-.7.1-.7-.3-.9-.9-.8-.9.2-1.8.2-2.7.1-1.6-.1-2.5-1.3-2.4-2.9.1-1.9 0-3.9-.2-5.8-.2-1.5.7-2.3 2.2-2.3 1.1 0 2.2.2 3.4.2.5 0 .8-.2.8-.7-.1-1.2.3-2.4.1-3.6-.1-.6.1-1.3.2-1.9.1-.7 1.1-1.1 1.9-1.2 1.5-.1 3 .3 4.4.4.5 0 1 .1 1.5.1 2.7-.2 3.3.7 3.1 3.1z" opacity=".1"/><path d="m71.5 192.9c.2 1.7.1 3.3.2 5 .1 1.1-.3 1.6-1.4 1.9-.8.2-1.5.3-2.3.2s-1.1.2-1.1 1c0 1.6 0 3.1-.3 4.7-.2 1.4-2 2.6-3.4 2.5-1.7-.2-3.4-.6-4.8-1.6-.6-.5-.9-1.2-.9-2 0-1.3.1-2.7.1-4 0-.8-.1-1-.9-.8-1.4.5-2.8 0-4.1-.5-.4-.2-1.2-1.7-1.1-2.2.2-1.3.1-2.5.1-3.8 0-.3-.1-.6 0-.8.2-1.1.1-1.5 1.5-1.6 1.3-.1 2.6-.3 3.9-.2.6 0 .8-.1.8-.8 0-2.5.3-5 .7-7.5.1-.6 1.1-1.2 1.9-1.2 1.9.1 3.8.3 5.6.5.7.1 1.2.6 1.3 1.4.2 1.4 0 2.7-.1 4.1 0 .8 0 1.7-.1 2.5 0 .4.2.6.6.6.7 0 1.4 0 2.1.1 1.4.2 1.8.7 1.7 2.1z" opacity=".1"/><path d="m154.7 181.5c1.5.9 1.9 1.6 1.6 3.4-.2 1.1-.3 2.2-.4 3.4-.1.6.2.8.8.8s1.1.1 1.7.1c1.2.2 2.2 1.2 2.1 2.4-.2 2.1 0 4.1.5 6.2.3 1.2 0 2.1-2.2 2.1-.9 0-1.9 0-2.8 0-.5 0-.8.2-.9.7-.2 1.7-.4 3.4-.4 5.1 0 1-.7 1.8-1.6 1.6-1.7-.4-3.4-.2-5.1-.6-.6-.2-1-.5-1.4-1.2-.8-1.4-.5-2.8-.5-4.2-.1-1.2-.1-1.3-1.3-1.3-.9 0-1.8.1-2.7.2-1.4.1-2.4-.6-2.6-2-.3-1.7-.1-3.5-.2-5.3 0-.3-.1-.7 0-1 .2-1.1.7-1.4 1.8-1.4 1.4 0 2.8-.1 4.3-.1.5 0 .7-.2.8-.8.2-2.1.2-4.2-.6-6.3-.3-1-.1-1.3.9-1.6.2 0 .3-.2.5-.3 2.5.1 5.1.1 7.7.1z" opacity=".1"/><path d="m324.2 228.5c-.1 1-.2 2.1-.3 3.1-.1.6.1.8.7.8.7-.1 1.4.1 2.1.2 1.7.1 3 1.3 2.7 3.2-.2 2-.1 4-.2 6.1-.2 2.2-.5 2.2-2.5 2.1-2.8 0-2 0-2.3 2.2-.2 1.3-.1 2.6-.6 3.9-.6 1.3-1.4 1.9-2.7 1.6-1.6-.4-3.3-.4-4.9-.7-.6-.1-1.2-.3-1.7-.5-.4-.2-.6-.5-.9-.9-1.2-1.6-.8-3.4-.8-5.1 0-.2 0-.5 0-.7.1-.7-.3-.9-.9-.8-.9.2-1.8.2-2.7.1-1.6-.1-2.5-1.3-2.4-2.9.1-1.9 0-3.9-.2-5.8-.2-1.5.7-2.3 2.2-2.3 1.1 0 2.2.2 3.4.2.5 0 .8-.2.8-.7-.1-1.2.3-2.4.1-3.6-.1-.6.1-1.3.2-1.9.1-.7 1.1-1.1 1.9-1.2 1.5-.1 3 .3 4.4.4.5 0 1 .1 1.5.1 2.6-.2 3.2.7 3.1 3.1z" opacity=".1"/><path d="m21.7 226h1.5c1.1 0 1.8.9 1.6 1.9s-.5 2-.7 3.1c0 .1-.1.2-.1.3-.2 1.8-.1 1.8 1.6 2 1.2.2 2.4 0 3.6.3.8.2 1.4.7 1.4 1.5 0 2.1.4 4.2.4 6.4 0 1.6-.8 2.3-2.3 2.3-1.3.1-2.6.2-3.9.3-.5 0-.7.3-.7.8 0 1.2-.3 2.4 0 3.6.2 1.2-.2 1.8-1.4 2.2-1.7.6-3.5.7-5.2.2-1.2-.3-1.4-1.3-1.8-2.3-.6-1.2-.5-2.6-.6-3.9-.1-.6-.3-.7-.9-.7-1.3 0-2.5.1-3.7-.5-1-.5-1.6-1.2-1.4-2.3.2-1.6-.1-3.2 0-4.8 0-.5.1-1 .3-1.5.4-1 .8-1.3 1.9-1.4 1.2 0 2.4-.1 3.5-.1.5 0 .6-.2.6-.6 0-1.7.1-3.4.1-5.1 0-1 .4-1.4 1.4-1.6 1.5.1 3.1 0 4.8-.1z" opacity=".1"/><path d="m356.2 228c.1-.6.2-1.3.3-1.9.2-1.1.7-1.6 1.9-1.5 1.6.2 3.3 0 4.9.1 1.4 0 2.5 1 2.5 2.4 0 1.9-.1 3.8-.4 5.6 0 .2-.1.3-.1.5-.1 1.3-.1 1.3 1.2 1.4s2.7 0 4 .3c1.1.2 1.7.8 1.7 2 0 1-.1 2.1 0 3.1 0 .4.1.8.2 1.2.3 1-.3 1.8-1.4 1.9-2 0-3.9.1-5.9.1-.7 0-.9.2-.9.9 0 1.3-.1 2.6-.2 3.9-.1.9-.3 1.8-.5 2.6-.2.5-.7.7-1.2.7-1.6.1-3.1-.4-4.5-1-.4-.2-.8-.4-1.3-.5-.3-.1-.6-.3-.7-.6-.2-.4-.3-.7-.7-.9-.4-.3-.4-.7-.3-1 .3-1.5.1-3 .1-4.5 0-.5-.2-.7-.7-.7-.3 0-.7 0-1.1 0-2.1-.1-2.9-.9-3.1-2.9-.1-.9-.1-1.9-.1-2.8 0-1.2.6-1.8 1.8-1.9 1-.1 2.1-.1 3.1 0 .6.1.8-.1.9-.7.3-2 .5-3.9.5-5.8z" opacity=".1"/><path d="m112.7 228.5c-.1 1-.2 2.1-.3 3.1-.1.6.1.8.7.8.7-.1 1.4.1 2.1.2 1.7.1 3 1.3 2.7 3.2-.2 2-.1 4-.2 6.1-.2 2.2-.5 2.2-2.5 2.1-2.8 0-2 0-2.3 2.2-.2 1.3-.1 2.6-.6 3.9-.6 1.3-1.4 1.9-2.7 1.6-1.6-.4-3.3-.4-4.9-.7-.6-.1-1.2-.3-1.7-.5-.4-.2-.6-.5-.9-.9-1.2-1.6-.8-3.4-.8-5.1 0-.2 0-.5 0-.7.1-.7-.3-.9-.9-.8-.9.2-1.8.2-2.7.1-1.6-.1-2.5-1.3-2.4-2.9.1-1.9 0-3.9-.2-5.8-.2-1.5.7-2.3 2.2-2.3 1.1 0 2.2.2 3.4.2.5 0 .8-.2.8-.7-.1-1.2.3-2.4.1-3.6-.1-.6.1-1.3.2-1.9.1-.7 1.1-1.1 1.9-1.2 1.5-.1 3 .3 4.4.4.5 0 1 .1 1.5.1 2.6-.2 3.3.7 3.1 3.1z" opacity=".1"/><path d="m200.9 236c.2 1.7.1 3.3.2 5 .1 1.1-.3 1.6-1.4 1.9-.8.2-1.5.3-2.3.2s-1.1.2-1.1 1c0 1.6 0 3.1-.3 4.7-.2 1.4-2 2.6-3.4 2.5-1.7-.2-3.4-.6-4.8-1.6-.6-.5-.9-1.2-.9-2 0-1.3.1-2.7.1-4 0-.8-.1-1-.9-.8-1.4.5-2.8 0-4.1-.5-.4-.2-1.1-1.7-1.1-2.2.2-1.3.1-2.5.1-3.8 0-.3-.1-.6 0-.8.2-1.1.1-1.5 1.5-1.6 1.3-.1 2.6-.3 3.9-.2.6 0 .7-.1.8-.8 0-2.5.3-5 .7-7.5.1-.6 1.1-1.2 1.9-1.2 1.9.1 3.8.3 5.6.5.7.1 1.2.6 1.3 1.4.2 1.4 0 2.7-.1 4.1 0 .8 0 1.7-.1 2.5 0 .4.2.6.6.6.7 0 1.4 0 2.1.1 1.4.2 1.8.7 1.7 2.1z" opacity=".1"/><path d="m237.1 262.8c1.5.9 1.9 1.6 1.6 3.4-.2 1.1-.3 2.2-.4 3.4-.1.6.2.8.8.8s1.1.1 1.7.1c1.2.2 2.2 1.2 2.1 2.4-.2 2.1 0 4.1.5 6.2.3 1.2 0 2.1-2.2 2.1-.9 0-1.9 0-2.8 0-.5 0-.8.2-.9.7-.2 1.7-.4 3.4-.4 5.1 0 1-.7 1.8-1.6 1.6-1.7-.4-3.4-.2-5.1-.6-.6-.2-1-.5-1.4-1.2-.8-1.4-.5-2.8-.5-4.2-.1-1.2-.1-1.3-1.3-1.3-.9 0-1.8.1-2.7.2-1.4.1-2.4-.6-2.6-2-.3-1.7-.1-3.5-.2-5.3 0-.3-.1-.7 0-1 .2-1.1.7-1.4 1.8-1.4 1.4 0 2.8-.1 4.3-.1.5 0 .7-.2.8-.8.2-2.1.2-4.2-.6-6.3-.3-1-.1-1.3.9-1.6.2 0 .3-.2.5-.3 2.5.1 5.1.1 7.7.1z" opacity=".1"/><path d="m403.3 264.2h1.5c1.1 0 1.8.9 1.6 1.9s-.5 2-.7 3.1c0 .1-.1.2-.1.3-.2 1.8-.1 1.8 1.6 2 1.2.2 2.4 0 3.6.3.8.2 1.4.7 1.4 1.5 0 2.1.4 4.2.4 6.4 0 1.6-.8 2.3-2.3 2.3-1.3.1-2.6.2-3.9.3-.5 0-.7.3-.7.8 0 1.2-.3 2.4 0 3.6.2 1.2-.2 1.8-1.4 2.2-1.7.6-3.5.7-5.2.2-1.2-.3-1.4-1.3-1.8-2.3-.6-1.2-.5-2.6-.6-3.9-.1-.6-.3-.7-.9-.7-1.3 0-2.5.1-3.7-.5-1-.5-1.6-1.2-1.4-2.3.2-1.6-.1-3.2 0-4.8 0-.5.1-1 .3-1.5.4-1 .8-1.3 1.9-1.4 1.2 0 2.4-.1 3.5-.1.5 0 .6-.2.6-.6 0-1.7.1-3.4.1-5.1 0-1 .4-1.4 1.4-1.6 1.5.1 3.1-.1 4.8-.1z" opacity=".1"/><path d="m366.2 303.9c1.5.9 1.9 1.6 1.6 3.4-.2 1.1-.3 2.2-.4 3.4-.1.6.2.8.8.8s1.1.1 1.7.1c1.2.2 2.2 1.2 2.1 2.4-.2 2.1 0 4.1.5 6.2.3 1.2 0 2.1-2.2 2.1-.9 0-1.9 0-2.8 0-.5 0-.8.2-.9.7-.2 1.7-.4 3.4-.4 5.1 0 1-.7 1.8-1.6 1.6-1.7-.4-3.4-.2-5.1-.6-.6-.2-1-.5-1.4-1.2-.8-1.4-.5-2.8-.5-4.2-.1-1.2-.1-1.3-1.3-1.3-.9 0-1.8.1-2.7.2-1.4.1-2.4-.6-2.6-2-.3-1.7-.1-3.5-.2-5.3 0-.3-.1-.7 0-1 .2-1.1.7-1.4 1.8-1.4 1.4 0 2.9-.1 4.3-.1.5 0 .7-.2.8-.8.2-2.1.2-4.2-.6-6.3-.3-1-.1-1.3.9-1.6.2 0 .3-.2.5-.3 2.5.1 5.1.1 7.7.1z" opacity=".1"/><path d="m409.1 307.7c-.1 1-.2 2.1-.3 3.1-.1.6.1.8.7.8.7-.1 1.4.1 2.1.2 1.7.1 3 1.3 2.7 3.2-.2 2-.1 4-.2 6.1-.2 2.2-.5 2.2-2.5 2.1-2.8 0-2 0-2.3 2.2-.2 1.3-.1 2.6-.6 3.9-.6 1.3-1.4 1.9-2.7 1.6-1.6-.4-3.3-.4-4.9-.7-.6-.1-1.2-.3-1.7-.5-.4-.2-.6-.5-.9-.9-1.2-1.6-.8-3.4-.8-5.1 0-.2 0-.5 0-.7.1-.7-.3-.9-.9-.8-.9.2-1.8.2-2.7.1-1.6-.1-2.5-1.3-2.4-2.9.1-1.9 0-3.9-.2-5.8-.2-1.5.7-2.3 2.2-2.3 1.1 0 2.2.2 3.4.2.5 0 .8-.2.8-.7-.1-1.2.3-2.4.1-3.6-.1-.6.1-1.3.2-1.9.1-.7 1.1-1.1 1.9-1.2 1.5-.1 3 .3 4.4.4.5 0 1 .1 1.5.1 2.7-.2 3.3.7 3.1 3.1z" opacity=".1"/><path d="m15.3 307.3c.1-.6.2-1.3.3-1.9.2-1.1.7-1.6 1.9-1.5 1.6.2 3.3 0 4.9.1 1.4 0 2.5 1 2.5 2.4 0 1.9-.1 3.8-.4 5.6 0 .2-.1.3-.1.5-.1 1.3-.1 1.3 1.2 1.4s2.7 0 4 .3c1.1.2 1.7.8 1.7 2 0 1-.1 2.1 0 3.1 0 .4.1.8.2 1.2.3 1-.3 1.8-1.4 1.9-2 0-3.9.1-5.9.1-.7 0-.9.2-.9.9 0 1.3-.1 2.6-.2 3.9-.1.9-.3 1.8-.5 2.6-.2.5-.7.7-1.2.7-1.6.1-3.1-.4-4.5-1-.4-.2-.8-.4-1.3-.5-.3-.1-.6-.3-.7-.6-.2-.3-.3-.7-.7-.9-.4-.3-.4-.7-.3-1 .3-1.5.1-3 .1-4.5 0-.5-.2-.7-.7-.7-.3 0-.7 0-1.1 0-2.1-.1-2.9-.9-3.1-2.9-.1-.9-.1-1.9-.1-2.8 0-1.2.6-1.8 1.8-1.9 1-.1 2.1-.1 3.1 0 .6.1.8-.1.9-.7.3-2.1.5-3.9.5-5.8z" opacity=".1"/><path d="m71.5 315.2c.2 1.7.1 3.3.2 5 .1 1.1-.3 1.6-1.4 1.9-.8.2-1.5.3-2.3.2s-1.1.2-1.1 1c0 1.6 0 3.1-.3 4.7-.2 1.4-2 2.6-3.4 2.5-1.7-.2-3.4-.6-4.8-1.6-.6-.5-.9-1.2-.9-2 0-1.3.1-2.7.1-4 0-.8-.1-1-.9-.8-1.4.5-2.8 0-4.1-.5-.4-.2-1.2-1.7-1.1-2.2.2-1.3.1-2.5.1-3.8 0-.3-.1-.6 0-.8.2-1.1.1-1.5 1.5-1.6 1.3-.1 2.6-.3 3.9-.2.6 0 .8-.1.8-.8 0-2.5.3-5 .7-7.5.1-.6 1.1-1.2 1.9-1.2 1.9.1 3.8.3 5.6.5.7.1 1.2.6 1.3 1.4.2 1.4 0 2.7-.1 4.1 0 .8 0 1.7-.1 2.5 0 .4.2.6.6.6.7 0 1.4 0 2.1.1 1.4.2 1.8.7 1.7 2.1z" opacity=".1"/><path d="m154.7 303.9c1.5.9 1.9 1.6 1.6 3.4-.2 1.1-.3 2.2-.4 3.4-.1.6.2.8.8.8s1.1.1 1.7.1c1.2.2 2.2 1.2 2.1 2.4-.2 2.1 0 4.1.5 6.2.3 1.2 0 2.1-2.2 2.1-.9 0-1.9 0-2.8 0-.5 0-.8.2-.9.7-.2 1.7-.4 3.4-.4 5.1 0 1-.7 1.8-1.6 1.6-1.7-.4-3.4-.2-5.1-.6-.6-.2-1-.5-1.4-1.2-.8-1.4-.5-2.8-.5-4.2-.1-1.2-.1-1.3-1.3-1.3-.9 0-1.8.1-2.7.2-1.4.1-2.4-.6-2.6-2-.3-1.7-.1-3.5-.2-5.3 0-.3-.1-.7 0-1 .2-1.1.7-1.4 1.8-1.4 1.4 0 2.8-.1 4.3-.1.5 0 .7-.2.8-.8.2-2.1.2-4.2-.6-6.3-.3-1-.1-1.3.9-1.6.2 0 .3-.2.5-.3 2.5.1 5.1.1 7.7.1z" opacity=".1"/><path d="m197.6 307.7c-.1 1-.2 2.1-.3 3.1-.1.6.1.8.7.8.7-.1 1.4.1 2.1.2 1.7.1 3 1.3 2.7 3.2-.2 2-.1 4-.2 6.1-.2 2.2-.5 2.2-2.5 2.1-2.8 0-2 0-2.3 2.2-.2 1.3-.1 2.6-.6 3.9-.6 1.3-1.4 1.9-2.7 1.6-1.6-.4-3.3-.4-4.9-.7-.6-.1-1.2-.3-1.7-.5-.4-.2-.6-.5-.9-.9-1.2-1.6-.8-3.4-.8-5.1 0-.2 0-.5 0-.7.1-.7-.3-.9-.9-.8-.9.2-1.8.2-2.7.1-1.6-.1-2.5-1.3-2.4-2.9.1-1.9 0-3.9-.2-5.8-.2-1.5.7-2.3 2.2-2.3 1.1 0 2.2.2 3.4.2.5 0 .8-.2.8-.7-.1-1.2.3-2.4.1-3.6-.1-.6.1-1.3.2-1.9.1-.7 1.1-1.1 1.9-1.2 1.5-.1 3 .3 4.4.4.5 0 1 .1 1.5.1 2.7-.2 3.3.7 3.1 3.1z" opacity=".1"/><path d="m319 305.3h1.5c1.1 0 1.8.9 1.6 1.9s-.5 2-.7 3.1c0 .1-.1.2-.1.3-.2 1.8-.1 1.8 1.6 2 1.2.2 2.4 0 3.6.3.8.2 1.4.7 1.4 1.5 0 2.1.4 4.2.4 6.4 0 1.6-.8 2.3-2.3 2.3-1.3.1-2.6.2-3.9.3-.5 0-.7.3-.7.8 0 1.2-.3 2.4 0 3.6.2 1.2-.2 1.8-1.4 2.2-1.7.6-3.5.7-5.2.2-1.2-.3-1.4-1.3-1.8-2.3-.6-1.2-.5-2.6-.6-3.9-.1-.6-.3-.7-.9-.7-1.3 0-2.5.1-3.7-.5-1-.5-1.6-1.2-1.4-2.3.2-1.6-.1-3.2 0-4.8 0-.5.1-1 .3-1.5.4-1 .8-1.3 1.9-1.4 1.2 0 2.4-.1 3.5-.1.5 0 .6-.2.6-.6 0-1.7.1-3.4.1-5.1 0-1 .4-1.4 1.4-1.6 1.5 0 3.1-.1 4.8-.1z" opacity=".1"/><path d="m234 349.4h1.5c1.1 0 1.8.9 1.6 1.9s-.5 2-.7 3.1c0 .1-.1.2-.1.3-.2 1.8-.1 1.8 1.6 2 1.2.2 2.4 0 3.6.3.8.2 1.4.7 1.4 1.5 0 2.1.4 4.2.4 6.4 0 1.6-.8 2.3-2.3 2.3-1.3.1-2.6.2-3.9.3-.5 0-.7.3-.7.8 0 1.2-.3 2.4 0 3.6.2 1.2-.2 1.8-1.4 2.2-1.7.6-3.5.7-5.2.2-1.2-.3-1.4-1.3-1.8-2.3-.6-1.2-.5-2.6-.6-3.9-.1-.6-.3-.7-.9-.7-1.3 0-2.5.1-3.7-.5-1-.5-1.6-1.2-1.4-2.3.2-1.6-.1-3.2 0-4.8 0-.5.1-1 .3-1.5.4-1 .8-1.3 1.9-1.4 1.2 0 2.4-.1 3.5-.1.5 0 .6-.2.6-.6 0-1.7.1-3.4.1-5.1 0-1 .4-1.4 1.4-1.6 1.5 0 3.2-.1 4.8-.1z" opacity=".1"/><path d="m310.6 411c.1-1 .2-2.1.3-3.1.1-.6-.1-.8-.7-.8-.7.1-1.4-.1-2.1-.2-1.7-.1-3-1.3-2.7-3.2.2-2 .1-4 .2-6.1.2-2.2.5-2.2 2.5-2.1 2.8 0 2 0 2.3-2.2.2-1.3.1-2.6.6-3.9.6-1.3 1.4-1.9 2.7-1.6 1.6.4 3.3.4 4.9.7.6.1 1.2.3 1.7.5.4.2.6.5.9.9 1.2 1.6.8 3.4.8 5.1v.7c-.1.7.3.9.9.8.9-.2 1.8-.2 2.7-.1 1.6.1 2.5 1.3 2.4 2.9-.1 1.9 0 3.9.2 5.8.2 1.5-.7 2.3-2.2 2.3-1.1 0-2.2-.2-3.4-.1-.5 0-.8.2-.8.7.1 1.2-.3 2.4-.1 3.6.1.6-.1 1.3-.2 1.9-.1.7-1.1 1.1-1.9 1.2-1.5.1-3-.3-4.4-.4-.5 0-1-.1-1.5-.1-2.7.1-3.3-.8-3.1-3.2z" opacity=".1"/><path d="m222.4 403.5c-.2-1.7-.1-3.3-.2-5-.1-1.1.3-1.6 1.4-1.9.8-.2 1.5-.3 2.3-.2s1.1-.2 1.1-1c0-1.6 0-3.1.3-4.7.2-1.4 2-2.6 3.4-2.5 1.7.2 3.4.6 4.8 1.6.6.5.9 1.2.9 2 0 1.3-.1 2.7-.1 4 0 .8.1 1 .9.8 1.4-.5 2.8 0 4.1.5.4.2 1.2 1.7 1.1 2.2-.2 1.3-.1 2.5-.1 3.8 0 .3.1.5 0 .8-.2 1.1-.1 1.5-1.5 1.6-1.3.1-2.6.3-3.9.2-.6 0-.7.1-.8.8 0 2.5-.3 5-.7 7.5-.1.6-1.1 1.2-1.9 1.2-1.9-.1-3.8-.3-5.6-.5-.7-.1-1.2-.6-1.3-1.4-.2-1.4 0-2.7.1-4.1 0-.8 0-1.7.1-2.5 0-.4-.2-.6-.6-.6-.7 0-1.4 0-2.1-.1-1.4-.2-1.8-.7-1.7-2.1 0-.1 0-.3 0-.4z" opacity=".1"/><path d="m145.2 414.8c-1.5-.9-1.9-1.6-1.6-3.4.2-1.1.3-2.2.4-3.4.1-.6-.2-.8-.8-.8s-1.1-.1-1.7-.1c-1.2-.2-2.2-1.2-2.1-2.4.2-2.1 0-4.1-.5-6.2-.3-1.2 0-2.1 2.2-2.1h2.8c.5 0 .8-.2.9-.7.2-1.7.4-3.4.4-5.1 0-1 .7-1.8 1.6-1.6 1.7.4 3.4.2 5.1.6.6.2 1 .5 1.4 1.2.8 1.4.5 2.8.5 4.2.1 1.2.1 1.3 1.3 1.3.9 0 1.8-.1 2.7-.2 1.4-.1 2.4.6 2.6 2 .3 1.7.1 3.5.2 5.3 0 .3.1.7 0 1-.2 1.1-.7 1.4-1.8 1.4-1.4 0-2.8.1-4.3.1-.5 0-.7.2-.8.8-.2 2.1-.2 4.2.6 6.3.3 1 .1 1.3-.9 1.6-.2 0-.3.2-.5.3-2.5-.1-5.1-.1-7.7-.1z" opacity=".1"/><path d="m100.3 411c.1-1 .2-2.1.3-3.1.1-.6-.1-.8-.7-.8-.7.1-1.4-.1-2.1-.2-1.7-.1-3-1.3-2.7-3.2.2-2 .1-4 .2-6.1.2-2.2.5-2.2 2.5-2.1 2.8 0 2 0 2.3-2.2.2-1.3.1-2.6.6-3.9.6-1.3 1.4-1.9 2.7-1.6 1.6.4 3.3.4 4.9.7.6.1 1.2.3 1.7.5.4.2.6.5.9.9 1.2 1.6.8 3.4.8 5.1v.7c-.1.7.3.9.9.8.9-.2 1.8-.2 2.7-.1 1.6.1 2.5 1.3 2.4 2.9-.1 1.9 0 3.9.2 5.8.2 1.5-.7 2.3-2.2 2.3-1.1 0-2.2-.2-3.4-.1-.5 0-.8.2-.8.7.1 1.2-.3 2.4-.1 3.6.1.6-.1 1.3-.2 1.9-.1.7-1.1 1.1-1.9 1.2-1.5.1-3-.3-4.4-.4-.5 0-1-.1-1.5-.1-2.7.1-3.3-.8-3.1-3.2z" opacity=".1"/><path d="m400.7 413.4c-.5 0-1 0-1.5 0-1.1 0-1.8-.9-1.6-1.9s.5-2 .7-3.1c0-.1.1-.2.1-.3.2-1.8.1-1.8-1.6-2-1.2-.2-2.4 0-3.6-.3-.8-.2-1.4-.7-1.4-1.5 0-2.1-.4-4.2-.4-6.4 0-1.6.8-2.3 2.3-2.3l3.9-.3c.5 0 .7-.3.7-.8 0-1.2.3-2.4 0-3.6-.2-1.2.2-1.8 1.4-2.2 1.7-.6 3.5-.7 5.2-.2 1.2.3 1.4 1.3 1.8 2.3.6 1.2.5 2.6.6 3.9.1.6.3.7.9.7 1.3 0 2.5-.1 3.7.5 1 .5 1.6 1.2 1.4 2.3-.2 1.6.1 3.2 0 4.8 0 .5-.1 1-.3 1.5-.4 1-.8 1.3-1.9 1.4-1.2 0-2.4.1-3.5.1-.5 0-.6.2-.6.6 0 1.7-.1 3.4-.1 5.1 0 1-.4 1.4-1.4 1.6-1.5 0-3.1.1-4.8.1z" opacity=".1"/><path d="m66.3 411.4c-.1.6-.2 1.3-.3 1.9-.2 1.1-.7 1.6-1.9 1.5-1.6-.2-3.3 0-4.9-.1-1.4 0-2.5-1-2.5-2.4 0-1.9.1-3.8.4-5.6 0-.2.1-.3.1-.5.1-1.3.1-1.3-1.2-1.4s-2.7 0-4-.3c-1.1-.2-1.7-.8-1.7-2 0-1 .1-2.1 0-3.1 0-.4-.1-.8-.2-1.2-.3-1 .3-1.8 1.4-1.9 2 0 3.9-.1 5.9-.1.7 0 .9-.2.9-.9 0-1.3.1-2.6.2-3.9.1-.9.3-1.8.5-2.6.2-.5.7-.7 1.2-.7 1.6-.1 3.1.4 4.5 1 .4.2.8.4 1.3.5.3.1.6.3.7.6.2.4.3.7.7.9.4.3.4.7.3 1-.3 1.5-.1 3-.1 4.5 0 .5.2.7.7.7h1.1c2.1.1 2.9.9 3.1 2.9.1.9.1 1.9.1 2.8 0 1.2-.6 1.8-1.8 1.9-1 .1-2.1.1-3.1 0-.6-.1-.8.1-.9.7-.4 2.1-.5 4-.5 5.8z" opacity=".1"/></svg>