<svg enable-background="new 0 0 425.2 425.2" viewBox="0 0 425.2 425.2" xmlns="http://www.w3.org/2000/svg"><g opacity=".1"><path d="m361.4 41.9c1.1-.5 2-.2 2.9.5 2.3 2.1 4.6 4.3 7.5 5.7 1.4.7 2.7 1.5 4.3 1.7.6.1 1 .4 1.1 1.2.1 1-.2 1.9-.6 2.8-1.1 2.3-2.7 4.3-4.5 6.2-1 1-2 2.1-3 3.2 1.6.8 3.2 1.1 4.8 1.6 1.3.4 2.7.7 4 .9 1.6.3 2.5 2 1.7 3.5-1 1.9-2.3 3.5-3.7 5.1-.3.3-.5.6-.8.9-.2.3-.7.6-.5.9s.7.1 1.1.1c2.7-.1 5.4-.2 8.1-.3 1.1 0 2.2.1 3.3.2.9 0 1.4.6 1.7 1.4.4.9.4 1.9.4 2.9v8c0 .7.1 1.4.2 2.1 0 .5.3.6.7.4 1.5-.7 3.1-1.4 4.5-2.3 1.3-.8 2.8-1.5 4.1-2.4.2-.2.5-.3.7-.5.9-1.2 2.2-1.1 3.4-.9.6.1 1.1.4.8 1.2-.2.5 0 1 0 1.4-.1.7-.5 1.1-1 1.4-2.7 1.2-5.2 2.7-7.6 4.2-1.5 1-3.1 1.8-4.7 2.5-.9.4-2 .4-3 .5-.6 0-1.3-.6-1.4-1.4-.6-3.2-1-6.4-.9-9.7 0-1.3-.1-2.6-.1-4 0-.7-.3-1-1-.9-2.5.1-5 .5-7.5.7-2 .1-4 .6-6 .6-1.3 0-2.6-.7-2.8-2.2-.1-.9.1-1.7.8-2.3 1.4-1.2 2.2-2.9 3.4-4.4.7-.8 1.2-1.7 1.9-2.6.3-.5.4-.7-.3-.9-2.7-.8-5.4-1.6-8.1-2.3-1.1-.3-1.9-1-2.1-2.1-.1-1 .2-1.8 1.1-2.5.8-.6 1.7-1.3 2.3-2.2.2-.3.5-.6.8-.8 2-1.5 3.4-3.6 4.8-5.6.3-.5.1-.6-.3-.8-2.4-1.2-4.6-2.6-6.6-4.3-1.5-1.2-2.8-2.7-3.7-4.4-.2-.7-.2-1.4-.2-2z"/><path d="m162.8 423.2c.3-1.2.2-2.4-1.1-3.1-1.1-.6-2.5-.6-2.7 1-.1.7-.2 1.4-.4 2-.1.7-.3 1.4-.4 2.1h4.1c.2-.6.3-1.3.5-2z"/><path d="m209.4 31.5c-.7-1.4-1.1-3-1.6-4.5-.6-1.7-1.2-3.4-1.8-5-.2-.6-.6-1.4-1.3-1.5s-1.5-.1-2.2.2c-1.7.7-3.6 1.3-5.2 2.3-1.7 1-3.5 1.6-5.1 2.6-.4.3-.9.5-1.4.7-.3.1-.5.1-.5-.2.1-2.3 0-4.6.4-6.9.2-1.2-.4-2.2-.8-3.2-.1-.2-.3-.2-.6-.3-1.1-.2-2 .3-2.9.7-3.3 1.1-6.4 2.7-9.7 3.7-.2.1-.5.4-.7.2s-.2-.5-.1-.8c.5-2.6.8-5.2 1.1-7.9.1-1.2-.3-2.2-.7-3.2-.3-.3-.5-.4-.8-.4-3.1-.1-6.1-.1-9.1.3-1.7.2-3.4.3-5.2.4-.6 0-.9-.2-.8-.8.1-.7.2-1.4.4-2 .7-1.9 1.1-3.8 1.5-5.8h-4.1c-.5 2.2-1.1 4.5-1.7 6.7-.3 1.1-.7 2.2-.6 3.4.1 2 1 3 3 2.9s3.9-.3 5.8-.6c2.4-.3 4.8-.6 7.3-.8.5 0 .7.1.6.6-.2 1.8-.5 3.6-.7 5.5-.2 2.2-1.2 4.3-1.1 6.5.1 1.3 1.7 2.5 2.9 1.8 2.2-1.2 4.3-2.3 6.5-3.4 1.7-.8 3.4-1.7 5.1-2.3.7-.3.9 0 .8.6-.2 2.9-.2 5.9 0 8.8.1 1.5 1.9 2.5 3.2 1.9 1.9-1 3.6-2.2 5.4-3.3 2-1.3 4.1-2.3 6.3-3.3 1.3-.6 1.4-.5 2 .8.2.4.3.8.4 1.2.8 2.5 1.7 5 2.8 7.4.8 1.7 2.9 2.1 4.2.8 0-.4 0-.8 0-1.2 0-1-.5-1.8-1.1-2.5.2.2.2 0 .1-.1z"/><path d="m52.4 8.2c0-1.7.4-2.4 1.4-2.4 1.4 0 2.6 1 2.7 2.3 0 2.1.3 4.1 1.1 6 .2.6.5 1.1.7 1.7.3.7.8.9 1.5.5 1.6-.8 3-1.8 4.6-2.6 2.2-1.2 4.1-2.9 6-4.6.7-.6 2.4-.4 3.2.4.4.4.6.8.9 1.3.9 2 2.1 3.8 2.8 6 .2.7.5 1.3.8 1.9.4.9.8 1 1.7.4 1.3-.9 2.4-2 3.6-3.1 1.2-1.2 2.4-2.4 3.6-3.6.3-.3.6-.7.8-1.1.2-.6.6-.9 1.3-.9 1.5-.2 2.5.4 3.3 1.6 2.1 3 4.4 5.9 6.5 9 .2.3.4.4.8.2 2.3-1.5 4.3-3.3 6.1-5.3 1.1-1.2 2.1-2.4 2.9-3.8 0-.1.1-.1.1-.2.9-1.7 1.1-1.8 3-1.6.7.1 1 .6 1.3 1.1 1 2.1 2.4 4 3.6 6 .7 1.1.7 1.1 1.7.3 1-.9 2-1.8 2.7-3s1.1-2.5 1.6-3.8c.6-1.6 1.3-3.2 1.7-4.9.1-.7.6-1 1.3-.9.5.1 1.1.2 1.6.1.4 0 .8.3 1 .6 1.4 2 3.2 3.7 5.2 5.2.5.4.9.9 1.3 1.4.2.3.5.4.8.7.5.4.8.2 1.1-.3.3-.6.4-1.3.6-2 .7-1.8 1.5-3.7 1.7-5.6.1-.9.1-1.8.5-2.6.3-.5.6-.7 1.1-.5.6.2 1.3-.1 1.8.4.9.9.7 1.9.5 2.9-1.1 4.3-2.2 8.6-3.8 12.8-.4 1-1.3 1.5-2.3 1-1.2-.6-2.3-1.2-3.5-1.8-.6-.3-1.1-.8-1.5-1.4-1-1.6-2.5-2.7-4-3.9-1.2-.9-1.2-.9-1.8.6-.9 2.5-2 4.9-3.9 6.9-1 1.1-1.7 2.5-2.6 3.6-.5.6-.8 1.3-1.7 1.4-1 .2-1.8-.4-2.3-1.2-1.4-2.3-2.8-4.6-4.3-6.8-.4-.5-.6-.7-1-.1-1.7 2.2-3.6 4.2-5.7 6-1.3 1.2-2.2 2.8-3.5 4-.8.8-1.9.9-2.8.2-.5-.5-1.1-1-1.4-1.6-1.9-3.3-4.3-6.2-6.6-9.2-.4-.5-.7-.4-1 0-1.7 1.7-3.3 3.4-5 5.1-1.3 1.3-2.7 2.6-4.1 3.9-1.4 1.4-3 .4-3.5-.8-1.2-2.5-2.4-5.1-3.5-7.6-.3-.7-.8-1.4-1.2-2s-.6-.5-1.1-.2c-2.7 2-5.4 4-8.3 5.8-1.1.6-2.1 1.2-3.2 2-1.3.9-3 .3-3.6-1.2-.3-.8-.4-1.6-.4-2.5-.1-1.5-.9-2.8-1.3-4.2-1.1-2.1-1.4-4.2-1.6-6z"/><path d="m184.6 353.6c-1.1-1.2-2.2-2.3-3.3-3.4-1.4-1.3-2.8-2.7-4.1-4.1-1.4-1.5-.8-3.4 1.2-3.9 3.2-.7 6.4-1.3 9.5-2 .9-.2 1.8-.4 2.8-.6-.7-.8-1.7-1.2-2.5-1.7-2.6-1.5-5.3-2.6-7.9-3.8-1.1-.5-1.4-1.5-1-2.7.6-2 2.4-2.5 3.8-3.5.6-.5 1.4-.7 1.8-1.4.1-.2.3-.2.5-.3.6-.2 1.2-.5 1.7-1-.6-.3-1.2-.3-1.8-.4-1.6-.1-3.2-.2-4.8-.4-1.4-.1-2.3-1.1-2.4-2.4-.1-1.4 1.2-2.5 2.6-2 2.8 1 5.7.9 8.6.7 1.8-.1 3.5-.1 5.1.7.8.4 1.1 1.5 1.1 2.4 0 .7-.6 1.3-1.1 1.5-1.4.6-2.7 1.5-4 2.4-1.6 1.1-3.2 2.1-4.7 3.4-.6.5-.4.8.1 1.1 1.7.9 3.5 1.7 5.1 2.7 2.1 1.2 4.1 2.5 5.8 4.2.6.6.6 1.5.5 2.2-.1.9-1 1.3-1.9 1.5-3.8.7-7.7 1.3-11.5 2.4-.5.1-1.2.2-1.3.6-.1.5.6.8.9 1.1 2.2 1.9 4.2 4.1 6.4 6.1.7.6 1 1.3 1 2.3-.1 1.2-.9 2.2-2.1 2.3-2 0-4 0-6 .2-2.4.2-4.7.4-7.1.6-.9.1-1 .2-.6 1.1 1.1 2.1 2.4 4 3.6 6 1 1.5 2.1 3 2.2 4.9.1 1.2-1.1 2.2-2.3 2-3.1-.6-6.2-1.1-9.3-1.6-1.6-.3-3.2-.7-4.8-.8-1.2-.1-1.5.1-1.2 1.3.5 2.3.8 4.7.6 7-.1 1 .2 2-.5 2.9-.6.7-2.3.9-2.9.2-.5-.6-.8-1.3-.7-2.1.5-3.1.1-6.1-.5-9.1-.2-.8-.1-1.5-.3-2.3-.2-1 .7-2 1.7-2.1 2-.3 4 .1 5.9.4 2.5.4 4.9.9 7.4 1.3.3 0 .6.2.8-.1s-.1-.6-.2-.8c-.9-1.6-1.9-3.1-2.8-4.7-.9-1.7-1.9-3.3-2.6-5.1-.4-1 .4-2.3 1.4-2.5 1.8-.3 3.6-.3 5.4-.2 1.9.1 3.8-.1 5.7-.3 1.1.1 2 .1 3-.2z"/><path d="m76.3 134c-1.1-1.2-2.2-2.3-3.3-3.4-1.4-1.3-2.8-2.7-4.1-4.1-1.4-1.5-.8-3.4 1.2-3.9 3.2-.7 6.4-1.3 9.5-2 .9-.2 1.8-.4 2.8-.6-.7-.8-1.7-1.2-2.5-1.7-2.6-1.5-5.3-2.6-7.9-3.8-1.1-.5-1.4-1.5-1-2.7.6-2 2.4-2.5 3.8-3.5.6-.5 1.4-.7 1.8-1.4.1-.2.3-.2.5-.3.6-.2 1.2-.5 1.7-1-.6-.3-1.2-.3-1.8-.4-1.6-.1-3.2-.2-4.8-.4-1.4-.1-2.3-1.1-2.4-2.4-.1-1.4 1.2-2.5 2.6-2 2.8 1 5.7.9 8.6.7 1.8-.1 3.5-.1 5.1.7.8.4 1.1 1.5 1.1 2.4 0 .7-.6 1.3-1.1 1.5-1.4.6-2.7 1.5-4 2.4-1.6 1.1-3.2 2.1-4.7 3.4-.6.5-.4.8.1 1.1 1.7.9 3.5 1.7 5.1 2.7 2.1 1.2 4.1 2.5 5.8 4.2.6.6.6 1.5.5 2.2-.1.9-1 1.3-1.9 1.5-3.8.7-7.7 1.3-11.5 2.4-.5.1-1.2.2-1.3.6-.1.5.6.8.9 1.1 2.2 1.9 4.2 4.1 6.4 6.1.7.6 1 1.3 1 2.3-.1 1.2-.9 2.2-2.1 2.3-2 0-4 0-6 .2-2.4.2-4.7.4-7.1.6-.9.1-1 .2-.6 1.1 1.1 2.1 2.4 4 3.6 6 1 1.5 2.1 3 2.2 4.9.1 1.2-1.1 2.2-2.3 2-3.1-.6-6.2-1.1-9.3-1.6-1.6-.3-3.2-.7-4.8-.8-1.2-.1-1.5.1-1.2 1.3.5 2.3.8 4.7.6 7-.1 1 .2 2-.5 2.9-.6.7-2.3.9-2.9.2-.5-.6-.8-1.3-.7-2.1.5-3.1.1-6.1-.5-9.1-.2-.8-.1-1.5-.3-2.3-.2-1 .7-2 1.7-2.1 2-.3 4 .1 5.9.4 2.5.4 4.9.9 7.4 1.3.3 0 .6.2.8-.1s-.1-.6-.2-.8c-.9-1.6-1.9-3.1-2.8-4.7-.9-1.7-1.9-3.3-2.6-5.1-.4-1 .4-2.3 1.4-2.5 1.8-.3 3.6-.3 5.4-.2 1.9.1 3.8-.1 5.7-.3 1.2.1 2.1.2 3-.2z"/><path d="m93.6 48.8c-1.1 1.2-1.9 2.5-2.8 3.8-1.1 1.6-2.2 3.2-3.5 4.7-1.3 1.6-3.3 1.3-4-.6-1.2-3-2.3-6.1-3.4-9.2-.3-.9-.7-1.7-1-2.6-.7.8-.9 1.8-1.3 2.8-1.1 2.7-1.8 5.6-2.6 8.4-.4 1.2-1.3 1.6-2.5 1.4-2-.3-2.8-2-4-3.2-.5-.5-.9-1.2-1.6-1.6-.2-.1-.2-.3-.3-.5-.2-.6-.6-1.1-1.2-1.6-.2.6-.1 1.2-.1 1.8.1 1.6.3 3.2.3 4.8.1 1.4-.7 2.4-2 2.7-1.4.3-2.6-.8-2.3-2.2.6-2.9 0-5.8-.6-8.6-.4-1.7-.6-3.5-.1-5.1.3-.8 1.3-1.3 2.2-1.4.7-.1 1.4.4 1.7.9.8 1.3 1.9 2.4 3 3.6 1.3 1.4 2.5 2.9 4 4.1.6.5.9.3 1.1-.3.6-1.8 1.2-3.7 1.9-5.5.9-2.2 1.9-4.4 3.3-6.4.5-.7 1.4-.8 2.1-.8.9 0 1.5.8 1.8 1.6 1.3 3.7 2.4 7.4 4.1 11 .2.4.3 1.1.8 1.2.6.1.7-.7 1-1.1 1.6-2.5 3.4-4.8 5.1-7.2.5-.8 1.1-1.2 2.1-1.3 1.2-.1 2.4.6 2.6 1.8.3 2 .6 3.9 1 5.9.6 2.3 1 4.6 1.6 6.9.2.9.4.9 1.2.4 1.9-1.4 3.6-2.9 5.4-4.4 1.4-1.2 2.7-2.5 4.6-2.9 1.2-.2 2.4.8 2.3 1.9-.1 3.1-.1 6.3-.2 9.4 0 1.6-.2 3.2-.1 4.8.1 1.3.3 1.5 1.5 1 2.2-.8 4.5-1.5 6.9-1.6 1 0 2-.5 2.9.1.8.5 1.2 2.2.6 2.8-.5.6-1.2 1-2 1-3.1 0-6.1.8-8.9 1.8-.7.3-1.5.4-2.2.6-1 .3-2-.4-2.3-1.4-.6-2-.5-3.9-.5-5.9.1-2.5.2-5 .2-7.5 0-.3.1-.6-.2-.8-.3-.1-.5.2-.8.3-1.4 1.1-2.8 2.3-4.2 3.4-1.5 1.2-3 2.3-4.7 3.3-.9.5-2.3 0-2.7-1-.6-1.7-.8-3.5-1-5.3-.2-1.9-.6-3.7-1.1-5.6-.6-.8-.7-1.6-1.1-2.6z"/><path d="m27.7 420.2c0-.5 0-1 .3-1.4 1.1-2.3 1.9-4.7 2.8-7 .5-1.3 1.1-2.5 1.3-3.8.2-.8 1.2-1.1 2.1-.9 1.8.4 3.2 1.6 4.7 2.5l6.9 4.5c.7.5.9-.1 1-.5.8-2.4 2.2-4.6 3-7 .5-1.3.9-2.6 1.2-4 .3-1.7 1.9-2.3 3.3-1.2.7.5 1.3 1.1 1.9 1.7 2.3 2.3 4.9 4.2 7.6 5.9 1 .6 1.3.6 2-.4 1.4-2 3.3-3.6 4.5-5.7.6-1 1.3-2 1.7-3.1.3-.8.7-1.8 1.9-1.8s1.8.7 2.3 1.7c.8 1.8 1.5 3.7 2.5 5.4.6 1 1.2 2.1 1.9 3.1.5.8.8.9 1.5.2l7.2-7.2 2.2-2.2c.8-.9 2.7-.4 3.2 1 1 2.7 1.9 5.4 2.9 8 .5 1.4 1.3 2.7 2 4 .2.3.4.6 1 .2 2.8-2.3 5.8-4.4 8.5-6.8.8-.7 2.3-.3 2.8.7.7 1.4.3 2.4-1 3.2-1.8 1.1-3.4 2.4-4.9 3.8-1.8 1.5-3.6 3-5.2 4.7-1 1.1-2.4.8-3.2-.6-1.6-2.7-2.7-5.5-3.8-8.4-.5-1.3-1.1-2.5-1.5-3.8-.2-.6-.4-.6-.9-.2-2.8 2.7-5.3 5.5-7.7 8.5-.5.6-.8 1.3-1.5 1.6-1.4.7-2.2 0-2.8-1.1-1.4-3-3.3-5.8-4.9-8.6-.5-.8-.5-.7-1.1 0-2 2.8-3.9 5.6-5.8 8.4-.8 1.2-2.2 1.8-3.3.4-.4-.5-1-.8-1.5-1.1-2.8-1.7-5.5-3.7-8-5.7-.6-.5-.9-.5-1.2.3-1.2 3.2-2.7 6.3-3.6 9.5-.2.8-.5 1.6-1.1 2.1-.9.8-1.4.8-2.4.1-3.4-2.4-6.8-4.7-10.4-6.7-1.1-.6-1.1-.6-1.5.5-1.1 2.7-2.3 5.4-3 8.3-.2.8-.9 1.1-2 1-.8-.1-1.6-.8-1.7-1.5-.2-.2-.2-.4-.2-.6z"/><path d="m263 222.9c0-1.7.4-2.4 1.4-2.4 1.4 0 2.6 1 2.7 2.3 0 2.1.3 4.1 1.1 6 .2.6.5 1.1.7 1.7.3.7.8.9 1.5.5 1.6-.8 3-1.8 4.6-2.6 2.2-1.2 4.1-2.9 6-4.6.7-.6 2.4-.4 3.2.4.4.4.6.8.9 1.3.9 2 2.1 3.8 2.8 6 .2.7.5 1.3.8 1.9.4.9.8 1 1.7.4 1.3-.9 2.4-2 3.6-3.1 1.2-1.2 2.4-2.4 3.6-3.6.3-.3.6-.7.8-1.1.2-.6.6-.9 1.3-.9 1.5-.2 2.5.4 3.3 1.6 2.1 3 4.4 5.9 6.5 9 .2.3.4.4.8.2 2.3-1.5 4.3-3.3 6.1-5.3 1.1-1.2 2.1-2.4 2.9-3.8 0-.1.1-.1.1-.2.9-1.7 1.1-1.8 3-1.6.7.1 1 .6 1.3 1.1 1 2.1 2.4 4 3.6 6 .7 1.1.7 1.1 1.7.3 1-.9 2-1.8 2.7-3s1.1-2.5 1.6-3.8c.6-1.6 1.3-3.2 1.7-4.9.1-.7.6-1 1.3-.9.5.1 1.1.2 1.6.1.4 0 .8.3 1 .6 1.4 2 3.2 3.7 5.2 5.2.5.4.9.9 1.3 1.4.2.3.5.4.8.7.5.4.8.2 1.1-.3.3-.6.4-1.3.6-2 .7-1.8 1.5-3.7 1.7-5.6.1-.9.1-1.8.5-2.6.3-.5.6-.7 1.1-.5.6.2 1.3-.1 1.8.4.9.9.7 1.9.5 2.9-1.1 4.3-2.2 8.6-3.8 12.8-.4 1-1.3 1.5-2.3 1-1.2-.6-2.3-1.2-3.5-1.8-.6-.3-1.1-.8-1.5-1.4-1-1.6-2.5-2.7-4-3.9-1.2-.9-1.2-.9-1.8.6-.9 2.5-2 4.9-3.9 6.9-1 1.1-1.7 2.5-2.6 3.6-.5.6-.8 1.3-1.7 1.4-1 .2-1.8-.4-2.3-1.2-1.4-2.3-2.8-4.6-4.3-6.8-.4-.5-.6-.7-1-.1-1.7 2.2-3.6 4.2-5.7 6-1.3 1.2-2.2 2.8-3.5 4-.8.8-1.9.9-2.8.2-.5-.5-1.1-1-1.4-1.6-1.9-3.3-4.3-6.2-6.6-9.2-.4-.5-.7-.4-1 0-1.7 1.7-3.3 3.4-5 5.1-1.3 1.3-2.7 2.6-4.1 3.9-1.4 1.4-3 .4-3.5-.8-1.2-2.5-2.4-5.1-3.5-7.6-.3-.7-.8-1.4-1.2-2s-.6-.5-1.1-.2c-2.7 2-5.4 4-8.3 5.8-1.1.6-2.1 1.2-3.2 2-1.3.9-3 .3-3.6-1.2-.3-.8-.4-1.6-.4-2.5-.1-1.5-.9-2.8-1.3-4.2-1.1-2.1-1.4-4.2-1.6-6z"/><path d="m307.2 260.6c-1.1 1.2-1.9 2.5-2.8 3.8-1.1 1.6-2.2 3.2-3.5 4.7-1.3 1.6-3.3 1.3-4.1-.6-1.2-3-2.3-6.1-3.4-9.2-.3-.9-.7-1.7-1-2.6-.7.8-.9 1.8-1.3 2.8-1.1 2.7-1.8 5.6-2.6 8.4-.4 1.2-1.3 1.6-2.5 1.4-2-.3-2.8-2-4-3.2-.5-.5-.9-1.2-1.6-1.6-.2-.1-.2-.3-.3-.5-.2-.6-.6-1.1-1.2-1.6-.2.6-.1 1.2-.1 1.8.1 1.6.3 3.2.3 4.8.1 1.4-.7 2.4-2 2.7-1.4.3-2.6-.8-2.3-2.2.6-2.9 0-5.8-.6-8.6-.4-1.7-.6-3.5-.1-5.1.3-.8 1.3-1.3 2.2-1.4.7-.1 1.4.4 1.7.9.8 1.3 1.9 2.4 3 3.6 1.3 1.4 2.5 2.9 4 4.1.6.5.9.3 1.1-.3.6-1.8 1.2-3.7 1.9-5.5.9-2.2 1.9-4.4 3.3-6.4.5-.7 1.4-.8 2.1-.8.9 0 1.5.8 1.8 1.6 1.3 3.7 2.4 7.4 4.1 11 .2.4.3 1.1.8 1.2.6.1.7-.7 1-1.1 1.6-2.5 3.4-4.8 5.1-7.2.5-.8 1.1-1.2 2.1-1.3 1.2-.1 2.4.6 2.5 1.8.3 2 .6 3.9 1 5.9.6 2.3 1 4.6 1.6 6.9.2.9.4.9 1.1.4 1.9-1.4 3.6-2.9 5.4-4.4 1.4-1.2 2.7-2.5 4.6-2.9 1.2-.2 2.4.8 2.3 1.9-.1 3.1-.1 6.3-.2 9.4 0 1.6-.2 3.2-.1 4.8.1 1.3.3 1.5 1.5 1 2.2-.8 4.5-1.5 6.9-1.6 1 0 2-.5 2.9.1.8.5 1.2 2.2.6 2.8-.5.6-1.2 1-2 1-3.1 0-6.1.8-8.9 1.8-.7.3-1.5.4-2.2.6-1 .3-2-.4-2.3-1.4-.6-2-.5-3.9-.5-5.9.1-2.5.2-5 .2-7.5 0-.3.1-.6-.2-.8-.3-.1-.5.2-.8.3-1.4 1.1-2.8 2.3-4.2 3.4-1.5 1.2-3 2.3-4.7 3.3-.9.5-2.3 0-2.7-1-.6-1.7-.8-3.5-1-5.3-.2-1.9-.6-3.7-1.1-5.6-.3-.8-.4-1.7-.8-2.6z"/><path d="m241.3 206.7c0-.5 0-1 .3-1.4 1.1-2.3 1.9-4.7 2.8-7 .5-1.3 1.1-2.5 1.3-3.8.2-.8 1.2-1.1 2.1-.9 1.8.4 3.2 1.6 4.7 2.5l6.9 4.5c.7.5.9-.1 1-.5.8-2.4 2.2-4.6 3-7 .5-1.3.9-2.6 1.2-4 .3-1.7 1.9-2.3 3.3-1.2.7.5 1.3 1.1 1.9 1.7 2.3 2.3 4.9 4.2 7.6 5.9 1 .6 1.3.6 2-.4 1.4-2 3.3-3.6 4.5-5.7.6-1 1.3-2 1.7-3.1.3-.8.7-1.8 1.9-1.8s1.8.7 2.3 1.7c.8 1.8 1.5 3.7 2.5 5.4.6 1 1.2 2.1 1.9 3.1.5.8.8.9 1.5.2 2.4-2.4 4.8-4.8 7.2-7.2.7-.7 1.5-1.5 2.2-2.2.8-.9 2.7-.4 3.2 1 1 2.7 1.9 5.4 2.9 8 .5 1.4 1.3 2.7 2 4 .2.3.4.6 1 .2 2.8-2.3 5.8-4.4 8.5-6.8.8-.7 2.3-.3 2.8.7.7 1.4.3 2.4-1 3.2-1.8 1.1-3.4 2.4-4.9 3.8-1.8 1.5-3.6 3-5.2 4.7-1 1.1-2.4.8-3.2-.6-1.6-2.7-2.7-5.5-3.8-8.4-.5-1.3-1.1-2.5-1.5-3.8-.2-.6-.4-.6-.9-.2-2.8 2.7-5.3 5.5-7.7 8.5-.5.6-.8 1.3-1.5 1.6-1.4.7-2.2 0-2.8-1.1-1.4-3-3.3-5.8-4.9-8.6-.5-.8-.5-.7-1.1 0-2 2.8-3.9 5.6-5.8 8.4-.8 1.2-2.2 1.8-3.3.4-.4-.5-1-.8-1.5-1.1-2.8-1.7-5.5-3.7-8-5.7-.6-.5-.9-.5-1.2.3-1.2 3.2-2.7 6.3-3.6 9.5-.2.8-.5 1.6-1.1 2.1-.9.8-1.4.8-2.4.1-3.4-2.4-6.8-4.7-10.4-6.7-1.1-.6-1.1-.6-1.5.5-1.1 2.7-2.3 5.4-3 8.3-.2.8-.9 1.1-2 1-.8-.1-1.6-.8-1.7-1.5-.2-.1-.1-.4-.2-.6z"/><path d="m194.3 68.8c.1.5.1 1 0 1.5-.6 2.4-1 4.9-1.4 7.4-.3 1.3-.6 2.6-.6 4 0 .8-.9 1.3-1.9 1.3-1.8-.1-3.4-.9-5.1-1.6-2.5-1-5.1-2-7.6-3.1-.8-.3-.9.3-.9.7-.3 2.5-1.2 4.9-1.6 7.4-.2 1.4-.4 2.7-.4 4.1 0 1.8-1.4 2.6-3 1.8-.8-.4-1.5-.8-2.2-1.3-2.7-1.8-5.6-3.2-8.6-4.3-1.1-.4-1.4-.3-1.9.7-1 2.2-2.5 4.1-3.3 6.4-.4 1.1-.9 2.2-1.1 3.4-.1.9-.3 1.9-1.5 2.1-1.1.2-1.9-.4-2.6-1.2-1.2-1.6-2.1-3.4-3.5-4.8-.8-.9-1.6-1.8-2.4-2.7-.6-.7-1-.7-1.5.1-1.9 2.8-3.8 5.6-5.7 8.4-.6.9-1.2 1.7-1.7 2.6-.6 1.1-2.6.9-3.4-.3-1.5-2.4-2.9-4.9-4.4-7.3-.8-1.3-1.8-2.4-2.7-3.5-.2-.3-.5-.5-1 0-2.3 2.8-4.8 5.4-7 8.3-.6.8-2.2.7-2.9-.1-.9-1.2-.8-2.3.4-3.3 1.5-1.4 2.8-3 4.1-4.7 1.5-1.8 3-3.6 4.2-5.6.7-1.2 2.2-1.2 3.2 0 2 2.3 3.7 4.9 5.4 7.5.7 1.1 1.5 2.3 2.2 3.4.3.5.5.5.9 0 2.2-3.1 4.2-6.4 6-9.8.3-.6.5-1.4 1.2-1.9 1.3-1 2.2-.5 2.9.5 2 2.7 4.3 5 6.5 7.5.6.7.7.6 1.1-.2 1.4-3.1 2.8-6.2 4.1-9.4.5-1.3 1.8-2.1 3.1-1 .5.4 1.1.6 1.7.8 3.1 1.2 6.1 2.6 9 4.1.6.3.9.3 1.1-.5.6-3.4 1.4-6.7 1.7-10.1.1-.8.2-1.6.7-2.3.7-1 1.2-1.1 2.3-.5 3.8 1.7 7.6 3.3 11.5 4.6 1.2.4 1.2.4 1.4-.8.6-2.9 1.2-5.8 1.4-8.7.1-.8.7-1.3 1.8-1.4.7-.1 1.7.5 1.9 1.2 0 .2 0 .4.1.6z"/><path d="m286 317.5c.5.1.9.3 1.3.7 1.8 1.7 3.9 3.2 5.8 4.8 1 .9 2 1.8 3.2 2.4.7.4.7 1.4.3 2.3-1 1.6-2.5 2.6-3.8 3.7-2.1 1.7-4.2 3.5-6.4 5.2-.7.5-.2.9.2 1.2 2.1 1.5 3.7 3.5 5.7 5 1.1.8 2.2 1.7 3.4 2.3 1.5.8 1.6 2.5.1 3.5-.7.5-1.5.9-2.2 1.3-2.9 1.4-5.5 3.3-7.9 5.4-.9.8-1 1.1-.3 2 1.4 2 2.4 4.2 4.1 6 .8.9 1.5 1.8 2.5 2.6.7.6 1.5 1.2 1.1 2.3s-1.3 1.5-2.3 1.7c-2 .3-4 .3-5.9.8-1.2.3-2.4.5-3.5.8-.9.2-1.1.5-.7 1.3 1.5 3 3.1 6 4.6 9 .5.9.9 1.9 1.5 2.7.7 1.1-.4 2.7-1.9 2.8-2.8.2-5.7.2-8.6.4-1.5.1-3 .4-4.4.7-.4.1-.7.2-.4.9 1.3 3.4 2.4 6.8 3.9 10.2.4.9-.4 2.3-1.5 2.5-1.5.2-2.3-.4-2.7-1.9-.5-2-1.3-3.9-2.1-5.9-.9-2.2-1.8-4.3-2.9-6.4-.7-1.2 0-2.5 1.5-2.9 3-.7 6.1-.9 9.2-1.1 1.4-.1 2.7-.2 4.1-.3.6 0 .7-.2.4-.8-1.7-3.5-3.6-6.8-5.8-10-.4-.6-1-1.1-1.1-1.9-.2-1.6.6-2.1 1.8-2.3 3.3-.5 6.5-1.3 9.7-2.1.9-.2.9-.3.3-1-2-2.8-4.1-5.4-6.3-8.1-.9-1.1-1-2.6.7-3.2.6-.2 1.1-.7 1.5-1.1 2.5-2.1 5.2-4.1 7.9-5.9.6-.4.7-.7.1-1.2-2.7-2.1-5.2-4.4-8-6.3-.7-.4-1.3-.9-1.7-1.7-.5-1.1-.3-1.6.6-2.3 3.3-2.5 6.5-5.1 9.6-7.8.9-.8.9-.9 0-1.6-2.2-1.9-4.5-3.8-7-5.4-.7-.4-.8-1.2-.4-2.2.3-.7 1.2-1.2 2-1.1.2-.2.4-.1.7 0z"/><path d="m419.7 93.6c-1.3 0-2.6.3-4 .4-.5 0-.9-.1-.4-.7.5-.7.5-1.5.8-2.2 1-2.3 2-4.6 2.9-7 .4-1 .1-2-.5-2.7-.5-.6-1.3-.3-2-.3-.5 0-.7.3-.9.7-.7 1.5-1.3 3.1-2 4.6-1.2 2.7-2 5.5-3.8 7.9-.3.4-.5.8-.4 1.4.2 1.3 1.1 2.2 2.5 2.4 2.2.4 4.5.1 6.7-.1s4.4-.7 6.6-1.2v-4.2c-1.8.5-3.6.9-5.5 1z"/><path d="m57 107.9c-1-.1-2.1-.1-2.9.8-1.5 1.8-3.4 3-5.2 4.4-1.4 1.1-1.5 1-1.8-.8-.4-2.4-1-4.7-1.8-7-.2-.6-.4-1.4-1.2-1.4s-1.6.1-2.3.5c-3.1 1.7-6.2 3.4-9.3 5.1-1.4.7-2.7 1.5-4.1 2.3-.6.3-1 .4-1.1-.5-.2-1.9-.5-3.8-1-5.7-.6-1.9-.9-4-1.9-5.7-.5-.9-1.3-1.2-2.3-.9s-2.1.7-3.1 1.1c-3.2 1.4-6.3 3.1-9.6 4.4-1.1.5-1.4.4-1.3-.9.3-3.3-.1-6.5-.5-9.8-.1-1.2-.9-2-2-2.3-.7 0-1.3.5-2 .5-1.2.1-2.4.4-3.6.6v4.2c.9-.2 1.9-.4 2.8-.6.8-.2 1 .1 1 .8.1 2.2.2 4.4.2 6.6v2.2c0 .7-.1 1.4 0 2.2.2 1.5 1.6 2.6 2.9 2.3 1.2-.3 2.5-.8 3.6-1.4 3.3-1.8 6.7-3.3 10.1-4.9.5-.2.8-.1 1 .4.3.8.6 1.6.8 2.5.7 2.8.5 5.7 1 8.6.4 2.2 2.1 3.1 4 2.1.6-.3 1.2-.8 1.8-1.2 3.9-2.3 7.7-4.8 11.8-6.7 1.1-.5 1.2-.5 1.5.7 0 .2.1.3.1.5.3 2.6 1.1 5.2 2 7.7.5 1.4 2.4 1.9 3.6 1 1-.9 2.1-1.8 3.2-2.5 2-1.4 3.8-3 5.6-4.6.6-.6 1.2-1.1 1.2-2 .1-1.3-.4-2.6-1.2-2.6z"/><path d="m21.5 78c-.1-.3-.1-.5-.1-.7-.2-1.7 1-2.7 2.6-2.1 1.5.6 2.5 1.8 3.7 2.8 1.3 1.2 2.7 2.5 4 3.7.4.4.8.8 1.1 1.3.7.9 1 1 1.7 0 1.5-2.1 2.9-4.4 4-6.7.3-.8.7-1.5.7-2.4 0-.6.3-1.1 1-1.3 1.1-.4 1.9-.2 2.8.6 2 2 4 3.9 6 5.8.9.8 1.9 1.6 2.8 2.4.5.4.8.4 1.3-.2.9-1.1 1.4-2.5 2.2-3.7 1.1-1.6 2.1-3.4 3.2-5 .3-.5.6-1 .7-1.6.2-1.4 2.6-2.1 3.7-.9 1 1 1.9 2.1 2.9 3.1 2 2.2 4.2 4.2 6.4 6.2.8.7 1.7 1.4 2.5 2.1.6.6 1.1.4 1.7-.1 1.5-1.2 3-2.5 4.5-3.7 1.9-1.5 4.1-2.7 6.2-3.9.8-.4 1.4-1 2.4-1 1.1-.1 1.6.1 2 1.2.8 2.6 1.6 5.2 2.4 7.8.4 1.4.8 2.8 1.4 4.2.5 1.2.1 2.9-.8 3.5-.5.4-1 .3-1.5.1-.9-.5-1.6-1.2-1.8-2.2-.5-2.7-1.7-5.1-2.4-7.8-.1-.4-.5-.7-.6-1.2-.1-.4-.4-.1-.6 0-3.7 1.9-7 4.4-9.5 7.9-1 1.4-1.8 1.6-3.2.7-4-2.6-7.5-5.7-10.8-9.2-.7-.7-1.4-1.4-2.1-2.2-.4-.4-.7-.4-1 .1-2.1 3.3-4 6.6-5.5 10.2-.2.5-.4.9-.6 1.3-.5 1-1.2 1.1-2.3.6-1-.5-1.6-1.4-2.4-2.1-2.6-2.4-5.2-4.9-8-7.2-.5-.4-.7-.2-.9.2-1.1 2.4-2.5 4.7-3.8 7.1-.5 1-1.1 1.9-1.6 3-.6 1.4-2.7 1.2-3.7-.1-1.9-2.6-4.2-4.9-6.6-7.1-.2-.1-.3-.4-.6-.3-.2.1-.2.3-.2.5-.1 2.8-.1 5.6-.2 8.4v.9c-.1.6 0 1.3-.7 1.5-.7.1-1.5.2-2.1-.3-.7-.6-1.2-1.3-1-2.3.4-3.6.3-7.1.4-10.7.4-.4.3-.9.3-1.2z"/><path d="m294.4 414.5c.2-.5.5-.7 1-.3.8.6 1.7 1.1 2.5 1.7 3.9 2.7 7.9 5.2 12.3 6.9 1.6.6 2.2.3 3-1.3 1.8-3.9 4.5-6.9 7.8-9.5.2-.1.4-.4.6-.1.2.4.6.6.8 1 1.1 2.5 2.8 4.7 3.8 7.2.4 1 1.2 1.5 2.2 1.8.5.2 1 .1 1.4-.3.8-.8.8-2.6.1-3.6-.9-1.2-1.5-2.5-2.2-3.8-1.3-2.4-2.5-4.8-3.8-7.2-.5-1-1.1-1.1-2.2-.8-.9.2-1.5.9-2.2 1.5-1.9 1.6-3.8 3.2-5.4 5-1.3 1.5-2.5 3-3.7 4.5-.5.6-.9.9-1.7.4-.9-.6-1.9-1.1-2.9-1.6-2.6-1.5-5.1-3.1-7.5-4.8-1.1-.8-2.2-1.7-3.4-2.5-1.3-.9-3.5.2-3.4 1.6 0 .6-.2 1.2-.4 1.7-.8 1.8-1.4 3.7-2.2 5.6-.6 1.3-.7 2.8-1.4 4.1-.4.6-.7.7-1.2.4-1.1-.6-2.2-1.2-3.2-1.8-2.4-1.5-4.7-3-7-4.6-1-.7-1.8-.7-2.8-.1-.6.4-.9.9-.8 1.5.2.9 0 1.6-.2 2.5-.5 2-1.1 3.9-1.9 5.7h4.3c.4-1.3.8-2.6 1.1-3.9.1-.5.3-.7.8-.4 2.5 1.3 4.8 2.8 7.2 4.3h7.2c.8-3.7 2.1-7.3 3.4-10.8z"/><path d="m262 423.3c-1.3-.8-2.5-1.8-4.2-2.1s-2.8.9-2.2 2.5c.1.2.1.4.3.7.1.2.2.5.3.8h9c-1-.6-2.1-1.3-3.2-1.9z"/><path d="m283.9.1c.7.4 1.3.8 2 1.2.9.6 1.7 1.3 2.7 1.6 1.1.3 1.7 0 2.1-1.1.2-.5.2-1 .3-1.4 0-.1.1-.2.1-.3 0 0-7.2 0-7.2 0z"/><path d="m269.6 1.7c-.5 1-.8 1.1-1.6.3-.4-.4-.9-.8-1.4-1.1s-.9-.6-1.4-.9h-9c0 .1.1.3.1.5.6 3.5 1.3 7 1.6 10.6.1 1 .7 1.6 1.5 2 .7.4 1.5.2 2.1-.1s.4-1 .4-1.6c0-.3-.1-.6-.1-.9-.5-2.8-.9-5.5-1.4-8.3 0-.2-.1-.4 0-.6.2-.2.5 0 .6.1 2.7 1.7 5.5 3.5 7.8 5.7 1.2 1.2 3.3.9 3.6-.6.2-1.1.6-2.2 1-3.2.4-1.3.8-2.5 1.3-3.8h-4.3c-.3.8-.5 1.4-.8 1.9z"/><path d="m43.7 253.2c-.2-1.5-.6-2.9-.4-4.4.1-.8.2-1.7.1-2.5-.2-1.6-1.8-2.5-3.2-1.9-1.1.5-2.3.8-3.5 1.2-3.2 1.1-6.3 2.5-9.3 3.9-.6.3-.9.2-1.1-.4-.3-.7-.5-1.5-.7-2.2-.6-2.7-1.2-5.5-1.9-8.2-.3-1.3-1.6-2.6-3.3-1.5-1.6 1-3.2 1.9-4.8 3-2 1.3-4 2.6-6 4-.4.3-.7.4-1-.2-1.7-3.4-3.4-6.7-4.6-10.4-.2-.7-.6-1.3-1.1-1.9-.7-.9-1.8-.9-2.8-.4 0 0-.1 0-.1.1v5.5s.1 0 .1-.1c.4-.2.6 0 .7.3 1.4 3.4 3 6.8 4.4 10.2.6 1.4 1.4 2.1 2.9 2.3.7.1 1.1-.1 1.4-.7.2-.4.6-.7 1-.9 1.4-.9 2.9-1.8 4.3-2.7 1.3-.9 2.7-1.7 4.1-2.3 1-.4 1.3-.2 1.6.8.2.7.3 1.4.4 2 .2 2.2 1 4.3 1.5 6.4.1.5.3 1 .6 1.4.6 1 2.3 1.5 3.1 1.1 2.2-1.3 4.4-2.5 6.8-3.3 1.7-.5 3.3-1.2 5-1.6.8-.2 1.2.1 1.4.8.1.6.3 1.2.4 1.8.3 2 .2 4.1-.2 6.1-.2 1.2.8 2.6 2.1 2.8 1 .2 1.6-.4 1.9-2.1s.4-3.8.2-6z"/><path d="m421 234.6c-2.4 1.4-4.7 2.9-6.8 4.7-.6.5-.8.3-1-.3-1-2.5-1.9-5-2.8-7.5-.3-.9-1-1.6-2-1.7-.8-.1-1.3.6-1.9 1-1.2.9-2.1 2.2-3.3 3-2.3 1.6-3.9 3.6-5.3 5.9-.8 1.4-.9 1.4-1.8.2-1.2-1.4-2.4-2.9-3.1-4.6-.2-.6-.6-1.2-1.2-1.7-1-.8-2-1.7-3-2.5-.8-.7-1.9-.4-2.4.5-2.4 3.7-4.4 7.7-6.3 11.7-.5.9-.8 1.9-.1 2.9.4.6 1.2.4 1.7.8.5.3.8.1 1.2-.3.6-.7.8-1.6 1.1-2.5.7-1.8 1.8-3.5 2.9-5.1.4-.6.6-1.2 1-1.8.3-.4.7-.6 1.1-.1.2.3.5.5.6.8.3.6.5 1.2.9 1.7 1.6 1.9 3 3.9 4 6.2.2.4.4.8.8.8.6.1 1 .3 1.6.5.7.2 1.2 0 1.4-.6.7-1.6 1.7-3 2.6-4.4.8-1.1 1.4-2.4 2.4-3.4.9-1 2.1-1.7 3.3-2.3 1.1-.6 1.2-.6 1.6.6.7 2.2 1.7 4.4 2.2 6.6.1.5.4 1.1 1 1.3 1.8.6 2 .5 3.3-.9.1-.1.1-.1.2-.2 1.1-1.2 2.3-2.1 3.6-3.1 2.2-1.6 4.5-2.9 6.9-3.9v-5.5c-1.7 1-2.9 2.3-4.4 3.2z"/><path d="m80.4 348.2c-1.4-.8-2.9-1.3-4.3-1.9-1.8-.8-3.6-1.5-5.3-2.3-1.8-.9-2-2.9-.3-4.1 2.7-1.8 5.4-3.6 8.2-5.3.8-.5 1.5-1 2.3-1.6-1-.5-2-.5-3-.6-2.9-.4-5.9-.5-8.8-.7-1.3-.1-1.9-.9-1.9-2.2-.1-2 1.3-3.2 2.2-4.7.4-.6 1-1.2 1.2-1.9 0-.2.2-.3.4-.4.5-.4.9-.9 1.2-1.5-.7-.1-1.2.1-1.8.3-1.5.5-3 1-4.6 1.4-1.3.4-2.5-.2-3.1-1.3-.6-1.3.2-2.8 1.7-2.8 3-.1 5.7-1.3 8.3-2.5 1.6-.7 3.3-1.4 5-1.2.8.1 1.6 1 1.9 1.9.3.7-.1 1.4-.5 1.8-1.1 1.1-1.9 2.4-2.8 3.7-1.1 1.6-2.3 3.1-3.1 4.9-.4.7-.1.9.5 1 1.9.2 3.9.3 5.8.6 2.4.4 4.7.9 6.9 1.8.7.3 1.1 1.2 1.3 1.9.2.9-.4 1.6-1.2 2.1-3.3 2.1-6.7 4-9.8 6.4-.4.3-1 .6-1 1 .1.6.8.5 1.3.7 2.8 1 5.4 2.3 8.1 3.4.9.4 1.4.8 1.7 1.7.4 1.1-.1 2.4-1.2 2.9-1.8.8-3.7 1.4-5.5 2.3-2.1 1.1-4.3 2-6.4 3.1-.8.4-.8.6-.1 1.2 1.8 1.5 3.7 2.9 5.5 4.3 1.5 1.1 3 2.1 3.8 3.8.5 1.1-.2 2.5-1.4 2.7-3.1.6-6.1 1.3-9.2 1.9-1.6.3-3.2.5-4.7 1-1.2.3-1.4.6-.7 1.7 1.3 2 2.5 4.1 3.1 6.4.3.9.9 1.8.5 2.9-.3.9-1.8 1.7-2.6 1.2-.7-.4-1.2-.9-1.4-1.7-.7-3-2.1-5.7-3.8-8.3-.4-.7-.7-1.4-1.1-2-.5-.9-.1-2.1.8-2.6 1.8-1 3.7-1.4 5.7-1.8 2.5-.5 4.9-.9 7.4-1.4.3-.1.6-.1.7-.4s-.3-.5-.5-.7c-1.4-1.1-2.9-2.2-4.3-3.4-1.5-1.2-2.9-2.4-4.2-3.8-.7-.8-.5-2.3.4-2.8 1.6-.9 3.2-1.5 5-2.1s3.5-1.4 5.2-2.3c.8-.8 1.7-1.1 2.5-1.7z"/><path d="m424.7 302.7c-.3-1.2-.9-2-2.5-1.6-.8.2-1.2.8-1.8 1.3-3 2.4-6.1 4.7-9.4 6.7-.5.3-.7.3-.8-.3-.2-1.3-.5-2.7-.7-4-.5-3-1-6.1-2-9-.5-1.5-1.8-2.1-3-1.2-1.9 1.4-4 2.4-6 3.5-1.8 1-3.7 2-5.6 2.7-1.4.5-2 1.4-1.6 2.9.3 1 1.7 1.7 2.6 1.2 3.1-1.8 6.5-3.2 9.7-4.9.6-.3.8 0 .9.4.4 1.4.9 2.9 1.1 4.3.5 2.8.8 5.7 1.2 8.5.2 1.4 2 2.4 3 1.6.8-.6 1.7-1.2 2.6-1.7 2.8-1.8 5.7-3.7 8.5-5.5.8-.5 1.1-.4 1.4.5.4 1.1.7 2.3 1.2 3.4.7 1.9.9 3.9 1.3 5.8.1.4.3.8.5 1.1v-13.8c-.3-.7-.5-1.3-.6-1.9z"/><path d="m50 304.9c-1.1-.3-1.8-.1-2.2.6-1.3 2.6-3 5-4.7 7.5-.7 1-.7 1-1.6.2-3.1-2.8-6-5.7-8.7-8.8-.8-.9-1.3-1-2.4-.4-.7.4-1.1 1.2-1.5 1.9-1.6 3-3.7 5.7-5.5 8.6-.5.7-.7.6-1.2 0-2.1-2.5-4.3-5-6.7-7.3-.5-.4-1-.9-1.2-1.4-.8-1.6-2.2-1.3-3.3-.3-2.4 2.4-4.9 4.8-7.4 7-.7.6-.8.7-1.1-.2-.8-2.5-1.7-5-2.5-7.6v13.8c.3.5.7.9 1.4 1 1.2.3 1.7-.6 2.2-1.3.7-1 1.5-1.8 2.3-2.7 1.6-1.8 3.8-3 5.6-4.6.9-.8 1.2-.7 2.1.1 2.3 2.2 4.5 4.6 6.2 7.3.5.7 1 1.4 1.5 2.1 1.2 1.4 2.8 1.1 3.5-.5.5-1.3 1.3-2.5 2-3.6 1.3-2.2 3.1-4 4.4-6.2.2-.4.5-.9 1.1-.3 1.9 2 3.9 3.9 5.8 5.8 1.3 1.3 2.4 2.7 4.1 3.5.8.4 1.9.2 2.2-.5.5-1.3 1.4-2.3 2.1-3.4 1.4-2.1 2.7-4.2 4.2-6.2.3-.4.5-.9.6-1.4 0-.2.1-.5.1-.7-.1-1-.7-1.8-1.4-2z"/><path d="m87 295.8v.7c-.1 1.7-1.5 2.4-3 1.5-1.4-.9-2.1-2.3-3-3.5-1-1.5-2.1-3-3.1-4.5-.3-.5-.6-1-.8-1.5-.4-1.1-.8-1.2-1.6-.4-1.9 1.8-3.8 3.6-5.3 5.8-.5.7-1 1.3-1.2 2.2-.1.6-.6 1-1.3 1.1-1.2.1-1.9-.2-2.6-1.2-1.5-2.4-3.1-4.7-4.7-7-.7-1-1.5-2-2.2-3-.4-.5-.7-.6-1.3-.1-1.2.9-1.9 2.2-2.9 3.2-1.5 1.4-2.7 2.9-4.2 4.3-.4.4-.8.8-1 1.4-.5 1.4-2.9 1.5-3.8.2-.8-1.2-1.4-2.4-2.1-3.7-1.5-2.6-3.2-5-5-7.4-.7-.9-1.4-1.7-2-2.6-.5-.7-1-.7-1.7-.3-1.7.9-3.4 1.8-5.2 2.7-2.2 1.1-4.5 1.8-6.9 2.5-.8.2-1.6.7-2.6.5-1.1-.2-1.6-.5-1.7-1.6-.2-2.7-.4-5.4-.7-8.1-.1-1.5-.2-2.9-.5-4.4-.3-1.2.5-2.8 1.5-3.3.6-.2 1-.1 1.4.2.8.7 1.3 1.5 1.3 2.5 0 2.7.6 5.4.7 8.1 0 .4.3.8.3 1.2s.4.2.5.2c4.1-1.1 7.8-2.8 11-5.7 1.3-1.2 2.1-1.2 3.3 0 3.4 3.4 6.1 7.2 8.6 11.2.5.9 1.1 1.7 1.6 2.6.3.5.6.5 1 .1 2.7-2.8 5.3-5.6 7.5-8.8.3-.4.5-.8.9-1.2.7-.8 1.5-.8 2.3-.2.9.7 1.3 1.7 1.9 2.6 2.1 2.9 4 5.9 6.3 8.7.4.5.6.4.9 0 1.6-2.2 3.5-4.1 5.2-6.1.7-.8 1.5-1.6 2.2-2.6.8-1.2 2.9-.6 3.6.9 1.3 3 3.1 5.7 4.9 8.3.1.2.3.4.5.4.2-.1.2-.3.3-.5.6-2.7 1.3-5.4 1.9-8.1.1-.3.1-.6.2-.8.2-.5.3-1.3 1-1.3s1.5.1 2 .7c.5.7.9 1.5.5 2.4-1.2 3.4-1.8 6.9-2.7 10.4-.2.5-.2.9-.2 1.3z"/><path d="m31.4 59.6c-.9-1.3-1.8-2.6-2.8-3.8-2.1-2.4-4.4-4.7-6.3-7.2-.8-1.1-3.2-.8-3.5.4-.5 1.1-1.2 2-1.8 3-1.2 2.3-2.7 4.6-4.2 6.7-.4.6-.5.4-.8 0-.6-.8-1.2-1.5-1.8-2.3-1.5-1.8-3.5-3.1-5-4.9-.7-.8-3.2-.5-3.5.5-.4 1.2-1.1 2.3-1.7 3.4v9.6c1.3-2.5 2.5-5 3.8-7.5.3-.5.5-.5.9-.2 1 .9 2.1 1.7 3 2.8l3.6 4.5c.8 1 2.2 1.4 3.2.8.8-.4 1.2-1.3 1.5-2.1 1.2-3 3.3-5.6 4.7-8.5.2-.4.4-.5.8-.1 2.2 2.1 4.4 4.2 5.9 6.9.6 1 1.3 1.7 2.3 2.1.9.3 2.3-.5 2.3-1.4 0-1.1-.1-2-.6-2.7z"/><path d="m424.9 56c-.9 2-1.9 3.9-3.1 5.7-.6.9-.6.9-1.2 0-.3-.5-.5-1.1-.9-1.5-1.5-1.7-2.8-3.6-4.1-5.5-.2-.3-.5-.6-.9-.7-1.5-.4-2.5.1-3.1 1.6-.1.2-.2.4-.3.6-1.8 3.1-3.8 6-6.3 8.6-.4.4-.7.4-1.1 0-.1-.2-.3-.4-.4-.5-1.8-2.6-3.5-5.1-5.3-7.7-.9-1.3-1.9-1.7-3.4-1.2-.3.1-.5.2-.5.5-.5 1.7-1.4 3.4-1.7 5.2-.5 3-1.2 5.9-1.4 9-.1.7-.2 1.4.2 2.1s.7 1.3 1.6.8c1 .7 1.3-.2 1.6-.7.5-1 .8-2.1 1.1-3.2.5-2.3 1.4-4.4 1.4-6.8.5.1.6.4.8.7 1.5 2.5 3.4 4.7 5.1 7.1 1 1.3 2.9 1.4 3.8.2 2.3-3.1 4.5-6.3 6.6-9.5.4-.6.6-.5 1-.1 2.2 2.1 3.6 4.7 5.1 7.3.5 1 2.2 1.5 3.2 1.2s1.3-1.3 1.7-2c.3-.6.6-1.2.9-1.8v-9.6c-.2-.2-.3 0-.4.2z"/><path d="m194.3 397.4c-.4-1.1 0-2 .8-2.8 2.3-2.1 4.8-4.2 6.5-6.9.8-1.3 1.8-2.5 2.1-4.1.1-.6.5-1 1.3-.9 1 0 1.9.4 2.7.9 2.2 1.4 4.1 3.1 5.7 5 .9 1.1 1.9 2.2 2.9 3.3 1-1.5 1.4-3.1 2.1-4.6.5-1.3.9-2.6 1.3-3.9.5-1.6 2.2-2.3 3.6-1.3 1.8 1.2 3.3 2.6 4.8 4.1.3.3.6.6.9.8s.5.7.9.5c.3-.2.2-.7.2-1.1.2-2.7.3-5.4.5-8.1.1-1.1.3-2.2.5-3.3.1-.9.7-1.3 1.5-1.6 1-.3 1.9-.2 2.9-.1 2.6.3 5.3.6 7.9.8.7.1 1.4 0 2.1 0 .5 0 .7-.2.5-.7-.6-1.6-1.1-3.2-1.8-4.7-.7-1.4-1.2-2.9-2-4.3-.1-.3-.2-.6-.4-.8-1.1-1-.9-2.3-.5-3.5.2-.6.5-1.1 1.3-.7.5.2 1 .1 1.4.2.7.2 1.1.6 1.2 1.2.9 2.8 2.2 5.4 3.5 8 .8 1.6 1.5 3.3 2 4.9.3 1 .2 2.1.2 3 0 .6-.7 1.2-1.5 1.3-3.3.2-6.5.3-9.8 0-1.3-.2-2.6-.2-4-.3-.7 0-1 .2-1 .9-.1 2.5 0 5-.1 7.5 0 2 .2 4 0 6-.2 1.3-1 2.5-2.5 2.5-.9 0-1.7-.3-2.2-1.1-1.1-1.5-2.7-2.5-4-3.8-.8-.7-1.6-1.4-2.4-2.1-.4-.4-.7-.4-.9.2-1 2.6-2.1 5.2-3.1 7.9-.4 1-1.2 1.8-2.3 1.8-1 0-1.8-.4-2.4-1.4-.6-.9-1.1-1.8-2-2.5-.3-.2-.5-.5-.7-.9-1.3-2.1-3.3-3.7-5.1-5.3-.4-.4-.6-.2-.9.2-1.4 2.2-3 4.3-4.9 6.2-1.4 1.4-2.9 2.5-4.7 3.3-.8.4-1.4.4-2.1.3z"/><path d="m262.4 336c-2.2-.3-4.4-.4-6.5-.5-.7 0-1 .1-.9.9.3 3.2.9 6.3.8 9.5 0 2.2 0 4.5-.6 6.7-.4 1.4-1.4 2.2-2.7 2.3-.6 0-1-.3-1.3-.6-2.2-2-5-3.1-7.5-4.6-1.5-.8-2.9-1.6-4.4-2.5-.4-.2-.6-.5-.6-1 .1-.7-.1-1.6.5-2 .8-.6 1.8-.8 2.8-.2 2.2 1.2 4.4 2.4 6.6 3.6.7.4 1.5.5 2.1 1.1.5.5.7.1.7-.4 0-1.3-.1-2.7 0-4 .2-3.1-.7-6.1-.6-9.2 0-.7-.4-1.4-.2-2.1.3-1.1 1.2-1.8 2.5-1.8 3.3 0 6.5-.1 9.8.5 1.2.2 1.3 0 1-1.2-1-3.4-2.4-6.6-3.5-10-.3-1-.6-2.1-.8-3.2-.2-1 .2-1.7 1.2-2.2 1.9-.9 3.9-1 5.9-1.3 1.9-.4 3.8-.4 5.8-.4.9 0 .9-.4.6-1-.6-1.4-1.3-2.8-1.9-4.3-1.4-3.3-2.7-6.5-4.1-9.8-.3-.8-.3-1.6-.3-2.4.1-.8.8-.9 1.5-1.1 2.3-.6 4.7-.9 7.2-1.1 1.8-.2 1.8-.2.9-1.7-1.2-1.9-2.2-4-3.9-5.6-.8-.8-.7-1.9-.5-2.9.2-.7 1.4-1.1 2.6-.9.9.1 1.3.7 1.8 1.4 1.4 2 2.9 3.9 4.1 6 .7 1.2 1.4 2.3 2.2 3.4.9 1.2.2 3.1-1.3 3.5-2.6.7-5.2 1.1-7.8 1.2-.2 0-.3 0-.5.1-1.2.2-1.2.3-.8 1.4 1.5 4.3 3.6 8.3 5.5 12.4.3.7.7 1.2 1 1.9.8 2-.3 3.6-2.5 3.8-2.9.2-5.8-.3-8.6.2-.9.1-1.7.3-2.5.5-.5.1-.7.4-.5.9 1.2 3.5 2.4 7.1 3.8 10.5.5 1.2.8 2.5 1 3.7.2 1.3-1 2.6-2.5 2.6-.7 0-1.4-.1-2.1-.2-1 .2-1.7.1-2.5.1z"/><path d="m20.2 353.7c1.3-1.7 2.5-3.4 3.7-5.2.4-.6.4-.9-.3-1.2-2.6-1.2-5.4-2.2-7.9-3.8-1.7-1.1-3.5-2.1-4.9-3.6-.9-1-1.1-2.2-.5-3.3.3-.5.7-.7 1.1-.8 2.7-.9 5-2.6 7.4-4.1 1.4-.8 2.8-1.6 4.1-2.5.4-.2.7-.3 1.1 0 .5.4 1.3.6 1.3 1.3 0 .9-.3 1.9-1.2 2.4-2 1.3-4.1 2.5-6.1 3.8-.6.4-1.1 1-1.9 1.2-.6.2-.4.5-.1.8 1 .6 2.1 1.2 3.1 1.9 2.3 1.6 5.1 2.3 7.5 3.8.6.3 1.3.3 1.8.8.7.8.7 1.8.1 2.9-1.6 2.7-3.2 5.4-5.3 7.8-.8.9-.6 1.1.5 1.4 3.1.7 6.4 1.1 9.5 1.8 1 .2 2 .5 2.9.8s1.2 1 1.1 2c-.3 1.9-1.2 3.7-1.9 5.5-.7 1.7-1.6 3.4-2.6 5-.5.8-.1.9.5 1 1.4.1 2.9.2 4.3.4 3.3.4 6.5.8 9.8 1.2.8.1 1.4.5 2 .9s.3 1.1.1 1.7c-.7 2.2-1.7 4.3-2.7 6.4-.8 1.6-.8 1.6.9 1.6 2.1-.1 4.2 0 6.3-.6 1.1-.3 1.9.3 2.6.9.5.5.2 1.7-.6 2.5-.6.7-1.2.8-2 .9-2.3.3-4.5.5-6.8.5-1.3 0-2.5.1-3.8.2-1.4.1-2.5-1.3-2.1-2.7.8-2.4 1.7-4.8 3-7 .1-.1.1-.3.2-.5.5-1.1.4-1.2-.7-1.4-4.1-.7-8.3-.9-12.5-1.2-.7-.1-1.3 0-2-.1-2-.3-2.7-1.9-1.7-3.8 1.3-2.5 3.1-4.6 4.2-7.2.3-.8.6-1.6.9-2.3.2-.5 0-.8-.5-.9-3.4-.7-6.7-1.3-10.2-1.7-1.2-.2-2.3-.5-3.5-.9s-1.5-2-.8-3.3c.3-.6.8-1.1 1.2-1.7.5-.5.9-1 1.4-1.6z"/><path d="m237.3 315c-.3 0-.5 0-.7 0-1.7.1-2.5-1.3-1.8-2.8s2-2.4 3.2-3.4c1.4-1.2 2.7-2.4 4.1-3.6.4-.4.9-.7 1.4-1 1-.6 1.1-.9.2-1.7-2-1.7-4-3.3-6.3-4.6-.7-.4-1.4-.8-2.3-.9-.6-.1-1-.5-1.2-1.2-.3-1.1 0-1.9.9-2.7 2.2-1.8 4.3-3.6 6.4-5.4.9-.8 1.8-1.7 2.7-2.6.4-.4.5-.7 0-1.3-1-1-2.4-1.6-3.5-2.5-1.5-1.3-3.2-2.4-4.7-3.7-.5-.4-.9-.7-1.6-.9-1.4-.4-1.8-2.8-.6-3.8 1.1-.9 2.3-1.7 3.4-2.5 2.4-1.8 4.6-3.8 6.8-5.8.8-.7 1.5-1.6 2.4-2.3.7-.6.5-1.1.1-1.7-1.1-1.6-2.2-3.2-3.2-4.8-1.3-2.1-2.3-4.3-3.3-6.6-.3-.8-.8-1.5-.8-2.5.1-1.1.3-1.6 1.4-1.9 2.7-.5 5.3-1 8-1.6 1.4-.3 2.9-.5 4.3-1 1.2-.4 2.9.1 3.4 1.1.3.5.2 1-.1 1.5-.6.9-1.3 1.4-2.4 1.5-2.7.3-5.3 1.2-8 1.6-.4.1-.8.4-1.2.5s-.2.4-.1.6c1.6 3.9 3.7 7.4 6.9 10.2 1.3 1.2 1.4 1.9.4 3.2-3 3.7-6.4 6.9-10.2 9.8-.8.6-1.6 1.3-2.4 1.9-.5.4-.4.7 0 1 3.1 2.4 6.2 4.7 9.6 6.5.4.2.9.4 1.3.7.9.6 1 1.3.4 2.3s-1.5 1.5-2.3 2.2c-2.7 2.4-5.4 4.7-7.9 7.2-.4.4-.3.6.1.9 2.3 1.3 4.5 3 6.7 4.5.9.6 1.8 1.3 2.8 1.8 1.3.7.9 2.8-.5 3.6-2.8 1.6-5.3 3.7-7.7 5.8-.2.1-.4.3-.3.6.1.2.3.2.5.2 2.8.3 5.5.7 8.3 1 .3 0 .6 0 .9.1.5.1 1.3.2 1.4.8.1.7.1 1.5-.5 2.1s-1.4 1-2.3.8c-3.5-.8-7.1-1-10.6-1.5-.7.3-1.1.3-1.5.3z"/><path d="m214.9 358.8c2.4.2 4.4 1.4 6.6 2.1 1.1.3 2.1.8 3.1 1.4.5.3 1.4.8.6 1.6.4 1-.3 1.2-1 1.5s-1.4.1-2.1 0c-3-.6-5.9-1.5-8.8-2.3-1.8-.5-3.3-1.5-5-2.2-.3-.1-.4-.3-.5-.6-.3-1.5.2-2.5 1.6-3.3 2.7-1.5 5.5-3 8.2-4.5.2-.1.4-.2.6-.4.5-.3.5-.6.1-1-2.3-2.7-5-5-7.9-7.1-.2-.1-.4-.2-.6-.3-1.4-.6-1.8-1.7-1.3-3.2.2-.4.4-.6.8-.8 2-1.2 4-2.2 5.8-3.5.5-.3 1.1-.5 1.6-.8.9-.4.9-.5.1-1.1-1.7-1.4-3.5-2.5-5.3-3.7-1.3-.8-2.4-1.8-3.8-2.4-1-.4-1-2.9-.1-3.5 1.9-1.3 3.5-3.1 5.4-4.4.8-.6 1.6-1.1 2.5-1.6.4-.3.6-.4 0-.8-2-1.7-4.1-3.4-6.3-4.8-1-.6-1.8-1.4-2.9-1.9-1.2-.5-1.2-2.9 0-3.6 2.7-1.7 5.2-3.7 7.8-5.6 1.3-.9 2.7-1.7 4.1-2.4.8-.4 1.7-.4 2.5-.4.9.1 1.6 1.6 1.2 2.4-.5 1-1.2 1.6-2.3 2.1-2.8 1.2-5.1 3.2-7.4 5.2-.4.3-.3.6.1.8 2.8 1.7 5.1 4 8 5.6.8.4 1.6.9 2 1.7.4 1.1-.1 2.4-1.2 3.1-1.6 1-3.2 2.1-4.8 3.1-1.1.7-2.1 1.7-3.1 2.7-.4.3-.4.6.1.9 3 1.8 5.9 3.7 8.8 5.6.7.5 1.6.8 1.9 1.9.2 1.1-.5 2.6-1.5 3.1-2.7 1.2-5.5 2.3-7.7 4.3-.5.4-.5.6 0 1 3.1 2.3 6 4.9 8.8 7.5 1.1 1 .9 2.9-.5 3.7-2.5 1.5-4.9 3.1-7.6 4.4-.1-.1-.5 0-.6.5z"/><path d="m422.4 19.9c-.5-1.1-1.9-1.7-3.1-1.4-.3.1-.6.2-.8.5-1 1.4-2.3 2.5-3.5 3.6-1.5 1.3-2.8 2.8-4.3 4.1-.4.4-.8.5-1-.2-.7-1.9-1.4-3.8-1.9-5.7-.2-.7-.4-1.4-.8-2-.7-1.2-2.8-1.5-3.7-.4-.5.5-1 1.2-1.6 1.4-1.4.5-2.3 1.7-3.4 2.6-1.5 1.1-2.8 2.6-4.2 3.8-1 .8-1.2.8-1.5-.4-1-3.4-2-6.8-3-10.2-.4-1.1-.9-1.7-2.1-1.9-.8-.1-1.5-.1-2.1.6-.1.1-.1.2-.2.2-1-.1-1.8.5-2.7.8-1.4.5-2.8 1.1-4.2 1.6-.6.2-.9.1-.8-.6.1-1.4.2-2.8.3-4.1.2-2.1.5-4.1.6-6.7 0-.5.1-1.5-.7-2.2-.4-.4-.8-.7-1.4-.5-.7.2-1 .7-.9 1.4.1 1.2 0 2.5-.2 3.7-.6 3.9-.7 7.9-1.5 11.8-.3 1.6 1.2 3 2.8 2.5.8-.2 1.5-.5 2.2-.8 2.2-.9 4.5-1.9 6.7-2.8.6-.2.9-.2 1.1.5 1.4 3.8 2.5 7.6 3.4 11.5.3 1.2.7 2.1 1.7 2.8.5.3 1 .4 1.5.1.7-.4 1.2-.9 1.8-1.5 2.7-2.8 5.4-5.7 8.6-8.1.5-.4.7-.4.9.2.6 1.8 1.3 3.5 2 5.3.7 1.6.9 3.4 2.6 4.5.8.5 1.5.5 2.2-.1 1.5-1.4 2.3-3.3 3.7-4.7s2.7-3 4.2-4.3c.3-.3.4-.2.6.1.7 1.3 1.5 2.5 2.3 3.8 1 1.7 2 3.4 3.3 5v-8c-1.1-2.2-2-4-2.9-5.8z"/><path d="m12 16.2c-1.3-.4-2.4-.1-2.9.9-2 3.6-4.2 7-6.6 10.4-.4.5-.6.6-1 0-.5-.7-1-1.5-1.4-2.2v8c.1.2.3.4.4.6 1.3 1.5 2.8 1.3 3.7-.4 1.7-3.3 3.6-6.5 5.5-9.6.8-1.2 1.5-2.6 2.5-3.6.7-.6 1-1.1 1-2-.1-1.5-.2-1.8-1.2-2.1z"/><path d="m133.4 394.6c.7-.1 1.3.3 1.9.9 2.6 2.4 4.8 5.3 7.5 7.6.8.6 1 .7 1.6-.1 1.6-2.1 3.1-4.3 4.6-6.4.8-1.2 1.7-2.3 2.4-3.6.4-.7 1-.7 1.6-.7 1.5-.1 2.2 1 2.9 2.1 1.5 2.5 3.4 4.7 5.1 7.1.6.8.8.8 1.5.1 1.6-1.8 3.2-3.4 4.9-5 1.6-1.5 3.4-2.8 4.6-4.6.2-.3.5-.3.8-.3 1.6-.1 3 .4 3.9 1.8 1.5 2.3 3 4.6 4.4 7 .7 1.2 1.7 2.2 2.2 3.6.4 1-.1 2.7-1 3.2-.4.2-1.6 0-2.1-.4-.9-.7-1.4-1.8-2-2.7-1.1-1.7-2.1-3.4-3.2-5.1-.4-.6-.7-1.1-1.1-1.6-.3-.4-.5-.5-.9-.1-1.9 1.7-3.9 3.3-5.5 5.2-1.4 1.6-2.7 3.3-4.1 4.9-1 1.1-2.2 1.1-3.3 0-1.7-1.8-3.1-3.8-4.5-5.8-.7-.9-1.3-1.8-2-2.7-.4-.5-.6-.6-1 0-2 2.8-3.8 5.6-5.6 8.5-.3.5-.6 1-1 1.4-.9 1.2-1.8 1.4-3 .5-.9-.7-1.7-1.6-2.5-2.4-2-1.8-3.7-3.9-5.6-5.7-1-.9-1-.9-1.4.3-1.2 4-3 7.8-4.9 11.5-.3.6-.7 1.1-1.1 1.7-.5.8-1.3.7-2.1.5-.7-.1-1.2-.7-1.4-1.4-.2-.6-.2-1.1.2-1.7 1.1-1.6 2.1-3.2 3-4.8 1.4-2.5 2.4-5.1 3.1-7.8.3-1.1.8-2.1.8-3.3s.8-1.7 2.3-1.7z"/><path d="m161.8 64c-.7-.2-1.1-.8-1.4-1.6-1.4-3.3-2.2-6.7-3.8-10-.4-.9-.7-1-1.6-.6-2.3 1.2-4.6 2.7-6.9 4-1.2.7-2.5 1.5-3.6 2.3-.6.5-1.2.2-1.8 0-1.4-.6-1.6-1.8-1.8-3-.3-2.9-1.2-5.7-1.7-8.6-.2-1-.4-1.1-1.3-.6-2.1 1-4.3 1.8-6.5 2.6-2.1.7-4.2 1.2-6.1 2.3-.3.2-.6.1-.8 0-1.6-.6-2.5-1.6-2.8-3.3-.4-2.7-.9-5.5-1.2-8.2-.2-1.4-.7-2.7-.6-4.2 0-1.1 1.2-2.4 2.2-2.5.5 0 1.5.7 1.8 1.2.5 1 .5 2.2.7 3.3.3 2 .6 4 .9 6 .1.7.2 1.3.3 2 .1.5.3.7.8.5 2.4-.8 4.9-1.5 7.2-2.5 1.9-.9 3.8-1.9 5.7-2.8 1.3-.7 2.5-.1 3 1.3.8 2.3 1.3 4.7 1.8 7.1.2 1.1.5 2.2.7 3.3.1.6.3.8.9.4 2.9-1.7 5.8-3.6 8.6-5.5.5-.3 1-.6 1.5-.9 1.3-.8 2.2-.6 2.9.8.5 1 .9 2.1 1.3 3.2 1.1 2.5 1.8 5.1 2.8 7.5.5 1.3.6 1.3 1.4.3 2.7-3.2 5.9-5.9 9.2-8.5.5-.4 1.1-.7 1.7-1.1.8-.5 1.5-.1 2.1.4.6.4.8 1.1.7 1.8 0 .6-.3 1.1-.9 1.5-1.6 1-3.2 2-4.7 3.2-2.3 1.7-4.3 3.7-6.1 5.9-.7.9-1.5 1.6-2 2.7-.3.8-1.3.9-2.6.3z"/><path d="m121.7 117c1.6.5 2.2 1.2 1.9 2.1-.4 1.3-1.8 2.2-3 1.8-2-.6-4-.9-6.1-.8-.6 0-1.2.1-1.8.2-.8.1-1.1.5-1 1.3.3 1.7.8 3.4 1.1 5.2.5 2.5 1.5 4.8 2.6 7.1.4.8-.3 2.5-1.4 3-.5.2-1 .4-1.5.4-2.2.3-4.3.8-6.5.8-.7 0-1.4.1-2.1.2-1 .1-1.2.5-.9 1.5.5 1.5 1.2 2.9 1.9 4.3.8 1.5 1.6 3 2.3 4.6.2.4.4.8.8 1.1.5.4.6.8.5 1.5-.3 1.5-1.1 2.2-2.5 2.7-3.5 1.1-7 2.4-10.6 3.4-.4.1-.5.3-.4.7.7 2.6 1.9 5.1 3.2 7.4.8 1.4 1.7 2.7 2.7 3.9l.2.2c1.3 1.4 1.4 1.6.6 3.3-.3.6-.9.8-1.4.9-2.3.3-4.6 1.1-6.8 1.6-1.3.3-1.3.3-.8 1.5s1.1 2.5 2 3.5 2.1 1.8 3.1 2.7c1.3 1.1 2.6 2.2 4.2 3.1.6.3.7.8.4 1.5-.2.5-.5 1-.6 1.5-.1.4-.5.6-.9.8-2.4.7-4.5 1.9-6.5 3.3-.5.4-1.1.5-1.7.8-.3.1-.6.3-.9.5-.5.4-.4.7 0 1.1.5.5 1.1.8 1.7 1.2 1.5 1.2 3 2.5 4.8 3.4.8.4 1.7.7 2.4 1.3.4.4.5.8.2 1.2-.4.5-.3 1.3-.9 1.6-1.1.6-2.1.1-2.9-.4-3.7-2.4-7.5-4.7-11-7.5-.8-.7-1-1.7-.2-2.5.9-.9 1.8-1.8 2.7-2.8.5-.5 1.1-.8 1.8-1 1.8-.5 3.4-1.6 4.9-2.6 1.3-.9 1.2-.9-.1-1.9-2.2-1.6-4.1-3.4-5.4-5.9-.7-1.3-1.9-2.3-2.7-3.6-.4-.6-1-1.2-.8-2 .2-1 .9-1.6 1.8-1.8 2.6-.6 5.2-1.3 7.8-2 .6-.2.8-.4.4-1-1.6-2.3-2.8-4.7-4-7.3-.7-1.6-2-3-2.7-4.6-.5-1-.3-2.1.6-2.7.6-.4 1.2-.7 2-.9 3.7-.8 7.2-2.2 10.8-3.5.6-.2.6-.5.3-1-1.1-2.1-2.3-4.2-3.3-6.3-.9-1.7-1.6-3.4-2.5-5.1-.9-1.8.5-2.9 1.8-3.1 2.8-.4 5.5-.7 8.3-1 .8-.1 1.5-.3 2.3-.5.7-.2.7-.4.5-1-1.1-3.2-2.1-6.4-3-9.7-.3-1.2-.5-2.4-.9-3.6-.5-1.5.7-3 2.3-3 .8 0 1.7.2 2.5.4 1.5.3 2.9 0 4.4 0 2.1-.2 4.2.1 6 .5z"/><path d="m354.4 2.6c1.7.1 2.4.6 2.4 1.6 0 1.4-1.2 2.6-2.4 2.5-2.1-.1-4.1.1-6.1.7-.6.2-1.1.4-1.7.6-.7.3-.9.7-.6 1.5.7 1.6 1.6 3.1 2.4 4.7 1.1 2.3 2.7 4.3 4.3 6.2.6.7.3 2.5-.6 3.2-.4.3-.9.6-1.3.8-2 .8-4 1.9-6.1 2.4-.7.2-1.3.5-1.9.7-.9.4-1.1.8-.5 1.7.8 1.3 1.9 2.6 2.9 3.7 1.1 1.3 2.3 2.5 3.4 3.8.3.4.6.7 1.1.8.6.2.8.6.9 1.3.1 1.5-.5 2.4-1.8 3.2-3.1 2-6.2 4.1-9.4 5.9-.3.2-.4.4-.2.8 1.4 2.3 3.1 4.4 5 6.4 1.1 1.1 2.3 2.2 3.6 3.1.1 0 .1.1.2.2 1.6 1 1.7 1.2 1.4 3.1-.1.7-.6 1-1.1 1.2-2.2.9-4.1 2.2-6.2 3.2-1.1.6-1.1.7-.4 1.7.8 1.1 1.7 2.1 2.8 2.9s2.5 1.2 3.7 1.8c1.6.7 3.1 1.5 4.8 1.9.6.2.9.6.8 1.3-.1.5-.2 1.1-.2 1.6 0 .4-.3.7-.7 1-2.1 1.3-3.9 3-5.5 4.9-.4.5-1 .8-1.5 1.2-.3.2-.5.5-.7.7-.4.5-.2.8.3 1.1.6.3 1.3.5 1.9.8 1.8.8 3.6 1.7 5.5 2.1.9.2 1.8.2 2.6.7.5.3.7.6.5 1.1-.3.6.1 1.3-.5 1.8-.9.9-2 .6-2.9.3-4.2-1.4-8.5-2.6-12.5-4.5-1-.4-1.4-1.4-.9-2.3.6-1.1 1.3-2.2 2-3.4.4-.6.9-1.1 1.5-1.4 1.7-1 2.9-2.4 4.1-3.8 1-1.2 1-1.2-.5-1.8-2.5-1-4.8-2.3-6.7-4.3-1-1.1-2.4-1.8-3.5-2.8-.5-.5-1.2-.9-1.3-1.7-.1-1 .5-1.8 1.3-2.2 2.4-1.3 4.7-2.5 7-3.9.6-.3.7-.5.1-1-2.1-1.8-3.9-3.9-5.7-6-1.1-1.4-2.6-2.4-3.8-3.8-.7-.8-.8-2-.1-2.8.5-.5 1-1 1.7-1.3 3.4-1.7 6.4-3.9 9.5-6.1.5-.4.4-.6 0-1-1.6-1.8-3.2-3.5-4.8-5.3-1.2-1.4-2.4-2.9-3.7-4.3-1.3-1.5-.2-3 1-3.5 2.6-1.1 5.2-2.1 7.8-3.1.7-.3 1.4-.7 2.1-1 .6-.3.6-.6.2-1.1-1.9-2.8-3.7-5.7-5.3-8.6-.6-1.1-1.1-2.2-1.8-3.3-.8-1.3-.1-3.1 1.4-3.5.8-.2 1.6-.3 2.5-.3 1.5 0 2.8-.7 4.2-1.1 2.1-.8 4.2-.9 6-1z"/><path d="m120.3 229.4c.2 1.6.5 3.1.8 4.6.4 1.9.8 3.8 1 5.7.3 2-1.3 3.3-3.2 2.5-3-1.2-6-2.5-9-3.8-.8-.4-1.7-.7-2.6-1.1.2 1.1.7 1.9 1.1 2.8 1.3 2.7 2.8 5.2 4.3 7.7.6 1.1.3 2.1-.7 2.8-1.6 1.3-3.4.7-5.1.7-.8 0-1.5-.2-2.3.1-.2.1-.4 0-.6-.1-.6-.2-1.2-.3-1.9-.2.3.6.8.9 1.2 1.3 1.2 1 2.5 2 3.7 3 1 .9 1.2 2.2.6 3.3-.7 1.2-2.4 1.3-3.2.2-1.7-2.5-4.2-4-6.7-5.5-1.5-.9-3-1.9-3.8-3.5-.4-.7-.1-1.8.5-2.6.4-.6 1.2-.7 1.8-.6 1.5.3 3.1.3 4.6.3 1.9 0 3.9.1 5.8-.1.8-.1.8-.4.5-1-.9-1.7-1.9-3.4-2.7-5.1-1-2.2-1.9-4.4-2.4-6.8-.2-.8.3-1.6.8-2.1.6-.7 1.6-.6 2.4-.2 3.6 1.6 7.1 3.3 10.8 4.6.5.2 1.1.5 1.4.3.4-.4 0-1-.1-1.4-.7-2.9-1.1-5.8-1.7-8.7-.2-.9-.1-1.7.5-2.4.7-1 2.1-1.3 3.1-.6 1.7 1.1 3.3 2.3 5 3.3 2.1 1.2 4.1 2.4 6.1 3.6.8.5.9.4 1.1-.6.3-2.3.4-4.7.5-7 .1-1.8 0-3.6 1-5.3.6-1 2.2-1.2 3-.4 2.2 2.2 4.5 4.4 6.7 6.6 1.1 1.1 2.2 2.3 3.4 3.4 1 .8 1.3.8 1.8-.4.9-2.2 2-4.3 3.5-6.1.6-.7 1-1.8 2.1-2.1.9-.2 2.4.6 2.5 1.5.1.8-.1 1.6-.6 2.1-2.2 2.3-3.6 4.9-4.8 7.8-.3.7-.8 1.3-1.1 2.1-.4.9-1.7 1.2-2.6.8-1.8-.9-3.2-2.3-4.6-3.7-1.8-1.8-3.5-3.5-5.3-5.3-.2-.2-.4-.5-.7-.4s-.3.5-.3.8c-.1 1.8-.2 3.6-.4 5.4-.2 1.9-.4 3.8-.8 5.6-.2 1-1.6 1.7-2.6 1.3-1.7-.8-3.1-1.8-4.5-2.9-1.5-1.1-3.1-2.1-4.8-3-.8-.4-1.5-.9-2.5-1.2z"/><path d="m125.8 358.7c-.1-1.6-.3-3.1-.5-4.7-.3-1.9-.6-3.8-.7-5.8-.2-2 1.5-3.2 3.4-2.3 3 1.4 5.9 2.8 8.8 4.3.8.4 1.7.8 2.6 1.2-.1-1.1-.6-2-1-2.9-1.1-2.7-2.6-5.3-3.9-7.9-.6-1.1-.2-2.1.8-2.8 1.7-1.2 3.4-.5 5.1-.5.8 0 1.5.3 2.3 0 .2-.1.4 0 .6.1.6.3 1.2.3 1.9.3-.3-.6-.7-1-1.2-1.4-1.2-1.1-2.4-2.1-3.6-3.2-1-.9-1.1-2.2-.4-3.3.7-1.2 2.5-1.2 3.2 0 1.6 2.5 4 4.2 6.4 5.8 1.5 1 2.9 2.1 3.6 3.7.4.8 0 1.8-.6 2.6-.4.6-1.2.7-1.8.5-1.5-.4-3.1-.4-4.6-.5-1.9-.1-3.8-.3-5.8-.2-.8.1-.8.4-.6 1 .8 1.8 1.7 3.5 2.4 5.3.9 2.2 1.6 4.5 2 6.9.1.8-.4 1.5-.9 2-.7.7-1.6.5-2.4.1-3.5-1.8-6.9-3.7-10.6-5.1-.4-.2-1-.6-1.4-.3s0 1 .1 1.5c.6 2.9.8 5.8 1.3 8.7.1.9 0 1.7-.6 2.4-.8.9-2.1 1.2-3.1.5-1.6-1.2-3.1-2.4-4.8-3.5-2-1.3-3.9-2.6-5.9-3.9-.8-.5-.9-.4-1.1.5-.4 2.3-.6 4.6-.8 7-.2 1.8-.2 3.6-1.3 5.2-.7 1-2.2 1.1-3 .2-2.1-2.3-4.2-4.6-6.4-6.9-1.1-1.2-2.1-2.5-3.3-3.6-.9-.9-1.3-.9-1.8.3-1 2.2-2.2 4.2-3.8 5.9-.7.7-1.1 1.7-2.2 2-.9.2-2.4-.7-2.4-1.6 0-.8.2-1.5.7-2.1 2.3-2.1 3.8-4.7 5.2-7.5.3-.7.8-1.3 1.2-2 .5-.9 1.8-1.1 2.6-.6 1.8 1 3.1 2.5 4.4 4 1.7 1.8 3.3 3.7 5 5.6.2.2.4.5.7.4s.3-.5.3-.8c.2-1.8.4-3.6.7-5.4.3-1.9.6-3.8 1.1-5.6.3-1 1.7-1.6 2.6-1.1 1.6.8 3 2 4.4 3.1 1.5 1.2 3 2.3 4.6 3.3.8.2 1.5.8 2.5 1.1z"/><path d="m152.4 254.2c1.5 1.6 3.1 3.1 4.7 4.6.5.5.8.5 1.3-.1 1.8-2.6 3.4-5.4 5.6-7.8 1.5-1.7 2.9-3.4 4.8-4.7 1.2-.8 2.5-.8 3.5 0 .4.3.6.8.6 1.3.4 3 1.7 5.6 2.7 8.4.6 1.6 1.2 3.1 1.7 4.7.2.4.1.8-.2 1.1-.5.5-.9 1.2-1.7 1.2-1-.1-1.9-.6-2.3-1.6-.9-2.3-1.8-4.7-2.7-7-.3-.7-.8-1.3-.9-2.2-.1-.7-.5-.5-.8-.2-.9 1-1.7 2.1-2.6 3-2.2 2.2-3.5 5.1-5.5 7.4-.5.5-.6 1.3-1.2 1.7-1 .6-2.1.5-3-.3-2.5-2.1-5-4.2-7.1-6.7-.8-1-1-.8-1.5.3-1.4 3.2-2.5 6.6-3.8 9.8-.4 1-.9 2-1.4 2.9s-1.3 1.2-2.3.9c-2-.6-3.6-1.8-5.3-2.8s-3.2-2.2-4.7-3.4c-.7-.6-.9-.3-1.1.4-.4 1.5-.8 3-1.3 4.5-1.1 3.4-2.2 6.8-3.2 10.1-.3.8-.8 1.4-1.3 2-.6.6-1.2.1-1.8-.1-2.2-1.1-4.2-2.4-6.2-3.8-1.5-1-1.5-1-1.8.7-.4 2.2-.9 4.5-.7 6.8.1 1.2-.7 1.9-1.5 2.6-.6.5-1.8-.1-2.6-1-.6-.7-.5-1.4-.5-2.2.2-2.4.4-4.8.8-7.2.3-1.3.4-2.7.5-4 .1-1.5 1.9-2.4 3.2-1.8 2.4 1.2 4.7 2.5 6.7 4.2.1.1.3.2.4.3 1 .6 1.2.6 1.6-.5 1.6-4.2 2.6-8.7 3.9-13 .2-.7.3-1.4.5-2.1.7-2.1 2.6-2.6 4.3-1.3 2.3 1.7 4.2 3.9 6.7 5.5.7.5 1.5.9 2.3 1.3.5.2.8.1 1-.4 1.4-3.5 2.8-6.9 3.9-10.5.4-1.2 1-2.4 1.7-3.5.7-1.2 2.4-1.3 3.6-.4.6.4 1 1 1.5 1.5.5.4 1 .9 1.5 1.4z"/><path d="m360.8 351.3c1.6.4 3.1.6 4.6.8 1.9.3 3.8.5 5.7.9 2 .4 2.6 2.3 1.3 3.9-2.1 2.5-4.4 4.8-6.5 7.2-.6.7-1.2 1.4-1.9 2.1 1.1.2 2.1 0 3-.1 2.9-.3 5.8-1 8.7-1.5 1.2-.2 2 .4 2.4 1.6.7 1.9-.5 3.4-1 5.1-.2.7-.7 1.4-.6 2.2 0 .2-.1.4-.3.5-.4.5-.7 1.1-.8 1.8.7-.1 1.1-.4 1.6-.7 1.4-.9 2.7-1.7 4.1-2.5 1.2-.7 2.5-.4 3.3.5.9 1.1.5 2.7-.9 3.1-2.9.8-5.1 2.7-7.4 4.5-1.4 1.1-2.8 2.2-4.5 2.5-.8.1-1.8-.5-2.3-1.3-.4-.6-.3-1.4 0-1.9.8-1.3 1.3-2.8 1.8-4.3.7-1.8 1.4-3.6 1.8-5.5.2-.8-.2-.9-.8-.8-1.9.3-3.8.7-5.7.9-2.4.3-4.8.3-7.2 0-.8-.1-1.4-.8-1.7-1.5-.4-.8 0-1.7.6-2.3 2.7-2.8 5.5-5.6 7.9-8.7.3-.4.8-.8.7-1.2-.2-.5-.9-.3-1.4-.3-2.9-.3-5.8-.8-8.7-1.2-.9-.1-1.6-.4-2.1-1.2-.7-1-.5-2.4.4-3.1 1.6-1.2 3.2-2.3 4.7-3.6 1.8-1.6 3.6-3.1 5.4-4.6.7-.6.7-.8-.2-1.2-2.1-1.1-4.3-1.9-6.4-2.7-1.7-.7-3.4-1.2-4.6-2.7-.8-.9-.4-2.4.6-3 2.8-1.4 5.6-2.8 8.4-4.1 1.4-.7 2.9-1.3 4.3-2.1 1.1-.6 1.2-1 .2-1.8-1.8-1.6-3.4-3.3-4.6-5.4-.5-.8-1.3-1.5-1.3-2.7.1-.9 1.4-2.1 2.2-1.8.7.2 1.4.6 1.8 1.3 1.4 2.8 3.5 5 5.8 7.1.6.5 1 1.2 1.6 1.7.7.7.6 2-.1 2.7-1.5 1.4-3.3 2.3-5 3.1-2.2 1.1-4.5 2.2-6.8 3.3-.2.1-.6.2-.6.6 0 .3.4.4.6.5 1.7.7 3.3 1.4 5 2.2s3.4 1.6 5 2.6c.9.6 1.1 2.1.3 2.9-1.3 1.3-2.8 2.3-4.2 3.3-1.6 1.1-3 2.3-4.5 3.5-.3.1-1.1.5-1.7 1.4z"/><path d="m389.8 271.2c1.5 1.6 3.1 3.1 4.7 4.6.5.5.8.5 1.3-.1 1.8-2.6 3.4-5.4 5.6-7.8 1.5-1.7 2.9-3.4 4.8-4.7 1.2-.8 2.5-.8 3.5 0 .4.3.6.8.6 1.3.4 3 1.7 5.6 2.7 8.4.6 1.6 1.2 3.1 1.7 4.7.2.4.1.8-.2 1.1-.5.5-.9 1.2-1.7 1.2-1-.1-1.9-.6-2.3-1.6-.9-2.3-1.8-4.7-2.7-7-.3-.7-.8-1.3-.9-2.2-.1-.7-.5-.5-.8-.2-.9 1-1.7 2.1-2.6 3-2.2 2.2-3.5 5.1-5.5 7.4-.5.5-.6 1.3-1.2 1.7-1 .6-2.1.5-3-.3-2.5-2.1-5-4.2-7.1-6.7-.8-1-1-.8-1.5.3-1.4 3.2-2.5 6.6-3.8 9.8-.4 1-.9 2-1.4 2.9s-1.3 1.2-2.3.9c-2-.6-3.6-1.8-5.3-2.8s-3.2-2.2-4.7-3.4c-.7-.6-.9-.3-1.1.4-.4 1.5-.8 3-1.3 4.5-1.1 3.4-2.2 6.8-3.2 10.1-.3.8-.8 1.4-1.3 2-.6.6-1.2.1-1.8-.1-2.2-1.1-4.2-2.4-6.2-3.8-1.5-1-1.5-1-1.8.7-.4 2.2-.9 4.5-.7 6.8.1 1.2-.7 1.9-1.5 2.6-.6.5-1.8-.1-2.6-1-.6-.7-.5-1.4-.5-2.2.2-2.4.4-4.8.8-7.2.3-1.3.4-2.7.5-4 .1-1.5 1.9-2.4 3.2-1.8 2.4 1.2 4.7 2.5 6.7 4.2.1.1.3.2.4.3 1 .6 1.2.6 1.6-.5 1.6-4.2 2.6-8.7 3.9-13 .2-.7.3-1.4.5-2.1.7-2.1 2.6-2.6 4.3-1.3 2.3 1.7 4.2 3.9 6.7 5.5.7.5 1.5.9 2.3 1.3.5.2.8.1 1-.4 1.4-3.5 2.8-6.9 3.9-10.5.4-1.2 1-2.4 1.7-3.5.7-1.2 2.4-1.3 3.6-.4.6.4 1 1 1.5 1.5.6.4 1 .9 1.5 1.4z"/><path d="m157.6 287.8c.3.2.4.3.6.4 1.3 1.1 1.1 2.6-.5 3.3-1.5.7-3.1.5-4.6.5-1.8 0-3.6 0-5.5.1-.6 0-1.1 0-1.7-.2-1.1-.2-1.4 0-1.2 1.1.4 2.6.9 5.2 1.8 7.6.3.8.5 1.6 1.2 2.2.4.4.5 1 .2 1.7-.5 1-1.2 1.5-2.4 1.5-2.8-.1-5.6 0-8.4 0-1.2 0-2.5.1-3.7.2-.6 0-.8.3-.8 1 .1 1.5.8 2.8 1 4.2.3 2 .8 3.9 1.2 5.8.1.6.3 1.1.6 1.7.8 1.2-.4 3.3-2 3.2-1.4 0-2.8-.2-4.2-.3-3-.2-5.9-.1-8.9 0-1.1 0-2.2.2-3.3.2-.9 0-1.1.5-1.2 1.2-.2 1.9-.4 3.8-.7 5.8-.3 2.4-1 4.8-1.8 7.1-.3.8-.4 1.7-1 2.4-.8.8-1.3 1-2.3.5-2.4-1.3-4.7-2.7-7.1-4-1.3-.7-2.5-1.5-3.9-2-1.2-.5-2.1-2-1.9-3.1.1-.6.5-.9 1-1.1 1-.3 1.9-.2 2.8.4 2.2 1.6 4.8 2.5 7.1 4 .4.2.8.2 1.2.4.3.2.4-.2.4-.4 1.4-4 2-8.1 1.4-12.3-.2-1.8.2-2.4 1.8-2.7 4.7-.9 9.4-1.1 14.1-.9 1 0 2 .1 3 .1.6 0 .8-.2.7-.8-.8-3.8-1.7-7.6-3.1-11.2-.2-.5-.4-.9-.5-1.4-.3-1.1.1-1.7 1.2-2 1.1-.4 2.1-.1 3.2-.1 3.6-.1 7.1-.1 10.7-.3.6 0 .7-.3.5-.8-.9-2.5-1.5-5.2-2.2-7.7-.3-1.1-.5-2.2-.9-3.2-.5-1.4 1.1-2.8 2.7-2.4 3.2.6 6.4.6 9.6.5.2 0 .5 0 .6-.2s-.1-.4-.3-.5c-1.9-2.1-3.8-4.1-5.7-6.2-.2-.2-.4-.4-.6-.6-.3-.5-.9-1-.5-1.5.4-.6.9-1.2 1.7-1.2.9 0 1.7.1 2.3.9 2.2 2.9 4.7 5.4 7.1 8 .5.6.9.9 1.2 1.1z"/><path d="m424.9 393.9c0 .4.1.7.3 1v-2.4c-.2.4-.3.8-.3 1.4z"/><path d="m2.3 362.1c.5-1.3 1.1-2.6 1.5-3.9.5-1.5-1.1-3.3-2.5-2.9-.5.1-.9.1-1.3.1v13.8c.7-2.4 1.4-4.8 2.3-7.1z"/><path d="m13.1 383.3c-.5-.8-1.3-1.2-2-1.7-2-1.4-4-2.8-6.3-3.9-1.6-.8-3.2-1.5-4.9-2.2v4.7c2.6.9 5.1 2.3 7.4 4 .2.1.5.3.2.5-.3.3-.5.7-.8 1-2.1 1.7-3.8 3.9-5.9 5.5-.4.3-.7.7-.9 1.1v2.4c.1.1.2.2.4.3 1 .5 2.7.1 3.5-.9.9-1.2 2-2.1 3.1-3.1 2-1.9 4-3.7 5.9-5.6.9-.6.8-1.1.3-2.1z"/><path d="m424.8 375.3c-.7-.3-1.1-.7-.8-1.5.3-1 .5-2.1.8-3.2.1-.5.3-1 .4-1.5v-13.8c-.1 0-.3 0-.4 0-2-.2-4-.3-5.9-.6-1.4-.2-2.9 0-4.3-.3-.7-.2-.8-.5-.7-1.1.3-1.2.6-2.4.9-3.6.8-2.7 1.6-5.4 2.6-8 .4-1.1.2-1.9-.6-2.8-.5-.5-1.1-.6-1.6-.4-.8.4-1.6.4-2.4.4-2.6.1-5.2-.2-7.8-.6-1.1-.2-1.3-.5-.7-1.5.3-.5.5-1 .7-1.6.5-1.7 1.1-3.5 1.6-5.2.4-1.5 1.1-2.9.9-4.5-.2-1.7-1.6-2.4-3-1.5-.2.1-.3.2-.6.4s-.7.5-1.2.7c-3.3 1.5-6.4 3.1-9.8 4.3-.9.3-1.3 1.1-1.6 1.9-.2.8.2 1.5.7 2 .4.5 1.1.1 1.6 0 .3-.1.5-.2.8-.3 2.5-1.2 5.1-2.3 7.6-3.5.2-.1.4-.2.6-.1.2.2.1.4 0 .6-.9 3.1-1.9 6.2-3.4 9-.8 1.5 0 3.5 1.5 3.4 1.1-.1 2.2 0 3.4.1 2.7.1 5.4.4 8 .3.5 0 .7.1.6.7-.8 3.5-1.9 6.9-2.9 10.3-.3 1-.9 2-.8 3.1 0 1.1.5 1.7 1.6 1.7.5 0 1 0 1.5-.1 3.9-.3 7.7 0 11.6.4.6.1.8.3.6.9-.4.9-.7 1.9-1 2.8-1.6 4.4-2.9 9-3.5 13.7-.2 1.7.3 2.3 2 2.6 1.3.2 2.6.6 3.9 1v-4.7c-.6.2-.8.2-.9.1z"/><path d="m214.7 268.7c-1.3-2-1.7-4.3-2.5-6.5-.4-1-.7-2.1-.8-3.2-.1-.6-.3-1.6.9-1.5.5-.9 1.2-.6 1.8-.2.7.4 1 1 1.3 1.7 1.4 2.7 2.5 5.5 3.7 8.3.7 1.7.9 3.5 1.4 5.3.1.3 0 .5-.2.7-1 1.2-2.1 1.4-3.5.8-2.9-1.2-5.8-2.4-8.7-3.5-.2-.1-.4-.1-.7-.2-.5-.2-.8 0-.9.6-.7 3.5-.8 7-.6 10.6 0 .2 0 .5.1.7.4 1.5-.2 2.5-1.7 3-.4.1-.7 0-1.1-.1-2.1-.8-4.2-1.7-6.4-2.3-.6-.2-1.1-.5-1.6-.8-.9-.5-1-.5-1 .6-.1 2.2.2 4.3.5 6.5.2 1.5.1 3 .5 4.5.3 1-1.6 2.6-2.7 2.3-2.2-.7-4.6-.8-6.9-1.4-.9-.3-1.9-.6-2.8-.9-.4-.1-.7-.2-.7.5 0 2.7-.1 5.3.2 7.9.1 1.2.1 2.3.4 3.5s-1.5 2.7-2.8 2.3c-3-1.1-6.2-1.7-9.2-2.6-1.5-.4-3-1.1-4.5-1.7-.8-.3-1.4-1-1.9-1.7-.5-.8.3-2.2 1.2-2.4 1.1-.2 2-.1 3.1.5 2.7 1.4 5.7 2 8.7 2.5.5.1.6-.1.6-.6-.4-3.2-.1-6.5-.7-9.7-.2-.9-.3-1.8.1-2.6.6-1 2-1.4 3.2-1.1l5.4 1.8c1.3.4 2.7.5 4 .7.5.1.7-.1.7-.7-.4-3.5-.9-6.9-1.2-10.4-.1-.9-.4-1.8.3-2.6s2.4-1.3 3.3-.8c2.6 1.4 5.2 2.8 8.2 3.3.6.1.8 0 .8-.6-.1-3.9.1-7.7.3-11.6.1-1.5 1.7-2.5 3.2-1.9 2.7 1 5.5 1.9 8.1 3.2.4-.2.7 0 1.1-.2z"/><path d="m334.1 369.7c-1.5.8-2.4.7-2.8-.2-.6-1.2-.2-2.8.9-3.4 1.8-.9 3.5-2.1 4.9-3.6.4-.4.8-.9 1.2-1.4.5-.6.5-1.1-.2-1.6-1.4-1.1-2.9-2-4.4-3-2.1-1.5-4.4-2.4-6.8-3.3-.9-.3-1.5-2-1.1-3.1.2-.5.5-.9.8-1.3 1.4-1.7 2.5-3.6 4.1-5.1.5-.5.9-1 1.3-1.6.6-.8.5-1.2-.4-1.7-1.4-.8-2.9-1.3-4.4-1.8-1.6-.6-3.2-1.1-4.8-1.7-.4-.2-.9-.3-1.3-.2-.6.1-1-.1-1.4-.7-.8-1.3-.7-2.4 0-3.7 1.8-3.2 3.4-6.6 5.2-9.8.2-.3.2-.6-.2-.8-2.4-1.4-4.9-2.4-7.5-3.1-1.5-.4-3.1-.8-4.7-.9-.1 0-.2 0-.3 0-1.9-.1-2.1-.2-2.8-2-.2-.6.1-1.2.4-1.6 1.5-1.8 2.6-3.9 3.8-5.9.7-1.1.7-1.1-.5-1.6s-2.5-1-3.9-1.1-2.8.1-4.1.2c-1.7.1-3.4.2-5.1.7-.6.2-1.1-.1-1.3-.8-.2-.5-.3-1-.6-1.5-.2-.4-.1-.8.1-1.2 1.2-2.2 1.9-4.5 2.4-6.9.1-.6.4-1.2.7-1.8.2-.3.2-.7.2-1 .1-.7-.2-.8-.8-.8-.7 0-1.4.2-2 .3-2 .2-3.9.3-5.8.9-.9.3-1.7.7-2.6.7-.6 0-.9-.2-1-.8 0-.6-.7-1.1-.5-1.8.4-1.2 1.4-1.5 2.4-1.7 4.3-.9 8.7-1.8 13.1-2.2 1.1-.1 1.9.5 1.9 1.6 0 1.3-.1 2.6-.1 3.9 0 .7-.3 1.4-.6 2-1 1.6-1.4 3.5-1.7 5.3-.3 1.5-.3 1.5 1.3 1.3 2.7-.3 5.3-.3 8 .5 1.4.4 3 .4 4.4.8.7.2 1.5.2 2 .9.6.9.5 1.8-.1 2.6-1.4 2.3-2.9 4.5-4.2 6.9-.3.6-.3.8.4 1 2.7.6 5.3 1.5 7.9 2.5 1.7.7 3.5.8 5.2 1.4 1 .4 1.7 1.3 1.4 2.4-.2.7-.4 1.4-.8 2-2.1 3.1-3.7 6.6-5.3 10-.3.6 0 .8.5.9 2.3.7 4.5 1.5 6.8 2.3 1.8.6 3.5 1.3 5.3 1.9 1.9.7 1.7 2.5.8 3.5-1.7 2.2-3.5 4.4-5.3 6.5-.5.6-.9 1.3-1.3 1.9s-.2.8.4 1.1c3 1.5 6 3.1 8.8 4.9 1 .7 2.1 1.4 3.1 2 1.3.7 1.6 2.6.5 3.8-.6.6-1.3 1-2 1.5-1.3.8-2.1 2-3.2 3-1 1.3-2.8 2.6-4.3 3.5z"/><path d="m140.2 120.4c.5.1.9.3 1.3.7 1.8 1.7 3.9 3.2 5.8 4.8 1 .9 2 1.8 3.2 2.4.7.4.7 1.4.2 2.3-1 1.6-2.5 2.6-3.9 3.7-2.1 1.7-4.2 3.5-6.4 5.2-.7.5-.2.9.2 1.2 2.1 1.5 3.7 3.5 5.7 5 1.1.8 2.2 1.7 3.4 2.3 1.5.8 1.6 2.5.1 3.5-.7.5-1.5.9-2.2 1.3-2.9 1.4-5.5 3.3-7.9 5.4-.9.8-1 1.1-.3 2 1.4 2 2.4 4.2 4 6 .8.9 1.5 1.8 2.5 2.6.7.6 1.5 1.2 1.1 2.3s-1.3 1.5-2.3 1.7c-2 .3-4 .3-5.9.8-1.2.3-2.4.5-3.5.8-.9.2-1.1.5-.7 1.3 1.5 3 3.1 6 4.6 9 .5.9.9 1.9 1.5 2.7.7 1.1-.5 2.7-1.9 2.8-2.9.2-5.7.2-8.6.3-1.5.1-3 .4-4.4.7-.4.1-.7.2-.5.9 1.3 3.4 2.4 6.8 3.9 10.2.4.9-.4 2.3-1.5 2.5-1.5.2-2.3-.4-2.7-1.9-.5-2-1.3-3.9-2.1-5.9-.9-2.2-1.7-4.3-2.9-6.4-.7-1.2 0-2.5 1.5-2.9 3-.7 6.1-.9 9.2-1.1 1.4-.1 2.7-.2 4.1-.3.6 0 .7-.2.4-.8-1.7-3.5-3.6-6.8-5.7-10-.4-.6-1-1.1-1.1-1.9-.2-1.6.6-2.1 1.8-2.3 3.3-.5 6.5-1.3 9.7-2 .9-.2.9-.3.3-1-2-2.8-4.1-5.4-6.3-8.1-.9-1.1-1-2.6.7-3.2.6-.2 1.1-.7 1.6-1.1 2.5-2.1 5.2-4.1 7.9-5.9.6-.4.7-.7.1-1.2-2.7-2.1-5.2-4.4-8-6.3-.7-.4-1.3-.9-1.7-1.7-.5-1.1-.3-1.6.6-2.3 3.3-2.5 6.5-5.1 9.6-7.8.9-.8.9-.9 0-1.6-2.2-1.9-4.5-3.8-7-5.4-.7-.4-.8-1.2-.4-2.2.3-.7 1.2-1.2 2-1.1.5-.1.7-.1.9 0z"/><path d="m88 223.4c-.1.7-.7 1.1-1.4 1.6-3.1 1.7-6.5 2.9-9.5 4.8-.8.5-.9.8-.4 1.6 1.5 2.2 3.1 4.3 4.7 6.4.8 1.2 1.7 2.3 2.7 3.3.5.5.4 1.1.2 1.8-.4 1.5-1.6 1.8-2.8 2.1-2.9.6-5.6 1.8-8.3 2.6-1 .3-1 .5-.5 1.4 1.2 2 2.3 4.1 3.3 6.2.9 2 1.6 4.1 3 5.8.2.2.1.5.1.8-.4 1.6-1.3 2.7-3 3.2-2.7.7-5.3 1.4-8.1 2-1.4.3-2.7.9-4.1 1-1.1.1-2.5-.9-2.8-1.9-.1-.5.5-1.6 1-1.9 1-.6 2.1-.8 3.2-1.1 1.9-.5 3.9-1 5.9-1.5.6-.2 1.3-.4 1.9-.5.4-.1.6-.3.4-.8-1.1-2.3-2-4.7-3.3-6.8-1.1-1.8-2.3-3.6-3.4-5.4-.8-1.3-.4-2.5 1-3.1 2.2-1.1 4.6-1.8 6.9-2.5 1.1-.3 2.1-.7 3.2-1.1.6-.2.7-.3.3-.9-2-2.7-4.2-5.3-6.4-8-.4-.4-.7-.9-1.1-1.4-.9-1.2-.8-2.1.5-3 1-.6 2-1.1 3-1.7 2.3-1.3 4.8-2.3 7.2-3.6 1.2-.7 1.2-.7.1-1.4-3.5-2.4-6.5-5.2-9.4-8.2-.5-.5-.9-1-1.3-1.5-.6-.8-.2-1.5.1-2.2.4-.7 1.1-.9 1.8-.9.6-.1 1.1.2 1.6.7 1.2 1.5 2.4 3 3.7 4.4 1.9 2.1 4.1 3.9 6.5 5.4.9.6 1.8 1.4 2.9 1.7.9.3 1.1 1.2.6 2.6z"/><path d="m32.7 212.1c.4-.6 1.1-.8 1.9-.9 3.5-.3 7.1-.1 10.6-.5 1-.1 1.2-.3 1-1.3-.5-2.6-1.2-5.2-1.7-7.8-.3-1.4-.6-2.8-1.1-4.2-.3-.7.1-1.2.6-1.7 1-1.2 2.2-1 3.4-.8 2.9.6 5.8.6 8.7 1 1 .1 1.1 0 1-1-.3-2.3-.4-4.7-.5-7 0-2.2.2-4.4-.4-6.5-.1-.3.1-.5.3-.8 1-1.3 2.3-1.9 4-1.7 2.7.4 5.5.8 8.2 1.4 1.4.3 2.8.2 4.2.7 1 .4 2 1.9 1.7 2.9-.1.5-1.1 1.2-1.7 1.3-1.1.2-2.2-.1-3.3-.3-2-.3-4-.7-6-1-.7-.1-1.3-.2-2-.3-.5-.1-.7 0-.7.6.1 2.5-.1 5.1.2 7.6.3 2.1.7 4.2 1 6.3.2 1.5-.7 2.4-2.2 2.5-2.5.1-4.9-.2-7.3-.5-1.1-.1-2.2-.2-3.4-.3-.6-.1-.8 0-.7.7.7 3.3 1.7 6.6 2.6 9.9.2.6.3 1.1.4 1.7.3 1.5-.1 2.3-1.7 2.5-1.1.2-2.3.2-3.4.3-2.7.3-5.4.2-8 .4-1.4.1-1.4.1-.7 1.3 2.2 3.6 3.8 7.4 5.3 11.3.2.6.4 1.3.5 1.9.2.9-.4 1.5-1 1.9-.6.5-1.3.4-2 .1-.6-.2-1-.6-1.2-1.3-.5-1.8-1-3.7-1.6-5.5-.9-2.7-2.2-5.2-3.8-7.6-.6-.9-1.1-2-1.9-2.8-.5-.5-.3-1.5.7-2.5z"/><path d="m30.7 14.6c3.1 2.1 6.2 3.9 9.2 5.7.3.2.6.3.9.5 1.2.5 1.6 2.1.9 3.2-1.1 1.6-2.5 2.8-4.1 4-2.4 1.8-4.8 3.5-7.2 5.2-.6.4-.5.7.1 1 2.4 1.4 4.8 2.7 7.5 3.5 1.4.4 2.4 1.2 2.9 2.7.2.6-.6 2.1-1.3 2.3-.7.1-1.4.1-2.1-.3-1.7-1.1-3.5-1.7-5.3-2.5-2.4-1.1-4.8-2.3-7-3.8-1.5-1-1.5-1.7-1-3.4.1-.2.3-.4.5-.6 3.8-2.5 7.3-5.3 10.8-8.2.9-.7.8-1 0-1.6-2.9-2.1-6.1-3.7-9.1-5.4-1.5-.9-1.9-2-1.2-3.5.1-.2.2-.4.4-.5 2.3-1.3 4.4-2.7 6.4-4.5 1.3-1.1 2.5-2.5 3.7-3.7.8-.8 1.7-.4 2.5 0 .7.4 1.1 1 1 1.8 0 .3-.2.6-.4.8-2.3 2.4-4.6 4.8-7.5 6.6-.2.3-.4.5-.6.7z"/><path d="m184 100.1c1.1.4 1.6 1.3 1.6 2.4.1 3.2.1 6.3 1 9.4.5 1.5.8 3 1.7 4.3.4.5.4 1-.1 1.6-.7.8-1.5 1.2-2.5 1.5-2.5.8-5 1.1-7.5 1-1.4 0-2.9 0-4.4 0 .5 1.7 1.4 3.1 2.2 4.6.6 1.2 1.4 2.4 2.1 3.6.9 1.4.3 3.1-1.3 3.6-2 .6-4.1.8-6.2.9-.4 0-.8 0-1.2.1-.4 0-.9-.1-1 .3-.1.3.4.6.7.9 1.9 1.9 3.9 3.7 5.8 5.7.8.8 1.4 1.7 2.1 2.5.6.7.6 1.4.2 2.2-.4.9-1.1 1.6-1.8 2.3-1.9 1.8-3.9 3.7-5.8 5.5-.5.5-.9 1-1.4 1.6-.3.3-.3.6.2.8 1.6.6 3.1 1.3 4.7 1.7 1.5.4 3 1 4.6 1.3.3.1.6.2.8.2 1.5-.2 2.3.8 3 1.9.3.5.5 1.1-.3 1.4-.4.2-.7.7-1.1 1-.6.4-1.1.4-1.7.2-2.7-1.1-5.5-1.9-8.3-2.6-1.7-.4-3.4-1-5.1-1.7-1-.4-1.7-1.2-2.4-1.8-.5-.4-.4-1.4 0-2 1.9-2.6 4-5.2 6.4-7.4 1-.9 1.9-1.9 2.8-2.8.5-.5.5-.9 0-1.4-1.8-1.7-3.8-3.3-5.7-5-1.5-1.4-3.2-2.4-4.6-4-.9-1-1.3-2.4-.3-3.6.6-.7 1.3-1.1 2.2-1 1.9.2 3.7-.4 5.5-.6 1.1-.1 2.1-.3 3.2-.4.6-.1.8-.2.4-.8-1.3-2.5-2.6-5-3.9-7.5-.5-1-.6-2.1.1-2.9.6-.7 1.5-1.1 2.6-.9 1 .2 2.1.3 3.2.1.4-.1.8 0 1.1 0 2.5.4 4.9-.1 7.4-.4.5-.1.6-.3.4-.8-.8-2.5-1.3-5.1-1.5-7.7-.1-1.9 0-3.9.6-5.7.6-.7 1-1.2 1.5-1.6z"/><path d="m322.8 93c-1.1.3-2 0-2.8-.9-2-2.4-4-4.9-6.6-6.7-1.3-.9-2.5-1.9-4-2.3-.6-.1-1-.5-.9-1.3.1-1 .5-1.9 1-2.7 1.4-2.1 3.2-3.9 5.3-5.5 1.1-.9 2.2-1.8 3.4-2.7-1.4-1-3-1.6-4.5-2.3-1.2-.6-2.6-1-3.9-1.5-1.6-.5-2.2-2.3-1.2-3.7 1.2-1.7 2.7-3.2 4.3-4.6.3-.3.6-.5.9-.8.2-.3.7-.5.6-.9-.1-.3-.7-.2-1-.3-2.7-.3-5.4-.5-8.1-.8-1.1-.1-2.2-.4-3.2-.6-.9-.2-1.3-.7-1.5-1.6-.2-1-.1-1.9 0-2.9.4-2.6.8-5.3 1.1-7.9.1-.7.1-1.4.1-2.1 0-.5-.2-.7-.6-.5-1.6.5-3.2.9-4.7 1.6-1.4.6-3 1.1-4.4 1.8-.3.1-.6.2-.8.4-1.1 1.1-2.3.8-3.5.4-.6-.2-1-.5-.7-1.3.2-.4.1-.9.2-1.4.2-.7.6-1 1.2-1.2 2.8-.8 5.5-2 8.1-3.1 1.6-.7 3.3-1.4 5-1.8 1-.3 2.1-.1 3.1-.1.6 0 1.2.8 1.2 1.6.1 3.3.1 6.5-.4 9.8-.2 1.3-.3 2.6-.4 4-.1.7.2 1 .9 1.1 2.5.2 5 .2 7.5.3 2 .1 4-.1 6 .2 1.3.2 2.5 1.1 2.5 2.6 0 .9-.4 1.6-1.1 2.2-1.6 1-2.6 2.6-3.9 3.9-.8.7-1.5 1.5-2.2 2.3-.4.4-.4.6.2.9 2.6 1.1 5.2 2.3 7.7 3.4 1 .5 1.8 1.2 1.8 2.3 0 1-.5 1.8-1.5 2.4-.9.5-1.8 1.1-2.5 1.9-.2.3-.6.5-.9.7-2.2 1.3-3.8 3.1-5.5 4.9-.4.4-.2.6.2.9 2.2 1.5 4.2 3.2 6 5.1 1.3 1.4 2.4 3 3.1 4.9-.4.6-.5 1.3-.6 1.9z"/><path d="m419.4 418.9c-.4.2-.7.2-.8-.4-.5-2.4-1.1-4.8-.8-7.4 0-.4 0-.8 0-1.1-.3-1.1-.2-2.1-.1-3.2s-.3-2-1.1-2.6c-.9-.7-2-.5-2.9.1-2.4 1.4-4.9 2.8-7.3 4.3-.6.4-.7.2-.8-.4-.2-1-.4-2.1-.6-3.1-.3-1.8-.9-3.6-.9-5.5 0-.9-.4-1.6-1.1-2.2-1.2-.9-2.6-.4-3.5.5-1.4 1.4-2.4 3.2-3.7 4.8-1.6 1.9-3 4-4.6 5.9-.5.5-.9.5-1.4.1-1-.9-2-1.7-3-2.6-2.3-2.3-5-4.2-7.7-6-.7-.4-1.6-.4-2 .1-.6.8-1.4 1.6-1.7 2.5-.6 1.7-1.1 3.4-1.4 5.2-.6 2.8-1.2 5.7-2.2 8.4-.2.6-.2 1.1.3 1.7.3.4.8.6 1 1 .4.7.9.6 1.4.2 1-.8 2-1.6 1.7-3.1 0-.3.1-.6.1-.8.3-1.6.8-3.1 1.1-4.6.3-1.6.9-3.2 1.4-4.8.1-.5.4-.5.8-.2.5.4 1.1.8 1.6 1.3 1.9 1.8 3.9 3.6 5.8 5.5.7.7 1.4 1.3 2.4 1.7.8.3 1.5.3 2.2-.3.8-.8 1.6-1.5 2.4-2.3 1.8-2 3.6-4.1 5.3-6.1.2-.3.5-.8.8-.7.4.1.3.6.4 1s.1.8.2 1.2c.2 2.1.5 4.2 1.2 6.2.6 1.6 2.3 2.1 3.7 1.1 1.1-.8 2.3-1.6 3.5-2.3 1.4-.8 2.8-1.8 4.5-2.4.1 1.5.2 2.9.2 4.4.1 2.6.5 5.1 1.4 7.5.4.9.8 1.7 1.6 2.4.6.5 1.2.4 1.6.1 1.2-1.1 2.8-1.4 4.2-2 .9-.3 1.8-.6 2.7-.8v-3.8c-2.1.2-4 .8-5.9 1.5z"/><path d="m7.6 417.3c-1.9-.5-3.8-.5-5.8-.3-.6.1-1.2.2-1.8.3v3.8c2.2-.4 4.4-.6 6.6-.8 1.2-.1 2-.6 2.3-1.7-.4-.4-.9-.8-1.3-1.3z"/><path d="m200.1 55.9c.3-.4.7-.6 1.2-.8 2.4-.8 4.7-1.8 7-2.8 1.2-.5 2.5-.9 3.7-1.7.7-.4 1.6 0 2.1.9.9 1.6 1.1 3.4 1.4 5.1.5 2.7 1 5.4 1.5 8.1.2.8.7.6 1.1.4 2.3-1.1 4.8-1.6 7.1-2.6 1.3-.6 2.5-1.1 3.7-1.9 1.5-1 3-.2 3.1 1.5.1.9.1 1.7.1 2.6-.1 3.2.3 6.4 1 9.5.2 1.1.5 1.4 1.7 1.2 2.4-.3 4.9-.1 7.2-.7 1.2-.3 2.3-.4 3.5-.9.8-.4 1.8-.8 2.5.1.8.9.7 1.8.3 2.8-.7 1.9-1.7 3.6-2.2 5.6-.3 1.2-.7 2.3-1 3.5-.2.9-.1 1.2.9 1.2 3.4.1 6.8.2 10.1.3 1 0 2.1.1 3.1 0 1.2-.1 2.2 1.7 1.5 3-1.2 2.6-2.6 5.1-3.8 7.7-.6 1.3-1.1 2.8-1.5 4.2-.1.4-.1.7.5.8 3.6.4 7.2 1.1 10.8 1.4 1 .1 1.8 1.5 1.5 2.5-.5 1.4-1.5 1.9-3 1.5-2-.5-4.1-.8-6.2-1-2.3-.2-4.6-.5-7-.5-1.4 0-2.2-1.2-1.8-2.7.9-3 2.2-5.8 3.4-8.6.6-1.2 1.1-2.5 1.7-3.7.3-.6.1-.7-.5-.7-3.8-.2-7.7-.1-11.5.3-.7.1-1.4.3-2.2 0-1.5-.5-1.6-1.6-1.1-2.7 1.2-3.1 1.9-6.3 2.9-9.5.3-.9.2-.9-.8-.8-3.4.4-6.7 1-10.1 1.6-1.4.3-2.8-.4-2.5-2.1.1-.6-.1-1.3-.2-1.9-.7-3.2-1.1-6.5-1.4-9.8-.1-.7-.2-1-1-.6-3.1 1.3-6.4 2.4-9.4 4-.7.4-1.4.7-2.3.7-1.2-.1-1.6-.5-1.7-1.7-.6-4.1-1.3-8.1-2.3-12.2-.3-1.2-.3-1.2-1.4-.8-2.7 1.1-5.5 2.1-8.1 3.5-.7.4-1.5.1-2.2-.8-.5-.6-.5-1.7-.1-2.3.4.2.5 0 .7-.2z"/><path d="m165 198.9c1.6-1.5 3.1-3.1 4.6-4.7.5-.5.5-.8-.1-1.3-2.6-1.8-5.4-3.4-7.8-5.6-1.7-1.5-3.4-2.9-4.7-4.8-.8-1.2-.8-2.5 0-3.5.3-.4.8-.6 1.3-.6 3-.3 5.6-1.7 8.4-2.7 1.6-.6 3.1-1.1 4.7-1.7.4-.2.8-.1 1.1.2.5.5 1.2.9 1.2 1.7-.1 1-.6 1.9-1.6 2.3-2.3.9-4.7 1.8-7 2.7-.7.3-1.4.8-2.2.9-.7.1-.5.4-.2.8 1 .9 2.1 1.7 3 2.6 2.2 2.2 5.1 3.5 7.4 5.5.5.5 1.3.6 1.7 1.2.6 1 .5 2.1-.3 3-2.1 2.5-4.2 5-6.7 7.1-1 .8-.8 1 .3 1.5 3.2 1.4 6.6 2.5 9.8 3.9 1 .4 2 .9 2.9 1.5.9.5 1.2 1.3.9 2.3-.6 2-1.8 3.6-2.8 5.3s-2.2 3.2-3.4 4.7c-.6.7-.3.9.4 1.1 1.5.4 3 .9 4.5 1.3 3.4 1.1 6.7 2.2 10.1 3.3.8.3 1.4.8 2 1.4s.1 1.2-.1 1.8c-1.1 2.2-2.4 4.2-3.8 6.2-1.1 1.5-1 1.5.7 1.8 2.2.4 4.5.9 6.8.7 1.2-.1 1.9.7 2.6 1.5.5.6-.1 1.8-1 2.5-.7.6-1.4.5-2.2.5-2.4-.2-4.8-.4-7.2-.9-1.3-.3-2.7-.4-4-.6-1.5-.1-2.4-1.9-1.8-3.2 1.2-2.4 2.5-4.7 4.2-6.7.1-.1.2-.3.3-.4.6-1 .6-1.2-.5-1.6-4.2-1.6-8.7-2.7-13-3.9-.7-.2-1.4-.3-2.1-.5-2.1-.7-2.6-2.6-1.3-4.3 1.7-2.3 4-4.2 5.5-6.7.5-.7.9-1.5 1.3-2.3.3-.5.2-.8-.4-1-3.4-1.4-6.9-2.8-10.5-4-1.2-.4-2.4-1-3.5-1.7-1.2-.7-1.3-2.5-.3-3.6.4-.6 1-1 1.5-1.5.2-.5.8-1 1.3-1.5z"/><path d="m192 173.8.5-.5c1.2-1.2 2.7-.7 3.2.9.4 1.6.1 3.1-.1 4.6-.2 1.8-.5 3.6-.7 5.4-.1.6-.2 1.1-.4 1.7-.4 1.1-.2 1.4.9 1.4 2.6 0 5.2-.2 7.8-.7.8-.2 1.6-.3 2.3-.8.5-.4 1.1-.3 1.7.1 1 .7 1.3 1.4 1.1 2.6-.5 2.8-.8 5.5-1.2 8.3-.2 1.2-.2 2.5-.3 3.7 0 .6.1.9.9.9 1.5.1 2.9-.4 4.3-.4 2 0 4-.3 6-.4.6 0 1.2-.1 1.7-.4 1.3-.6 3.2.9 2.9 2.4-.2 1.4-.6 2.8-.9 4.1-.6 2.9-1 5.9-1.2 8.8-.1 1.1-.1 2.2-.3 3.3-.1.9.3 1.2 1.1 1.4 1.9.5 3.7 1 5.6 1.5 2.4.7 4.6 1.7 6.8 2.8.8.4 1.6.6 2.2 1.3.7.9.8 1.4.2 2.3-1.6 2.2-3.3 4.3-4.9 6.5-.9 1.2-1.8 2.3-2.5 3.6-.6 1.1-2.2 1.8-3.3 1.4-.6-.2-.8-.6-.9-1.1-.1-1 0-2 .8-2.7 1.9-2 3.2-4.4 4.9-6.5.3-.3.3-.8.6-1.1.2-.3-.1-.4-.3-.5-3.8-1.9-7.7-3.1-11.9-3.1-1.8 0-2.3-.5-2.4-2.2-.3-4.7.3-9.4 1.1-14.1.2-1 .3-2 .5-3 .1-.6-.1-.8-.7-.8-3.9.2-7.7.6-11.5 1.5-.5.1-1 .2-1.4.3-1.1.1-1.6-.4-1.8-1.5s.2-2.1.3-3.2c.4-3.5.9-7.1 1.2-10.6 0-.6-.2-.7-.7-.6-2.6.5-5.3.7-8 1.1-1.1.1-2.2.2-3.3.5-1.4.3-2.6-1.5-2-3.1 1-3.1 1.5-6.3 1.9-9.5 0-.2.1-.5-.1-.6s-.4.1-.5.2c-2.3 1.6-4.6 3.2-6.9 4.7-.2.2-.5.3-.7.5-.5.3-1.1.8-1.6.3s-1.1-1.1-1-1.9c.1-.9.4-1.7 1.2-2.2 3.1-1.7 6-3.9 8.9-5.9.3-.1.7-.5.9-.7z"/><path d="m194 139.9c-1.7 1.6-3.9 2.4-5.9 3.7-.9.6-2 1.1-3 1.4-.6.2-1.5.6-1.6-.6-1-.3-.8-1-.5-1.8.2-.7.8-1.1 1.4-1.6 2.4-1.9 5-3.5 7.5-5.1 1.5-1 3.3-1.5 4.9-2.3.2-.1.5-.1.7 0 1.3.8 1.8 1.8 1.5 3.3-.6 3.1-1.3 6.1-1.9 9.2 0 .2-.1.5-.1.7-.1.6.1.8.7.8 3.6 0 7.1-.5 10.5-1.4.2-.1.4-.1.7-.2 1.4-.7 2.5-.3 3.2 1.1.2.4.2.7.1 1.1-.4 2.2-.9 4.5-1.1 6.7 0 .6-.3 1.2-.5 1.8-.3 1-.3 1 .8.9 2.1-.3 4.2-1 6.3-1.7 1.4-.5 2.9-.6 4.3-1.3 1-.5 2.9 1.1 2.7 2.3-.3 2.3.1 4.7-.2 7-.1 1-.3 1.9-.4 2.9-.1.5-.1.7.6.6 2.6-.4 5.2-.9 7.8-1.6 1.1-.3 2.3-.5 3.4-1s2.9 1 2.7 2.3c-.5 3.2-.6 6.4-.8 9.6-.1 1.6-.5 3.1-.8 4.7-.2.9-.8 1.6-1.4 2.2-.7.6-2.2.1-2.6-.7-.4-1-.4-2-.1-3.1.9-2.9.9-6 .9-9 0-.5-.2-.6-.7-.5-3.1 1-6.4 1.2-9.5 2.5-.8.3-1.7.7-2.6.4-1.1-.4-1.8-1.7-1.6-2.9.3-1.9.5-3.8.8-5.7.2-1.4 0-2.7 0-4.1 0-.5-.2-.7-.8-.5-3.3 1-6.6 2.1-10 3.1-.8.2-1.7.7-2.7.2s-1.7-2.1-1.3-3.1c.9-2.8 1.8-5.7 1.8-8.7 0-.6-.1-.8-.8-.7-3.8.8-7.6 1.3-11.4 1.8-1.5.2-2.8-1.2-2.5-2.8.5-2.9.9-5.8 1.6-8.6.1-.6.2-.9-.1-1.3z"/><path d="m306.7 374c-1.3 2-3.3 3.3-4.9 4.9-.8.8-1.7 1.5-2.6 2.1-.5.3-1.3.9-1.7-.2-1-.1-1-.8-.9-1.6s.5-1.3 1-1.9c1.9-2.4 4-4.5 6.1-6.7 1.2-1.3 2.8-2.2 4.2-3.4.2-.2.5-.2.7-.1 1.5.4 2.1 1.3 2.2 2.9.1 3.1.2 6.2.2 9.3 0 .2 0 .5.1.7 0 .6.3.7.9.6 3.5-.8 6.8-2.1 9.9-3.8.2-.1.4-.2.6-.4 1.2-1 2.4-.8 3.4.4.3.3.3.6.3 1 .1 2.3.1 4.6.5 6.8.1.6 0 1.2-.1 1.8 0 1 0 1.1 1 .7 2-.8 3.9-1.9 5.7-3.1 1.3-.8 2.7-1.3 3.9-2.2.8-.7 3 .4 3.2 1.6.3 2.3 1.2 4.5 1.5 6.9.1 1 .2 1.9.3 2.9 0 .5.1.7.7.4 2.4-1 4.9-2.1 7.2-3.4 1-.6 2.1-1 3-1.7 1-.8 3.1.3 3.2 1.6.2 3.2.9 6.3 1.4 9.5.2 1.6.2 3.2.3 4.8 0 .9-.4 1.7-.8 2.4-.5.8-2.2.7-2.7-.1-.7-.9-.9-1.8-.8-3 .2-3.1-.5-6-1.2-9-.1-.5-.4-.5-.7-.3-2.8 1.7-5.9 2.7-8.6 4.6-.7.5-1.5 1-2.4 1-1.1-.1-2.1-1.2-2.2-2.5-.2-1.9-.4-3.8-.6-5.7-.1-1.4-.6-2.6-1-4-.1-.5-.4-.6-.9-.3-3 1.8-6 3.6-9 5.3-.8.4-1.5 1-2.6.8-1-.3-2.1-1.7-2-2.7.2-3 .4-5.9-.3-8.9-.1-.6-.3-.7-.9-.5-3.5 1.6-7.1 3-10.7 4.4-1.4.5-3-.6-3.1-2.2-.2-2.9-.5-5.8-.4-8.7-.1-.3 0-.7-.4-1z"/><path d="m216.4 87.1c-1.9 1.7-3.6 2.9-5.2 4.2-1.1.8-2.1 1.8-3.2 2.6-.5.4-.4.7.2 1 1.3.7 2.7 1.3 4.1 2 .8.4 1.8.6 2.4 1.4.1.1.2.1.3 0 .9-.1 1.4.4 1.9 1.1.7 1 .6 1.8.1 2.9-1.7 3.1-3.5 6.2-5.3 9.2-.6 1.1-.5 1.3.7 1.4 1.9.2 3.8.1 5.7.4 1.4.2 2.9 0 4.2.7.6.3 1.4.2 2.1.2 1.4-.1 2.6 1.6 2.2 3-.2.7-.5 1.4-.9 2-1.1 1.7-1.9 3.5-2.9 5.3-.3.7 0 .8.6.8 2 .2 4 .1 6 .3 1.7.1 3.4.3 5 .1.3 0 .6.1.9.2 1.1.6 1.6 2.1 1.1 3.2-1.1 2.7-2 5.4-2.6 8.2-.2.7.1.9.7.8 4-.6 8.1-1.3 12-2.4 1-.3 2 .3 2.7 1.5.5.9.3 1.2-.6 2.2-.6.6-1.2.8-2.1.7-1.5-.1-2.9.3-4.4.6-3.6.7-7.2 1.6-10.8 2.6-1.8.5-3-.5-2.8-2.4.2-2.2.9-4.4 1.5-6.5.4-1.4.7-2.8 1.2-4.3.1-.4.1-.5-.3-.5-2-.2-4-.1-6-.1s-4 .7-6 .6c-.9-.1-1.4-.6-1.6-1.5-.4-1.9.7-3.4 1.4-4.9.7-1.7 1.6-3.4 2.4-5.1.3-.6.1-.7-.5-.8-3.9-.7-7.8-.6-11.7-.6-.8 0-1.6-.1-2.3-.3-.6-.1-.9-.5-1-1.1-.2-1.2.1-2.1.8-3.2 2.2-3.3 4.2-6.8 6-10.4.3-.6.1-.9-.4-1.1-2.2-1-4.4-1.9-6.7-2.9-.7-.3-1.4-.7-2.1-1.1-1.4-.8-1.4-2.9-.1-3.8 3.3-2.1 6.3-4.8 9.5-7 1-.7 2-1.5 2.8-2.4.5-.5 1-.6 1.6-.3s.6.8.6 1.4c0 1.1-.8 1.8-1.2 2.1z"/><path d="m268.9 149.7c.6 3.7 1.5 7.1 2.2 10.6.1.3.2.7.3 1 .4 1.3-.4 2.6-1.7 2.9-1.9.3-3.8.1-5.7-.2-2.9-.5-5.8-1.1-8.8-1.6-.7-.1-.8.1-.7.7.7 2.7 1.4 5.4 2.7 7.8.7 1.3.8 2.6.1 3.9-.3.6-1.9 1-2.6.6-.6-.4-1.1-1-1.3-1.8-.4-1.9-1.2-3.7-1.9-5.6-.9-2.5-1.6-5.1-2.1-7.7-.4-1.8.2-2.3 1.8-3 .2-.1.5-.1.8 0 4.4 1 8.9 1.6 13.4 2.2 1.1.1 1.3-.1 1.1-1.1-.5-3.5-1.5-6.9-2.4-10.4-.4-1.7.1-2.7 1.8-3.3.2-.1.4-.1.7 0 2.5.7 5 1.3 7.6 1.5 1.7.2 3.5.1 5.2.1 1.2 0 1.5 1 1.7 1.9.2.8.1 1.5-.6 2-.3.2-.6.3-.9.3-3.3 0-6.7 0-10-.8-.1 0-.3 0-.7 0z"/><path d="m237.2 415.6c.6-3.7.9-7.2 1.4-10.8 0-.3 0-.7 0-1 0-1.3 1.2-2.4 2.6-2.2 1.9.3 3.6 1.1 5.3 2 2.6 1.4 5.2 2.9 7.8 4.4.6.4.8.2.9-.5.3-2.8.4-5.5 0-8.3-.2-1.5.1-2.7 1.2-3.8.5-.5 2.2-.3 2.6.3s.7 1.3.6 2.1c-.3 1.9-.1 3.9 0 5.9 0 2.7-.1 5.3-.5 7.9-.2 1.8-.9 2.1-2.7 2.3-.3 0-.5-.1-.7-.2-3.8-2.4-7.9-4.5-11.9-6.4-1-.5-1.2-.4-1.4.7-.7 3.5-.8 7-1.1 10.6-.2 1.7-1 2.5-2.7 2.5-.2 0-.5 0-.6-.2-2.1-1.5-4.3-2.9-6.7-3.9-1.6-.7-3.3-1.2-4.9-1.8-1.1-.4-1.1-1.4-1-2.3.1-.8.4-1.4 1.3-1.7.3-.1.6-.1.9 0 3.2 1.1 6.3 2.2 9.2 4-.1.1.1.2.4.4z"/><path d="m354.2 267.1c-1.3-3.5-2.8-6.7-4.2-10-.1-.3-.3-.6-.5-.9-.7-1.2-.1-2.7 1.1-3.2 1.8-.7 3.7-.9 5.6-.9 3-.1 5.9-.1 8.9-.1.7 0 .8-.3.5-.8-1.2-2.5-2.4-5-4.1-7.2-.9-1.2-1.3-2.4-.9-3.8.2-.7 1.7-1.4 2.4-1.1s1.3.7 1.6 1.5c.7 1.8 1.9 3.4 2.9 5.1 1.4 2.3 2.6 4.7 3.6 7.1.7 1.7.3 2.3-1.2 3.3-.2.2-.5.2-.7.2-4.5-.1-9 .1-13.5.5-1.2.1-1.2.3-.9 1.3 1.2 3.4 2.9 6.5 4.4 9.7.7 1.6.4 2.7-1.1 3.6-.2.1-.4.2-.6.2-2.6-.2-5.2-.3-7.8 0-1.7.2-3.4.6-5.2.9-1.2.2-1.6-.7-2-1.5-.3-.7-.3-1.4.2-2.1.2-.3.5-.4.8-.4 3.3-.7 6.6-1.3 9.9-1.1.2-.2.4-.3.8-.3z"/><path d="m251.1 48.1c-3.5-.9-6.9-2.2-10.4-3.3-.6-.2-.6-.6-.4-.9.7-1.3 1.4-2.7 2.2-3.9 1.6-2.3 3.4-4.6 5.1-6.9.8-1.2.3-3.1-1-3.2-1-.1-2-.4-3.1-.6-3.3-.7-6.6-1.3-9.9-2-.9-.2-1-.5-.6-1.4.5-1.1 1.1-2.2 1.6-3.3.8-1.8 2.1-3.4 3.1-5.1.6-.9.8-1.9.2-2.9s-1.6-.8-2.5-.6c-1.2.3-2.4.2-3.6.3-2.4.2-4.8-.5-7.2-.6-1.2-.1-1.4-.3-1.4-1.5-.1-3.2 0-6.4.7-9.6.2-.8.3-1.7.4-2.6 0-.1 0-.1 0-.2h-10.7c-1.2.2-2.4.4-3.6.7-.4.1-1 .3-1-.6v-.1h-4c0 1.2 0 2.4-.1 3.6 0 1.2.2 1.7 1.4 2 .8.2 1.6 0 2.4-.3 3.3-1 6.6-1.5 9.9-2.3.8-.2.9.1.9.8-.3 3.3-.4 6.6-.3 9.8 0 .6.1 1.3-.1 1.9-.6 1.7.7 2.5 2.1 2.5 3.4 0 6.8 0 10.2.1.9 0 1 .1.6.9-1.5 3-2.8 6-4.5 8.9-.6 1-.7 2.1.7 2.9.7.4 1.5.3 2.2.3 3.8.3 7.6.9 11.4 1.7.6.1.7.3.3.8-.8 1.1-1.5 2.2-2.3 3.4-1.7 2.5-3.5 5.1-4.9 7.8-.7 1.4-.1 2.8 1.3 3 2.3.3 4.6 1 6.8 1.7 2 .6 4 1.1 5.9 2 1.4.6 2.4.4 3.2-.9.5-.6 0-2.1-1-2.3z"/><path d="m208.9 417.2c0-1.8.2-3.6-.5-5.3-.3-.9-1.2-1.5-1.9-1.2-1.3.5-2.6.7-3.9 1-2.5.5-4.9 1.2-7.4 1.5-.5.1-.9.3-1.3.6-.2.1-.4.3-.6.4-.6.5-.7 1.6-.3 2.2.5 1 1.2 1.4 2 1.1 2.8-1 5.7-1.5 8.6-2 1.2-.2 1.2-.2 1.3 1 .2 2.9.2 5.9.2 8.8h3.9c-.1-2.7-.1-5.4-.1-8.1z"/><path d="m221.4 423.4c-1.3.5-2.6.9-4 1.2-1.3.3-2.6.5-3.9.7h10.7c.1-1.7-1.2-2.6-2.8-1.9z"/><path d="m266.3 23.3c.6-.4 1.3-.1 2.1.2 3.2 1.5 6.2 3.5 9.5 4.8.9.4 1.2.3 1.5-.6.9-2.5 1.6-5.1 2.4-7.6.4-1.4.8-2.7 1.1-4.2.1-.7.7-.9 1.3-1.2 1.4-.5 2.4.2 3.4 1 2.2 1.9 4.7 3.4 7.1 5.1.8.6 1 .5 1.4-.4.9-2.2 1.9-4.3 3-6.3 1-1.9 2.3-3.7 2.9-5.9.1-.3.4-.4.6-.5 1.5-.6 2.9-.6 4.3.5 2.2 1.7 4.3 3.4 6.4 5.3 1.1.9 2.3 1.6 3.3 2.7.7.8.8 2.6.1 3.4-.3.4-1.6.5-2.1.3-1.1-.4-1.9-1.2-2.8-1.9-1.6-1.2-3.1-2.6-4.7-3.8-.5-.4-1-.8-1.6-1.2-.4-.3-.6-.3-.9.1-1.2 2.2-2.6 4.4-3.6 6.7-.8 2-1.5 4-2.3 6-.5 1.4-1.8 1.8-3.1 1.1-2.2-1.1-4.1-2.6-6.1-4.1-.9-.7-1.9-1.3-2.8-1.9-.5-.4-.7-.4-.9.3-1 3.2-1.8 6.6-2.6 9.8-.1.6-.3 1.1-.5 1.7-.4 1.4-1.2 1.9-2.7 1.4-1.1-.4-2.1-1-3.1-1.4-2.5-1.1-4.7-2.5-7.2-3.7-1.2-.6-1.3-.6-1.2.8.2 4.2-.4 8.3-1 12.5-.1.7-.3 1.3-.5 1.9-.3.9-1.1 1.1-1.8 1.2s-1.3-.3-1.8-.9c-.4-.5-.6-1-.4-1.7.5-1.8 1-3.7 1.3-5.6.5-2.8.7-5.6.5-8.4-.1-1.1.1-2.2-.3-3.3-.2-1.1.5-1.8 1.8-2.2z"/><path d="m272 51.2c.5 0 1 .1 1.4.3 2.2 1.2 4.6 2 6.9 3.1 1.2.5 2.4 1.2 3.8 1.5.8.2 1.1 1.2.8 2.1-.5 1.8-1.7 3.1-2.7 4.6-1.6 2.2-3.1 4.5-4.7 6.7-.5.7.1.9.5 1.1 2.4.9 4.5 2.3 6.9 3.3 1.3.5 2.6 1 3.9 1.3 1.7.4 2.2 1.9 1.1 3.3-.6.7-1.2 1.3-1.8 1.9-2.4 2.2-4.3 4.7-6.2 7.4-.7 1-.6 1.3.3 2 1.9 1.5 3.5 3.4 5.5 4.7 1 .6 1.9 1.4 3.1 1.8.8.3 1.8.7 1.7 1.9s-.8 1.8-1.8 2.2c-1.8.8-3.8 1.3-5.5 2.3-1 .6-2.1 1.2-3.2 1.7-.8.5-.9.8-.3 1.5 2.3 2.5 4.6 5 6.9 7.4.7.8 1.4 1.5 2.2 2.2.9.8.3 2.7-1.1 3.2-2.7.9-5.5 1.7-8.1 2.6-1.4.5-2.7 1.2-4.1 1.8-.3.2-.6.4-.2.9 2.2 2.9 4.2 5.9 6.5 8.7.7.8.2 2.3-.8 2.8-1.4.6-2.4.2-3.1-1.1-1-1.8-2.3-3.4-3.6-5.1-1.4-1.8-2.9-3.7-4.5-5.3-1-1-.7-2.4.7-3.2 2.7-1.5 5.6-2.5 8.5-3.5 1.3-.5 2.5-1 3.8-1.4.6-.2.6-.4.2-.9-2.6-2.9-5.3-5.5-8.2-8.1-.5-.5-1.2-.8-1.6-1.5-.7-1.4 0-2.2 1.2-2.7 3-1.3 5.9-3 8.8-4.6.8-.4.8-.5 0-1.1-2.7-2.1-5.4-4.1-8.2-6.1-1.2-.8-1.7-2.2-.2-3.3.5-.4.8-.9 1.2-1.5 1.8-2.7 3.9-5.3 6-7.8.5-.6.5-.8-.2-1.2-3.1-1.3-6.2-2.9-9.4-4-.8-.2-1.5-.5-2.1-1.2-.8-.9-.7-1.5 0-2.4 2.5-3.3 4.9-6.6 7.1-10.1.7-1 .6-1.1-.5-1.6-2.7-1.2-5.3-2.5-8.2-3.3-.8-.2-1.1-1-1-2.1.1-.8.8-1.5 1.6-1.6.2.3.4.4.7.4z"/><path d="m12.1 124.1c.5 0 1 .1 1.4.3 2.2 1.2 4.6 2 6.9 3.1 1.2.5 2.4 1.2 3.8 1.5.8.2 1.1 1.2.8 2.1-.5 1.8-1.7 3.1-2.7 4.6-1.6 2.2-3.1 4.5-4.7 6.7-.5.7.1.9.5 1.1 2.4.9 4.5 2.3 6.9 3.3 1.3.5 2.6 1 3.9 1.3 1.7.4 2.2 1.9 1.1 3.3-.6.7-1.2 1.3-1.8 1.9-2.4 2.2-4.3 4.7-6.2 7.4-.7 1-.6 1.3.3 2 1.9 1.5 3.5 3.4 5.5 4.7 1 .6 1.9 1.4 3.1 1.8.8.3 1.8.7 1.7 1.9s-.8 1.8-1.8 2.2c-1.8.8-3.8 1.3-5.5 2.3-1 .6-2.1 1.2-3.2 1.7-.8.5-.9.8-.3 1.5 2.3 2.5 4.6 5 6.9 7.4.7.8 1.4 1.5 2.2 2.2.9.8.3 2.7-1.1 3.2-2.7.9-5.5 1.7-8.1 2.6-1.4.5-2.7 1.2-4.1 1.8-.3.2-.6.4-.2.9 2.2 2.9 4.2 5.9 6.5 8.7.7.8.2 2.3-.8 2.8-1.4.6-2.4.2-3.1-1.1-1-1.8-2.3-3.5-3.6-5.1-1.4-1.8-2.9-3.7-4.5-5.3-1-1-.7-2.4.7-3.2 2.7-1.5 5.6-2.5 8.5-3.5 1.3-.5 2.5-1 3.8-1.4.6-.2.6-.4.2-.9-2.6-2.9-5.3-5.5-8.2-8.1-.5-.5-1.2-.8-1.6-1.5-.7-1.4 0-2.2 1.2-2.7 3-1.3 5.9-3 8.8-4.6.8-.4.8-.5 0-1.1-2.7-2.1-5.4-4.1-8.2-6.1-1.2-.8-1.7-2.2-.2-3.3.5-.4.8-.9 1.2-1.5 1.8-2.7 3.9-5.3 6-7.8.5-.6.5-.8-.2-1.2-3.1-1.3-6.2-2.9-9.4-4-.8-.2-1.5-.5-2.1-1.2-.8-.9-.7-1.5 0-2.4 2.5-3.3 4.9-6.6 7.1-10.1.7-1 .6-1.1-.5-1.6-2.7-1.2-5.3-2.5-8.2-3.3-.8-.2-1.1-1-1-2.1.1-.8.8-1.5 1.6-1.6.2.4.5.4.7.4z"/><path d="m419.5 166.8c-1.1.4-2 .1-2.8-.7-2.2-2.3-4.3-4.6-7.1-6.2-1.3-.8-2.6-1.7-4.2-2-.6-.1-1-.5-1-1.3 0-1 .3-1.9.8-2.8 1.3-2.2 2.9-4.1 4.9-5.8 1.1-.9 2.1-1.9 3.2-3-1.5-.9-3.1-1.3-4.7-1.9-1.3-.5-2.6-.9-4-1.2-1.6-.4-2.3-2.1-1.4-3.6 1.1-1.8 2.5-3.4 4-4.9.3-.3.6-.6.8-.9s.7-.6.5-.9-.7-.2-1.1-.2c-2.7-.1-5.4-.1-8.1-.2-1.1 0-2.2-.2-3.3-.4-.9-.1-1.4-.7-1.6-1.5-.3-1-.3-1.9-.2-2.9.2-2.7.4-5.3.5-8 0-.7 0-1.4-.1-2.1 0-.5-.2-.6-.7-.5-1.5.6-3.1 1.2-4.6 1.9-1.4.7-2.9 1.3-4.3 2.1-.2.1-.6.2-.7.4-1 1.2-2.2 1-3.5.6-.6-.2-1.1-.5-.8-1.2.2-.5 0-1 .1-1.4.1-.7.5-1.1 1.1-1.3 2.7-1 5.3-2.3 7.9-3.7 1.6-.8 3.2-1.6 4.9-2.2 1-.4 2-.3 3-.3.6 0 1.2.7 1.3 1.5.3 3.2.5 6.5.3 9.8-.1 1.3-.1 2.7-.1 4 0 .7.2 1 1 1 2.5.1 5-.2 7.5-.2 2 0 4-.4 6-.2 1.3.1 2.6.9 2.6 2.4 0 .9-.2 1.7-1 2.2-1.5 1.1-2.4 2.8-3.7 4.1-.7.8-1.4 1.6-2 2.5-.4.4-.4.7.2.9 2.7.9 5.3 1.9 8 2.9 1 .4 1.9 1.1 1.9 2.2 0 1-.3 1.8-1.3 2.5-.9.6-1.8 1.2-2.4 2.1-.2.3-.5.5-.8.7-2.1 1.4-3.6 3.4-5.2 5.3-.3.4-.2.6.2.9 2.3 1.3 4.4 2.9 6.3 4.7 1.4 1.3 2.6 2.9 3.4 4.6.4 1 .4 1.6.3 2.2z"/><path d="m420.6 183.8c0 .5-.1 1-.4 1.4-1.2 2.2-2.2 4.5-3.3 6.8-.6 1.2-1.2 2.4-1.6 3.7-.2.8-1.2 1.1-2.1.8-1.8-.5-3.1-1.8-4.5-2.9-2.2-1.6-4.4-3.3-6.6-4.9-.7-.5-.9.1-1.1.5-1 2.4-2.5 4.4-3.5 6.8-.6 1.3-1.1 2.5-1.4 3.9-.4 1.7-2 2.2-3.4 1-.6-.6-1.3-1.2-1.8-1.9-2.1-2.5-4.6-4.5-7.2-6.4-.9-.7-1.3-.7-2 .2-1.6 1.9-3.5 3.3-4.9 5.4-.7 1-1.4 1.9-1.9 3-.4.8-.8 1.7-2 1.6-1.1-.1-1.8-.9-2.2-1.9-.7-1.9-1.2-3.8-2.2-5.6-.6-1.1-1.1-2.2-1.6-3.2-.4-.8-.8-.9-1.5-.3-2.6 2.2-5.1 4.4-7.6 6.7-.8.7-1.6 1.3-2.3 2.1-.9.9-2.7.2-3.2-1.2-.8-2.7-1.5-5.5-2.4-8.2-.4-1.4-1.1-2.8-1.7-4.1-.2-.3-.4-.6-.9-.2-3 2.1-6.1 4-8.9 6.2-.8.6-2.4.1-2.8-.8-.6-1.4-.1-2.4 1.2-3.1 1.9-1 3.5-2.2 5.2-3.4 1.9-1.4 3.8-2.7 5.5-4.4 1-1 2.5-.6 3.1.8 1.4 2.8 2.3 5.7 3.3 8.6.4 1.3.9 2.6 1.3 3.9.2.6.4.6.9.2 3-2.5 5.7-5.1 8.3-8 .5-.5.8-1.2 1.6-1.5 1.5-.6 2.2.1 2.7 1.2 1.2 3.1 2.9 6 4.3 8.9.4.8.5.8 1.1.1 2.2-2.6 4.3-5.3 6.3-8 .9-1.1 2.3-1.6 3.3-.1.3.5.9.9 1.4 1.2 2.7 1.9 5.2 4 7.6 6.2.5.5.8.6 1.2-.2 1.4-3.1 3.1-6.1 4.2-9.3.3-.7.6-1.5 1.2-2.1.9-.7 1.5-.7 2.4.1 3.2 2.6 6.5 5.1 9.9 7.4 1 .7 1.1.7 1.6-.4 1.3-2.6 2.7-5.3 3.6-8.1.3-.8 1-1 2.1-.9.7.1 1.5.9 1.6 1.6.1.3.1.6.1.8z"/><path d="m365.5 117.7c.2-2.4 1.2-4.5 1.9-6.7.3-1.1.7-2.1 1.3-3.1.3-.5.7-1.4 1.6-.6 1-.4 1.3.2 1.6.9s.2 1.4.1 2.1c-.5 3-1.3 5.9-2 8.8-.4 1.8-1.4 3.4-2 5-.1.3-.3.4-.6.5-1.5.3-2.5-.1-3.3-1.5-1.6-2.7-3.2-5.4-4.8-8-.1-.2-.3-.4-.4-.6-.3-.5-.6-.5-1.1-.1-2.7 2.4-4.9 5.2-6.8 8.1-.1.2-.2.4-.3.6-.6 1.5-1.7 1.9-3.2 1.3-.4-.1-.6-.4-.8-.7-1.2-1.9-2.3-3.9-3.7-5.7-.4-.5-.6-1.1-.8-1.6-.5-.9-.5-.9-1.2-.1-1.4 1.7-2.4 3.6-3.5 5.5-.7 1.3-1.7 2.4-2.3 3.9-.4 1-2.9 1.1-3.5.2-1.4-1.9-3.2-3.4-4.6-5.3-.6-.8-1.1-1.6-1.7-2.4-.3-.4-.4-.6-.8 0-1.6 2.1-3.2 4.2-4.6 6.4-.6 1-1.4 1.9-1.8 3-.5 1.2-2.8 1.3-3.6.2-1.8-2.7-3.9-5.1-5.8-7.6-1-1.3-1.7-2.7-2.6-4-.5-.8-.5-1.7-.5-2.5 0-.9 1.6-1.6 2.4-1.2 1 .5 1.7 1.2 2.2 2.2 1.3 2.8 3.4 5 5.4 7.2.3.4.6.3.8-.1 1.6-2.8 3.9-5.2 5.3-8.2.4-.8.8-1.6 1.7-2 1-.5 2.4 0 3.1 1.1 1.1 1.6 2.2 3.1 3.3 4.7.8 1.1 1.8 2 2.8 3 .4.4.6.4.9-.1 1.7-3 3.5-6 5.3-9 .5-.7.8-1.6 1.9-1.9 1-.3 2.7.4 3.1 1.4 1.2 2.7 2.5 5.4 4.5 7.6.4.5.6.5 1 0 2.3-3.1 4.7-6.1 7.2-9.1 1-1.1 2.9-.9 3.7.4 1.6 2.5 3.3 4.8 4.6 7.4 0 .2.1.5.6.6z"/><path d="m387.4 165.4c-.4-2.5-.4-4.6-.5-6.7-.1-1.4-.2-2.8-.4-4.1-.1-.7-.4-.7-.9-.4-1.3.7-2.6 1.5-3.9 2.2-.8.4-1.5 1.2-2.5 1.2-.2 0-.2.1-.2.2-.5.8-1.1.9-2 .9-1.2 0-1.9-.5-2.4-1.6-1.6-3.2-3.1-6.4-4.6-9.6-.5-1.1-.7-1.2-1.6-.2-1.3 1.4-2.3 3.1-3.6 4.4-1 1-1.6 2.3-3 3.1-.6.3-1 1-1.4 1.7-.7 1.2-2.8 1.2-3.7.2-.5-.6-.8-1.2-1.1-1.9-.7-1.9-1.8-3.6-2.8-5.4-.4-.7-.6-.5-1 0-1.3 1.5-2.3 3.2-3.6 4.8-1 1.3-2.1 2.6-2.9 4.1-.2.3-.4.5-.7.6-1.1.5-2.6.1-3.3-.9-1.6-2.4-3.3-4.7-5.3-6.8-.5-.5-.8-.4-1 .2-1.8 3.7-3.5 7.4-4.9 11.3-.3 1-1.4 1.5-2.8 1.3-1-.1-1.2-.4-1.5-1.8-.2-.9.1-1.5.7-2.1.9-1.1 1.4-2.6 2-3.9 1.4-3.4 2.7-6.9 3.9-10.4.6-1.8 2.1-2.2 3.6-1 1.7 1.5 3.1 3.2 4.5 4.9 1 1.1 1.9 2.2 2.8 3.4.3.3.4.3.6 0 1.3-1.6 2.4-3.3 3.5-4.9 1.2-1.7 1.7-3.7 2.9-5.3.6-.7 1.3-.8 2.2-.5 1.8.8 2.4 2.5 3.3 4 1 1.6 1.9 3.2 2.8 4.9.3.6.5.5 1 .1 2.7-2.8 4.9-6.1 7.2-9.3.5-.6.9-1.2 1.5-1.8.5-.4.9-.4 1.5-.2 1.1.5 1.7 1.3 2.1 2.5 1.5 3.7 3.2 7.3 5.2 10.8.3.6.7.6 1.2.3 2-1.3 4.1-2.6 6.2-3.8.7-.4 1.3-.8 2.1-1.1 1.5-.6 3.2.5 3.2 2.1-.1 4 .4 7.9.4 11.8 0 1.2.1 2.5.4 3.7.2.7-.1 1.2-.7 1.5s-1 .1-1.5-.3c-.9-.7-.9-1.7-1-2.2z"/><path d="m303.7 161.1c-2.9-2.3-5.9-4.3-8.8-6.3-.3-.2-.6-.4-.9-.5-1.2-.6-1.5-2.2-.7-3.3 1.2-1.5 2.7-2.7 4.3-3.7 2.5-1.6 5-3.2 7.6-4.7.6-.4.5-.6 0-1-2.3-1.5-4.6-3-7.2-4-1.4-.5-2.4-1.4-2.7-2.8-.2-.7.7-2.1 1.5-2.2s1.5 0 2.1.5c1.6 1.2 3.4 1.9 5.1 2.8 2.4 1.2 4.6 2.7 6.7 4.2 1.5 1.1 1.4 1.8.7 3.4-.1.2-.3.4-.5.5-3.9 2.2-7.7 4.8-11.3 7.4-.9.7-.9.9-.1 1.6 2.8 2.3 5.8 4.1 8.8 6 1.4 1 1.7 2.1.9 3.6-.1.2-.3.4-.5.5-2.3 1.1-4.6 2.4-6.7 4-1.4 1.1-2.6 2.3-3.9 3.5-.9.8-1.7.3-2.5-.2-.7-.4-1-1.1-.9-1.9.1-.3.2-.6.5-.8 2.4-2.3 5-4.5 7.9-6.1.1-.2.3-.3.6-.5z"/></g></svg>