<svg enable-background="new 0 0 425.2 425.2" viewBox="0 0 425.2 425.2" xmlns="http://www.w3.org/2000/svg"><g opacity=".1"><path d="m399.9 26.9c2.7 1.1 5.5 1.7 8.4 1.8 1.2.1 2.3.1 3.5.2 1.4.2 2.7.3 4.1.2 1.1 0 1.8-.8 1.9-1.9.1-.8.1-1.6.1-2.5 0-1-.2-1.9-.3-2.9-.2-2.3-.1-4.5-.3-6.8 0-1.7 0-3.4 0-5.1 0-1.2-.6-1.8-1.9-1.8-.6 0-1.1 0-1.7-.1-1.9-.1-3.9-.4-5.8-.3-1.8.1-3.5 0-5.3-.1-1.1 0-1.8.4-2.2 1.5-1.1 2.8-1.4 5.7-1.5 8.7-.1 2.1-.1 4.2-.5 6.2-.2 1.8-.1 2.2 1.5 2.9z"/><path d="m419.1 409.9c-.2-1.9-.5-3.9-.5-5.9 0-1.4-.2-2.8-.1-4.2 0-.3 0-.6-.1-.9-.3-1.5-.7-1.9-2.2-2.1-2.4-.2-4.7-.1-7.1.2-2.1.2-4.2.3-6.2 0-.5-.1-1.2 0-1.3.5-.1.6-.6 1-.6 1.7 0 .5 0 1.1-.1 1.6-.3 4.2-.3 8.4 0 12.7.1 1.9.9 2.6 2.8 2.8 1.9.3 3.7.1 5.6.1 2.1 0 4.2 0 6.3.3.8.1 1.6.3 2.4 0 1.2-.4 1.7-1.4 1.6-2.7-.1-1.4-.3-2.7-.5-4.1zm-3.1 4c-1.5 0-3-.1-4.5-.2-1.6-.1-3.1 0-4.7-.1-.8-.1-1.5-.1-2.2-.2-.5 0-.7-.3-.8-.8-.1-.8-.2-1.5-.2-2.3 0-2-.1-3.9 0-5.9 0-1.4.2-2.7.2-4.1 0-.5.2-.6.6-.6.6 0 1.2 0 1.8.1 1.9.2 3.8-.3 5.7-.4 1.2-.1 2.3-.1 3.5 0 .6 0 .9.3.9.9-.1 2.7 0 5.4.2 8.2.1 1.5.2 3 .4 4.5-.1.6-.3.9-.9.9z"/><path d="m415.1 148.6c-1.7.1-3.4.2-5.1 0-2.3-.2-4.6-.4-6.7-.5-.4 0-.6 0-.8 0-1-.2-1.6.3-1.7 1.6v.3c0 3.2.1 6.3-.1 9.5-.1 1.8 0 3.5-.2 5.3-.1.9-.1 1.8-.2 2.7 0 1.1.5 1.6 1.6 1.7 1.2.1 2.3 0 3.5.2 2.4.3 4.7.4 7.1.5 1.6.1 3.2.2 4.8.4 1.4.1 2.2-.4 2.5-1.9.3-2.6.3-5.2.1-7.7-.2-3.2-.3-6.4-.1-9.6.1-1-.6-2.1-1.6-2.3-1.1 0-2.1-.2-3.1-.2zm2.1 18.1c0 .4-.2.6-.6.6-2.2-.2-4.4-.2-6.6-.4-1.9-.2-3.9-.6-5.8-.6-.7 0-1-.3-.9-1 .1-1.5 0-3 0-5.1-.1-2.2.3-5 .1-7.9 0-.4 0-.6.6-.5 1.4.1 2.7.4 4.1.2 2.2-.2 4.3 0 6.5.2.6.1 1.1 0 1.7 0 1 0 1 0 1 1-.1 1.4-.1 2.7 0 4.1.1 2.4.2 4.7.2 7.1-.1.7-.2 1.5-.3 2.3z"/><path d="m417.1 80.1c-.6-.4-1.2-1-2-1.1-2.2-.3-4.5-.4-6.7-.3-1.8.1-3.5.4-5.2.1-1.5-.3-2.5.6-2.8 2.1-.5 2.4-.3 4.9-.3 7.4.1 2.7-.2 5.4-.4 8.1-.1 1.8.5 2.9 2.3 3.4 1.3.3 2.6.5 3.9.5 2.1.1 4.1 0 6.2-.2 1.3-.2 2.6 0 3.9 0 2.3-.3 2.3.1 2.6-2.4 0-.1 0-.2 0-.3-.1-2.3.1-4.6-.3-6.8 0-.3-.1-.7 0-1 .1-1.5-.3-3-.4-4.5-.1-1.2-.5-2.5-.5-3.8 0-.4.1-.9-.3-1.2zm-1 16.8c0 .5-.4.5-.7.6-.9 0-1.8 0-2.7 0-1.9 0-3.7 0-5.6 0-1.4 0-2.8-.1-4.2-.3-.3-.1-.5-.2-.5-.6 0-.5-.1-1 0-1.5.2-1.7.1-3.5 0-5.2 0-2.4-.1-4.7 0-7.1 0-.6.3-1 1-.9 3.4.3 6.8-.6 10.2 0 1.5.2 1.4.2 1.8 1.7.5 2.5.7 5.1.8 7.7.1 1.8-.1 3.7-.1 5.6z"/><path d="m420 292.3c0-1-.8-2-1.8-1.9-1.8.1-3.6.1-5.3 0-2 0-3.9.5-5.8.4-.1 0-.3 0-.4 0-1.3.3-2.7.2-4.1.3-2.4 0-3 .7-2.9 2.4 0 2.2.1 4.4.1 6.6 0 1.9 0 3.8.1 5.7 0 1.1-.1 2.2.3 3.2.3.9.8 1.5 1.8 1.8 1.6.4 3.2.2 4.8.2 1.6-.1 3.3-.1 4.9-.1 1.9 0 3.8.1 5.7 0 1.3-.1 1.8-.8 2-2 .6-2.7.5-5.4.5-8.1-.1-2.9.1-5.7.1-8.5zm-2.6 8.9c0 1.5-.1 3.1-.2 4.6 0 .7-.2 1.3-.4 2-.1.3-.3.4-.6.4-.4 0-.9.1-1.3.1-2.4 0-4.7-.1-7-.1-1.2 0-2.3 0-3.5 0-1.1 0-1.4-.3-1.6-1.4-.3-1.8-.2-3.7-.3-5.5-.1-2.1-.1-4.3-.1-6.4 0-.5.1-.8.6-.9.7-.2 1.4-.2 2.2-.2.4 0 .8 0 1.2-.1.8-.2 1.7-.3 2.5-.2s1.6-.2 2.4-.2c1.9-.3 3.9.1 5.8-.1.3 0 .5.1.5.4-.3 2.5-.2 5.1-.2 7.6z"/><path d="m418 183.5c-1.8.1-3.6.1-5.3 0-2 0-3.9.5-5.8.4-.1 0-.3 0-.4 0-1.3.3-2.7.2-4.1.3-2.4 0-2.9.7-2.9 2.4 0 2.2.1 4.4.1 6.6v5.7c0 1.1 0 2.2.3 3.2.3.9.8 1.5 1.8 1.8 1.6.4 3.2.2 4.8.2 1.6-.1 3.3-.1 4.9-.1 1.9 0 3.8.1 5.7 0 1.3-.1 1.8-.8 2-2 .6-2.7.5-5.4.5-8.1 0-2.8.1-5.6.1-8.5.1-1-.7-2-1.7-1.9zm-.9 10.8c0 1.5-.1 3-.2 4.6 0 .7-.2 1.3-.4 2-.1.3-.3.4-.6.4-.5 0-.9.1-1.3.1-2.3 0-4.7-.1-7-.1-1.2 0-2.3 0-3.5 0-1.1 0-1.4-.2-1.6-1.4-.3-1.8-.2-3.7-.3-5.6-.1-2.1-.1-4.3-.1-6.4 0-.5.1-.8.6-.9.7-.2 1.5-.2 2.2-.2.4 0 .8 0 1.2-.1.8-.2 1.7-.3 2.5-.2s1.6-.2 2.4-.3c1.9-.3 3.9.1 5.8-.1.3 0 .5.1.4.4-.2 2.8-.1 5.3-.1 7.8z"/><path d="m399.8 237.8c.3 1.5.7 1.9 2.2 2.1 2.4.2 4.7.1 7.1-.2 2.1-.2 4.2-.3 6.2 0 .5.1 1.2 0 1.3-.5.1-.6.6-1.1.6-1.7 0-.5 0-1.1.1-1.6.3-4.2.3-8.4 0-12.7-.1-1.9-.9-2.6-2.7-2.8-1.9-.3-3.7-.1-5.6-.1-2.1 0-4.2 0-6.3-.3-.8-.1-1.6-.3-2.4 0-1.2.4-1.7 1.4-1.6 2.7s.3 2.7.5 4c.2 2 .5 3.9.5 5.9 0 1.4.2 2.8.1 4.2zm2.5-15c1.5 0 3 .1 4.5.2 1.6.1 3.2 0 4.7.1.8.1 1.5.1 2.2.2.5 0 .7.3.8.8.1.8.2 1.5.2 2.3 0 2 .1 3.9 0 5.9 0 1.4-.2 2.7-.2 4.1 0 .5-.2.6-.6.6-.6 0-1.2 0-1.8 0-1.9-.2-3.8.3-5.7.4-1.2.1-2.3.1-3.5 0-.6-.1-.9-.3-.9-.9.1-2.7 0-5.4-.2-8.2-.1-1.5-.2-3.1-.4-4.6.2-.6.4-.9.9-.9z"/><path d="m398.5 115.9c.1 1.3.3 2.7.5 4 .2 2 .5 3.9.5 5.9 0 1.4.2 2.8.1 4.2 0 .3 0 .6.1.9.3 1.5.7 1.9 2.2 2.1 2.4.2 4.7.1 7.1-.2 2.1-.2 4.2-.3 6.2 0 .5.1 1.2 0 1.3-.5.1-.6.6-1.1.6-1.7 0-.5 0-1.1.1-1.6.2-4.2.3-8.4 0-12.7-.1-1.9-.9-2.6-2.7-2.8-1.9-.2-3.7 0-5.6-.1-2.1 0-4.2 0-6.3-.3-.8-.1-1.6-.3-2.4 0-1.2.6-1.8 1.5-1.7 2.8zm3.6 0c1.5 0 3 .1 4.5.2 1.6.1 3.1 0 4.7.1.7.1 1.5.1 2.2.2.4 0 .7.3.8.8.1.8.2 1.5.2 2.3 0 2 .1 3.9.1 5.9 0 1.3-.2 2.7-.2 4.1 0 .5-.2.6-.6.6-.6 0-1.2 0-1.8 0-1.9-.2-3.8.3-5.7.4-1.1.1-2.3.1-3.5 0-.6-.1-.9-.3-.9-.9.1-2.7-.1-5.5-.2-8.2-.1-1.5-.2-3.1-.4-4.6 0-.6.2-.9.8-.9z"/><path d="m401.2 62.8c.5-.1 1.1 0 1.7-.1 2.1-.1 4.2.1 6.3-.2 1.2-.2 2.3-.2 3.5-.2 1 .1 2.1.1 3.1-.1.5-.1.8-.3 1-.8.7-2 .7-4 .4-6.1-.4-2.5-.9-5-.9-7.1-.2-1.7-.3-2.8-.5-4-.3-1.2-1-2-2.3-2.1-2.3-.2-4.6-.6-6.9-.2-.1 0-.1 0-.2 0-2 .1-3.9.1-5.8.2-1.5.1-1.8.8-1.8 2.1 0 2.1.1 4.2.2 6.3.1 3.3.2 6.5 0 9.8-.2 1.5 1 2.6 2.2 2.5zm.7-17.4c1.6 0 3.2 0 4.8-.2 1.8-.2 3.6-.1 5.4 0 1.1.1 1.4.2 1.5 1.3 0 .3.1.6.1.9s.1.6.1.9c0 1 .2 2 .2 3.1 0 1.5.6 2.9.7 4.4v2.7c0 .5-.2.8-.8.8-3.8 0-7.5.5-11.2.1-.2 0-.5 0-.7-.1-.3 0-.4-.2-.4-.4-.1-4.2-.2-8.5-.4-12.7-.2-.6.1-.8.7-.8z"/><path d="m400.1 346.3c1.8-.1 3.6-.1 5.4 0 1.9 0 3.9-.5 5.8-.4h.4c1.3-.3 2.7-.2 4.1-.3 2.4 0 3-.7 2.9-2.4 0-2.2-.1-4.4-.1-6.6 0-1.9 0-3.8 0-5.7 0-1.1 0-2.2-.3-3.2-.3-.9-.8-1.5-1.8-1.8-1.6-.4-3.2-.2-4.8-.1s-3.3.1-4.9 0c-1.9 0-3.8-.1-5.7 0-1.3.1-1.8.9-2 2-.6 2.7-.5 5.4-.5 8.1.1 2.8-.1 5.6-.1 8.4-.2 1.1.7 2.1 1.6 2zm.9-10.8c0-1.5.1-3.1.2-4.6 0-.7.2-1.3.4-2 .1-.3.3-.4.6-.4.4 0 .9-.1 1.3-.1 0 0 0 0 0-.1 2.3.1 4.7.1 7 .2 1.2 0 2.3 0 3.5-.1 1.1 0 1.4.3 1.6 1.4.3 1.8.2 3.7.3 5.5.1 2.1.1 4.3.1 6.4 0 .5-.1.8-.6.9-.7.2-1.4.2-2.2.2-.4 0-.8 0-1.2.1-.8.2-1.7.3-2.5.2s-1.6.2-2.4.3c-1.9.3-3.9-.1-5.8.1-.3 0-.5-.1-.4-.4.2-2.5.1-5.1.1-7.6z"/><path d="m403 381.2c1.7-.1 3.4-.2 5.1 0 2.3.2 4.6.4 6.7.5h.8c1 .2 1.6-.3 1.7-1.6 0-.1 0-.2 0-.4 0-3.1-.1-6.3.1-9.4.1-1.8 0-3.5.2-5.3.1-.9.2-1.8.2-2.7 0-1.1-.5-1.6-1.6-1.7-1.2-.1-2.3 0-3.5-.2-2.3-.3-4.7-.4-7.1-.5-1.6-.1-3.2-.2-4.8-.4-1.4-.2-2.3.4-2.5 1.9-.4 2.6-.3 5.1-.1 7.7.2 3.2.3 6.4.1 9.6 0 1 .6 2.1 1.6 2.3 1.1.1 2.1.2 3.1.2zm-2-4.6c.1-1.4.1-2.7 0-4.1-.1-2.4-.2-4.7-.2-7.1 0-.8.1-1.5.2-2.3 0-.4.2-.6.6-.6 2.2.2 4.4.2 6.6.3 1.9.2 3.8.6 5.8.6.7 0 1 .3.9 1v5.1c.1 2.2-.3 5-.1 7.9 0 .4 0 .6-.6.6-1.4-.1-2.7-.3-4.1-.2-2.2.2-4.3 0-6.5-.2-.6-.1-1.1 0-1.7 0-1 0-1 0-.9-1z"/><path d="m411.6 275.6c1.2.2 2.1-.7 2.3-1.8.3-1.4.2-2.8.3-4.3.3-3.6.2-7.2.6-10.8.2-1.6-.5-2.8-2.5-2.6-.7.1-1.3.1-2 0-1.6-.2-3.1-.4-4.7-.3-2.1.1-4.2.4-6.3 0-.3 0-.6 0-.8 0-.5 0-1 .1-1.2.7-.4 1.3-.6 2.7-.8 4.1-.2 1.6.1 3.3.1 4.9-.1 1.7-.2 3.4 0 5.2.1.6.1 1.3 0 1.9-.1.8.6 1.9 1.4 2.2 1.5.6 3.1.5 4.7.6 3.1 0 6-.2 8.9.2zm-12.4-4.4c-.1-1.7-.2-3.4.1-5.1.1-.7.1-1.5 0-2.2-.1-1.4 0-2.8.2-4.2.1-1 .1-1 1.1-.9 1.9-.1 3.7 0 5.5-.2 1.5-.2 3 .2 4.5.5.1 0 .2.1.3.1 1.2.1 1.2.1 1 1.2-.1 1-.2 1.9-.1 2.9.1 2.5-.2 4.9-.2 7.4 0 1.1-.6 1.6-1.6 1.5-2.1-.2-4.2 0-6.3-.1-1.3-.1-2.6-.2-3.9-.3-.4 0-.6-.2-.6-.6z"/><path d="m370.7 42.3c-1.4-.1-2.7-.4-4.1-.3-.3 0-.7 0-1 0-1.2 0-1.7.4-1.5 1.6.2 2.7-.1 5.4.2 8.2.1 1.3-.2 2.6-.3 3.9-.1 1.5-.2 2.8.7 4.2.6.9 1 1.3 2 1.3 1.8.1 3.5-.3 5.2-.4 3.4-.2 6.8 0 10.2.2 1.3 0 1.9-.5 1.9-1.8 0-.1 0-.3 0-.4-.3-3.2-.5-6.5-.9-9.7-.2-1.5-.2-3-.5-4.5-.3-1.2-.9-1.9-2.1-2-.5 0-.9-.1-1.4-.1-2.8 0-5.6-.1-8.4-.2z"/><path d="m365.4 239.6c2.7 1.1 5.5 1.7 8.4 1.8 1.2.1 2.3.1 3.5.2 1.3.2 2.7.3 4.1.2 1.1-.1 1.8-.8 1.9-2 .1-.8.1-1.6.1-2.5 0-1-.2-1.9-.3-2.9-.2-2.2-.1-4.5-.3-6.8 0-1.7 0-3.4 0-5.1 0-1.2-.6-1.8-1.9-1.8-.6 0-1.1 0-1.7-.1-1.9-.1-3.9-.4-5.8-.3-1.8.1-3.5 0-5.3-.1-1.1 0-1.8.4-2.2 1.5-1.1 2.8-1.4 5.8-1.5 8.7-.1 2.1-.1 4.2-.5 6.2-.3 1.9-.1 2.3 1.5 3z"/><path d="m382.5 115.8c0-1.2-.6-1.8-1.9-1.8-.6 0-1.1 0-1.7-.1-2-.1-3.9-.4-5.8-.3-1.8.1-3.5 0-5.3-.1-1.1 0-1.8.4-2.2 1.5-1.1 2.8-1.4 5.7-1.5 8.7-.1 2.1-.1 4.2-.5 6.2-.3 1.6-.1 2.1 1.5 2.7 2.7 1.1 5.5 1.7 8.4 1.8 1.2.1 2.3.1 3.5.2 1.4.2 2.7.3 4.1.2 1.1-.1 1.8-.8 1.9-2 .1-.8.1-1.6.1-2.5 0-1-.2-1.9-.3-2.9-.2-2.2-.1-4.5-.3-6.8.1-1.4.1-3.1 0-4.8z"/><path d="m384.1 310.3c0-.1 0-.2 0-.3-.1-2.3.1-4.6-.3-6.8 0-.3-.1-.7 0-1 .1-1.5-.3-3-.4-4.5-.1-1.2-.5-2.5-.5-3.8 0-.4.1-.9-.3-1.2-.6-.4-1.2-1-2-1.1-2.2-.3-4.5-.4-6.7-.3-1.7.1-3.5.3-5.2.1-1.5-.2-2.5.6-2.8 2.1-.5 2.4-.4 4.9-.3 7.4.1 2.7-.2 5.4-.4 8.2-.1 1.8.5 2.9 2.3 3.4 1.3.3 2.6.5 3.9.5 2.1 0 4.1 0 6.2-.2 1.3-.1 2.6 0 3.9 0 2.3-.3 2.3 0 2.6-2.5zm-2.5-.7c0 .5-.4.5-.7.6-.9 0-1.8 0-2.8 0-1.8 0-3.7-.1-5.5-.1-1.4 0-2.8-.1-4.2-.3-.3-.1-.5-.2-.5-.6 0-.5-.1-1 0-1.5.2-1.7.1-3.5 0-5.2 0-2.4-.1-4.7 0-7.1 0-.6.2-1 1-.9 3.4.3 6.8-.6 10.2-.1 1.5.2 1.4.2 1.8 1.7.5 2.5.7 5.1.8 7.7.1 2-.1 3.9-.1 5.8z"/><path d="m383.1 190.8c-.1-1.2-.5-2.5-.5-3.8 0-.4 0-.9-.3-1.2-.6-.4-1.2-1-2-1.1-2.2-.3-4.5-.4-6.7-.3-1.7.1-3.5.3-5.2.1-1.5-.3-2.5.6-2.8 2.1-.5 2.4-.3 4.9-.3 7.4.1 2.7-.2 5.4-.4 8.2-.1 1.8.6 2.9 2.3 3.3 1.3.3 2.6.5 3.9.5 2.1.1 4.1 0 6.2-.2 1.3-.2 2.6 0 3.9 0 2.3-.3 2.3.1 2.6-2.4 0-.1 0-.2 0-.3-.1-2.3.1-4.6-.3-6.8 0-.3-.1-.7-.1-1 .3-1.5-.2-3-.3-4.5zm-1.7 11.9c0 .5-.4.5-.7.6-.9 0-1.8 0-2.7 0-1.9 0-3.7-.1-5.6-.1-1.4 0-2.8-.1-4.2-.3-.3-.1-.5-.2-.5-.6 0-.5-.1-1 0-1.5.2-1.7.1-3.5 0-5.2 0-2.4-.1-4.7 0-7.1 0-.6.3-1 1-.9 3.4.3 6.8-.6 10.2 0 1.5.2 1.4.2 1.8 1.7.5 2.5.7 5.1.8 7.7.1 1.9-.1 3.8-.1 5.7z"/><path d="m383.5 396.2c-1.8.1-3.6.1-5.3 0-1.9 0-3.9.5-5.8.4-.1 0-.3 0-.4 0-1.4.3-2.7.2-4.1.3-2.4 0-3 .7-2.9 2.4 0 2.2.1 4.4.1 6.6h.1v5.7c0 1.1 0 2.2.3 3.2.3.9.8 1.5 1.8 1.7 1.6.4 3.2.2 4.8.2 1.6-.1 3.3-.1 4.9 0 1.9 0 3.8.1 5.7 0 1.3-.1 1.7-.8 2-2 .6-2.7.5-5.4.5-8.1-.1-2.8.1-5.6.1-8.5 0-1-.9-2-1.8-1.9zm-.9 10.8c0 1.5-.1 3.1-.2 4.6 0 .7-.2 1.3-.4 2-.1.3-.3.4-.6.4-.4 0-.9 0-1.3.1-2.3 0-4.7-.1-7-.1-1.2 0-2.3 0-3.5 0-1.1 0-1.4-.2-1.6-1.4-.3-1.8-.2-3.7-.3-5.6-.1-2.1-.1-4.3-.1-6.4 0-.5.1-.8.7-.9.7-.2 1.4-.2 2.2-.2.4 0 .8 0 1.2-.1.8-.2 1.7-.3 2.5-.2s1.6-.1 2.4-.2c2-.3 3.9.1 5.9-.1.3 0 .5.1.4.4-.4 2.7-.3 5.2-.3 7.7z"/><path d="m365.1 343.6c.3 1.5.7 1.9 2.2 2.1 2.4.2 4.7.1 7.1-.2 2.1-.3 4.2-.3 6.2 0 .5.1 1.2 0 1.3-.5.1-.6.6-1.1.6-1.7 0-.5.1-1.1.1-1.6.3-4.2.3-8.4 0-12.7-.1-1.9-.9-2.6-2.7-2.8-1.9-.2-3.7-.1-5.5-.1-2.1 0-4.2 0-6.3-.3-.8-.1-1.6-.3-2.4 0-1.2.4-1.7 1.4-1.6 2.7s.3 2.7.5 4c.2 2 .5 3.9.5 5.9 0 1.4.2 2.8.1 4.2-.2.4-.2.7-.1 1zm2.5-15c1.5 0 3 .2 4.5.2 1.6.1 3.1 0 4.7.1.8 0 1.5.1 2.2.2.4 0 .7.3.8.8.1.8.2 1.5.2 2.3 0 2 .1 3.9 0 5.9 0 1.4-.2 2.7-.2 4.1 0 .5-.2.6-.6.6-.6 0-1.2 0-1.8 0-1.9-.2-3.8.3-5.7.4-1.1.1-2.3.1-3.5 0-.6-.1-.9-.3-.9-.9.1-2.7-.1-5.4-.2-8.2-.1-1.5-.1-3-.4-4.5.1-.7.3-1 .9-1z"/><path d="m366.5 168.6c.5-.1 1.1 0 1.7-.1 2.1-.1 4.2.1 6.3-.2 1.2-.2 2.3-.2 3.5-.2 1 .1 2.1.1 3.1-.1.5 0 .8-.3 1-.8.7-2 .7-4 .4-6.1-.4-2.5-.9-5-.9-7.1-.2-1.7-.3-2.8-.5-4-.3-1.2-1-2-2.3-2.1-2.3-.2-4.6-.6-6.9-.2-.1 0-.1 0-.2 0-1.9.1-3.9.1-5.8.2-1.5.1-1.8.7-1.8 2.1 0 2.1.1 4.2.2 6.3.1 3.3.2 6.5 0 9.8-.3 1.5 1 2.7 2.2 2.5zm.7-17.4c1.6 0 3.2 0 4.8-.2 1.8-.2 3.6-.1 5.4 0 1.1.1 1.4.2 1.5 1.3 0 .3.1.6.1.9s.1.6.1.9c0 1 .2 2 .2 3.1 0 1.5.6 2.9.7 4.5v2.7c0 .5-.2.8-.8.8-3.8 0-7.5.5-11.2.1-.2 0-.5 0-.7-.1-.3 0-.4-.2-.4-.5-.1-4.2-.2-8.5-.4-12.7-.2-.6 0-.8.7-.8z"/><path d="m382.7 78.9c-.5-.2-1.1-.3-1.6-.4-1.2-.2-2.4-.3-3.6-.5-1.7-.3-3.4-.2-5-.5-1.8-.4-3.5-.2-5.3 0-2.4.2-2.2-.1-2.8 2.6-.3 1.4-.2 2.7-.2 4.1-.1 2.2-.4 4.4-.2 6.6.1 1.2 0 2.3-.2 3.5v.4c.1.3.1.5.2.8.2 1.5 1.4 2.7 2.9 2.7 2.3-.1 4.6.4 6.9.5 2.5.1 5.1.1 7.6-.1 1.1-.1 2-.6 2.3-1.7.6-2.3.8-4.7.8-7 0-2.7.1-5.4-.2-8 0-.3 0-.6.1-.9-.1-1.1-.8-1.6-1.7-2.1zm-.7 11.8c-.1 1.3-.3 2.6-.5 3.8-.1.9-.5 1.2-1.4 1.3-3.8.5-7.6.2-11.4-.3-.6-.1-1.2-.1-1.8-.2-.4 0-.5-.2-.6-.6-.1-2.9-.1-5.8 0-8.6 0-1.7.2-3.5.2-5.2 0-.3 0-.8.5-.8 1.6 0 3.1-.6 4.7-.3 2.2.4 4.4.3 6.6.8.9.2 1.9.4 2.8.6.7.1.7.7.7 1.2v.6c.3 2.5.4 5.1.2 7.7z"/><path d="m376.9 381.4c1.2.2 2.1-.7 2.3-1.8.3-1.4.2-2.9.3-4.3.3-3.6.1-7.2.6-10.8.2-1.6-.5-2.8-2.5-2.6-.7 0-1.3 0-2 0-1.6-.2-3.1-.4-4.7-.3-2.1.1-4.2.4-6.3 0-.3 0-.6 0-.8 0-.5 0-1 .1-1.2.7-.4 1.3-.6 2.7-.8 4.1-.2 1.7.2 3.3 0 4.9-.1 1.7-.2 3.5 0 5.2.1.6.1 1.3 0 1.9-.1.9.6 1.9 1.4 2.2 1.5.6 3.1.6 4.7.6 3.1 0 6-.2 9 .2zm-12.4-4.4c-.1-1.7-.2-3.4.1-5.1.1-.7.1-1.5 0-2.2-.2-1.4 0-2.8.2-4.2.1-1 .1-1 1.1-.9 1.9-.1 3.7 0 5.6-.2 1.5-.2 3 .2 4.5.5.1 0 .2 0 .4.1 1.1.1 1.2.1 1 1.2-.1 1-.2 1.9-.1 2.9.1 2.5-.2 4.9-.2 7.4 0 1.1-.6 1.6-1.6 1.5-2.1-.2-4.2 0-6.3-.1-1.3-.1-2.6-.2-3.9-.3-.6 0-.8-.2-.8-.6z"/><path d="m369.5 28c1.7.1 3.4-.2 5.2-.2h4c.7 0 1.1-.4 1-.8-.2-1.1 0-2.2 0-3.3 0-2.4 0-4.8.1-7.2.1-2.1.1-4.2.1-6.4 0-1.5-.3-1.9-1.7-2.4-1.7-.7-3.5-.6-5.2-.7-2-.1-3.9-.2-5.8-.5-.9 0-1.8 0-2.7 0-.5.1-.9.2-1.4.2-.7 0-1.3.5-1.5 1-.1.4-.2.9-.3 1.4-.3 2.1-.4 4.2-.5 6.3-.1 3.2-.3 6.3-.5 9.4 0 .3 0 .6.2.9.5.7 1.2 1.2 2 1.4 2.2.5 4.6.8 7 .9zm-6-14.8c0-1.2 0-2.5.5-3.7.2-.4.4-.6.9-.6 1.7-.1 3.4.2 5.2.3 1.3.1 2.5.2 3.8.3.8.1 1.6.2 2.4.4.5.2.7.4.7.9v6.8 6.7c0 .8-.1.9-.9.9-1.6 0-3.3 0-4.9.1-2.5.2-5-.1-7.5-.6-.5-.1-.6-.3-.6-.7.2-3.6.4-7.2.4-10.8z"/><path d="m364 274.7c.5.2 1.1.3 1.6.4 1.2.2 2.4.2 3.6.5 1.7.3 3.4.2 5 .5 1.8.4 3.5.2 5.3 0 2.4-.2 2.2.1 2.8-2.6.3-1.3.2-2.7.2-4.1.1-2.2.4-4.4.2-6.6-.1-1.2 0-2.3.2-3.5 0-.1 0-.3 0-.4-.1-.3-.1-.6-.2-.8-.2-1.4-1.5-2.7-2.9-2.7-2.3.1-4.6-.4-6.9-.5-2.5-.1-5.1-.1-7.6.1-1.1.1-2 .6-2.3 1.7-.6 2.3-.8 4.7-.8 7.1 0 2.7-.1 5.3.2 8 0 .3 0 .6-.1.9.1 1.1.8 1.6 1.7 2zm.7-11.8c.1-1.3.3-2.6.5-3.8.1-.9.5-1.2 1.4-1.3 3.8-.5 7.6-.2 11.4.3.6.1 1.2.1 1.8.1.4 0 .5.2.6.6.1 2.9.1 5.8 0 8.6 0 1.7-.1 3.5-.2 5.2 0 .3 0 .8-.5.7-1.6 0-3.1.6-4.7.3-2.2-.4-4.5-.3-6.6-.7-.9-.2-1.9-.4-2.8-.6-.7-.1-.7-.7-.7-1.2 0-.2 0-.4 0-.6-.2-2.4-.3-5-.2-7.6z"/><path d="m345.8 148.3c-.5 0-.9-.1-1.4-.1-2.8 0-5.7 0-8.5-.1-1.4-.1-2.7-.4-4.1-.3-.3 0-.7 0-1 0-1.2 0-1.6.4-1.5 1.6.2 2.7-.1 5.5.2 8.2.2 1.3-.2 2.6-.3 3.9-.1 1.5-.2 2.8.7 4.2.6.9.9 1.3 2 1.3 1.8.1 3.5-.3 5.3-.4 3.4-.2 6.8 0 10.2.2 1.3 0 1.9-.5 1.9-1.8 0-.1 0-.3 0-.4-.3-3.2-.5-6.5-.9-9.7-.1-1.5-.2-3-.5-4.5-.2-1.3-.8-2-2.1-2.1z"/><path d="m348 328.5c0-1.2-.6-1.8-1.9-1.8-.6 0-1.1 0-1.7-.1-1.9-.1-3.9-.4-5.8-.3-1.8.1-3.5 0-5.3-.1-1.1 0-1.8.4-2.2 1.5-1.1 2.8-1.4 5.7-1.5 8.7-.1 2.1-.1 4.2-.5 6.2-.3 1.6-.1 2.1 1.5 2.7 2.7 1.1 5.5 1.7 8.4 1.8 1.2.1 2.3.1 3.4.2 1.4.2 2.7.3 4.1.2 1.1-.1 1.8-.8 1.9-2 .1-.8.1-1.6.1-2.5 0-1-.2-1.9-.3-2.9-.2-2.2-.1-4.5-.3-6.8.1-1.4.2-3.1.1-4.8z"/><path d="m349 408c.1-1.5-.3-3-.4-4.5-.1-1.2-.5-2.5-.5-3.8 0-.4 0-.9-.3-1.2-.6-.4-1.2-1-2-1.1-2.2-.3-4.5-.4-6.7-.3-1.8.1-3.5.4-5.2 0-1.5-.2-2.5.6-2.8 2.1-.5 2.4-.3 4.9-.3 7.4.1 2.7-.2 5.4-.4 8.2-.1 1.8.5 2.9 2.3 3.4 1.3.3 2.6.5 3.9.5 2 .1 4.1 0 6.2-.2 1.3-.2 2.6 0 3.9 0 2.3-.3 2.3.1 2.6-2.4 0-.1 0-.2 0-.3-.1-2.3.1-4.6-.3-6.8 0-.3 0-.7 0-1z"/><path d="m333.2 78.1c-1.2-.1-2.1.7-2.3 1.8-.3 1.4-.2 2.9-.3 4.3-.3 3.6-.1 7.2-.6 10.8-.2 1.6.5 2.8 2.5 2.6h2c1.6.2 3.1.4 4.7.3 2.1-.1 4.2-.4 6.3 0h.8c.5 0 1-.1 1.2-.7.4-1.3.6-2.7.8-4.1.2-1.7-.2-3.3-.1-4.9.1-1.7.2-3.5 0-5.2-.1-.6-.1-1.3 0-1.9.1-.9-.6-1.9-1.4-2.2-1.5-.6-3.2-.6-4.7-.6-3.1 0-6 .1-8.9-.2zm12.4 4.4c.1 1.7.2 3.4-.1 5.1-.1.7-.1 1.5 0 2.2.2 1.4 0 2.8-.2 4.2-.1 1-.1 1-1.1.9-1.8 0-3.7 0-5.5.2-1.6.2-3-.2-4.5-.5-.1 0-.2-.1-.4-.1-1.1-.1-1.2-.1-1-1.2.1-1 .2-1.9.1-2.9-.1-2.5.2-4.9.2-7.4 0-1.1.6-1.6 1.6-1.5 2.1.2 4.2 0 6.3.1 1.3.1 2.6.2 3.9.3.4 0 .6.2.7.6z"/><path d="m349.5 186.8c.1-1.1-.6-1.6-1.5-2.1-.5-.2-1.1-.3-1.6-.4-1.2-.2-2.4-.3-3.6-.5-1.7-.3-3.4-.2-5-.5-1.8-.4-3.5-.1-5.3 0-2.4.2-2.2-.1-2.8 2.6-.3 1.3-.2 2.7-.2 4.1-.1 2.2-.4 4.4-.2 6.6.1 1.2 0 2.3-.2 3.5v.4c.1.3.1.6.2.8.2 1.4 1.5 2.7 2.9 2.7 2.3-.1 4.6.4 6.9.5 2.5.1 5 .1 7.6-.1 1.1-.1 2-.6 2.3-1.7.6-2.3.8-4.7.8-7.1 0-2.7.1-5.3-.2-8-.2-.2-.2-.5-.1-.8zm-2.2 9.7c-.1 1.3-.3 2.6-.5 3.8-.1.9-.5 1.2-1.4 1.3-3.8.5-7.6.2-11.4-.3-.6-.1-1.2-.1-1.8-.2-.4 0-.5-.2-.6-.6-.1-2.9 0-5.8 0-8.6 0-1.7.2-3.5.2-5.2 0-.3 0-.8.5-.8 1.6 0 3.1-.6 4.7-.3 2.2.4 4.5.3 6.6.7.9.2 1.9.4 2.8.6.7.1.7.7.7 1.2v.6c.2 2.7.4 5.2.2 7.8z"/><path d="m330.2 310.9c2.3-.1 4.6.4 6.9.5 2.5.1 5.1.1 7.6-.1 1.1-.1 2-.6 2.3-1.7.6-2.3.8-4.7.8-7 0-2.7.1-5.4-.2-8 0-.3 0-.6.1-.9.1-1.1-.5-1.6-1.5-2.1-.5-.2-1.1-.3-1.6-.4-1.2-.2-2.4-.2-3.6-.5-1.7-.3-3.4-.2-5-.5-1.8-.4-3.5-.2-5.3 0-2.4.2-2.2-.1-2.8 2.6-.3 1.3-.2 2.7-.2 4.1-.1 2.2-.4 4.4-.2 6.6.1 1.2 0 2.3-.2 3.5v.4c.1.3.1.6.2.8 0 1.5 1.3 2.8 2.7 2.7zm-.3-12.1c0-1.7.2-3.5.2-5.2 0-.3 0-.8.5-.7 1.6 0 3.1-.6 4.7-.3 2.2.4 4.4.3 6.6.7.9.2 1.8.4 2.8.6.7.1.7.7.7 1.2v.6c.1 2.6.2 5.2 0 7.7-.1 1.3-.3 2.6-.5 3.8-.1.9-.5 1.2-1.4 1.3-3.8.5-7.6.2-11.4-.3-.6-.1-1.2-.1-1.8-.1-.4 0-.5-.2-.6-.6.1-2.9.2-5.8.2-8.7z"/><path d="m329.1 27.6c1.3.3 2.6.5 3.9.5 2.1 0 4.1 0 6.2-.2 1.3-.1 2.6 0 3.9 0 2.3-.3 2.3.1 2.6-2.4 0-.1 0-.2 0-.4-.1-2.3.1-4.5-.3-6.8 0-.3-.1-.7 0-1 .2-1.5-.3-3-.4-4.5-.1-1.2-.5-2.5-.5-3.8 0-.4.1-.9-.3-1.2-.6-.4-1.2-1-2-1.1-2.2-.3-4.5-.4-6.7-.3-1.7.1-3.5.3-5.2 0-1.5-.3-2.5.6-2.8 2.1-.5 2.4-.3 4.9-.3 7.4.1 2.7-.2 5.4-.4 8.2-.1 2 .5 3.1 2.3 3.5zm.4-4.6c.2-1.7.1-3.5 0-5.2 0-2.4-.1-4.7 0-7.1 0-.6.2-1 1-.9 3.4.3 6.8-.6 10.2-.1 1.5.2 1.4.2 1.8 1.7.5 2.5.7 5.1.8 7.7.1 1.9 0 3.8-.1 5.7 0 .5-.4.5-.7.5-.9 0-1.8.1-2.8 0-1.9 0-3.7-.1-5.5-.1-1.4 0-2.8-.1-4.2-.3-.3 0-.5-.2-.5-.5 0-.5-.1-1 0-1.4z"/><path d="m327.9 239.7c2.3.6 4.7.9 7.1 1 1.7.1 3.4-.2 5.2-.2h4c.7 0 1.1-.4 1.1-.8-.2-1.1 0-2.2 0-3.3 0-2.4 0-4.8.1-7.2.1-2.1.1-4.2.1-6.4 0-1.5-.3-1.8-1.7-2.4-1.7-.7-3.5-.6-5.2-.7-1.9-.1-3.9-.2-5.8-.5-.9 0-1.8 0-2.7 0-.5.1-.9.2-1.4.2-.7 0-1.3.5-1.5 1-.1.5-.2.9-.3 1.4-.3 2.1-.4 4.2-.5 6.4-.1 3.1-.2 6.3-.5 9.4 0 .3 0 .6.2.9.3.5.9 1 1.8 1.2zm1.1-13.8c0-1.2 0-2.5.5-3.7.2-.4.4-.6.9-.6 1.7-.1 3.4.2 5.2.3 1.3.1 2.6.2 3.8.3.8.1 1.6.2 2.4.5.5.2.7.4.7.9v6.8 6.7c0 .8-.1.9-.9.9-1.6 0-3.3 0-4.9.2-2.5.2-5-.1-7.5-.6-.5-.1-.6-.3-.6-.7.2-3.8.4-7.4.4-11z"/><path d="m327.7 273.6c.6.4 1.2 1 2 1.1 2.2.3 4.5.4 6.7.3 1.8-.1 3.5-.3 5.2-.1 1.5.3 2.5-.6 2.8-2.1.5-2.4.3-4.9.3-7.4-.1-2.7.2-5.4.4-8.2.1-1.8-.5-2.9-2.3-3.4-1.3-.3-2.6-.5-3.9-.5-2.1 0-4.1 0-6.2.2-1.3.2-2.6 0-3.9 0-2.3.3-2.3-.1-2.6 2.4v.3c.1 2.3-.1 4.6.3 6.8 0 .3.1.7 0 1-.2 1.5.3 3 .4 4.5.1 1.3.5 2.5.5 3.8-.1.5-.1 1 .3 1.3zm.9-16.8c0-.5.4-.5.7-.5.9 0 1.8-.1 2.8 0 1.9 0 3.7.1 5.5.1 1.4 0 2.8.1 4.2.3.3 0 .5.2.5.5 0 .5.1 1 0 1.5-.2 1.7-.1 3.5 0 5.2 0 2.4.1 4.7 0 7.1 0 .6-.2 1-1 .9-3.4-.3-6.8.6-10.2.1-1.5-.2-1.4-.2-1.8-1.7-.5-2.5-.7-5.1-.8-7.7 0-2 .1-3.9.1-5.8z"/><path d="m327.6 132.8c2.3.6 4.7.9 7.1 1 1.7.1 3.4-.2 5.2-.2h4c.7 0 1.1-.4 1.1-.8-.2-1.1 0-2.2 0-3.3 0-2.4 0-4.8.1-7.3 0-2.1.1-4.2 0-6.4 0-1.5-.3-1.8-1.7-2.4-1.7-.7-3.5-.6-5.2-.7-2-.1-3.9-.2-5.8-.5-.9 0-1.8 0-2.6 0-.5.1-1 .2-1.4.2-.7 0-1.3.5-1.5 1-.1.5-.2.9-.3 1.4-.3 2.1-.4 4.2-.5 6.3-.1 3.2-.2 6.3-.5 9.4 0 .3 0 .6.2.9.3.8 1 1.2 1.8 1.4zm1.2-13.8c0-1.2 0-2.5.5-3.7.2-.4.4-.6.9-.6 1.7-.1 3.4.2 5.2.3 1.3.1 2.6.2 3.8.3.8.1 1.6.2 2.4.5.5.1.7.4.7.9v6.8 6.7c0 .8-.1.9-.9.9-1.6 0-3.3 0-4.9.1-2.5.2-5-.1-7.5-.6-.5-.1-.6-.3-.6-.7.2-3.7.4-7.3.4-10.9z"/><path d="m334.6 381.4c1.7.3 3.4.2 5 .5 1.8.4 3.5.2 5.3 0 2.4-.2 2.2.1 2.8-2.6.3-1.3.2-2.7.2-4.1.1-2.2.4-4.4.2-6.6-.1-1.2 0-2.3.2-3.5 0-.1 0-.3 0-.4-.1-.3-.1-.5-.2-.8-.2-1.5-1.5-2.7-2.9-2.7-2.3.1-4.6-.4-6.9-.5-2.5-.1-5.1-.1-7.6.1-1.1.1-2 .6-2.3 1.7-.6 2.3-.8 4.7-.8 7.1 0 2.7-.1 5.4.2 8 0 .3 0 .6-.1.9-.1 1.1.6 1.6 1.5 2.1.5.2 1.1.3 1.6.4 1.3.1 2.6.2 3.8.4zm-4.6-4.3c0-.2 0-.4 0-.6-.1-2.6-.2-5.2 0-7.7.1-1.3.3-2.6.5-3.8.1-.9.5-1.2 1.4-1.3 3.8-.5 7.6-.2 11.4.3.6.1 1.2.1 1.8.2.4 0 .5.2.6.6.1 2.9 0 5.8 0 8.6 0 1.7-.2 3.5-.2 5.2 0 .3 0 .8-.5.8-1.6 0-3.1.6-4.7.3-2.2-.4-4.5-.3-6.6-.8-.9-.2-1.9-.4-2.8-.6s-.8-.7-.9-1.2z"/><path d="m330.4 64.1c1.7.3 3.4.2 5 .5 1.8.4 3.5.2 5.3 0 2.4-.2 2.2.1 2.8-2.6.3-1.4.2-2.7.2-4.1.1-2.2.4-4.4.2-6.6-.1-1.2 0-2.3.2-3.5 0-.1 0-.3 0-.4-.1-.3-.1-.5-.2-.8-.2-1.4-1.4-2.7-2.9-2.7-2.3.1-4.6-.4-6.9-.5-2.5-.1-5.1-.1-7.6.1-1.1.1-2 .6-2.3 1.7-.6 2.3-.8 4.7-.8 7 0 2.7-.1 5.4.2 8 0 .3 0 .6-.1.9-.1 1.1.5 1.6 1.5 2 .5.2 1.1.3 1.6.4 1.3.3 2.6.4 3.8.6zm-4.6-4.4c0-.2 0-.4 0-.6-.1-2.6-.2-5.2 0-7.7.1-1.3.3-2.6.5-3.8.1-.9.5-1.2 1.4-1.3 3.8-.5 7.6-.2 11.4.3.6.1 1.2.1 1.8.2.4 0 .5.2.6.6.1 2.9.1 5.8 0 8.6 0 1.7-.2 3.5-.2 5.2 0 .3 0 .8-.5.8-1.6 0-3.1.6-4.7.3-2.2-.4-4.4-.3-6.6-.8-.9-.2-1.8-.4-2.8-.6-.9-.1-.8-.6-.9-1.2z"/><path d="m313.5 295.8c-.1-.6-.1-1.3 0-1.9.1-.8-.6-1.9-1.4-2.2-1.5-.6-3.2-.6-4.7-.6-2.9-.1-5.9 0-8.8-.3-1.2-.2-2.1.7-2.3 1.8-.3 1.4-.2 2.8-.3 4.3-.3 3.6-.1 7.2-.6 10.8-.2 1.6.5 2.8 2.5 2.6h2c1.6.2 3.1.4 4.7.3 2.1-.1 4.2-.4 6.3 0h.8c.5 0 1-.1 1.2-.7.4-1.3.6-2.7.8-4.1.2-1.6-.2-3.3-.1-4.9 0-1.7.1-3.4-.1-5.1z"/><path d="m313.3 188.9c-.1-.6-.1-1.3 0-1.9.1-.9-.6-1.9-1.4-2.2-1.5-.6-3.1-.5-4.7-.6-2.9-.1-5.9 0-8.8-.3-1.2-.2-2.1.7-2.3 1.8-.3 1.4-.2 2.9-.3 4.3-.3 3.6-.1 7.2-.6 10.8-.2 1.6.5 2.8 2.5 2.6h2c1.5.2 3.1.4 4.7.3 2.1-.1 4.2-.4 6.3 0h.8c.5 0 1-.1 1.2-.7.4-1.3.6-2.7.8-4.1.2-1.7-.2-3.3-.1-4.9 0-1.6.1-3.4-.1-5.1zm-2.6 6.6c.2 1.4 0 2.8-.2 4.2-.1 1-.1 1-1.1.9-1.9.1-3.7 0-5.5.2-1.5.2-3-.2-4.5-.5-.1 0-.2 0-.4-.1-1.1-.1-1.2-.1-1-1.2.1-1 .2-1.9.2-2.9-.1-2.5.2-4.9.1-7.4 0-1.1.6-1.6 1.6-1.5 2.1.2 4.2 0 6.3.1 1.3.1 2.6.2 3.9.3.4 0 .6.2.6.6.1 1.7.2 3.4-.1 5.1 0 .8 0 1.5.1 2.2z"/><path d="m292.8 22.6c.1.3.1.6.2.8.2 1.4 1.5 2.7 2.9 2.7 2.3-.1 4.6.4 6.9.5 2.5.1 5.1.1 7.6-.1 1.1-.1 2-.6 2.3-1.7.6-2.3.8-4.7.8-7 0-2.7.1-5.4-.2-8 0-.3 0-.6.1-.9.1-1.1-.5-1.6-1.5-2-.5-.2-1.1-.3-1.6-.4-1.2-.2-2.4-.3-3.6-.5-1.7-.3-3.4-.2-5-.5-1.8-.4-3.5-.2-5.3 0-2.4.2-2.2-.1-2.8 2.6-.3 1.3-.2 2.7-.2 4.1-.1 2.2-.4 4.4-.2 6.6.1 1.2 0 2.3-.2 3.5-.2.1-.2.2-.2.3zm2.7-8.6c0-1.7.1-3.5.2-5.2 0-.3 0-.8.5-.7 1.6 0 3.1-.6 4.7-.3 2.2.4 4.5.3 6.6.7.9.2 1.9.4 2.8.6.7.1.7.7.7 1.2v.6c.1 2.6.2 5.2 0 7.7-.1 1.3-.3 2.6-.5 3.8-.1.9-.5 1.2-1.4 1.3-3.8.5-7.6.2-11.4-.3-.6-.1-1.2-.1-1.8-.1-.4 0-.5-.2-.6-.6.1-3 .2-5.8.2-8.7z"/><path d="m292.4 94.5c-.1.9-.2 1.8-.2 2.7 0 1.1.5 1.6 1.6 1.7 1.2.1 2.3 0 3.5.2 2.4.3 4.7.4 7.1.5 1.6.1 3.2.2 4.8.4 1.4.1 2.2-.4 2.5-1.9.4-2.6.3-5.1.1-7.7-.2-3.2-.3-6.4-.1-9.6 0-1-.6-2.1-1.6-2.3s-2-.3-3.1-.3c-1.7.1-3.4.2-5.1 0-2.3-.2-4.6-.4-6.7-.5-.4 0-.6 0-.8 0-1-.2-1.6.3-1.7 1.6v.4c0 3.1.1 6.3-.1 9.4-.1 1.9 0 3.6-.2 5.4zm2.8-12.6c0-.4 0-.6.6-.6 1.4.1 2.7.3 4.1.2 2.2-.2 4.3 0 6.5.2.6.1 1.1 0 1.7 0 1 0 1 0 1 1-.1 1.4-.1 2.7 0 4.1.1 2.4.2 4.7.2 7.1 0 .8-.1 1.5-.2 2.3 0 .4-.2.6-.7.5-2.2-.2-4.4-.2-6.6-.3-1.9-.2-3.9-.6-5.8-.6-.7 0-1-.3-.9-1 .1-1.5 0-3 0-5.1-.1-2.1.4-4.9.1-7.8z"/><path d="m313 399.5c.1-1.1-.6-1.6-1.5-2.1-.5-.2-1.1-.3-1.6-.4-1.2-.2-2.4-.2-3.6-.5-1.7-.3-3.4-.2-5-.5-1.8-.4-3.5-.2-5.3 0-2.4.2-2.2-.1-2.8 2.6-.3 1.3-.2 2.7-.2 4.1-.1 2.2-.4 4.4-.2 6.6.1 1.2 0 2.3-.2 3.5v.4c.1.2.1.5.2.8.2 1.5 1.5 2.7 2.9 2.7 2.3-.1 4.6.4 6.9.5 2.5.1 5.1.1 7.6-.1 1.1-.1 2-.6 2.3-1.7.6-2.3.8-4.7.8-7 0-2.7.1-5.4-.2-8-.2-.3-.2-.6-.1-.9zm-2.2 9.7c-.1 1.3-.3 2.6-.5 3.8-.1.9-.5 1.2-1.4 1.3-3.8.5-7.6.2-11.4-.3-.6-.1-1.2-.1-1.8-.1-.4 0-.5-.2-.6-.6-.1-2.9-.1-5.8 0-8.6 0-1.7.2-3.5.2-5.2 0-.3 0-.8.5-.7 1.6 0 3.1-.6 4.7-.3 2.2.4 4.4.3 6.6.8.9.2 1.9.4 2.8.6.7.1.7.7.7 1.2v.6c.2 2.4.3 4.9.2 7.5z"/><path d="m294.6 240.3c1.3.3 2.6.5 3.9.5 2.1 0 4.1 0 6.2-.2 1.3-.1 2.6 0 3.9 0 2.3-.3 2.3.1 2.6-2.4 0-.1 0-.2 0-.4-.1-2.3.1-4.5-.3-6.8 0-.3-.1-.7 0-1 .2-1.5-.3-3-.4-4.5-.1-1.2-.5-2.5-.5-3.8 0-.4 0-.9-.3-1.2-.6-.4-1.2-1-2-1.1-2.2-.3-4.5-.4-6.7-.3-1.8.1-3.5.3-5.2 0-1.5-.2-2.5.6-2.8 2.1-.5 2.5-.3 4.9-.3 7.4.1 2.7-.2 5.4-.4 8.2-.1 2 .5 3.1 2.3 3.5zm.4-9.9c0-2.4-.1-4.7 0-7.1 0-.6.3-1 1-.9 3.4.3 6.8-.6 10.2-.1 1.5.2 1.4.2 1.8 1.7.5 2.5.7 5.1.8 7.7.1 1.9 0 3.8-.1 5.7 0 .5-.4.5-.7.6-.9 0-1.8.1-2.8 0-1.9 0-3.7-.1-5.6-.1-1.4 0-2.8-.1-4.2-.3-.3-.1-.5-.2-.5-.6 0-.5-.1-1-.1-1.5.3-1.6.3-3.3.2-5.1z"/><path d="m294.3 133.5c1.3.3 2.6.5 3.9.5 2.1 0 4.1 0 6.2-.2 1.3-.1 2.6 0 3.9 0 2.3-.3 2.3.1 2.6-2.4 0-.1 0-.2 0-.4-.1-2.3.1-4.5-.3-6.8 0-.3-.1-.7 0-1 .2-1.5-.3-3-.4-4.5-.1-1.2-.5-2.5-.5-3.8 0-.4.1-.9-.3-1.2-.6-.4-1.2-1-2-1.1-2.2-.3-4.5-.4-6.7-.3-1.8.1-3.5.4-5.2 0-1.5-.2-2.5.6-2.8 2.1-.5 2.4-.3 4.9-.3 7.4.1 2.7-.2 5.4-.4 8.2-.1 1.9.6 3 2.3 3.5zm.5-17c0-.6.2-1 .9-.9 3.4.3 6.8-.6 10.2-.1 1.5.2 1.4.2 1.8 1.7.5 2.5.7 5.1.8 7.7.1 1.9 0 3.8 0 5.7 0 .5-.4.5-.7.6-.9 0-1.8 0-2.8 0-1.8 0-3.7-.1-5.5-.1-1.4 0-2.8-.1-4.2-.3-.3 0-.5-.2-.5-.5 0-.5-.1-1-.1-1.5.2-1.7.1-3.5.1-5.2 0-2.4-.2-4.8 0-7.1z"/><path d="m293.1 345.5c2.3.6 4.7.9 7.1 1 1.7.1 3.4-.2 5.2-.2h4c.7 0 1.1-.4 1.1-.8-.2-1.1 0-2.2 0-3.3 0-2.4 0-4.8.1-7.2.1-2.1.1-4.2.1-6.4 0-1.5-.3-1.8-1.7-2.4-1.7-.7-3.5-.6-5.2-.7-2-.1-3.9-.2-5.8-.5-.9 0-1.8 0-2.7 0-.5.1-.9.2-1.4.2-.7 0-1.3.5-1.5 1-.1.4-.2.9-.3 1.4-.3 2.1-.4 4.2-.5 6.3-.1 3.1-.2 6.3-.5 9.4 0 .3 0 .6.2.9.3.7 1 1.1 1.8 1.3zm1.2-13.8c0-1.2 0-2.5.5-3.7.2-.4.4-.6.9-.6 1.7-.1 3.4.2 5.2.3 1.3.1 2.5.2 3.8.3.8.1 1.6.2 2.4.4.5.2.7.4.7.9v6.8 6.7c0 .8-.1.9-.9.9-1.6 0-3.3 0-4.9.1-2.5.2-5-.1-7.5-.6-.5-.1-.6-.3-.6-.7.1-3.6.4-7.2.4-10.8z"/><path d="m292.9 379.4c.6.4 1.2 1 2 1.1 2.2.3 4.5.4 6.7.3 1.7-.1 3.5-.3 5.2-.1 1.5.3 2.5-.6 2.8-2.1.5-2.4.3-4.9.3-7.4-.1-2.7.2-5.4.4-8.1.1-1.8-.5-2.9-2.3-3.4-1.3-.3-2.6-.5-3.9-.5-2.1-.1-4.1 0-6.2.2-1.3.2-2.6 0-3.9 0-2.3.3-2.3-.1-2.6 2.4v.3c.1 2.3-.1 4.6.3 6.8 0 .3.1.7 0 1-.2 1.5.3 3 .4 4.5.1 1.2.5 2.5.5 3.8 0 .4-.1.9.3 1.2zm1-16.8c0-.5.4-.5.7-.6h2.8c1.9 0 3.7.1 5.6.1 1.4 0 2.8.1 4.2.3.3.1.5.2.5.6 0 .5.1 1 0 1.5-.2 1.7-.1 3.5 0 5.2 0 2.4.1 4.7 0 7.1 0 .6-.2 1-1 .9-3.4-.3-6.8.6-10.2 0-1.5-.2-1.4-.2-1.8-1.7-.5-2.5-.7-5.1-.8-7.7-.2-1.9 0-3.8 0-5.7z"/><path d="m291.5 52.7c-.1 1.5.3 3 .4 4.5.1 1.2.5 2.5.5 3.8 0 .4-.1.9.3 1.2.6.4 1.2 1 2 1.1 2.2.3 4.5.4 6.7.3 1.7-.1 3.5-.4 5.2 0 1.5.3 2.5-.6 2.8-2.1.5-2.5.4-4.9.3-7.4-.1-2.7.2-5.4.4-8.1.1-1.8-.5-2.9-2.3-3.4-1.3-.3-2.6-.5-3.9-.5-2.1 0-4.1 0-6.2.2-1.3.1-2.6 0-3.9 0-2.3.3-2.3-.1-2.6 2.4v.4c.1 2.3-.1 4.5.3 6.8 0 .1.1.4 0 .8zm2.2-7.4c0-.5.4-.5.7-.5.9 0 1.8-.1 2.8 0h5.5c1.4 0 2.8.1 4.2.3.3 0 .5.2.5.5 0 .5.1 1 0 1.5-.2 1.7-.1 3.5 0 5.2 0 2.4.1 4.7 0 7.1 0 .6-.2 1-1 .9-3.4-.3-6.8.6-10.2 0-1.5-.2-1.4-.2-1.8-1.7-.5-2.5-.7-5.1-.8-7.7-.1-1.8.1-3.7.1-5.6z"/><path d="m297.4 276c2 0 3.9-.5 5.8-.4h.4c1.3-.3 2.7-.2 4.1-.3 2.4 0 3-.7 2.9-2.4 0-2.2-.1-4.4-.1-6.6 0-1.9 0-3.8 0-5.7 0-1.1 0-2.2-.3-3.2-.3-.9-.8-1.5-1.8-1.8-1.6-.4-3.2-.2-4.8-.2-1.6.1-3.3.1-4.9.1-1.9 0-3.8-.1-5.7 0-1.3.1-1.8.8-2 2-.6 2.7-.5 5.4-.5 8.1.1 2.8-.1 5.6-.1 8.5 0 1 .8 2 1.8 1.9 1.6-.1 3.4-.1 5.2 0zm-4.5-10.9c0-1.5.1-3.1.2-4.6 0-.7.2-1.3.4-2 .1-.3.3-.4.6-.4.4 0 .9 0 1.3-.1 2.3 0 4.7.1 7 .1h3.5c1.1 0 1.4.2 1.6 1.4.3 1.8.2 3.7.3 5.6.1 2.1.1 4.3.2 6.4 0 .5-.1.8-.7.9-.7.2-1.4.2-2.2.2-.4 0-.8 0-1.2.1-.8.2-1.7.3-2.5.2s-1.6.2-2.4.3c-1.9.3-3.9-.1-5.8.1-.3 0-.5-.1-.5-.4.3-2.7.2-5.2.2-7.8z"/><path d="m292 169.5c1.2.2 2.4.2 3.6.5 1.7.3 3.4.2 5 .5 1.8.4 3.5.2 5.3 0 2.4-.2 2.2.1 2.8-2.6.3-1.3.2-2.7.2-4.1.1-2.2.4-4.4.2-6.6-.1-1.2 0-2.3.2-3.5 0-.1 0-.3 0-.4-.1-.3-.1-.5-.2-.8-.2-1.4-1.5-2.7-2.9-2.7-2.3.1-4.6-.4-6.9-.5-2.5-.1-5.1-.1-7.6.1-1.1.1-2 .6-2.4 1.7-.6 2.3-.8 4.7-.8 7 0 2.7-.1 5.4.2 8 0 .3 0 .6-.1.9-.1 1.1.5 1.6 1.5 2.1.8.2 1.3.3 1.9.4zm-1-12.2c.1-1.3.3-2.6.5-3.8.1-.9.5-1.2 1.4-1.3 3.8-.5 7.6-.2 11.4.3.6.1 1.2.1 1.8.2.4 0 .5.2.6.6.1 2.9 0 5.8 0 8.6 0 1.7-.2 3.5-.2 5.2 0 .3 0 .8-.5.8-1.6 0-3.1.6-4.7.3-2.2-.4-4.5-.3-6.6-.8-.9-.2-1.9-.4-2.8-.6-.7-.1-.7-.7-.7-1.2 0-.2 0-.4 0-.6-.2-2.6-.3-5.2-.2-7.7z"/><path d="m257.7 27.6c2.8 0 5.7 0 8.5.1 1.4.1 2.7.4 4.1.3h1c1.2 0 1.7-.4 1.5-1.6-.2-2.7.1-5.5-.2-8.2-.2-1.3.2-2.6.3-3.9.1-1.5.2-2.8-.7-4.2-.6-.9-.9-1.3-2-1.3-1.8-.1-3.5.3-5.2.4-3.4.2-6.8-.1-10.2-.2-1.3 0-1.9.5-1.9 1.8v.4c.3 3.2.5 6.5.9 9.7.1 1.5.2 3 .5 4.5.3 1.2.9 1.9 2.1 2 .4.1.9.2 1.3.2z"/><path d="m278.8 401.6c-.1-.6-.1-1.3 0-1.9.1-.9-.6-1.9-1.4-2.2-1.5-.6-3.2-.6-4.7-.6-2.9-.1-5.9 0-8.8-.3-1.2-.2-2.1.7-2.3 1.8-.3 1.4-.2 2.8-.3 4.3-.3 3.6-.1 7.2-.6 10.8-.2 1.6.5 2.8 2.5 2.6.7-.1 1.3-.1 2 0 1.6.2 3.1.4 4.7.3 2.1-.1 4.2-.4 6.3 0h.8c.5 0 1-.1 1.2-.7.4-1.3.6-2.7.8-4.1.2-1.6-.2-3.3-.1-4.9 0-1.6.1-3.4-.1-5.1zm-2.6 6.6c.2 1.4 0 2.8-.2 4.2-.1 1-.1 1-1.1.9-1.8 0-3.7 0-5.5.2-1.6.2-3-.2-4.5-.5-.1 0-.2-.1-.4-.1-1.1-.1-1.2-.1-1-1.2.1-1 .2-1.9.1-2.9-.1-2.5.2-4.9.2-7.4 0-1.1.6-1.6 1.6-1.5 2.1.2 4.2 0 6.3.1 1.3 0 2.6.2 3.9.3.4 0 .6.2.6.6.1 1.7.2 3.4-.1 5.1 0 .8 0 1.5.1 2.2z"/><path d="m278.8 221.5c.1-1.1-.6-1.6-1.5-2.1-.5-.2-1.1-.3-1.6-.4-1.2-.2-2.4-.2-3.6-.5-1.7-.3-3.4-.2-5-.5-1.8-.4-3.5-.2-5.3 0-2.4.2-2.2-.1-2.8 2.6-.3 1.3-.2 2.7-.2 4.1-.1 2.2-.4 4.4-.2 6.6.1 1.2 0 2.3-.2 3.5v.4c.2.2.1.5.2.8.2 1.4 1.5 2.7 2.9 2.7 2.3-.1 4.6.4 6.9.5 2.5.1 5.1.1 7.6-.1 1.1-.1 2-.6 2.3-1.7.6-2.3.8-4.7.8-7 0-2.7.1-5.4-.2-8-.2-.3-.1-.6-.1-.9zm-2.2 9.8c-.1 1.3-.3 2.6-.5 3.8-.1.9-.5 1.2-1.4 1.3-3.8.5-7.6.2-11.4-.3-.6-.1-1.2-.1-1.8-.2-.4 0-.5-.2-.6-.6-.1-2.9-.1-5.8 0-8.6 0-1.7.2-3.5.2-5.2 0-.3 0-.7.5-.7 1.6 0 3.1-.6 4.7-.3 2.2.4 4.4.3 6.6.8.9.2 1.9.4 2.8.6.7.1.7.7.7 1.2v.6c.3 2.4.4 5 .2 7.6z"/><path d="m271.8 111.7c-1.7-.3-3.4-.2-5-.5-1.8-.4-3.5-.2-5.3 0-2.4.2-2.2-.1-2.8 2.6-.3 1.3-.2 2.7-.2 4.1-.1 2.2-.4 4.4-.2 6.6.1 1.2 0 2.3-.2 3.5v.4c.1.3.1.5.2.8.2 1.4 1.5 2.7 2.9 2.7 2.3-.1 4.6.4 6.9.5 2.5.1 5.1.1 7.6-.1 1.1-.1 2-.6 2.3-1.7.6-2.3.8-4.7.8-7 0-2.7.1-5.4-.2-8 0-.3 0-.6.1-.9.1-1.1-.5-1.6-1.5-2.1-.5-.2-1.1-.3-1.6-.4-1.4-.2-2.6-.2-3.8-.5zm4.5 4.4v.6c.1 2.6.2 5.2 0 7.7-.1 1.3-.3 2.6-.5 3.8-.1.9-.5 1.2-1.4 1.3-3.8.5-7.6.2-11.4-.3-.6-.1-1.2-.1-1.8-.2-.4 0-.5-.2-.6-.6-.1-2.9-.1-5.8 0-8.6 0-1.7.1-3.5.2-5.2 0-.3 0-.8.5-.7 1.6 0 3.1-.6 4.7-.3 2.2.4 4.5.3 6.6.7.9.2 1.9.5 2.8.6s.9.7.9 1.2z"/><path d="m275.5 291.3c-1-.2-2-.3-3.1-.3-1.7.1-3.4.2-5.1 0-2.3-.2-4.6-.3-6.7-.5-.4 0-.6 0-.8 0-1-.2-1.6.3-1.7 1.6v.4c0 3.1.1 6.3-.1 9.4-.1 1.8 0 3.5-.1 5.3-.1.9-.2 1.8-.2 2.7 0 1.1.5 1.6 1.6 1.7 1.2.1 2.3 0 3.5.2 2.3.3 4.7.4 7.1.5 1.6.1 3.2.2 4.8.4 1.4.1 2.2-.4 2.5-1.9.3-2.6.3-5.2.1-7.7-.2-3.2-.3-6.4-.1-9.6 0-1-.7-2.1-1.7-2.2zm-.9 17.7c0 .4-.2.6-.6.6-2.2-.2-4.4-.2-6.6-.3-1.9-.2-3.9-.6-5.8-.6-.7 0-1-.3-.9-1 0-1.5 0-3 0-5.1-.1-2.2.3-5 .1-7.9 0-.4 0-.6.6-.6 1.4.1 2.7.3 4.1.2 2.1-.2 4.3 0 6.5.2.6.1 1.1.1 1.7 0 1 0 1 0 1 1-.1 1.4-.1 2.7 0 4.1.1 2.4.2 4.7.2 7.1-.1.8-.2 1.6-.3 2.3z"/><path d="m262.6 204.9c2.4.3 4.7.4 7.1.5 1.6.1 3.2.2 4.8.4 1.4.2 2.3-.4 2.5-1.8.3-2.6.3-5.2.1-7.7-.2-3.2-.3-6.4-.1-9.6 0-1-.6-2.1-1.6-2.3s-2-.3-3.1-.3c-1.7.1-3.4.2-5.1 0-2.3-.2-4.6-.3-6.7-.5-.4 0-.6 0-.8 0-1-.2-1.6.3-1.7 1.6v.4c0 3.1.1 6.3-.1 9.4-.1 1.8 0 3.5-.2 5.3-.1.9-.2 1.8-.2 2.7 0 1.1.5 1.6 1.6 1.7 1.2.1 2.3.1 3.5.2zm-2.1-17.1c0-.4 0-.6.6-.6 1.4.1 2.7.3 4.1.2 2.2-.2 4.3 0 6.5.2.5.1 1.1 0 1.7 0 1 0 1 0 1 1-.1 1.4-.1 2.7 0 4.1.1 2.4.2 4.7.2 7.1 0 .8-.1 1.5-.2 2.3 0 .4-.2.6-.6.6-2.2-.2-4.4-.2-6.6-.3-1.9-.2-3.8-.6-5.8-.6-.7 0-.9-.3-.9-1 .1-1.5 0-3 0-5.1-.2-2.3.2-5.1 0-7.9z"/><path d="m259.8 346.1c1.3.3 2.6.5 3.9.5 2.1 0 4.1 0 6.2-.2 1.3-.1 2.6 0 3.9 0 2.3-.3 2.3.1 2.6-2.4 0-.1 0-.2 0-.3-.1-2.3.1-4.5-.3-6.8 0-.3-.1-.7-.1-1 .2-1.5-.3-3-.4-4.5-.1-1.2-.5-2.5-.5-3.8 0-.4.1-.9-.3-1.2-.6-.4-1.2-1-2-1.1-2.2-.3-4.5-.4-6.7-.3-1.7.1-3.5.4-5.2.1-1.5-.3-2.5.6-2.8 2.1-.5 2.5-.3 4.9-.3 7.4.1 2.7-.2 5.4-.4 8.1 0 1.9.7 3 2.4 3.4zm.4-4.6c.2-1.7.1-3.5 0-5.2 0-2.4-.1-4.7 0-7.1 0-.6.3-1 1-.9 3.4.3 6.8-.6 10.2-.1 1.5.2 1.4.2 1.8 1.7.5 2.5.7 5.1.8 7.7.1 1.9 0 3.8-.1 5.7 0 .5-.3.5-.7.6-.9 0-1.8.1-2.7 0-1.8 0-3.7 0-5.6 0-1.4 0-2.8-.1-4.2-.3-.3-.1-.5-.2-.5-.6.1-.5 0-1 0-1.5z"/><path d="m262.3 42.3c-1.3 0-2.6 0-4 0-.7 0-1.1.4-1 .8.2 1.1 0 2.2 0 3.3 0 2.4 0 4.8-.1 7.2 0 2.1-.1 4.2-.1 6.4 0 1.5.3 1.8 1.7 2.4 1.7.7 3.5.6 5.2.7 1.9.1 3.9.2 5.8.5h2.6c.5-.1 1-.2 1.4-.2.7 0 1.3-.5 1.5-1 .1-.4.2-.9.3-1.4.3-2.1.4-4.2.5-6.3.1-3.1.3-6.3.6-9.5 0-.3 0-.6-.2-.9-.5-.7-1.2-1.2-2-1.4-2.3-.6-4.7-.9-7.1-1-1.7.1-3.4.4-5.1.4zm10.9 3c.5.1.6.3.6.7-.2 3.6-.4 7.2-.4 10.8 0 1.2 0 2.5-.5 3.7-.2.4-.4.6-.9.6-1.7.1-3.4-.2-5.2-.3-1.3-.1-2.6-.2-3.8-.3-.8-.1-1.6-.2-2.4-.4-.5-.1-.7-.4-.7-.9 0-2.3 0-4.5 0-6.8 0-2.2 0-4.5 0-6.7 0-.8.1-.9.9-.9 1.6 0 3.3 0 4.9-.1 2.6-.2 5.1.1 7.5.6z"/><path d="m273.1 148.2c-1.3-.3-2.6-.5-3.9-.5-2.1 0-4.1 0-6.2.2-1.3.1-2.6 0-3.9 0-2.3.3-2.3-.1-2.6 2.4v.3c.1 2.3-.1 4.5.3 6.8 0 .3.1.7.1 1-.2 1.5.3 3 .4 4.5.1 1.2.5 2.5.5 3.8 0 .4-.1.9.3 1.2.6.4 1.2 1 2 1.1 2.2.3 4.5.4 6.7.3 1.7-.1 3.5-.3 5.2 0 1.5.2 2.5-.6 2.8-2.1.5-2.5.4-4.9.3-7.4-.1-2.7.2-5.4.4-8.1 0-1.9-.7-3-2.4-3.5zm-.4 4.7c-.2 1.7-.1 3.5 0 5.2 0 2.4.1 4.7 0 7.1 0 .6-.3 1-1 .9-3.4-.3-6.8.6-10.2.1-1.5-.2-1.4-.2-1.8-1.7-.5-2.5-.7-5.1-.9-7.7-.1-1.9 0-3.8.1-5.7 0-.5.4-.5.7-.6.9 0 1.8-.1 2.7 0 1.9 0 3.7.1 5.6.1 1.4 0 2.8.1 4.2.3.3.1.5.2.5.6.1.4.2.9.1 1.4z"/><path d="m271.8 255.9c-1.8-.2-3.7 0-5.6 0-2.1 0-4.2 0-6.3-.3-.8-.1-1.6-.3-2.4 0-1.2.4-1.7 1.4-1.6 2.7s.3 2.7.5 4c.2 1.9.5 3.9.5 5.9 0 1.4.2 2.8.1 4.2 0 .3 0 .6.1.9.3 1.5.7 1.9 2.2 2.1 2.4.2 4.7.1 7.1-.2 2.1-.2 4.2-.3 6.2 0 .5.1 1.2 0 1.3-.5.1-.6.6-1 .6-1.7 0-.5.1-1.1.1-1.6.3-4.2.3-8.5 0-12.7-.2-1.8-1-2.6-2.8-2.8zm0 15.9c0 .5-.2.6-.6.6-.6 0-1.2 0-1.8 0-1.9-.2-3.8.3-5.7.4-1.2 0-2.3.1-3.5 0-.6 0-.9-.3-.9-.9.1-2.7 0-5.4-.2-8.2-.1-1.5-.2-3-.4-4.5-.1-.5.1-.8.6-.8 1.5 0 3 .2 4.5.2 1.6.1 3.1 0 4.7.1.8.1 1.5.1 2.2.2.4.1.7.3.8.8.1.8.2 1.5.2 2.3 0 2 .1 3.9 0 5.9.3 1.1.1 2.5.1 3.9z"/><path d="m260 98.2c2.1-.1 4.2.1 6.3-.2 1.2-.2 2.3-.2 3.5-.2 1 .1 2.1.1 3.1 0 .5-.1.8-.3 1-.8.7-2 .7-4.1.4-6.1-.4-2.5-.9-5-.9-7.1-.2-1.7-.3-2.8-.5-4-.3-1.2-1-2-2.3-2.1-2.3-.2-4.6-.6-6.9-.2-.1 0-.1 0-.2 0-2 .1-3.9.1-5.8.2-1.5.1-1.9.7-1.8 2.1 0 2.1.1 4.2.2 6.3.1 3.3.2 6.5 0 9.8-.1 1.3 1.2 2.4 2.4 2.2.4.1 1 .1 1.5.1zm-.9-17.4c1.6 0 3.2 0 4.8-.2 1.8-.2 3.6-.1 5.4 0 1.1.1 1.4.2 1.5 1.3 0 .3.1.6.1.9s.1.6.1.9c0 1 .2 2 .2 3.1 0 1.5.6 2.9.7 4.5v2.7c0 .5-.2.8-.8.8-3.8 0-7.5.5-11.2.1-.2 0-.5-.1-.7-.1-.3 0-.4-.2-.4-.5-.1-4.2-.2-8.5-.4-12.7-.2-.5 0-.8.7-.8z"/><path d="m268.5 381.4c.1 0 .3 0 .4-.1 1.3-.3 2.7-.2 4.1-.3 2.4 0 3-.7 3-2.4 0-2.2-.1-4.4-.1-6.6 0-1.9 0-3.8 0-5.7 0-1.1 0-2.2-.3-3.2-.3-.9-.8-1.5-1.8-1.7-1.6-.4-3.2-.2-4.8-.2-1.6.1-3.3.1-4.9 0-1.9 0-3.8-.1-5.7 0-1.3.1-1.8.8-2 2-.6 2.7-.5 5.4-.5 8.1.1 2.8-.1 5.6-.1 8.4 0 1 .8 2 1.8 1.9 1.8-.1 3.6-.1 5.3 0 1.7.2 3.6-.3 5.6-.2zm-10-2.4c-.3 0-.5-.1-.4-.4.2-2.5.1-5.1.1-7.6 0-1.5.1-3.1.2-4.6 0-.7.2-1.3.4-2 .1-.3.3-.4.6-.4.5 0 .9-.1 1.3-.1 2.3 0 4.7.1 7 .1h3.5c1.1 0 1.4.2 1.6 1.4.3 1.8.2 3.7.3 5.6.1 2.1.1 4.3.1 6.4 0 .5-.1.8-.6.9-.7.2-1.4.2-2.2.2-.4 0-.8 0-1.2.1-.8.2-1.7.3-2.5.2s-1.6.2-2.4.3c-1.9.1-3.9-.3-5.8-.1z"/><path d="m240.7 222.9c-.6-.9-1-1.3-2-1.3-1.8-.1-3.5.3-5.3.4-3.4.2-6.8-.1-10.2-.2-1.3 0-1.9.5-1.9 1.8v.4c.3 3.2.5 6.5.9 9.7.2 1.5.2 3 .6 4.5.2 1.2.8 1.9 2.1 2 .5 0 .9.1 1.4.1 2.8 0 5.7 0 8.5.1 1.4.1 2.7.4 4.1.3h1c1.2 0 1.7-.4 1.5-1.6-.2-2.7.1-5.5-.2-8.2-.1-1.3.2-2.6.3-3.9 0-1.4.1-2.7-.8-4.1z"/><path d="m219.6 54.9v5.1c0 1.2.6 1.8 1.9 1.8.6 0 1.1 0 1.7.1 1.9.1 3.9.4 5.8.3 1.8-.1 3.5 0 5.3.1 1.1 0 1.8-.4 2.2-1.5 1.1-2.8 1.4-5.7 1.5-8.7.1-2.1.1-4.2.5-6.2.3-1.6.1-2.1-1.5-2.7-2.7-1.1-5.5-1.7-8.4-1.8-1.1 0-2.3-.1-3.4-.2-1.4-.2-2.7-.3-4.1-.2-1.1.1-1.8.8-1.9 2-.1.8-.1 1.6-.1 2.5 0 1 .2 1.9.3 2.9.2 2 .1 4.3.2 6.5z"/><path d="m219.5 131.4c.2 1.2.9 1.9 2.1 2 .5 0 .9.1 1.4.1 2.8 0 5.7 0 8.5.1 1.4.1 2.7.4 4.1.3h1c1.2 0 1.6-.4 1.5-1.6-.2-2.7.1-5.5-.2-8.2-.2-1.3.2-2.6.3-3.9.1-1.5.2-2.8-.7-4.2-.6-.9-.9-1.3-2-1.3-1.8-.1-3.5.3-5.2.4-3.4.2-6.8-.1-10.2-.2-1.3 0-1.9.5-1.9 1.8v.4c.3 3.2.5 6.5.9 9.7 0 1.5 0 3.1.4 4.6z"/><path d="m244.1 327.4c.1-1.1-.6-1.6-1.5-2-.5-.2-1.1-.3-1.6-.4-1.2-.2-2.4-.3-3.6-.5-1.7-.3-3.4-.2-5-.5-1.8-.4-3.5-.2-5.3 0-2.4.2-2.2-.1-2.8 2.6-.3 1.3-.2 2.7-.2 4.1-.1 2.2-.4 4.4-.2 6.6.1 1.2 0 2.3-.2 3.5v.4c.1.3.1.5.2.8.2 1.4 1.5 2.7 2.9 2.7 2.3-.1 4.6.4 6.9.5 2.5.1 5 .1 7.6-.1 1.1-.1 2-.6 2.4-1.7.6-2.3.8-4.7.8-7 0-2.7.1-5.4-.2-8-.3-.4-.3-.7-.2-1zm-2.2 9.7c-.1 1.3-.3 2.6-.5 3.8-.1.9-.5 1.2-1.4 1.3-3.8.5-7.6.2-11.4-.3-.6-.1-1.2-.1-1.8-.2-.4 0-.5-.2-.6-.6-.1-2.9 0-5.8 0-8.6 0-1.7.1-3.5.2-5.2 0-.3 0-.8.5-.8 1.6 0 3.1-.6 4.7-.3 2.2.4 4.5.3 6.6.8.9.2 1.9.4 2.8.6.7.1.7.7.7 1.2v.6c.2 2.5.3 5.1.2 7.7z"/><path d="m242.4 399.3c0-1-.6-2.1-1.6-2.3s-2-.3-3.1-.3c-1.7.1-3.4.2-5.1 0-2.3-.2-4.6-.3-6.7-.5-.4 0-.6 0-.8 0-1-.2-1.6.3-1.7 1.6v.4c0 3.1.1 6.3-.1 9.4-.1 1.8 0 3.5-.2 5.3-.1.9-.2 1.8-.2 2.7 0 1.1.5 1.6 1.6 1.7 1.2.1 2.3 0 3.5.2 2.3.3 4.7.4 7.1.5 1.6.1 3.2.2 4.8.4 1.4.1 2.2-.4 2.5-1.9.4-2.6.3-5.1.1-7.7-.1-3-.3-6.2-.1-9.5zm-2.6 15.6c0 .4-.2.6-.7.6-2.2-.2-4.4-.2-6.6-.3-1.9-.2-3.8-.6-5.8-.6-.7 0-1-.3-.9-1 0-1.5 0-3 0-5.1-.1-2.2.3-5 .1-7.9 0-.4 0-.6.6-.6 1.4.1 2.7.3 4.1.2 2.2-.2 4.3 0 6.5.2.6.1 1.1 0 1.7 0 1 0 1 0 1 1-.1 1.4-.1 2.7 0 4.1.1 2.4.2 4.7.2 7.1.1.7-.1 1.5-.2 2.3z"/><path d="m227.5 148.1c-1.3 0-2.6 0-4 0-.7 0-1.1.4-1 .8.2 1.1 0 2.2 0 3.3 0 2.4 0 4.8-.1 7.2 0 2.1-.1 4.2-.1 6.4 0 1.5.3 1.8 1.7 2.4 1.7.7 3.5.6 5.2.7 2 .1 3.9.2 5.8.5h2.6c.5-.1.9-.2 1.4-.2.7 0 1.3-.5 1.5-1 .1-.5.2-.9.3-1.4.3-2.1.4-4.2.5-6.4.1-3.1.3-6.3.5-9.4 0-.3 0-.6-.2-.9-.5-.7-1.2-1.2-2-1.4-2.3-.6-4.7-.9-7.1-1-1.5.1-3.2.4-5 .4zm11 3.1c.5.1.6.3.6.7-.2 3.6-.4 7.2-.4 10.8 0 1.2 0 2.5-.5 3.7-.2.4-.4.6-.9.6-1.7.1-3.4-.2-5.2-.3-1.3-.1-2.5-.2-3.8-.3-.8-.1-1.6-.2-2.4-.5-.5-.2-.7-.4-.7-.9 0-2.3 0-4.5 0-6.8 0-2.2 0-4.5 0-6.7 0-.8.1-.9.9-.9 1.6 0 3.3 0 4.9-.2 2.5-.1 5 .2 7.5.8z"/><path d="m231.5 381c2.1-.2 4.2-.3 6.2 0 .5.1 1.2 0 1.3-.5.1-.6.6-1 .6-1.7 0-.5 0-1.1.1-1.6.2-4.2.3-8.5 0-12.7-.1-1.9-.9-2.6-2.7-2.8-1.9-.3-3.7 0-5.6-.1-2.1 0-4.2 0-6.3-.3-.8-.1-1.6-.3-2.4 0-1.1.4-1.7 1.4-1.6 2.7s.3 2.7.5 4c.2 1.9.5 3.9.5 5.9 0 1.4.2 2.8.1 4.2 0 .3 0 .6.1.9.3 1.5.7 1.9 2.2 2 2.3.4 4.7.3 7 0zm-6.8-16.9c1.5 0 3 .2 4.5.2 1.6.1 3.1 0 4.7.1.8.1 1.5.1 2.2.2.4 0 .7.3.8.8.1.8.2 1.5.2 2.3 0 2 .1 3.9 0 5.9 0 1.3-.2 2.7-.2 4.1 0 .5-.2.6-.6.6-.6 0-1.2 0-1.8 0-1.9-.2-3.8.3-5.7.4-1.2.1-2.3.1-3.5 0-.6 0-.9-.3-.9-.9.1-2.7-.1-5.4-.2-8.2-.1-1.5-.2-3.1-.4-4.6.2-.7.4-.9.9-.9z"/><path d="m223.9 310.9c.5-.1 1.1 0 1.7-.1 2.1-.1 4.2.1 6.3-.2 1.2-.1 2.3-.2 3.5-.2 1 .1 2.1.1 3.1 0 .5-.1.8-.3 1-.8.7-2 .7-4 .4-6.1-.4-2.5-.9-5-.9-7.1-.2-1.7-.3-2.8-.5-4-.3-1.2-1-2-2.3-2.1-2.3-.2-4.6-.6-6.9-.2-.1 0-.1 0-.2 0-2 .1-3.9.1-5.8.2-1.5.1-1.8.8-1.8 2.1 0 2.1.1 4.2.2 6.3.1 3.3.2 6.5 0 9.8-.3 1.5 1 2.6 2.2 2.4zm.7-17.4c1.6 0 3.2 0 4.8-.2 1.8-.2 3.6-.1 5.4 0 1.1.1 1.4.2 1.5 1.3 0 .3.1.6.1.9s.1.6.1.9c0 1 .2 2 .2 3.1 0 1.5.6 2.9.7 4.5v2.7c0 .5-.2.8-.8.8-3.8 0-7.5.5-11.2.1-.2 0-.5 0-.7-.1-.3 0-.4-.2-.4-.5-.1-4.2-.2-8.5-.4-12.7-.2-.5 0-.8.7-.8z"/><path d="m223.6 204.1c.5-.1 1.1 0 1.7-.1 2.1-.1 4.2.1 6.3-.2 1.2-.1 2.3-.2 3.5-.2 1 .1 2.1.1 3.1-.1.5-.1.8-.3 1-.8.7-2 .7-4 .4-6.1-.4-2.5-.9-5-.9-7.1-.2-1.7-.3-2.8-.5-4-.3-1.2-1-2-2.3-2.1-2.3-.2-4.6-.6-6.9-.2-.1 0-.1 0-.2 0-1.9.1-3.9.1-5.8.2-1.5.1-1.8.7-1.8 2.1 0 2.1.1 4.2.2 6.3.1 3.3.2 6.5 0 9.8-.2 1.5 1 2.6 2.2 2.5zm.7-17.4c1.6 0 3.2 0 4.8-.2 1.8-.2 3.6-.1 5.4 0 1.1.1 1.4.2 1.5 1.3 0 .3.1.6.1.9s0 .6.1.9c0 1 .1 2 .2 3.1 0 1.5.6 2.9.7 4.4v2.7c0 .5-.2.8-.8.8-3.8 0-7.5.5-11.2.1-.2 0-.5 0-.7-.1-.3 0-.4-.2-.4-.5-.1-4.2-.2-8.5-.4-12.7-.1-.5.1-.7.7-.7z"/><path d="m220.7 21.6c.2 1.7.3 2.8.5 4 .3 1.2 1 2 2.3 2.1 2.3.2 4.6.6 6.9.2h.2c2-.1 3.9-.1 5.8-.2 1.5-.1 1.9-.8 1.8-2.1 0-2.1-.1-4.2-.2-6.3-.1-3.3-.2-6.5 0-9.8.1-1.3-1.2-2.4-2.4-2.2-.5.1-1.1 0-1.7.1-2.1.1-4.2-.1-6.3.2-1.2.2-2.3.2-3.5.2-1-.1-2.1 0-3.1.1-.5.1-.8.3-1 .8-.7 2-.7 4-.4 6.1.6 2.3 1.1 4.8 1.1 6.8zm1.6-10.2c0-.5.2-.8.8-.8 3.8 0 7.5-.5 11.2-.1.2 0 .5 0 .7.1.3 0 .4.2.4.4.1 4.2.2 8.5.4 12.7 0 .7-.2.9-.9.9-1.6 0-3.2 0-4.8.2-1.8.2-3.6.1-5.4 0-1.1-.1-1.4-.2-1.5-1.3 0-.3-.1-.6-.1-.9s-.1-.6-.1-.9c0-1-.2-2-.2-3.1 0-1.5-.6-2.9-.7-4.4.2-1 .2-1.9.2-2.8z"/><path d="m237.2 80.4c-.3-1.5-.7-1.9-2.2-2.1-2.4-.2-4.7-.1-7.1.2-2.1.2-4.2.3-6.2 0-.5-.1-1.2 0-1.3.5-.1.6-.6 1-.6 1.7 0 .5-.1 1.1-.1 1.6-.3 4.2-.3 8.4 0 12.7.1 1.9.9 2.6 2.7 2.8 1.9.3 3.7 0 5.6.1 2.1 0 4.2 0 6.3.3.8.1 1.6.3 2.4 0 1.2-.4 1.7-1.4 1.6-2.7s-.3-2.6-.5-4c-.2-2-.5-3.9-.5-5.9 0-1.4-.2-2.8-.1-4.2.1-.4.1-.7 0-1zm-2.4 15c-1.5 0-3-.1-4.5-.2-1.6-.1-3.2 0-4.7-.1-.8-.1-1.5-.1-2.2-.2-.4 0-.7-.3-.8-.8-.1-.8-.2-1.5-.2-2.3 0-2-.1-3.9-.1-5.9 0-1.3.2-2.7.2-4.1 0-.5.2-.6.6-.6.6 0 1.2 0 1.8.1 1.9.2 3.8-.3 5.7-.4 1.2-.1 2.3-.1 3.5 0 .6 0 .9.3.9.9-.1 2.7.1 5.5.2 8.2.1 1.5.2 3.1.4 4.6-.1.5-.3.8-.8.8z"/><path d="m222.7 275.9c2.3.2 4.6.6 6.9.2h.2c2-.1 3.9-.1 5.8-.2 1.5-.1 1.9-.7 1.8-2.1 0-2.1-.1-4.2-.2-6.3-.1-3.3-.2-6.5 0-9.8.1-1.3-1.2-2.4-2.4-2.2-.5.1-1.1 0-1.7.1-2.1.1-4.2-.1-6.3.2-1.2.2-2.3.2-3.5.2-1-.1-2.1-.1-3.1 0-.5.1-.8.3-1 .8-.7 2-.7 4-.4 6.1.4 2.5.9 5 .9 7.1.2 1.7.3 2.8.5 4 .5 1 1.2 1.8 2.5 1.9zm-1.2-16.3c0-.5.2-.8.8-.8 3.8 0 7.5-.5 11.2-.1.2 0 .5 0 .7.1.3 0 .4.2.4.5.1 4.2.2 8.5.4 12.7 0 .7-.2.9-.9.9-1.6 0-3.2 0-4.8.2-1.8.2-3.6.1-5.4 0-1.1-.1-1.4-.2-1.5-1.3 0-.3-.1-.6-.1-.9s-.1-.6-.1-.9c0-1-.2-2-.2-3.1 0-1.5-.6-2.9-.7-4.4.2-1.1.2-2 .2-2.9z"/><path d="m203.9 327.4c-1.8-.1-3.5.3-5.3.4-3.4.2-6.8 0-10.2-.2-1.3 0-1.9.5-1.9 1.8v.4c.3 3.2.5 6.5.9 9.7.1 1.5.2 3 .6 4.5.2 1.2.8 1.9 2.1 2 .5 0 .9.1 1.4.1 2.9 0 5.7 0 8.5.1 1.4.1 2.7.4 4.1.3h1c1.2 0 1.6-.4 1.5-1.6-.2-2.7.1-5.4-.2-8.2-.2-1.3.2-2.6.3-3.9.1-1.5.2-2.8-.7-4.2-.6-.8-1-1.2-2.1-1.2z"/><path d="m205.2 369.1c0-1.7 0-3.4 0-5.1 0-1.2-.6-1.8-1.9-1.8-.6 0-1.1 0-1.7-.1-1.9-.1-3.9-.4-5.8-.3-1.8.1-3.5 0-5.3-.1-1.1 0-1.8.4-2.2 1.4-1.1 2.8-1.4 5.7-1.5 8.7-.1 2.1-.1 4.2-.5 6.2-.3 1.6-.1 2.1 1.5 2.7 2.7 1.1 5.5 1.7 8.4 1.8 1.2.1 2.3.1 3.5.2 1.4.2 2.7.3 4.1.2 1.1-.1 1.8-.9 1.9-2 .1-.8.1-1.6.1-2.5 0-1-.2-1.9-.3-2.9-.2-1.9-.1-4.2-.3-6.4z"/><path d="m184.1 201.1c.6.9 1 1.3 2 1.3 1.8.1 3.5-.3 5.3-.4 3.4-.2 6.8.1 10.2.2 1.3.1 1.9-.5 1.9-1.8 0-.1 0-.3 0-.4-.3-3.2-.5-6.4-.9-9.7-.2-1.5-.2-3-.6-4.5-.2-1.2-.9-1.9-2.1-2-.5 0-.9-.1-1.4-.1-2.8 0-5.7 0-8.5-.1-1.4-.1-2.7-.4-4.1-.3-.3 0-.7 0-1 0-1.2 0-1.7.4-1.5 1.6.2 2.7-.1 5.5.2 8.2.2 1.3-.2 2.6-.3 3.8 0 1.5-.1 2.9.8 4.2z"/><path d="m204.1 402.4c-.2-1.7-.3-2.8-.5-4-.3-1.2-1-2-2.3-2.1-2.3-.2-4.6-.6-6.9-.2-.1 0-.1 0-.2 0-2 .1-3.9.1-5.8.2-1.5.1-1.9.7-1.8 2.1 0 2.1.1 4.2.2 6.3.1 3.3.2 6.5 0 9.8-.1 1.3 1.2 2.4 2.4 2.2.5-.1 1.1 0 1.7-.1 2.1-.1 4.2.1 6.3-.2 1.2-.2 2.3-.2 3.5-.2 1 .1 2.1.1 3.1 0 .5-.1.8-.3 1-.8.7-2 .7-4 .4-6.1-.6-2.4-1-4.9-1.1-6.9zm-1.6 10.2c0 .5-.2.8-.8.8-3.8 0-7.5.5-11.2.1-.2 0-.5 0-.7 0-.3 0-.4-.2-.4-.5-.1-4.2-.2-8.5-.4-12.7 0-.7.2-.9.9-.9 1.6 0 3.2 0 4.8-.2 1.8-.2 3.6-.1 5.4 0 1.1.1 1.4.2 1.5 1.3 0 .3.1.6.1.9s.1.6.1.9c0 1 .2 2 .2 3.1 0 1.5.6 2.9.7 4.4-.1 1-.2 1.9-.2 2.8z"/><path d="m186.2 234.3c.2 1.7.3 2.8.5 4 .3 1.2 1 2 2.3 2.1 2.3.2 4.6.6 6.9.2h.2c1.9-.1 3.9-.1 5.8-.2 1.5-.1 1.8-.7 1.8-2.1 0-2.1-.1-4.2-.2-6.3-.1-3.3-.2-6.5 0-9.8.1-1.3-1.2-2.4-2.4-2.2-.5.1-1.1 0-1.7.1-2.1.1-4.2-.1-6.3.2-1.2.2-2.3.2-3.5.2-1-.1-2.1-.1-3.1.1-.5.1-.8.3-1 .8-.7 2-.7 4-.4 6.1.6 2.3 1.1 4.8 1.1 6.8zm1.6-10.2c0-.5.2-.8.8-.8 3.8 0 7.5-.5 11.2-.1.2 0 .5 0 .7.1.3 0 .4.2.4.5.1 4.2.2 8.5.4 12.7 0 .7-.2.9-.9.9-1.6 0-3.2 0-4.8.2-1.8.2-3.6.1-5.4 0-1.1-.1-1.4-.2-1.5-1.3 0-.3-.1-.6-.1-.9s-.1-.6-.1-.9c0-1-.2-2-.2-3.1 0-1.5-.6-2.9-.7-4.4.2-1.1.2-2 .2-2.9z"/><path d="m193.3 43c-2.1.3-4.2.3-6.2 0-.5-.1-1.2 0-1.3.5-.1.6-.6 1-.6 1.7 0 .5 0 1.1-.1 1.6-.2 4.2-.3 8.4 0 12.7.1 1.9.9 2.6 2.7 2.8 1.9.2 3.7.1 5.6.1 2.1 0 4.2 0 6.3.3.8.1 1.6.3 2.4 0 1.1-.4 1.7-1.4 1.6-2.7s-.3-2.7-.5-4c-.2-2-.5-3.9-.5-5.9 0-1.4-.2-2.8-.1-4.2 0-.3 0-.6-.1-.9-.3-1.5-.7-1.9-2.2-2.1-2.3-.3-4.7-.2-7 .1zm6.8 16.9c-1.5 0-3-.1-4.5-.2-1.6-.1-3.1 0-4.7-.1-.7 0-1.5-.1-2.2-.2-.4 0-.7-.3-.8-.8-.1-.8-.2-1.5-.2-2.3 0-2-.1-3.9 0-5.9 0-1.4.2-2.7.2-4.1 0-.5.2-.6.6-.6h1.8c1.9.2 3.8-.3 5.7-.4 1.2-.1 2.3-.1 3.5 0 .6 0 .9.3.9.9-.1 2.7.1 5.4.2 8.2.1 1.5.2 3 .4 4.5-.2.8-.3 1-.9 1z"/><path d="m201 113.1c-.5.1-1.1 0-1.7.1-2.1.1-4.2-.1-6.3.2-1.2.2-2.3.2-3.5.2-1-.1-2.1 0-3.1.1-.5 0-.8.3-1 .8-.7 2-.7 4-.4 6.1.4 2.5.9 5 .9 7.1.2 1.7.3 2.8.5 4 .3 1.2 1 2 2.3 2.1 2.3.2 4.6.6 6.9.2h.2c1.9-.1 3.9-.1 5.8-.2 1.5-.1 1.8-.7 1.8-2.1 0-2.1-.1-4.2-.2-6.3-.1-3.3-.2-6.5 0-9.8.2-1.6-1.1-2.7-2.2-2.5zm-.8 17.4c-1.6 0-3.2 0-4.8.2-1.8.2-3.6.1-5.4 0-1.1-.1-1.3-.2-1.5-1.3 0-.3-.1-.6-.1-.9s-.1-.6-.1-.9c0-1-.2-2-.2-3.1 0-1.5-.6-2.9-.7-4.4 0-.9 0-1.8 0-2.7 0-.5.2-.8.8-.8 3.8 0 7.5-.5 11.2-.1.2 0 .5 0 .7.1.3 0 .4.2.4.4.1 4.2.2 8.5.4 12.7.2.5 0 .8-.7.8z"/><path d="m188 310.4c1.6.2 3.1.4 4.7.3 2.1-.1 4.2-.4 6.3 0h.8c.5 0 1-.1 1.2-.7.4-1.3.6-2.7.8-4.1.2-1.6-.2-3.3 0-4.9.1-1.7.2-3.4 0-5.2-.1-.6-.1-1.3 0-1.9.1-.8-.6-1.9-1.4-2.2-1.5-.6-3.1-.6-4.7-.6-2.9-.1-5.9 0-8.8-.3-1.2-.2-2.1.7-2.3 1.8-.3 1.4-.2 2.8-.3 4.3-.3 3.6-.2 7.2-.6 10.8-.2 1.6.5 2.8 2.5 2.6.5 0 1.1 0 1.8.1zm-1.6-4.5c.1-1 .2-1.9.1-2.9-.1-2.5.2-4.9.2-7.4 0-1.1.6-1.6 1.6-1.5 2.1.2 4.2 0 6.3.1 1.3.1 2.6.2 3.9.3.4 0 .6.2.6.6.1 1.7.2 3.4-.1 5.1-.1.7-.1 1.5 0 2.2.2 1.4 0 2.8-.2 4.2-.1 1-.1 1-1.1.9-1.8.1-3.7 0-5.5.2-1.5.2-3-.2-4.5-.5-.1 0-.2-.1-.3-.1-1.2 0-1.2-.1-1-1.2z"/><path d="m201.7 149.7c-2.3.1-4.6-.4-6.9-.5-2.5-.1-5.1-.1-7.6.1-1.1.1-2.1.6-2.4 1.7-.6 2.3-.8 4.7-.8 7 0 2.7-.1 5.4.2 8 0 .3 0 .6-.1.9-.1 1.1.6 1.6 1.5 2.1.5.2 1.1.3 1.6.4 1.2.2 2.4.2 3.6.5 1.7.3 3.4.2 5 .5 1.8.4 3.5.2 5.3 0 2.4-.2 2.2.1 2.8-2.6.3-1.3.2-2.7.2-4.1.1-2.2.4-4.4.2-6.6-.1-1.2 0-2.3.2-3.5 0-.1 0-.3 0-.4-.1-.3-.1-.5-.2-.8.1-1.5-1.2-2.8-2.6-2.7zm.3 12.2c0 1.7-.1 3.5-.2 5.2 0 .3 0 .8-.5.8-1.6 0-3.1.6-4.7.3-2.2-.4-4.5-.3-6.6-.8-.9-.2-1.9-.4-2.8-.6-.7-.1-.7-.7-.7-1.2 0-.2 0-.4 0-.6-.1-2.6-.2-5.2 0-7.7.1-1.3.3-2.6.5-3.8.1-.9.5-1.2 1.4-1.3 3.8-.5 7.6-.2 11.4.3.6.1 1.2.1 1.8.2.4 0 .5.2.6.6-.1 2.8-.2 5.7-.2 8.6z"/><path d="m192.1 276.1c1.7.1 3.4-.2 5.2-.2h4c.7 0 1.1-.4 1-.8-.2-1.1 0-2.2 0-3.3 0-2.4 0-4.8.1-7.2 0-2.1.1-4.2.1-6.4 0-1.5-.3-1.8-1.7-2.4-1.7-.7-3.5-.6-5.2-.7-1.9-.1-3.9-.2-5.8-.5-.9 0-1.8 0-2.7 0-.5.1-.9.2-1.4.2-.7 0-1.3.5-1.5 1-.1.4-.2.9-.3 1.4-.3 2.1-.4 4.2-.5 6.3-.1 3.2-.3 6.3-.6 9.5 0 .3 0 .6.2.9.5.7 1.2 1.2 2 1.4 2.4.4 4.7.8 7.1.8zm-5.9-14.8c0-1.2 0-2.5.5-3.7.2-.4.4-.6.9-.6 1.7-.1 3.4.2 5.2.3 1.3.1 2.5.2 3.8.3.8.1 1.6.2 2.4.5.5.1.7.4.7.9v6.8 6.7c0 .8-.1.9-.9.9-1.6 0-3.3 0-4.9.1-2.5.2-5-.1-7.5-.6-.5-.1-.6-.3-.6-.7.1-3.7.4-7.3.4-10.9z"/><path d="m182.4 24.7c0 1 .6 2.1 1.6 2.3s2 .3 3.1.3c1.7-.1 3.4-.2 5.1 0 2.3.2 4.6.4 6.7.5h.8c1 .2 1.6-.3 1.7-1.6 0-.1 0-.2 0-.3 0-3.2-.1-6.3.1-9.5.1-1.8 0-3.5.1-5.3.1-.9.2-1.8.2-2.7 0-1.1-.5-1.6-1.6-1.7-1.2-.1-2.3 0-3.5-.2-2.4-.3-4.7-.4-7.1-.5-1.6-.1-3.2-.2-4.8-.4-1.4-.2-2.2.4-2.5 1.8-.3 2.6-.3 5.2-.1 7.7.3 3.1.4 6.3.2 9.6zm2.6-15.5c0-.4.2-.6.7-.6 2.2.2 4.4.2 6.6.4 1.9.2 3.9.6 5.8.6.7 0 1 .3.9 1v5.1c.1 2.2-.3 5-.1 7.9 0 .4 0 .6-.6.6-1.4-.1-2.7-.4-4.1-.2-2.1.2-4.3 0-6.5-.2-.6-.1-1.1 0-1.7 0-1 0-1 0-1-1 .1-1.4.1-2.7 0-4.1-.1-2.4-.2-4.7-.2-7.1 0-.9.1-1.7.2-2.4z"/><path d="m187.5 99.6c1.7.3 3.4.2 5 .5 1.8.4 3.5.2 5.3 0 2.4-.2 2.2.1 2.8-2.6.3-1.3.2-2.7.2-4.1.1-2.2.4-4.4.2-6.6-.1-1.2 0-2.3.2-3.5 0-.1 0-.3 0-.4-.1-.2-.1-.5-.2-.8-.2-1.5-1.5-2.7-2.9-2.7-2.3.1-4.6-.4-6.9-.5-2.5-.1-5-.1-7.6.1-1.1.1-2 .6-2.3 1.7-.6 2.3-.8 4.7-.8 7 0 2.7-.1 5.4.2 8 0 .3 0 .6-.1.9-.1 1.1.6 1.6 1.5 2.1.5.2 1.1.3 1.6.4 1.4.2 2.6.3 3.8.5zm-4.5-4.4c0-.2 0-.4 0-.6-.1-2.6-.2-5.2 0-7.7.1-1.3.3-2.6.5-3.8.1-.9.5-1.2 1.4-1.3 3.8-.5 7.6-.2 11.4.3.6.1 1.2.1 1.8.1.4 0 .5.2.6.6.1 2.9 0 5.8 0 8.6 0 1.7-.2 3.5-.2 5.2 0 .3 0 .8-.5.7-1.6 0-3.1.6-4.7.3-2.2-.4-4.5-.3-6.6-.8-.9-.2-1.9-.4-2.8-.6-.9.1-.9-.5-.9-1z"/><path d="m171.2 403c-.2-1.5-.2-3-.5-4.5-.3-1.2-.9-1.9-2.1-2-.5 0-.9-.1-1.4-.1-2.8 0-5.7 0-8.5-.1-1.4-.1-2.7-.4-4.1-.3-.3 0-.7 0-1 0-1.2 0-1.7.4-1.5 1.6.2 2.7-.1 5.5.2 8.2.1 1.3-.2 2.6-.3 3.9-.1 1.5-.2 2.8.7 4.2.6.9.9 1.3 2 1.3 1.8.1 3.5-.3 5.2-.4 3.4-.2 6.8 0 10.2.2 1.3.1 1.9-.5 1.9-1.8 0-.1 0-.3 0-.4-.2-3.3-.5-6.6-.8-9.8z"/><path d="m164.8 325.8c-2.1.1-4.2-.1-6.3.2-1.2.2-2.3.2-3.5.2-1-.1-2.1-.1-3.1.1-.5.1-.8.3-1 .8-.7 2-.7 4-.4 6.1.4 2.5.9 5 .9 7.1.2 1.7.3 2.8.5 4 .3 1.2 1 2 2.3 2.1 2.3.2 4.6.6 6.9.2h.2c2-.1 3.9-.1 5.8-.2 1.5-.1 1.9-.8 1.8-2.1 0-2.1-.1-4.2-.2-6.3-.1-3.3-.2-6.5 0-9.8.1-1.3-1.2-2.4-2.4-2.2-.4-.1-1-.2-1.5-.2zm.9 17.4c-1.6 0-3.2 0-4.8.2-1.8.2-3.6.1-5.4 0-1.1-.1-1.4-.2-1.5-1.3 0-.3-.1-.6-.1-.9s0-.6-.1-.9c0-1-.2-2-.2-3.1 0-1.5-.6-2.9-.7-4.4 0-.9 0-1.8 0-2.7 0-.5.2-.8.8-.8 3.8 0 7.5-.5 11.2-.1.2 0 .5 0 .7.1.3 0 .4.2.4.4.1 4.2.2 8.5.4 12.7.2.5 0 .8-.7.8z"/><path d="m153 168.1c1.8.3 3.7 0 5.6 0 2.1 0 4.2 0 6.3.3.8.1 1.6.3 2.4 0 1.1-.4 1.7-1.4 1.6-2.7s-.3-2.7-.5-4c-.2-2-.5-3.9-.5-5.9 0-1.4-.2-2.8-.1-4.2 0-.3 0-.6-.1-.9-.3-1.5-.7-1.9-2.2-2.1-2.4-.2-4.7-.1-7.1.2-2.1.2-4.2.3-6.2 0-.5-.1-1.2 0-1.3.5-.1.6-.6 1.1-.6 1.7 0 .5-.1 1.1-.1 1.6-.3 4.2-.3 8.4 0 12.7.2 1.9 1 2.6 2.8 2.8zm0-15.9c0-.5.2-.6.6-.6h1.8c1.9.2 3.8-.3 5.7-.4 1.1-.1 2.3-.1 3.4 0 .6.1.9.3.9.9-.1 2.7.1 5.4.2 8.2.1 1.5.2 3 .4 4.6.1.5-.1.8-.6.8-1.5 0-3-.1-4.5-.2-1.6-.1-3.1 0-4.7-.1-.8-.1-1.5-.1-2.2-.2-.4 0-.7-.3-.8-.8-.1-.8-.2-1.5-.2-2.3 0-2-.1-3.9-.1-5.9 0-1.2.1-2.6.1-4z"/><path d="m151.7 275.8c1.3.3 2.6.5 3.9.5 2.1 0 4.1 0 6.2-.2 1.3-.2 2.6 0 3.9 0 2.3-.3 2.3.1 2.6-2.4 0-.1 0-.2 0-.3-.1-2.3.1-4.6-.3-6.8 0-.3-.1-.7-.1-1 .2-1.5-.3-3-.4-4.5-.1-1.3-.5-2.5-.5-3.8 0-.4.1-.9-.3-1.2-.6-.4-1.2-1-2-1.1-2.2-.3-4.5-.4-6.7-.3-1.7.1-3.5.3-5.2.1-1.5-.2-2.5.6-2.8 2.1-.5 2.4-.4 4.9-.3 7.4.1 2.7-.2 5.4-.4 8.2 0 1.7.7 2.8 2.4 3.3zm.4-4.7c.2-1.7.1-3.5 0-5.2 0-2.4-.1-4.7 0-7.1 0-.6.3-1 1-.9 3.4.3 6.8-.6 10.2 0 1.5.2 1.4.2 1.8 1.7.5 2.5.7 5.1.8 7.7.1 1.9 0 3.8-.1 5.7 0 .5-.4.5-.7.6-.9 0-1.8 0-2.7 0-1.9 0-3.7 0-5.6 0-1.4 0-2.8-.1-4.2-.3-.3-.1-.5-.2-.5-.6.1-.6 0-1.1 0-1.6z"/><path d="m156.3 42.6c-.1 0-.3 0-.4 0-1.3.3-2.7.2-4.1.3-2.4 0-3 .7-3 2.4 0 2.2.1 4.4.1 6.6v5.7c0 1.1 0 2.2.3 3.2.3.9.8 1.5 1.8 1.8 1.6.4 3.2.2 4.8.1s3.3-.1 4.9 0c1.9 0 3.8.1 5.7 0 1.3-.1 1.8-.9 2-2 .6-2.7.5-5.4.5-8.1 0-2.8.1-5.6.1-8.5 0-1-.8-2-1.8-1.9-1.8.1-3.6.1-5.3 0-1.7 0-3.6.5-5.6.4zm10 2.4c.3 0 .5.1.5.4-.2 2.5-.1 5.1-.1 7.6 0 1.5-.1 3-.2 4.6 0 .7-.2 1.3-.4 2-.1.3-.3.4-.6.4-.4 0-.9.1-1.3.1-2.3 0-4.7-.1-7-.2-1.2 0-2.4 0-3.5.1-1.1 0-1.4-.3-1.6-1.4-.3-1.8-.2-3.7-.3-5.5-.1-2.1-.1-4.3-.1-6.4 0-.5.1-.8.6-.9.7-.2 1.5-.2 2.2-.2.4 0 .8 0 1.2-.1.8-.2 1.6-.3 2.5-.2.8.1 1.6-.2 2.4-.3 1.8-.2 3.8.2 5.7 0z"/><path d="m162.6 381.8h4c.7 0 1.1-.4 1.1-.8-.2-1.1 0-2.2 0-3.3 0-2.4 0-4.8.1-7.2 0-2.1.1-4.2.1-6.4 0-1.5-.3-1.8-1.7-2.4-1.7-.7-3.5-.6-5.2-.7-2-.1-3.9-.2-5.8-.5-.9 0-1.8 0-2.7 0-.5.1-1 .2-1.4.2-.7 0-1.3.5-1.5 1-.1.4-.2.9-.3 1.4-.3 2.1-.4 4.2-.5 6.3-.1 3.2-.3 6.3-.5 9.4 0 .3 0 .6.2.9.5.7 1.2 1.2 2 1.4 2.3.6 4.7.9 7.1 1 1.5-.1 3.2-.3 5-.3zm-11-3.1c-.5-.1-.6-.3-.6-.7.2-3.6.4-7.2.4-10.8 0-1.2 0-2.5.5-3.7.2-.4.4-.6.9-.6 1.7-.1 3.4.2 5.1.3 1.3.1 2.6.2 3.8.3.8.1 1.6.2 2.4.4.5.2.7.4.7.9v6.8 6.7c0 .8-.1.9-.9.9-1.6 0-3.3 0-4.9.2-2.4.1-4.9-.2-7.4-.7z"/><path d="m165 77.9c-1.3-.3-2.6-.5-3.9-.5-2.1 0-4.1 0-6.2.2-1.3.1-2.6 0-3.9 0-2.3.3-2.3-.1-2.6 2.4v.4c.1 2.3-.1 4.5.3 6.8 0 .3.1.7.1 1-.2 1.5.3 3 .4 4.5.1 1.2.5 2.5.5 3.8 0 .4-.1.9.3 1.2.6.4 1.2 1 2 1.1 2.2.3 4.5.4 6.7.3 1.7-.1 3.5-.4 5.2 0 1.5.2 2.5-.6 2.8-2.1.5-2.4.3-4.9.3-7.4-.1-2.7.2-5.4.4-8.2 0-2-.7-3.1-2.4-3.5zm-.4 4.6c-.2 1.7-.1 3.5 0 5.2 0 2.4.1 4.7 0 7.1 0 .6-.3 1-1 .9-3.4-.3-6.8.6-10.2.1-1.5-.2-1.4-.2-1.8-1.7-.5-2.5-.7-5.1-.8-7.7-.1-1.9 0-3.8.1-5.7 0-.5.4-.5.7-.6h2.7c1.9 0 3.7 0 5.6.1 1.4 0 2.8.1 4.2.3.3.1.5.2.5.6z"/><path d="m149.5 239.6c1 .2 2 .3 3.1.3 1.7-.1 3.4-.2 5.1 0 2.3.2 4.6.3 6.7.5h.8c1 .2 1.6-.3 1.7-1.6 0-.1 0-.2 0-.3 0-3.2-.1-6.3.1-9.5.1-1.8 0-3.5.1-5.3.1-.9.2-1.8.2-2.7 0-1.1-.5-1.6-1.6-1.7-1.2-.1-2.3 0-3.5-.2-2.4-.3-4.7-.4-7.1-.5-1.6-.1-3.2-.2-4.8-.4-1.4-.1-2.3.4-2.5 1.9-.4 2.6-.3 5.2-.1 7.7.2 3.2.3 6.4.1 9.6.1.9.8 2.1 1.7 2.2zm1-17.7c0-.4.2-.6.7-.6 2.2.2 4.4.2 6.6.3 1.9.2 3.9.6 5.8.6.7 0 .9.3.9 1-.1 1.5 0 3 0 5.1.1 2.2-.3 5-.1 7.9 0 .4 0 .6-.6.6-1.4-.1-2.7-.4-4.1-.2-2.2.2-4.3 0-6.5-.2-.6-.1-1.1 0-1.7 0-1 0-1 0-1-1 .1-1.4.1-2.7 0-4.1-.1-2.4-.2-4.7-.2-7.1 0-.8.1-1.6.2-2.3z"/><path d="m149.3 132.7c1 .2 2 .3 3.1.3 1.7-.1 3.4-.2 5.1 0 2.3.2 4.6.4 6.7.5h.8c1 .2 1.6-.3 1.7-1.6 0-.1 0-.2 0-.4 0-3.2-.1-6.3.1-9.4.1-1.8 0-3.5.2-5.3.1-.9.1-1.8.2-2.7 0-1.1-.5-1.6-1.6-1.7-1.2-.1-2.4-.1-3.5-.2-2.3-.3-4.7-.4-7.1-.5-1.6-.1-3.2-.2-4.8-.4-1.4-.2-2.2.4-2.5 1.8-.3 2.6-.3 5.2-.1 7.7.2 3.2.3 6.4.1 9.6-.1 1.1.6 2.2 1.6 2.3zm.9-17.7c0-.4.2-.6.6-.5 2.2.2 4.4.2 6.6.4 1.9.2 3.9.6 5.8.6.7 0 .9.3.9 1v5.1c.1 2.2-.3 5-.1 7.9 0 .4 0 .6-.6.6-1.4-.1-2.7-.3-4.1-.2-2.2.2-4.3 0-6.5-.2-.6-.1-1.1 0-1.7 0-1 0-1.1 0-1-1 .1-1.4.1-2.7 0-4.1-.1-2.4-.2-4.7-.2-7.1.1-1 .3-1.8.3-2.5z"/><path d="m146 22.4c.1.6.1 1.3 0 1.9-.1.8.6 1.9 1.4 2.2 1.5.6 3.2.6 4.7.6 2.9.1 5.9 0 8.8.3 1.2.2 2.1-.6 2.3-1.8.3-1.4.2-2.9.3-4.3.3-3.6.1-7.2.6-10.8.2-1.6-.5-2.8-2.5-2.6-.7 0-1.3 0-2 0-1.6-.2-3.1-.4-4.7-.3-2.1.1-4.2.4-6.3 0-.3 0-.6 0-.8 0-.5 0-1 .1-1.2.7-.4 1.3-.6 2.7-.8 4.1-.2 1.6.2 3.3.1 4.9 0 1.6-.1 3.4.1 5.1zm2.6-6.6c-.2-1.4 0-2.8.2-4.2.1-.9.1-1 1.1-.9 1.8 0 3.7 0 5.5-.2 1.5-.2 3 .2 4.5.5.1 0 .2 0 .3.1 1.2.1 1.2.1 1 1.2-.1 1-.2 1.9-.2 2.9.1 2.5-.2 4.9-.2 7.4 0 1-.6 1.6-1.6 1.5-2.1-.2-4.2 0-6.3-.1-1.3-.1-2.6-.2-3.9-.3-.4 0-.6-.2-.6-.6-.1-1.7-.2-3.4.1-5 .2-.9.2-1.6.1-2.3z"/><path d="m153 312.3c1.7.3 3.4.2 5 .5 1.8.4 3.5.2 5.3 0 2.4-.2 2.2.1 2.8-2.6.3-1.3.2-2.7.2-4.1.1-2.2.4-4.4.2-6.6-.1-1.2 0-2.3.2-3.5 0-.1 0-.3 0-.4-.1-.3-.1-.6-.2-.8-.2-1.5-1.5-2.7-2.9-2.7-2.3.1-4.6-.4-6.9-.5-2.5-.1-5.1-.1-7.6.1-1.1.1-2 .6-2.3 1.7-.6 2.3-.8 4.7-.8 7.1 0 2.7-.1 5.3.2 8 0 .3 0 .6-.1.9-.1 1.1.6 1.6 1.5 2.1.5.2 1.1.3 1.6.4 1.4.1 2.6.2 3.8.4zm-4.5-4.4c0-.2 0-.4 0-.6-.1-2.6-.2-5.2 0-7.7.1-1.3.3-2.6.5-3.8.1-.9.5-1.2 1.4-1.3 3.8-.5 7.6-.2 11.4.3.6.1 1.2.1 1.8.2.4 0 .5.2.6.6.1 2.9.1 5.8 0 8.6 0 1.7-.1 3.5-.2 5.2 0 .3 0 .8-.5.8-1.6 0-3.1.6-4.7.3-2.2-.4-4.5-.3-6.6-.8-.9-.2-1.9-.4-2.8-.6-.9-.1-.9-.7-.9-1.2z"/><path d="m147.5 204.5c.5.2 1.1.3 1.6.4 1.2.2 2.4.2 3.6.5 1.7.3 3.4.2 5 .5 1.8.4 3.5.2 5.3 0 2.4-.2 2.2.1 2.8-2.7.3-1.3.2-2.7.2-4.1.1-2.2.4-4.4.2-6.6-.1-1.2 0-2.4.2-3.5 0-.1 0-.3 0-.4-.1-.3-.1-.5-.2-.8-.2-1.4-1.5-2.7-2.9-2.7-2.3.1-4.6-.4-6.9-.5-2.5-.1-5.1-.1-7.6.1-1.1.1-2 .6-2.3 1.7-.6 2.3-.8 4.7-.8 7 0 2.7-.1 5.4.2 8 0 .3 0 .6-.1.9.1 1.3.8 1.8 1.7 2.2zm.7-11.8c.1-1.3.3-2.6.5-3.8.1-.9.5-1.2 1.4-1.3 3.8-.5 7.6-.2 11.4.3.6.1 1.2.1 1.8.1.4 0 .6.2.6.6.1 2.9.1 5.8 0 8.6 0 1.7-.2 3.5-.2 5.2 0 .3 0 .8-.5.7-1.6 0-3.1.6-4.7.3-2.2-.4-4.4-.3-6.6-.7-.9-.2-1.9-.4-2.8-.6-.7-.1-.7-.7-.7-1.2 0-.2 0-.4 0-.6-.2-2.4-.4-5-.2-7.6z"/><path d="m135.9 257c.1-1.1-.5-1.6-1.5-2.1-.5-.2-1.1-.3-1.6-.4-1.2-.2-2.4-.2-3.6-.5-1.7-.3-3.4-.2-5-.5-1.8-.4-3.5-.1-5.3 0-2.4.2-2.2-.1-2.8 2.6-.3 1.3-.2 2.7-.2 4.1-.1 2.2-.4 4.4-.2 6.6.1 1.2 0 2.4-.2 3.5v.4c.1.3.1.5.2.8.2 1.4 1.4 2.7 2.9 2.7 2.3-.1 4.6.4 6.9.5 2.5.1 5 .1 7.6-.1 1.1-.1 2-.6 2.3-1.7.6-2.3.8-4.7.8-7.1 0-2.7.1-5.3-.2-8-.1-.2-.1-.5-.1-.8z"/><path d="m133.3 371.4c.2-1.5-.3-3-.4-4.5-.1-1.2-.5-2.5-.5-3.8 0-.4.1-.9-.3-1.2-.6-.4-1.2-1-2-1.1-2.2-.3-4.5-.4-6.7-.3-1.7.1-3.5.3-5.2.1-1.5-.2-2.5.6-2.8 2.1-.5 2.4-.3 4.9-.3 7.4.1 2.7-.2 5.4-.4 8.2-.1 1.8.5 2.9 2.3 3.4 1.3.3 2.6.5 3.9.5 2.1 0 4.1 0 6.2-.2 1.3-.1 2.6 0 3.9 0 2.3-.3 2.3.1 2.6-2.4 0-.1 0-.2 0-.3-.1-2.3.1-4.6-.3-6.8 0-.5 0-.8 0-1.1zm-2.2 7.3c0 .5-.4.5-.7.6-.9 0-1.8 0-2.8 0-1.9 0-3.7 0-5.5-.1-1.4 0-2.8-.1-4.2-.3-.3-.1-.5-.2-.5-.6 0-.5-.1-1 0-1.5.2-1.7.1-3.5 0-5.2 0-2.4-.1-4.7 0-7.1 0-.6.2-1 1-.9 3.4.3 6.8-.6 10.2-.1 1.5.2 1.4.2 1.8 1.7.5 2.5.7 5.1.8 7.7.1 2 0 3.9-.1 5.8z"/><path d="m131.9 44.6c-.6-.4-1.2-1-2-1.1-2.2-.3-4.5-.4-6.7-.3-1.7.1-3.5.4-5.2 0-1.5-.2-2.5.6-2.8 2.1-.5 2.4-.3 4.9-.3 7.4.1 2.7-.2 5.4-.4 8.1-.1 1.8.5 2.9 2.3 3.4 1.3.3 2.6.5 3.9.5 2.1 0 4.1 0 6.2-.2 1.3-.2 2.6 0 3.9 0 2.3-.3 2.3.1 2.6-2.4 0-.1 0-.2 0-.4-.1-2.3.1-4.5-.3-6.8-.1-.3-.1-.7-.1-1 .2-1.5-.3-3-.4-4.5-.1-1.2-.5-2.5-.5-3.8.1-.2.2-.7-.2-1zm-1 16.8c0 .5-.4.5-.7.6-.9 0-1.8 0-2.8 0-1.8 0-3.7-.1-5.5-.1-1.4 0-2.8-.1-4.2-.3-.3 0-.5-.2-.5-.5 0-.5-.1-1 0-1.5.2-1.7.1-3.5 0-5.2 0-2.4-.1-4.7 0-7.1 0-.6.3-1 1-.9 3.4.3 6.8-.6 10.2-.1 1.5.2 1.4.2 1.8 1.7.5 2.5.7 5.1.8 7.7.1 1.9 0 3.8-.1 5.7z"/><path d="m131.7 78.5c-2.3-.6-4.7-.9-7.1-1-1.7-.1-3.4.2-5.2.2-1.3 0-2.6 0-4 0-.7 0-1.1.4-1 .8.2 1.1 0 2.2 0 3.3 0 2.4 0 4.8-.1 7.2 0 2.1-.1 4.2-.1 6.4 0 1.5.3 1.8 1.7 2.4 1.7.7 3.5.6 5.2.7 2 .1 3.9.2 5.8.5h2.7c.5-.1.9-.2 1.4-.2.7 0 1.3-.5 1.5-1 .1-.5.2-.9.3-1.4.3-2.1.4-4.2.5-6.3.1-3.2.3-6.3.6-9.4 0-.3 0-.6-.2-.9-.5-.7-1.2-1.1-2-1.3zm-1.2 13.8c0 1.2 0 2.5-.5 3.7-.2.4-.4.6-.9.6-1.7.1-3.4-.2-5.2-.3-1.3-.1-2.6-.2-3.8-.3-.8-.1-1.6-.2-2.4-.4-.5-.2-.7-.4-.7-.9 0-2.3 0-4.6 0-6.8s0-4.5 0-6.7c0-.8.1-.9.9-.9 1.6 0 3.3 0 4.9-.2 2.5-.2 5 .1 7.5.6.5.1.6.3.6.7-.1 3.7-.3 7.3-.4 10.9z"/><path d="m127.4 148.1c-2 0-3.9.5-5.8.4-.1 0-.3 0-.4 0-1.3.3-2.7.2-4.1.3-2.4 0-2.9.7-2.9 2.4 0 2.2.1 4.4.1 6.6v5.7c0 1.1 0 2.2.3 3.2.3.9.8 1.5 1.8 1.7 1.6.4 3.2.2 4.8.1s3.3-.1 4.9 0c1.9 0 3.8.1 5.7 0 1.3-.1 1.8-.8 2-2 .6-2.7.5-5.4.5-8.1-.1-2.8.1-5.6.1-8.4 0-1-.8-2-1.8-1.9-1.6 0-3.4 0-5.2 0zm4.5 10.8c0 1.5-.1 3-.2 4.6-.1.7-.2 1.3-.4 2-.1.3-.3.4-.6.4-.4 0-.9.1-1.3.1-2.3-.1-4.7-.1-7-.1-1.2 0-2.4 0-3.5 0s-1.4-.3-1.6-1.4c-.3-1.8-.2-3.7-.3-5.5-.1-2.1-.1-4.3-.1-6.4 0-.5.1-.8.6-.9.7-.2 1.5-.2 2.2-.2.4 0 .8 0 1.2-.1.8-.2 1.7-.3 2.5-.2s1.6-.1 2.4-.2c1.9-.3 3.9.1 5.8-.1.3 0 .5.1.5.4-.3 2.5-.2 5-.2 7.6z"/><path d="m130.5 290.6c-1.3-.3-2.6-.5-3.9-.5-2.1-.1-4.1 0-6.2.2-1.3.2-2.6 0-3.9 0-2.3.3-2.3-.1-2.6 2.4v.3c.1 2.3-.1 4.6.3 6.8 0 .3.1.7 0 1-.2 1.5.3 3 .4 4.5.1 1.2.5 2.5.5 3.8 0 .4 0 .9.3 1.2.6.4 1.2 1 2 1.1 2.2.3 4.5.4 6.7.3 1.8-.1 3.5-.3 5.2-.1 1.5.3 2.5-.6 2.8-2.1.5-2.4.3-4.9.3-7.4-.1-2.7.2-5.4.4-8.1.1-1.9-.6-3-2.3-3.4zm-.5 16.9c0 .6-.2 1-1 .9-3.4-.3-6.8.6-10.2 0-1.5-.2-1.4-.2-1.8-1.7-.5-2.5-.7-5.1-.8-7.7-.1-1.9 0-3.8 0-5.7 0-.5.4-.5.7-.6h2.8 5.5c1.4 0 2.8.1 4.2.3.3.1.5.2.5.6 0 .5.1 1 0 1.5-.2 1.7-.1 3.5 0 5.2.1 2.5.3 4.9.1 7.2z"/><path d="m130.3 183.7c-1.3-.3-2.6-.5-3.9-.5-2.1 0-4.1 0-6.2.2-1.3.2-2.6 0-3.9 0-2.3.3-2.3-.1-2.6 2.4v.3c.1 2.3-.1 4.6.3 6.8 0 .3.1.7.1 1-.2 1.5.3 3 .4 4.5.1 1.2.5 2.5.5 3.8 0 .4 0 .9.3 1.2.6.4 1.2 1 2 1.1 2.2.3 4.5.4 6.7.3 1.8-.1 3.5-.3 5.2-.1 1.5.2 2.5-.6 2.8-2.1.5-2.4.3-4.9.3-7.4-.1-2.7.2-5.4.4-8.2-.1-1.8-.7-2.9-2.4-3.3zm-.5 9.9c0 2.4.1 4.7 0 7.1 0 .6-.3 1-1 .9-3.4-.3-6.8.6-10.2 0-1.5-.2-1.4-.2-1.8-1.7-.5-2.5-.7-5.1-.9-7.7-.1-1.9 0-3.8.1-5.7 0-.5.3-.5.7-.5h2.7 5.6c1.4 0 2.8.1 4.2.3.3 0 .5.2.5.5 0 .5.1 1 .1 1.5-.1 1.8 0 3.5 0 5.3z"/><path d="m132.4 329.5c.1-.9.2-1.8.2-2.7 0-1.1-.5-1.6-1.6-1.7-1.2-.1-2.3 0-3.5-.2-2.4-.3-4.7-.4-7.1-.5-1.6-.1-3.2-.2-4.8-.4-1.4-.2-2.2.4-2.5 1.8-.3 2.6-.3 5.2-.1 7.7.2 3.2.3 6.4.1 9.6 0 1 .6 2.1 1.6 2.3s2 .3 3.1.3c1.7-.1 3.4-.2 5.1 0 2.3.2 4.6.3 6.7.5h.8c1 .2 1.6-.3 1.7-1.6 0-.1 0-.2 0-.3 0-3.2-.1-6.3.1-9.5.2-1.8 0-3.5.2-5.3zm-2.8 12.6c0 .4 0 .6-.6.5-1.4-.1-2.7-.3-4.1-.2-2.1.2-4.3 0-6.5-.2-.6-.1-1.1 0-1.7 0-1 0-1 0-1-1 .1-1.4.1-2.7 0-4.1-.1-2.4-.2-4.7-.2-7.1 0-.8.1-1.5.2-2.3 0-.4.2-.6.7-.6 2.2.2 4.4.2 6.6.4 2 .2 3.9.6 5.8.6.7 0 1 .3.9 1-.1 1.5 0 3 0 5.1.1 2.2-.3 5-.1 7.9z"/><path d="m111.9 24.5c-.1 1.1.6 1.6 1.5 2 .5.2 1.1.3 1.6.4 1.2.2 2.4.2 3.6.5 1.7.3 3.4.2 5 .5 1.8.4 3.5.1 5.3 0 2.4-.2 2.2.1 2.8-2.6.3-1.4.2-2.7.2-4.1.1-2.2.4-4.4.2-6.6-.1-1.2 0-2.4.2-3.5 0-.1 0-.3 0-.4-.1-.3-.1-.5-.1-.8-.2-1.4-1.5-2.7-2.9-2.7-2.3.1-4.6-.4-6.9-.5-2.5-.1-5.1-.1-7.6.1-1.1.1-2 .6-2.3 1.7-.6 2.3-.8 4.7-.8 7 0 2.7-.1 5.4.2 8 .1.4 0 .7 0 1z"/><path d="m126.4 240.1c1.2.2 2.1-.7 2.3-1.8.3-1.4.2-2.8.3-4.3.3-3.6.1-7.2.6-10.8.2-1.6-.5-2.8-2.5-2.6-.7.1-1.3.1-2 0-1.6-.2-3.1-.4-4.7-.3-2.1.1-4.2.4-6.3 0-.3 0-.6 0-.8 0-.5 0-1 .1-1.2.7-.4 1.3-.6 2.7-.8 4.1-.2 1.6.2 3.3.1 4.9-.1 1.7-.2 3.4 0 5.2.1.6.1 1.3 0 1.9-.1.9.6 1.9 1.4 2.2 1.5.6 3.2.6 4.7.6 3 0 6-.2 8.9.2zm-12.4-4.4c-.1-1.7-.2-3.4.1-5.1.1-.7.1-1.5 0-2.2-.2-1.4 0-2.8.2-4.2.1-.9.1-1 1.1-.9 1.8 0 3.7 0 5.5-.2 1.5-.2 3 .2 4.5.5.1 0 .2 0 .4.1 1.1.1 1.2.1 1 1.2-.1 1-.2 1.9-.1 2.9.1 2.5-.2 4.9-.2 7.4 0 1-.6 1.6-1.6 1.5-2.1-.2-4.2 0-6.3-.1-1.3 0-2.6-.2-3.9-.3-.5 0-.7-.2-.7-.6z"/><path d="m112.7 132.3c1.5.6 3.1.6 4.7.6 2.9.1 5.9 0 8.8.3 1.2.1 2.1-.7 2.3-1.9.3-1.4.2-2.8.3-4.3.3-3.6.2-7.2.6-10.8.2-1.6-.5-2.8-2.5-2.6-.6.1-1.3.1-2 0-1.6-.2-3.1-.4-4.7-.3-2.1.1-4.2.4-6.3 0-.3 0-.6 0-.8 0-.5 0-1 .1-1.2.7-.4 1.3-.6 2.7-.8 4.1-.2 1.7.2 3.3.1 4.9-.1 1.7-.2 3.5 0 5.2.1.6.1 1.3 0 1.9-.1.9.6 1.9 1.5 2.2z"/><path d="m132.1 401.4c-.1-.2-.1-.5-.2-.8-.2-1.5-1.5-2.7-2.9-2.7-2.3.1-4.6-.4-6.9-.5-2.5-.1-5.1-.1-7.6.1-1.1.1-2 .6-2.3 1.7-.6 2.3-.8 4.7-.8 7 0 2.7-.1 5.4.2 8 0 .3 0 .6-.1.9-.1 1.1.6 1.6 1.5 2.1.5.2 1.1.3 1.6.4 1.2.2 2.4.2 3.6.5 1.7.3 3.4.2 5 .5 1.8.4 3.5.2 5.3 0 2.4-.2 2.2.1 2.8-2.6.3-1.4.2-2.7.2-4.1.1-2.2.4-4.4.2-6.6-.1-1.2 0-2.4.2-3.5.2-.2.2-.3.2-.4zm-2.8 8.6c0 1.7-.2 3.5-.2 5.2 0 .3 0 .8-.5.7-1.6 0-3.1.6-4.7.3-2.2-.4-4.5-.3-6.6-.8-.9-.2-1.8-.4-2.8-.6-.7-.1-.7-.7-.7-1.2 0-.2 0-.4 0-.6-.1-2.6-.2-5.2 0-7.7.1-1.3.3-2.6.5-3.8.1-.9.5-1.2 1.4-1.3 3.8-.5 7.6-.2 11.4.3.6.1 1.2.1 1.8.2.4 0 .5.2.6.6-.1 3-.2 5.8-.2 8.7z"/><path d="m76.8 95.5c0 1.2.6 1.8 1.9 1.8.6 0 1.1 0 1.7.1 1.9.1 3.9.4 5.8.3 1.8-.1 3.5 0 5.3.1 1.1 0 1.8-.4 2.2-1.4 1.1-2.8 1.4-5.7 1.5-8.7.1-2.1.1-4.2.5-6.2.3-1.6.1-2.1-1.5-2.7-2.7-1.1-5.5-1.7-8.4-1.8-1.2 0-2.3-.1-3.4-.2-1.4-.2-2.7-.3-4.1-.2-1.1 0-1.8.9-1.9 2-.1.8-.1 1.6-.1 2.5 0 1 .2 1.9.3 2.9.2 2.2.1 4.5.3 6.8-.1 1.3-.1 3-.1 4.7z"/><path d="m79 275.7c.5 0 .9.1 1.4.1 2.8 0 5.7 0 8.5.1 1.4.1 2.7.4 4.1.3h1c1.2 0 1.6-.4 1.5-1.6-.2-2.7.1-5.4-.2-8.2-.1-1.3.2-2.6.3-3.9.1-1.5.2-2.8-.7-4.2-.6-.9-1-1.3-2-1.3-1.8-.1-3.5.3-5.3.4-3.4.2-6.8-.1-10.2-.2-1.3-.1-1.9.5-1.9 1.8v.4c.3 3.2.5 6.5.9 9.7.2 1.5.2 3 .6 4.5.1 1.3.7 2 2 2.1z"/><path d="m101.2 362.8c.1-1.1-.5-1.6-1.5-2.1-.5-.2-1.1-.3-1.6-.4-1.2-.2-2.4-.2-3.6-.5-1.7-.3-3.4-.2-5-.5-1.8-.4-3.5-.2-5.3 0-2.4.2-2.2-.1-2.8 2.6-.3 1.3-.2 2.7-.2 4.1-.1 2.2-.4 4.4-.2 6.6.1 1.2 0 2.3-.2 3.5v.4c.1.2.1.5.2.8.2 1.5 1.5 2.7 2.9 2.7 2.3-.1 4.6.4 6.9.5 2.5.1 5.1.1 7.6-.1 1.1-.1 2-.6 2.3-1.7.6-2.3.8-4.7.8-7 0-2.7.1-5.4-.2-8-.2-.3-.1-.6-.1-.9zm-2.2 9.8c-.1 1.3-.3 2.6-.5 3.8-.1.9-.5 1.2-1.4 1.3-3.8.5-7.6.2-11.4-.3-.6-.1-1.2-.1-1.8-.1-.4 0-.5-.2-.6-.6-.1-2.9 0-5.8 0-8.6 0-1.7.2-3.5.2-5.2 0-.3 0-.8.5-.7 1.6 0 3.1-.6 4.7-.3 2.2.4 4.5.3 6.6.8.9.2 1.9.4 2.8.6.7.1.7.7.7 1.2v.6c.3 2.3.4 4.9.2 7.5z"/><path d="m97.2 291.2c-2.3-.6-4.7-.9-7.1-1-1.7-.1-3.4.2-5.2.2-1.3 0-2.7 0-4 0-.7 0-1.1.4-1.1.8.2 1.1 0 2.2 0 3.3 0 2.4 0 4.8-.1 7.2-.1 2.1-.1 4.2-.1 6.4 0 1.5.3 1.8 1.7 2.4 1.7.7 3.5.6 5.2.7 2 .1 3.9.2 5.8.5h2.7c.5-.1 1-.2 1.4-.2.7 0 1.3-.5 1.5-1 .1-.4.2-.9.3-1.4.3-2.1.4-4.2.5-6.3.1-3.2.2-6.3.6-9.4 0-.3 0-.6-.2-.9-.4-.7-1.1-1.1-1.9-1.3zm-1.2 13.8c0 1.2 0 2.5-.5 3.7-.2.4-.4.6-.9.6-1.7.1-3.4-.2-5.1-.3-1.3-.1-2.6-.2-3.8-.3-.8-.1-1.6-.2-2.4-.4-.5-.2-.7-.4-.7-.9 0-2.3 0-4.6 0-6.8s0-4.5 0-6.7c0-.8.1-.9.9-.9 1.6 0 3.3 0 4.9-.1 2.5-.2 5 .1 7.5.6.5.1.6.3.6.7-.2 3.6-.5 7.2-.5 10.8z"/><path d="m97.2 150.4c-.6-.4-1.2-1-2-1.1-2.2-.3-4.5-.4-6.7-.3-1.7.1-3.5.4-5.2 0-1.5-.2-2.5.6-2.8 2.1-.5 2.5-.4 4.9-.3 7.4.1 2.7-.2 5.4-.4 8.1-.1 1.8.5 2.9 2.3 3.4 1.3.3 2.6.5 3.9.5 2.1 0 4.1 0 6.2-.2 1.3-.1 2.6 0 3.9 0 2.3-.3 2.3.1 2.6-2.4 0-.1 0-.2 0-.4-.1-2.3.1-4.5-.3-6.8 0-.3-.1-.7-.1-1 .2-1.5-.3-3-.4-4.5-.1-1.2-.5-2.5-.5-3.8.1-.2.1-.7-.2-1zm-1 16.8c0 .5-.4.5-.7.6-.9 0-1.8 0-2.8 0-1.8 0-3.7 0-5.5 0-1.4 0-2.8-.1-4.2-.3-.3-.1-.5-.2-.5-.6 0-.5-.1-1-.1-1.5.2-1.7.1-3.5.1-5.2 0-2.4-.1-4.7 0-7.1 0-.6.2-1 .9-1 3.4.3 6.8-.6 10.2 0 1.5.2 1.4.2 1.8 1.7.5 2.5.7 5.1.9 7.7.1 1.9-.1 3.8-.1 5.7z"/><path d="m96.9 184.3c-2.3-.6-4.7-.9-7.1-1-1.7-.1-3.4.2-5.2.2-1.3 0-2.6 0-4 0-.7 0-1.1.4-1.1.8.2 1.1 0 2.2 0 3.3 0 2.4 0 4.8-.1 7.2 0 2.1-.1 4.2 0 6.4 0 1.5.3 1.8 1.7 2.4 1.7.7 3.5.6 5.2.7 1.9.1 3.9.2 5.8.5h2.7c.5-.1.9-.2 1.4-.2.7 0 1.3-.5 1.5-1 .1-.4.2-.9.3-1.4.3-2.1.4-4.2.5-6.3.1-3.2.2-6.3.5-9.5 0-.3 0-.6-.2-.9-.3-.5-1-1-1.9-1.2zm-1.1 13.8c0 1.2 0 2.5-.5 3.7-.2.4-.4.6-.9.6-1.7.1-3.4-.2-5.2-.3-1.3-.1-2.5-.2-3.8-.3-.8-.1-1.6-.2-2.4-.4-.5-.1-.7-.4-.7-.9 0-2.3 0-4.5 0-6.8 0-2.2 0-4.5 0-6.7 0-.8.1-.9.9-.9 1.6 0 3.3 0 4.9-.1 2.5-.2 5 .1 7.5.6.5.1.6.3.6.7-.2 3.6-.4 7.2-.4 10.8z"/><path d="m95.8 396.4c-1.3-.3-2.6-.5-3.9-.5-2.1-.1-4.1 0-6.2.2-1.3.1-2.6 0-3.9 0-2.3.3-2.3-.1-2.6 2.4v.3c.1 2.3-.1 4.6.3 6.8 0 .3.1.7 0 1-.2 1.5.3 3 .4 4.5.1 1.2.5 2.5.5 3.8 0 .4-.1.9.3 1.2.6.4 1.2 1 2 1.1 2.2.3 4.5.4 6.7.3 1.7-.1 3.5-.3 5.2 0 1.5.2 2.5-.6 2.8-2.1.5-2.4.3-4.9.3-7.4-.1-2.7.2-5.4.4-8.2 0-1.9-.6-3-2.3-3.4zm-.5 4.7c-.2 1.7-.1 3.5 0 5.2 0 2.4.1 4.7 0 7.1 0 .6-.2 1-1 1-3.4-.3-6.8.6-10.2 0-1.5-.2-1.4-.2-1.8-1.7-.5-2.6-.7-5.1-.8-7.7-.1-1.9 0-3.8.1-5.7 0-.5.4-.5.7-.6h2.8 5.6c1.4 0 2.8.1 4.2.3.3.1.5.2.5.6-.1.5 0 1-.1 1.5z"/><path d="m91.7 345.9c1.2.2 2.1-.7 2.3-1.8.3-1.4.2-2.8.3-4.3.3-3.6.1-7.2.6-10.8.2-1.6-.5-2.8-2.5-2.6-.7.1-1.3.1-2 0-1.5-.2-3.1-.4-4.7-.3-2.1.1-4.2.4-6.3 0-.3 0-.6 0-.8 0-.5 0-1 .1-1.2.7-.4 1.3-.6 2.7-.8 4.1-.2 1.6.2 3.3.1 4.9-.1 1.7-.2 3.4 0 5.2.1.6.1 1.3 0 1.9-.1.8.6 1.9 1.4 2.2 1.5.6 3.2.6 4.7.6 3 0 6-.1 8.9.2zm-12.4-4.4c-.1-1.7-.2-3.4.1-5 .1-.7.1-1.5 0-2.2-.2-1.4 0-2.8.2-4.2.1-.9.1-1 1.1-.9 1.8-.1 3.7 0 5.5-.2 1.5-.2 3 .2 4.5.5.1 0 .2 0 .3.1 1.2.1 1.2.1 1 1.2-.1 1-.2 1.9-.2 2.9.1 2.5-.2 4.9-.2 7.4 0 1-.6 1.6-1.6 1.5-2.1-.2-4.2 0-6.3-.1-1.3-.1-2.6-.2-3.9-.3-.3-.1-.5-.3-.5-.7z"/><path d="m90.3 42.6c-1.7-.3-3.4-.2-5-.5-1.8-.4-3.5-.2-5.3 0-2.4.2-2.2-.1-2.8 2.6-.3 1.3-.2 2.7-.2 4.1-.1 2.2-.4 4.4-.2 6.6.1 1.2 0 2.3-.2 3.5v.4c.1.3.1.5.2.8.2 1.4 1.5 2.7 2.9 2.7 2.3-.1 4.6.4 6.9.5 2.5.1 5.1.1 7.6-.1 1.1-.1 2-.6 2.4-1.7.6-2.3.8-4.7.8-7 0-2.7.1-5.4-.2-8 0-.3 0-.6.1-.9.1-1.1-.5-1.6-1.5-2.1-.5-.2-1.1-.3-1.6-.4-1.5-.2-2.7-.3-3.9-.5zm4.5 4.3v.6c.1 2.6.2 5.2 0 7.7-.1 1.3-.3 2.6-.5 3.8-.1.9-.5 1.2-1.4 1.3-3.8.5-7.6.2-11.4-.3-.6-.1-1.2-.1-1.8-.2-.4 0-.5-.2-.6-.6-.1-2.9 0-5.8 0-8.6 0-1.7.1-3.5.2-5.2 0-.3 0-.8.5-.7 1.6 0 3.1-.6 4.7-.3 2.2.4 4.5.3 6.6.7.9.2 1.9.5 2.8.6.9.2.9.7.9 1.2z"/><path d="m75.8 16c-.1 1.5.3 3 .4 4.5.1 1.3.5 2.5.5 3.8 0 .4-.1.9.3 1.2.6.4 1.2 1 2 1.1 2.2.3 4.5.4 6.7.3 1.8-.1 3.5-.4 5.2-.1 1.5.2 2.5-.6 2.8-2.1.5-2.4.3-4.9.3-7.4-.1-2.7.2-5.4.4-8.1.1-1.8-.5-2.9-2.3-3.4-1.3-.3-2.6-.5-3.9-.5-2 0-4.1 0-6.2.2-1.3.2-2.6 0-3.9 0-2.3.3-2.3-.1-2.6 2.4v.3c.1 2.3-.1 4.5.3 6.8zm2.2-7.4c0-.5.3-.5.7-.6h2.8 5.6c1.4 0 2.8.1 4.2.3.3.1.5.2.5.6 0 .5.1 1 0 1.5-.2 1.7-.1 3.5 0 5.2 0 2.4.1 4.7 0 7.1 0 .6-.2 1-1 .9-3.4-.3-6.8.6-10.2 0-1.5-.2-1.4-.2-1.8-1.7-.5-2.5-.7-5.1-.8-7.7-.2-1.8-.1-3.7 0-5.6z"/><path d="m94.6 113.1c-2.3.1-4.6-.4-6.9-.5-2.5-.1-5.1-.1-7.6.1-1.1.1-2 .6-2.3 1.7-.6 2.3-.8 4.7-.8 7 0 2.7-.1 5.4.2 8 0 .3 0 .6-.1.9-.1 1.1.5 1.6 1.5 2 .5.2 1.1.3 1.6.4 1.2.2 2.4.3 3.6.5 1.7.3 3.4.2 5 .5 1.8.4 3.5.2 5.3 0 2.4-.2 2.2.1 2.8-2.6.3-1.4.2-2.7.2-4.1.1-2.2.4-4.4.2-6.6-.1-1.2 0-2.3.2-3.5 0-.1 0-.3 0-.4-.1-.3-.1-.5-.2-.8 0-1.4-1.3-2.7-2.7-2.6z"/><path d="m76.8 239.3c.5.2 1.1.3 1.6.4 1.2.2 2.4.2 3.6.5 1.7.3 3.4.2 5 .5 1.8.4 3.5.2 5.3 0 2.4-.2 2.2.1 2.8-2.6.3-1.3.2-2.7.2-4.1.1-2.2.4-4.4.2-6.6-.1-1.2 0-2.3.2-3.5 0-.1 0-.3 0-.4-.1-.2-.1-.5-.2-.8-.2-1.4-1.4-2.7-2.9-2.7-2.3.1-4.6-.4-6.9-.5-2.5-.1-5.1-.1-7.6.1-1.1.1-2 .6-2.3 1.7-.6 2.3-.8 4.7-.8 7 0 2.7-.1 5.4.2 8 0 .3 0 .6-.1.9.1 1.1.8 1.6 1.7 2.1zm.7-11.8c.1-1.3.3-2.6.5-3.8.1-.9.5-1.2 1.4-1.3 3.8-.5 7.6-.2 11.4.3.6.1 1.2.1 1.8.2.4 0 .6.2.6.6.1 2.9 0 5.8 0 8.7 0 1.7-.2 3.5-.2 5.2 0 .3 0 .8-.5.7-1.6 0-3.1.6-4.7.3-2.2-.4-4.4-.3-6.6-.8-.9-.2-1.9-.4-2.8-.6-.7-.1-.7-.7-.7-1.2 0-.2 0-.4 0-.6-.2-2.6-.3-5.1-.2-7.7z"/><path d="m42.3 308.2c0 1.2.6 1.8 1.9 1.8.6 0 1.1 0 1.7.1 1.9.1 3.9.4 5.8.3 1.8-.1 3.5 0 5.3.1 1.1 0 1.8-.4 2.2-1.5 1.1-2.8 1.4-5.7 1.5-8.7.1-2.1.2-4.2.5-6.2.3-1.6.1-2.1-1.5-2.7-2.7-1.1-5.5-1.7-8.4-1.8-1.2 0-2.3-.1-3.5-.2-1.4-.2-2.7-.3-4.1-.2-1.1 0-1.8.8-1.9 1.9-.1.8-.1 1.6-.1 2.5 0 1 .2 1.9.3 2.9.2 2.2.1 4.5.3 6.8 0 1.5-.1 3.2 0 4.9z"/><path d="m59.4 184.4c-2.7-1.1-5.5-1.7-8.4-1.8-1.1 0-2.3-.1-3.5-.2-1.3-.2-2.7-.3-4.1-.2-1.1 0-1.8.9-1.9 2-.1.8-.1 1.6-.1 2.5 0 1 .2 1.9.3 2.9.2 2.2.1 4.5.3 6.8v5.1c0 1.2.6 1.8 1.9 1.8.6 0 1.1 0 1.7.1 1.9.1 3.9.4 5.8.3 1.8-.1 3.5 0 5.3.1 1.1 0 1.8-.4 2.2-1.5 1.1-2.8 1.4-5.7 1.5-8.7.1-2.1.1-4.2.5-6.2.3-1.9.1-2.3-1.5-3z"/><path d="m54.2 381.7c1.4.1 2.7.4 4.1.3h1c1.2 0 1.7-.4 1.5-1.6-.2-2.7.1-5.5-.2-8.2-.1-1.3.2-2.6.3-3.8.1-1.5.2-2.8-.7-4.2-.6-.9-.9-1.3-2-1.3-1.8-.1-3.5.3-5.2.4-3.4.2-6.8-.1-10.2-.2-1.3-.1-1.9.5-1.9 1.8v.4c.3 3.2.6 6.4.9 9.7.2 1.5.2 3 .6 4.5.3 1.2.9 1.9 2.1 2 .5 0 .9.1 1.4.1 2.6-.1 5.4 0 8.3.1z"/><path d="m62.4 397c-2.3-.6-4.7-.9-7.1-1-1.7-.1-3.4.2-5.2.2-1.3 0-2.6 0-4 0-.7 0-1.1.4-1 .8.2 1.1 0 2.2 0 3.3 0 2.4 0 4.8-.1 7.2 0 2.1-.1 4.2-.1 6.4.1 1.5.3 1.8 1.7 2.4 1.7.7 3.5.6 5.2.7 2 .1 3.9.2 5.8.5h2.7c.5-.1 1-.2 1.4-.2.7 0 1.3-.5 1.5-1 .1-.4.2-.9.3-1.4.3-2.1.4-4.2.5-6.3.1-3.2.3-6.3.6-9.4 0-.3 0-.6-.2-.9-.5-.6-1.1-1.1-2-1.3zm-1.1 13.8c0 1.2 0 2.5-.5 3.7-.2.4-.4.6-.9.6-1.7.1-3.4-.2-5.2-.3-1.3-.1-2.6-.2-3.8-.3-.8-.1-1.6-.2-2.4-.5-.5-.1-.7-.4-.7-.9 0-2.3 0-4.6 0-6.8 0-2.2 0-4.5 0-6.7 0-.8.1-.9.9-.9 1.6 0 3.3 0 4.9-.2 2.5-.2 5 .1 7.5.6.5.1.6.3.6.7-.2 3.8-.4 7.4-.4 11z"/><path d="m48 42.6c-1.2-.2-2.1.6-2.3 1.8-.3 1.4-.2 2.8-.3 4.3-.3 3.6-.2 7.2-.6 10.8-.2 1.6.5 2.8 2.5 2.6.7-.1 1.3-.1 2 0 1.6.2 3.1.4 4.7.3 2.1-.1 4.2-.4 6.3 0h.8c.5 0 1-.1 1.2-.7.4-1.3.6-2.7.8-4.1.2-1.6-.1-3.3 0-4.9.1-1.7.2-3.4 0-5.2-.1-.6-.1-1.3 0-1.9.1-.8-.6-1.9-1.4-2.2-1.5-.6-3.1-.6-4.7-.6-3.2 0-6.1.2-9-.2zm12.4 4.4c.1 1.7.2 3.4-.1 5-.1.7-.1 1.5 0 2.2.1 1.4 0 2.8-.2 4.2-.1.9-.1 1-1.1.9-1.8 0-3.7 0-5.5.2-1.5.2-3-.2-4.5-.5-.1 0-.2 0-.3-.1-1.2-.1-1.2-.1-1-1.2.1-1 .2-1.9.1-2.9-.1-2.5.2-4.9.2-7.4 0-1 .6-1.6 1.6-1.5 2.1.2 4.2 0 6.3.1 1.3.1 2.6.2 3.9.3.3.1.5.3.6.7z"/><path d="m58.3 255.4c-.5.1-1.1 0-1.7.1-2.1.1-4.2-.1-6.3.2-1.2.2-2.3.2-3.5.2-1-.1-2.1-.1-3.1 0-.5.1-.8.3-1 .8-.7 2-.7 4-.4 6.1.4 2.5.9 5 .9 7.1.2 1.7.3 2.8.5 4 .3 1.2 1 2 2.3 2.1 2.3.2 4.6.6 6.9.2h.2c2-.1 3.9-.1 5.8-.2 1.5-.1 1.8-.7 1.8-2.1 0-2.1-.1-4.2-.2-6.3-.1-3.3-.2-6.5 0-9.8.3-1.4-1-2.5-2.2-2.4zm-.7 17.4c-1.6 0-3.2 0-4.8.2-1.8.2-3.6.1-5.4 0-1.1-.1-1.4-.2-1.5-1.3 0-.3-.1-.6-.1-.9s-.1-.6-.1-.9c0-1-.2-2-.2-3.1 0-1.5-.6-2.9-.7-4.4 0-.9 0-1.8 0-2.7 0-.5.2-.8.8-.8 3.8 0 7.5-.5 11.2-.1.2 0 .5 0 .7.1.3 0 .4.2.4.5.1 4.2.2 8.5.4 12.7.2.5 0 .7-.7.7z"/><path d="m59.7 80.4c-.3-1.5-.7-1.9-2.2-2.1-2.4-.2-4.7-.1-7.1.2-2.1.2-4.2.3-6.2 0-.5-.1-1.2 0-1.3.5-.1.6-.6 1-.6 1.7 0 .5-.1 1.1-.1 1.6-.3 4.2-.3 8.4 0 12.7.1 1.9.9 2.6 2.7 2.8 1.9.3 3.7 0 5.6.1 2.1 0 4.2 0 6.3.3.8.1 1.6.3 2.4 0 1.2-.4 1.7-1.4 1.6-2.7s-.3-2.6-.5-4c-.2-2-.5-3.9-.5-5.9 0-1.4-.2-2.8-.1-4.2.1-.4.1-.7 0-1zm-2.5 15c-1.5 0-3-.1-4.5-.2-1.6-.1-3.1 0-4.7-.1-.8-.1-1.5-.1-2.2-.2-.4 0-.7-.3-.8-.8-.1-.8-.2-1.5-.2-2.3 0-2-.1-3.9 0-5.9 0-1.3.2-2.7.2-4.1 0-.5.2-.6.6-.6.6 0 1.2 0 1.8.1 1.9.2 3.8-.3 5.7-.4 1.2-.1 2.3-.1 3.5 0 .6 0 .9.3.9.9-.1 2.7 0 5.5.2 8.2.1 1.5.2 3.1.4 4.6-.1.5-.3.8-.9.8z"/><path d="m62.4 160.3c0-2.7.1-5.4-.2-8 0-.3 0-.6.1-.9.1-1.1-.5-1.6-1.5-2.1-.5-.2-1.1-.3-1.6-.4-1.2-.2-2.4-.2-3.6-.5-1.7-.3-3.4-.2-5-.5-1.8-.4-3.5-.2-5.3 0-2.4.2-2.2-.1-2.8 2.6-.3 1.4-.2 2.7-.2 4.1-.1 2.2-.4 4.4-.2 6.6.1 1.2 0 2.4-.2 3.5v.4c.1.2.1.5.2.8.2 1.4 1.5 2.7 2.9 2.7 2.3-.1 4.6.4 6.9.5 2.5.1 5.1.1 7.6-.1 1.1-.1 2-.6 2.3-1.7.4-2.3.6-4.7.6-7zm-2.3.8c-.1 1.3-.3 2.6-.5 3.8-.1.9-.5 1.2-1.4 1.3-3.8.5-7.6.2-11.4-.3-.6-.1-1.2-.1-1.8-.1-.4 0-.5-.2-.6-.6-.1-2.9-.1-5.8 0-8.7 0-1.7.2-3.5.2-5.2 0-.3 0-.8.5-.7 1.6 0 3.1-.6 4.7-.3 2.2.4 4.5.3 6.6.8.9.2 1.8.4 2.8.6.7.1.7.7.7 1.2v.6c.2 2.4.4 5 .2 7.6z"/><path d="m41.7 233.2c.1 1.2.5 2.5.5 3.8 0 .4-.1.9.3 1.2.6.4 1.2 1 2 1.1 2.2.3 4.5.4 6.7.3 1.7-.1 3.5-.4 5.2-.1 1.5.2 2.5-.6 2.8-2.1.5-2.5.4-4.9.3-7.4-.1-2.7.2-5.4.4-8.1.1-1.8-.5-2.9-2.3-3.4-1.3-.3-2.6-.5-3.9-.5-2.1 0-4.1 0-6.2.2-1.3.1-2.6 0-3.9 0-2.3.3-2.3-.1-2.6 2.4v.3c.1 2.3-.1 4.5.3 6.8 0 .3.1.7.1 1-.3 1.5.2 3 .3 4.5zm1.7-11.9c0-.5.4-.5.7-.6h2.7c1.9 0 3.7.1 5.6.1 1.4 0 2.8.1 4.2.3.3.1.5.2.5.6 0 .5.1 1 0 1.5-.2 1.7-.1 3.5 0 5.2 0 2.4.1 4.7 0 7.1 0 .6-.3 1-1 .9-3.4-.3-6.8.6-10.2.1-1.5-.2-1.4-.2-1.8-1.7-.5-2.5-.7-5.1-.8-7.7 0-2 .1-3.9.1-5.8z"/><path d="m40.7 113.7v.4c.1 2.3-.1 4.5.3 6.8.1.3.1.7.1 1-.2 1.5.3 3 .4 4.5.1 1.2.5 2.5.5 3.8 0 .4-.1.9.3 1.2.6.4 1.2 1 2 1.1 2.2.3 4.5.4 6.7.3 1.8-.1 3.5-.4 5.2 0 1.5.3 2.5-.6 2.8-2.1.5-2.5.4-4.9.3-7.4-.1-2.7.2-5.4.4-8.1.1-1.8-.5-2.9-2.3-3.4-1.3-.3-2.6-.5-3.9-.5-2.1 0-4.1 0-6.2.2-1.3.1-2.6 0-3.9 0-2.4 0-2.4-.3-2.7 2.2zm2.5.7c0-.5.4-.5.7-.5h2.8 5.5c1.4 0 2.8.1 4.2.3.3.1.5.2.5.5 0 .5.1 1 0 1.5-.2 1.7-.1 3.5 0 5.2 0 2.4.1 4.7 0 7.1 0 .6-.2 1-1 .9-3.4-.3-6.8.6-10.2 0-1.5-.2-1.4-.2-1.8-1.7-.5-2.5-.7-5.1-.8-7.7-.1-1.8.1-3.7.1-5.6z"/><path d="m42.1 345.1c.5.2 1.1.3 1.6.4 1.2.2 2.4.2 3.6.5 1.7.3 3.4.2 5 .5 1.8.4 3.5.2 5.3 0 2.4-.2 2.2.1 2.8-2.6.3-1.3.2-2.7.2-4.1.1-2.2.4-4.4.2-6.6-.1-1.2 0-2.3.2-3.5 0-.1 0-.3 0-.4-.2-.3-.1-.6-.2-.8-.2-1.4-1.5-2.7-2.9-2.7-2.3.1-4.6-.4-6.9-.5-2.5-.1-5.1-.1-7.6.1-1.1.1-2.1.6-2.4 1.7-.6 2.3-.8 4.7-.8 7 0 2.7-.1 5.4.2 8 0 .3 0 .6-.1.9.2 1.2.9 1.7 1.8 2.1zm.7-11.8c.1-1.3.3-2.6.5-3.8.1-.9.5-1.2 1.4-1.3 3.8-.5 7.6-.2 11.4.3.6.1 1.2.1 1.8.2.4 0 .5.2.6.6.1 2.9.1 5.8 0 8.6 0 1.7-.2 3.5-.2 5.2 0 .3 0 .8-.5.7-1.6 0-3.1.6-4.7.3-2.2-.4-4.4-.3-6.6-.7-.9-.2-1.9-.5-2.8-.6-.7-.1-.7-.7-.7-1.2 0-.2 0-.4 0-.6-.2-2.5-.4-5.1-.2-7.7z"/><path d="m46.7 27.8c1.9 0 3.9-.5 5.8-.4h.4c1.4-.3 2.7-.2 4.1-.3 2.4 0 3-.7 2.9-2.4 0-2.2-.1-4.4-.1-6.6 0-1.9 0-3.8 0-5.7 0-1.1 0-2.2-.3-3.2-.3-.9-.8-1.5-1.8-1.8-1.7-.4-3.3-.2-4.9-.1s-3.3.1-4.9 0c-1.9 0-3.8-.1-5.7 0-1.3.1-1.7.8-2 2-.6 2.7-.5 5.4-.5 8.1.1 2.8-.1 5.6-.1 8.4 0 1 .8 2 1.8 1.9 1.7 0 3.5.1 5.3.1zm-4.5-10.8c0-1.5.1-3 .2-4.6 0-.7.2-1.3.4-2 .1-.3.3-.4.6-.4.4 0 .9-.1 1.3-.1 0 0 0 0 0-.1 2.3.1 4.7.1 7 .2h3.5c1.1 0 1.4.2 1.6 1.4.3 1.8.2 3.7.3 5.5.1 2.1.1 4.3.1 6.4 0 .5-.1.8-.6.9-.7.2-1.4.2-2.2.2-.4 0-.8 0-1.2.1-.8.2-1.6.3-2.5.2-.8-.1-1.6.2-2.4.3-2 .3-3.9-.1-5.8.1-.3 0-.5-.1-.5-.4.3-2.6.2-5.2.2-7.7z"/><path d="m24.9 397.1c-2.7-1.1-5.5-1.7-8.4-1.8-1.1 0-2.3-.1-3.5-.2-1.4-.2-2.7-.3-4.1-.2-1.1.1-1.8.9-1.9 2v2.4c0 1 .2 1.9.3 2.9.2 2.2.1 4.5.3 6.8v5.2c0 1.2.6 1.8 1.9 1.8.6 0 1.1 0 1.7.1 1.9.1 3.9.4 5.8.3 1.8-.1 3.5 0 5.3.1 1.1 0 1.8-.4 2.2-1.4 1.1-2.8 1.4-5.7 1.5-8.7.1-2.1.1-4.2.5-6.2.2-2 0-2.4-1.6-3.1z"/><path d="m28.1 153.4c-.1-.6-.1-1.3 0-1.9.1-.9-.6-1.9-1.4-2.2-1.5-.6-3.1-.6-4.7-.6-2.9-.1-5.9 0-8.8-.3-1.2-.1-2.1.7-2.3 1.8-.3 1.4-.2 2.8-.3 4.3-.3 3.6-.2 7.2-.6 10.8-.2 1.6.5 2.8 2.5 2.6h2c1.6.2 3.1.4 4.7.3 2.1-.1 4.2-.4 6.3 0h.8c.5 0 1-.1 1.2-.7.4-1.3.6-2.7.8-4.1.2-1.6-.2-3.3-.1-4.9 0-1.6.1-3.3-.1-5.1zm-2.6 6.7c.2 1.4 0 2.8-.2 4.2-.1.9-.1 1-1.1.9-1.8 0-3.7 0-5.5.2-1.5.2-3-.2-4.5-.5-.1 0-.2 0-.3-.1-1.2-.1-1.2-.1-1-1.2.1-1 .2-1.9.1-2.9-.1-2.5.2-4.9.2-7.4 0-1 .6-1.6 1.6-1.5 2.1.2 4.2 0 6.3.1 1.3 0 2.6.2 3.9.3.4 0 .6.2.6.6.1 1.7.2 3.4-.1 5.1-.1.7-.1 1.5 0 2.2z"/><path d="m26.3 308.1c-.1-1.3-.3-2.7-.5-4-.2-1.9-.5-3.9-.5-5.9 0-1.4-.2-2.8-.1-4.2 0-.3 0-.6-.1-.9-.3-1.5-.7-1.9-2.2-2-2.4-.2-4.7-.1-7.1.1-2.1.3-4.2.3-6.2 0-.5-.1-1.2 0-1.3.5-.1.6-.6 1-.6 1.7 0 .5 0 1.1-.1 1.6-.2 4.2-.3 8.5 0 12.7.1 1.9.9 2.6 2.7 2.8 1.9.2 3.7 0 5.6 0 2.1 0 4.2 0 6.3.3.8.1 1.6.3 2.4 0 1.2-.5 1.8-1.4 1.7-2.7zm-3.6 0c-1.5 0-3-.2-4.5-.2-1.6-.1-3.1 0-4.7-.1-.7-.1-1.5-.1-2.2-.2-.4-.1-.7-.3-.8-.8-.1-.8-.2-1.5-.2-2.3 0-2-.1-3.9 0-5.9 0-1.4.2-2.7.2-4.1 0-.5.2-.6.6-.6.6 0 1.2 0 1.8.1 1.9.2 3.8-.3 5.7-.4 1.2 0 2.3-.1 3.5 0 .6 0 .9.3.9.9-.1 2.7.1 5.4.2 8.2.1 1.5.2 3 .4 4.6-.1.5-.3.8-.9.8z"/><path d="m23.6 361.2c-.5.1-1.1 0-1.7.1-2.1.1-4.2-.1-6.3.2-1.2.1-2.3.2-3.5.2-1-.1-2.1-.1-3.1 0-.5.1-.8.3-1 .8-.7 2-.7 4.1-.4 6.1.4 2.5.9 5 .9 7.1.2 1.7.3 2.8.5 4 .3 1.2 1 2 2.3 2.1 2.3.2 4.6.6 6.9.2h.2c2-.1 3.9-.1 5.8-.2 1.5-.1 1.9-.7 1.8-2.1 0-2.1-.1-4.2-.2-6.3-.1-3.3-.2-6.5 0-9.8.2-1.4-1-2.5-2.2-2.4zm-.7 17.4c-1.6 0-3.2 0-4.8.2-1.8.2-3.6.1-5.4 0-1.1-.1-1.3-.2-1.5-1.3 0-.3-.1-.6-.1-.9s-.1-.6-.1-.9c0-1-.2-2-.2-3.1 0-1.5-.6-2.9-.7-4.4 0-.9 0-1.8 0-2.7 0-.5.2-.8.8-.8 3.8 0 7.5-.5 11.3-.1.2 0 .5.1.7.1.3 0 .4.2.4.5.1 4.2.2 8.5.4 12.7.1.5-.1.7-.8.7z"/><path d="m25 186.2c-.3-1.5-.7-1.9-2.2-2-2.4-.2-4.7-.1-7.1.2-2.1.2-4.2.3-6.2 0-.5-.1-1.2 0-1.3.5-.1.6-.6 1-.6 1.7 0 .5-.1 1.1-.1 1.6-.3 4.2-.3 8.5 0 12.7.1 1.9.9 2.6 2.8 2.9 1.8.2 3.7 0 5.5 0 2.1 0 4.2 0 6.3.3.8.1 1.6.3 2.4 0 1.2-.4 1.7-1.4 1.6-2.7s-.3-2.7-.5-4c-.2-1.9-.5-3.9-.5-5.9 0-1.4-.2-2.8-.1-4.2 0-.5 0-.8 0-1.1zm-2.5 15c-1.5 0-3-.2-4.5-.2-1.6-.1-3.1 0-4.7-.1-.8-.1-1.5-.1-2.2-.2-.5 0-.7-.3-.8-.8-.1-.8-.2-1.5-.2-2.3 0-2-.1-3.9 0-5.9 0-1.4.2-2.7.2-4.1 0-.5.2-.6.6-.6h1.8c1.9.2 3.8-.3 5.7-.4 1.2 0 2.3-.1 3.5 0 .6 0 .9.3.9.9-.1 2.7 0 5.4.2 8.2.1 1.5.2 3 .4 4.5-.2.7-.3 1-.9 1z"/><path d="m21.8 42.8c-1.7.1-3.4.2-5.1 0-2.3-.2-4.6-.3-6.7-.5-.4 0-.6 0-.8 0-1-.2-1.6.3-1.7 1.6v.3c0 3.2.1 6.3-.1 9.5-.1 1.8 0 3.5-.2 5.3-.1.9-.1 1.8-.2 2.7 0 1.1.5 1.6 1.6 1.7 1.2.1 2.3 0 3.5.2 2.4.3 4.7.4 7.1.5 1.6.1 3.2.2 4.8.4 1.4.2 2.3-.4 2.4-1.8.4-2.6.3-5.2.1-7.7-.2-3.2-.3-6.4-.1-9.6.1-1-.6-2.1-1.6-2.3s-2-.3-3-.3zm2.1 4.6c-.1 1.4-.1 2.7 0 4.1.1 2.4.2 4.7.2 7.1 0 .8-.1 1.5-.2 2.3 0 .4-.2.6-.7.6-2.2-.2-4.4-.2-6.6-.3-1.9-.2-3.8-.6-5.8-.6-.7 0-.9-.3-.9-1 .1-1.5 0-3 0-5.1-.1-2.2.3-5 .1-7.9 0-.4 0-.6.6-.6 1.4.1 2.7.4 4.1.2 2.2-.2 4.3 0 6.5.2.6.1 1.1 0 1.7 0 1 0 1 0 1 1z"/><path d="m24.7 77.7c-1.8.1-3.6.1-5.3 0-2 0-3.9.5-5.8.4-.1 0-.3 0-.4.1-1.3.3-2.7.2-4.1.3-2.4 0-3 .7-2.9 2.4 0 2.2.1 4.4.1 6.6h.1v5.7c0 1.1 0 2.2.3 3.2.3.9.8 1.5 1.8 1.7 1.6.4 3.2.2 4.8.2 1.6-.1 3.3-.1 4.9 0 1.9 0 3.8.1 5.7 0 1.3-.1 1.8-.8 2-2 .6-2.7.5-5.4.5-8.1-.1-2.8.1-5.6.1-8.4 0-1.2-.8-2.2-1.8-2.1z"/><path d="m7.7 343.9c.6.4 1.2 1 2 1.1 2.2.3 4.5.4 6.7.3 1.8-.1 3.5-.3 5.2 0 1.5.2 2.5-.6 2.8-2.1.5-2.4.3-4.9.3-7.4-.1-2.7.2-5.4.4-8.2.1-1.8-.5-2.9-2.3-3.4-1.3-.3-2.6-.5-3.9-.5-2.1 0-4.1 0-6.2.2-1.3.1-2.6 0-3.9 0-2.3.3-2.3-.1-2.6 2.4v.4c.1 2.3-.1 4.5.3 6.8 0 .3.1.7.1 1-.2 1.5.3 3 .4 4.5.1 1.3.5 2.5.5 3.8-.1.3-.1.9.2 1.1zm1-16.8c0-.5.3-.5.7-.6h2.7c1.8 0 3.7.1 5.6.1 1.4 0 2.8.1 4.2.3.3 0 .5.2.5.5 0 .5.1 1 0 1.5-.2 1.7-.1 3.5 0 5.2 0 2.4.1 4.7 0 7.1 0 .6-.3 1-1 .9-3.4-.3-6.8.6-10.2.1-1.5-.2-1.4-.2-1.8-1.7-.5-2.5-.7-5.1-.9-7.7 0-1.9.2-3.8.2-5.7z"/><path d="m5.7 14.1c.2 2 .5 3.9.5 5.9 0 1.4.2 2.8.1 4.2 0 .3 0 .6.1.9.3 1.5.7 1.9 2.2 2 2.4.2 4.7.1 7.1-.2 2.1-.3 4.2-.3 6.2 0 .5.1 1.2 0 1.3-.5.1-.6.6-1 .6-1.7 0-.5 0-1.1.1-1.6.3-4.2.3-8.4 0-12.7-.2-1.7-.9-2.4-2.8-2.7-1.9-.2-3.7 0-5.6 0-2.1 0-4.2 0-6.3-.3-.8-.1-1.6-.3-2.4 0-1.2.4-1.7 1.4-1.6 2.7s.3 2.6.5 4zm3.1-4c1.5 0 3 .1 4.5.2 1.6.1 3.1 0 4.7.1.8.1 1.5.1 2.2.2.5.1.7.3.8.8.1.8.2 1.5.2 2.3 0 2 .1 3.9 0 5.9 0 1.4-.2 2.7-.2 4.1 0 .5-.2.6-.5.6-.6 0-1.2 0-1.8 0-1.9-.2-3.8.3-5.7.4-1.1 0-2.3.1-3.4 0-.6-.1-.9-.3-.9-.9.1-2.7-.1-5.4-.2-8.2-.1-1.5-.2-3-.4-4.6 0-.6.1-.9.7-.9z"/><path d="m6.8 240.5c1.8-.1 3.6-.1 5.3 0 2 0 3.9-.5 5.8-.4h.4c1.3-.3 2.7-.2 4.1-.3 2.4 0 3-.7 3-2.4 0-2.2-.1-4.4-.1-6.6 0-1.9 0-3.8-.1-5.7 0-1.1.1-2.2-.3-3.2-.3-.9-.8-1.5-1.8-1.7-1.6-.4-3.2-.2-4.8-.1s-3.3.1-4.9 0c-1.9 0-3.8-.1-5.7 0-1.3.1-1.8.8-2 2-.6 2.7-.5 5.4-.5 8.1 0 2.8-.1 5.6-.1 8.4 0 1 .8 2 1.7 1.9zm.9-10.8c0-1.5.1-3 .2-4.6 0-.7.2-1.3.4-2 .1-.3.3-.4.6-.4.5 0 .9-.1 1.3-.1 2.3.1 4.7.1 7 .1h3.5c1.1 0 1.4.3 1.6 1.4.3 1.8.2 3.7.3 5.5.1 2.1.1 4.3.1 6.4 0 .5-.1.8-.6.9-.7.2-1.5.2-2.2.2-.4 0-.8 0-1.2.1-.8.2-1.7.3-2.5.2s-1.6.1-2.4.2c-1.9.3-3.9-.1-5.8.1-.3 0-.5-.1-.5-.4.3-2.6.2-5.1.2-7.6z"/><path d="m9.8 275.4c1.7-.1 3.4-.2 5.1 0 2.3.2 4.6.3 6.7.5h.8c1 .2 1.6-.3 1.7-1.6 0-.1 0-.2 0-.4 0-3.1-.1-6.3.1-9.4.1-1.8 0-3.5.2-5.3.1-.9.2-1.8.2-2.7 0-1.1-.5-1.6-1.6-1.7-1.2-.1-2.3 0-3.5-.2-2.4-.3-4.7-.4-7.1-.5-1.6-.1-3.2-.2-4.8-.4-1.4-.1-2.2.4-2.4 1.9-.4 2.6-.3 5.2-.1 7.7.2 3.2.3 6.4.1 9.6 0 1 .6 2.1 1.6 2.3.9 0 1.9.2 3 .2zm-2.2-18.1c0-.4.2-.6.6-.6 2.2.2 4.4.2 6.6.3 1.9.2 3.9.6 5.8.6.7 0 1 .3.9 1-.1 1.5 0 3 0 5.1.1 2.2-.3 5-.1 7.9 0 .4 0 .6-.6.6-1.4-.1-2.7-.3-4.1-.2-2.2.2-4.3 0-6.5-.2-.6-.1-1.1 0-1.7 0-1 0-1 0-1-1 .1-1.4.1-2.7 0-4.1-.1-2.4-.2-4.7-.2-7.1.1-.7.3-1.5.3-2.3z"/><path d="m6.6 133.6c1.8-.1 3.6-.1 5.3 0 1.9 0 3.9-.5 5.8-.4h.4c1.3-.3 2.7-.2 4.1-.3 2.4 0 3-.7 2.9-2.4 0-2.2-.1-4.4-.1-6.6 0-1.9 0-3.8 0-5.7 0-1.1 0-2.2-.3-3.2-.3-.9-.8-1.5-1.8-1.7-1.6-.4-3.2-.2-4.8-.2-1.6.1-3.3.1-4.9 0-1.9 0-3.8-.1-5.7 0-1.3.1-1.8.8-2 2-.6 2.7-.5 5.4-.5 8.1.1 2.8-.1 5.6-.1 8.4-.1 1.1.7 2.1 1.7 2zm.8-10.8c0-1.5.1-3 .2-4.6 0-.7.2-1.3.4-2 .1-.3.3-.4.6-.4.4 0 .9-.1 1.3-.1 2.3.1 4.7.1 7 .1h3.5c1.1 0 1.4.2 1.6 1.4.3 1.8.2 3.7.3 5.5.1 2.1.1 4.3.1 6.4 0 .5-.1.8-.6.9-.7.2-1.4.2-2.2.2-.4 0-.8 0-1.2.1-.8.2-1.7.3-2.5.2s-1.6.1-2.4.3c-1.9.3-3.9-.1-5.8.1-.3 0-.5-.1-.5-.4.3-2.6.2-5.2.2-7.7z"/></g></svg>