<svg enable-background="new 0 0 425.2 425.2" viewBox="0 0 425.2 425.2" xmlns="http://www.w3.org/2000/svg"><g opacity=".1"><path d="m368.6 134.6c-2.6 5.4-5.5 10.7-9 15.6-1.7 2.4-4 4.2-6.6 5.2-.8.3-2.5-.2-3-1-.7-.9-1.5-1.7-1.8-2.9-.5-2 .4-3.6 1.1-5.2 1.5-3.3 3.4-6.5 5.4-9.5 1.1-1.7 2.6-3.1 3.8-4.7 2-2.8 5.9-3.5 8.5-1.4 1.1.9 1.5 2.2 1.7 3.6 0 .1-.1.2-.1.3z"/><path d="m313.9 143.9c-.3-1.8.8-3.4 1.5-5 1-2.3 2.2-4.5 3.1-6.8 1.1-2.9 2.7-5.6 4.1-8.3 1.2-2.3 2.7-3.8 5-4.4 1.6-.5 3.3-.4 4.6 1.1 1.1 1.2.6 2.6.2 3.7-1.7 4.9-3.3 9.8-5.4 14.6-1 2.1-1.6 4.4-2.9 6.4-1.2 2-2.5 3.9-4.7 5-1.2.6-2.6 1.2-3.8.2-1.3-1.1-2.3-2.6-2-4.7.2-.6.2-1.1.3-1.8z"/><path d="m76.6 341c.7.8 1.6 1.3 2.5 1.9.4.2.8.5 1.2.8.9.9 1.2 1.8.7 3.2-1.4 4.1-2.6 8.3-3.8 12.4-.9 3.2-2.3 6.2-3.8 9.1-.6 1.3-1.8 2.3-3.3 2.6-.7.1-1.4.4-2 .6-1.7.6-3.1 0-4.4-1-2-1.6-1.8-3.6-1-5.7 1.3-3.7 2.5-7.5 4.2-11.1.9-2.1 1.3-4.3 2.2-6.4 1.2-3.1 3.5-5 6.1-6.6.3 0 .8.1 1.4.2z"/><path d="m340.1 68.7c0-.1 0-.2 0-.3.2-2.1 1-4.3 1.6-6.3 1.2-3.6 2.7-7.1 5.1-10 .7-.8 1.3-1.8 2.1-2.6 1.7-1.8 3.5-1.4 5.3-.7 1 .4 1.6 1.1 2.1 2.2 1.2 2.7 1 5.3-.1 8.1-1 2.6-1.9 5.3-2.9 8-1.3 3.5-2.8 6.9-5.2 9.9-1.5 1.8-4.6 2.6-6.2.8-1.6-2.2-1.9-6.6-1.8-9.1z"/><path d="m101.9 418.3c-4.1-2.6-8-.2-10.3 5.3-.2.5-.4 1-.6 1.6h14.6c-.1-3.1-1.1-5.2-3.7-6.9z"/><path d="m91 .1c-.2.6-.4 1.2-.7 1.8-1.9 5.7-3.5 11.5-5.7 17.1-.9 2.2-1.4 4.6-1.2 6.9.2 2.1 0 4.2-.3 6.3-.5 3 1.4 4.9 3.4 4.5 2.5-.5 4.5-2.5 6.4-4.6 2.2-2.4 3.9-5.5 5.3-8.7 2.4-5.2 4.8-10.4 6.4-16.1.1-.5.3-1.1.4-1.6.3-2.2.5-4.1.5-5.7z"/><path d="m47.5 117.6c-.4 4-1.9 7.5-4.2 10.7-1.5 2.1-2.7 4.5-4.5 6.5-1.8 2.1-3.8 3.6-6.4 4.5-2.7 1-6-1.2-5.7-4.7.2-2.9 1-5.6 2-8.2 1-2.8 1.6-5.8 2.7-8.6 1.1-2.6 2.3-5.2 3.3-7.8 1.2-3.2 6.6-5 9.6-2.8 2.9 2.1 3.5 5.2 3.3 8.6.1.6 0 1.2-.1 1.8z"/><path d="m362.4 95.9c-.4 1.8-.7 3.3-1.2 4.8-1.3 4.3-2.5 8.7-4.7 12.6-.7 1.1-1.4 2.1-2.3 3.1-.8.9-1.3 2.1-2.1 2.9-1.4 1.3-3 2.5-4.7 3.2-2.7 1.2-4.6-.3-5.9-2.2-1.2-1.7-.9-3.6-.5-5.5 1-5.3 3.2-10.1 5.8-14.7.8-1.5 2-2.8 2.8-4.3.8-1.2 1.3-2.6 2.4-3.6 1.3-1.2 2.5-2.6 4.4-2.7 3-.2 5 1.8 5.8 4.5 0 .7.3 1.4.2 1.9z"/><path d="m107.4 399.6c-.5-.1-1-.2-1.6-.6-4.8-3.1.7-12.2 2-16.2 1.2-3.6 2.9-6.9 4.3-10.4.7-1.9 2-3.3 3.5-4.6.1-.1.3-.3.5-.3 1.8 0 3.8-1.1 5.5.2 1.6 1.2 2.4 3 2.7 5.2.6 4.2-1.3 7.7-2.5 11.4-1.7 5.4-3.3 14.7-10.4 15-1.4-.1-2.7.5-4 .3z"/><path d="m17.5.1c-.4.8-.7 1.7-1 2.5-.9 2.5-1.8 5-2.4 7.4-.2 2-.2 2.1.8 4.6.6 1.5 2.3 2.6 3.9 2.5.5 0 1-.2 1.4 0 1.6.7 2.7-.3 3.7-1.4 1.4-1.5 2.9-3.1 4-5s1.5-4.2 2.3-6.2c.6-1.5 1.2-2.9 1.8-4.3h-14.5z"/><path d="m34.6 418.6c.8-2 .4-4 0-5.9-.6-3-4.7-4.2-6.8-3-2.6 1.5-4.3 3.8-5.7 6.3-.7 1.2-1 2.6-1.7 3.8-1.1 1.7-2.1 3.5-2.9 5.4h14.5c.8-2.2 1.7-4.3 2.6-6.6z"/><path d="m122.6 34.2c-1 3.4-2.3 6.9-4 10.3-1.8 3.7-4.2 6.9-6.2 10.5-.9 1.7-2.3 2.4-4.2 2.1-.8-.2-1.7-.1-2.5.1-3 .7-5.5-2.6-4.7-5.8 1-4.1 2.7-8 4.5-11.8.5-1 .8-2 1.2-3 .5-1.5 1.3-3 2.2-4.3 1.2-1.7 2.4-3.5 3.5-5.2.7-1 1.5-1.3 2.6-1.3 2.2 0 4 .9 5.4 2.3 1.7 1.4 2.5 3.4 2.2 6.1z"/><path d="m61.5 393.6c-.7 2.8-1.5 6-2.2 9.3-.8 3.5-1.9 7.2-3.8 10.2-2.6 3.9-5.8 4.9-10 3.3-2.3-.9-3.8-5.3-2.8-8.4.8-2.3 1.5-4.5 2.1-6.8 1.2-3.8 2.6-7.5 4.6-11 .6-1.1 1.3-2.1 2.1-3 1.2-1.5 2.8-1.2 4.4-1.1.6.1 1.3.4 1.9.6 3.1 1.1 4.2 3.1 3.7 6.9z"/><path d="m70.1 119.4c-.9-.1-1.8-.1-2.6-.3-2.3-.7-3.4-2.6-4.1-4.8-.1-.4-.1-.8.1-1.1 1.5-2.3 1.7-5.1 2.9-7.5 1.4-2.8 1.5-5.9 2.4-8.8.8-2.5 2.3-4.5 4.6-5.7 1.2-.6 2.5-1.1 3.9-1.3 3-.6 6.4 2 6 5.9-.6 5.4-2 10.6-3.8 15.7-.8 2.2-2.1 4.2-3.2 6.4-.9 1.7-2.3 2.2-4 2-.8-.3-1.5-.4-2.2-.5 0 .1 0 .1 0 0z"/><path d="m416.8 359.3c-.5 1.7-1.5 3.2-1.6 5 0 1.2-.6 2.6.5 3.6 1.6 1.5 3.2 2.8 5.1 3.9 1.5.8 3.4.7 4.1-.6.2-.4.5-.8.7-1.2v-27.7c-3.6 5.2-6.8 10.8-8.8 17z"/><path d="m9.9 341c-1.5-2.6-5.5-3.5-7.7-1.4-.5.5-.8 1.2-1.3 1.8-.2.3-.4.6-.6.8v27.7c.6-1.2 1.2-2.5 1.7-3.7.4-.9.7-1.8 1.1-2.6 1.4-3.1 3.3-6 4.3-9.3.7-2.6 1.9-5 2.5-7.7.5-1.9 1.1-3.7 0-5.6z"/><path d="m36.3 38.4c-.1.6-.2 1.1-.3 1.7-.9 5.2-1.9 8.6-5.6 12.4-1.1 1.1-2.6 1.5-4 .9-2-.9-4.1-1.8-4.8-4.1-1-3.3-1.4-6.7.3-10.1 1.1-2.2 1.5-4.7 1.9-7.1.2-1.3.6-2.6 1.2-3.7.5-.9 1-1.9 1.3-2.9.5-1.4 1.6-2.6 2-4 .1-.4.6-.6.9-.8 1.8-1.1 4-.7 5.1 1.1.7 1.3 2.1 2 2.5 3.5.1.3.3.6.3 1-.3 4-.3 8-.8 12.1z"/><path d="m418.2 18c-.9 4.8-2.1 9.3-3.7 13.7-1.4 3.8-3.1 7.4-5.1 10.9-1.3 2.3-2.8 2.9-5.3 2.3-1.6-.4-3.1-1-4.2-2.3-1.4-1.7-1.7-3.7-1.3-5.8 1-4.3 2.5-8.4 4.6-12.3 1.5-2.8 2.8-5.6 4.7-8.2.6-.8 1.2-1.4 1.9-2.1 1.2-1.2 2.7-.9 4-.8 1.3.2 2.5.9 3.6 1.8 1 .8 1.1 1.8.8 2.8z"/><path d="m64.6 419.9c-2.5-.1-4.9 1.3-5.1 4.1 0 .4-.1.8-.2 1.2h10.8c-.3-2.9-2.6-5.2-5.5-5.3z"/><path d="m70.1.1h-10.7c-.1.8-.3 1.5-.6 2.3-1.1 3.1-1.7 6.4-2.9 9.5-.9 2.2-1.4 4.5-2.4 6.7s-2.1 4.7-1.3 7.2c1 3.2 6.3 5.4 8.9 2.5 1.9-2.2 3-4.8 4-7.4 1.2-2.9 2.1-5.9 2.8-9 .6-2.6 1.8-5 2.4-8.1.2-.5-.1-1.5 0-2.5-.1-.5-.1-.9-.2-1.2z"/><path d="m367.2.1h1.4c-.5-.1-.9-.1-1.4 0z"/><path d="m370 .5c-.5-.2-.9-.3-1.4-.4h-1.4c-.9.1-1.7.5-2.5 1.1-3.4 2.5-6.4 5.6-8.8 9.2-1.4 2.1-2.5 4.5-3.6 6.8-1.5 3-2.7 6.1-3.2 9.4-.1.5 0 .9.2 1.2.6 1.2 1.5 2 2.9 2 1.8-.1 3.7-.3 5.5-.6.3 0 .5-.2.7-.4 1-1.2 2.2-2.4 3-3.7 3.1-5.3 6.3-10.5 9.3-15.8 1.1-1.9 1.6-3.9 1.2-6.2-.3-1.3-.8-2.2-1.9-2.6z"/><path d="m423.1 98.6c-.8 2.2-1.7 4.4-1.8 6.8-.1 2.3-.7 4.5-1.1 6.7-.1.6-.3 1.2-.1 1.8.6 1.5 3.8 2.5 5.5 1.9v-23.4c-.9 2.1-1.7 4.1-2.5 6.2z"/><path d="m11.8 86c-2.6-1.7-5.3-1.2-8 .1-.6.3-1.2 1-1.5 1.7-.6 1.5-1.3 3.1-1.9 4.6v23.3c.1 0 .2-.1.3-.1 1.5-.8 2.5-2 3.7-3.1 3.2-3 4.6-7.2 6.8-10.9 1-1.7 1-4 1.3-6.1.2-1.8.1-3.7.2-5.5 0-.4.1-.8.1-1.1-.1-1.1-.1-2.3-1-2.9z"/><path d="m397.9 419.2c-3.6-.6-7.1 2.1-8.6 5-.2.3-.3.6-.5 1h12.6c.7-2.8-.3-5.6-3.5-6z"/><path d="m388.8.1c-.7 1.4-1.3 2.7-2.1 4-1.5 2.6-3.2 5.2-4.3 8.1-.9 2.4-2.1 4.8-3 7.2-.9 2.3.8 5.2 3.1 4.7 2.3-.4 4.7-1 6.3-3.1 3.6-4.4 7.2-8.8 9.4-14.1.9-2.2 2.5-4.2 3.2-6.5 0-.1.1-.2.1-.3 0 0-12.7 0-12.7 0z"/><path d="m383.3 110.6c1.8-3.1 3.3-6.7 5.9-9.6.6-.7.9-1.7 1.4-2.5 1.7-2.2 3.5-4.4 5.5-6.3.8-.8 1.5-.9 2.5-.2 1.5 1 2.9 2.2 3.8 3.7 1.3 2.1 1.4 4.4.2 6.7-1.7 3.2-3.5 6.2-5.8 9-2.5 3-5.3 5.7-7.9 8.6-1.3 1.4-2.8 1.9-4.4 1.4-1.8-.5-2.5-2-2.6-3.7-.2-2.4.6-4.6 1.4-7.1z"/><path d="m425.3 390.6c-1.7.8-2.9 2.2-3.8 4s-1.5 3.8-2.2 5.7c-1.3 3.6-3 7-2.8 10.9-.2 3.2-.5 4.1 1.5 6 2.4 2.3 5.9 1.5 7.3-1.3.1-.2.2-.5.3-.7v-24.7c-.1 0-.2 0-.3.1z"/><path d="m5.9 388.9c-2-.2-3.7.7-5.5 1.5v24.7c1.5-2.9 2.9-6 4.3-9 2-4.3 3.2-8.8 4.1-13.4.4-2.1-.8-3.6-2.9-3.8z"/><path d="m372.6 375.2c2.5 0 5.3 3.8 4.4 6.9-1.2 4.2-3.1 8-5.2 11.8-1 1.8-2 3.7-3 5.5-.7 1.3-1.7 2.2-3.2 2.5-.2 0-.4.1-.5.2-2.4 1-4.9.4-6.6-1.6-.5-.6-.8-1.4-.4-2.2.2-.5.4-1 .3-1.4-.2-4.4 1.8-8.2 3.8-11.9.7-1.3 1.2-2.7 1.9-3.9 1.5-2.7 3.6-4.6 6.4-5.6.7-.4 1.4-.4 2.1-.3z"/><path d="m130.2 423.3c2.2-3.6 3.6-6.6 4.5-10.8.4-2.1-.6-4.2-1.1-6.2-.5-1.9-1.8-2.8-3.7-3.1-.6-.2-1.3.1-2 .5-2.5 1.6-4.2 4.1-5.5 6.7-1.8 3.4-2.9 6.8-4.2 10.4-.5 1.3-1.1 2.5-1.5 3.8-.1.2-.1.4-.2.6h12.5c.4-.6.8-1.3 1.2-1.9z"/><path d="m116.4.1c-.7 3.4 2.2 4.5 4.7 6.1 1.1.7 2.2.5 3.3-.5 1.8-1.6 3.2-3.6 4.5-5.6 0 0-12.5 0-12.5 0z"/><path d="m41.6 370.6c-.1 1.8-.7 3.8-1.1 5.2-1 3.6-2.9 7-4.8 10.2-1.3 2.2-2.8 4-4.7 5.5-3.9 3-8.9-1.1-8.1-5.7.6-3.5 2.6-7 4.3-10 1-1.8 1.5-4 2.6-5.7 1.3-2.1 2.5-4.5 5.1-5 1.9-.4 5 .5 6.1 2.3.5.9.7 2 .6 3.2z"/><path d="m85 397.5c-3.6-.5-5.8-2.6-6.4-5.9-.1-.9 0-1.8.4-2.6 2.6-4.9 4.3-10.4 8.3-14.5.6-.7 1.3-1.3 2-1.9 2.4-2 6.8-.7 8 2.2.7 1.5.3 2.7-.2 4.1-1.4 4.1-3.6 7.8-5.1 11.8-.8 2.2-2.1 3.8-3.6 5.5-1 1.1-2.1 1.7-3.4 1.3z"/><path d="m404.8 379.7c-.3 2.5-1.3 4.5-2 6.5-1.5 4.1-3 8.1-4.7 12.1-1 2.3-2.6 4.2-4.8 5.4-.4.2-.8.4-1.3.3-2.3-.6-4.3-1.5-5.3-3.9-.1-.3-.2-.7-.1-1.1.9-2.9 1.3-5.9 2.6-8.6 1.9-3.9 3.1-8.1 5.7-11.7 2.4-3.3 5.7-3.4 8.8-2.4.6.2 1 .7 1.1 1.4.1.8.1 1.5 0 2z"/><path d="m399.5 335.5c.8.3 1.8 1.2 2.2 2.2 1.1 2.5 1.6 5-.3 7.7-1.6 2.3-2.8 4.9-4.1 7.5-1 2-2.2 3.9-3 5.9-.3.7-.5 1.5-.8 2.3-.7 1.8-3 3.3-4.9 3.3-.6 0-1-.5-1.5-.7-1-.6-2-1.2-2.9-2-1-.9-.8-2.1-.5-3.3.7-3 2.3-5.5 3.1-8.4 1.2-4.1 3.3-7.6 6.3-10.5 1.4-1.4 2.8-2.9 4.7-3.7.5-.3.9-.4 1.7-.3z"/><path d="m396.1 60.2c3.6-.2 5.1 4.7 4 7.6-2.1 5.9-4.4 11.7-7.6 17.1-.8 1.4-2 2.4-3.4 3-.3.1-.7.3-1.1.2-2.3-.1-4.9-2.7-5.1-5.2-.2-2.9.5-5.5 2.1-7.9.6-.9.9-2 1.4-3 1.4-3.3 3.2-6.4 5.1-9.4 1.1-1.8 2.8-2.7 4.6-2.4z"/><path d="m36.9 87.6c-.6-.2-1.2-.3-1.7-.5-2.1-.9-2.7-3.7-1.5-6.5.8-1.7 1.2-3.5 1.7-5.3 1.9-6.2 3.8-12.4 6.6-18 1.6-3.2 3.7-3.8 6.1-3.9 1 0 1.9 0 2.7.8 1.7 1.5 2.5 5.5 1.7 8.3-2.2 6.9-4.4 13.8-7.6 20-1.9 4.1-4.7 5.4-8 5.1z"/><path d="m104.9 85.5c-.7 3.6-2.6 6.9-4.6 10.1-.6.9-1.3 1.7-2 2.5-1.3 1.6-3.2 1.8-5 2.3-.6.2-1.3-.5-1.8-1-1.7-1.7-2.1-4-1.6-6.3 1-3.7 1.6-7.5 2.9-11.1.9-2.5 2.5-4.5 3.9-6.6 1-1.5 4.4-1.6 5.8-.4 1.2 1 2.1 2.2 3.1 3.4.7.8.6 1.9.2 2.9-.4 1.3-.9 2.5-.9 4.2z"/><path d="m421.1 48.5c-3.6 5.1-5.8 11.3-7.5 17.8-.5 2-1.1 4-1.2 6-.1 1.3.2 2.2 1.1 2.9s1.9.7 2.9 1c1.9.5 3.6.1 4.9-2.5.1-.3.3-.5.5-.7 1.5-1.7 2.7-3.7 3.8-5.8v-21.6c-1.6.2-3.2 1.1-4.5 2.9z"/><path d="m4.9 50.4c-.3-2.5-1.8-4.8-3.3-4.9-.4 0-.8 0-1.2.1v21.7c.6-1.3 1.2-2.7 1.8-4.1 1-2.5 1.5-5.3 2.3-7.9.5-1.7.6-3.3.4-4.9z"/><path d="m75.7 71.2c-1.2-.1-2.2-.4-3.1-.7-1.8-.6-2.6-2.5-2.2-4.6.7-3.4 1.6-6.7 2.7-10 1-2.7 2.6-5 4.3-7.3.8-1.1 2.2-1.4 3.4-.9.8.3 1.7.2 2.3 1.2 1.3 2.1 1.8 4.2 1.2 6.7-.6 2.7-1.2 5.5-1.7 8.2-.4 2.2-1.4 4.1-2.8 5.7-1 1.4-2.5 2.1-4.1 1.7z"/><path d="m366.9 54.3c.1-1.7.9-3.1 1.8-4.4 1.4-2 3-3.9 4.7-5.6.7-.7 1.4-1.4 2.3-1.8 2-1 4.4-.2 5 2.4 0 .1 0 .3.1.4 1.5 2.1.6 4.2-.1 6.2-1.5 4.5-3.8 8.5-6.6 12.3-1.2 1.5-3.3 1.7-4.8-.4-.4-.6-.8-1.1-1.5-1.6s-1-1.4-1.1-2.3c0-.1 0-.2 0-.3.2-1.6-.1-3.2.2-4.9z"/><path d="m156.7 134.6c-2.6 5.4-5.5 10.7-9 15.6-1.7 2.4-4 4.2-6.6 5.2-.8.3-2.5-.2-3-1-.7-.9-1.5-1.7-1.8-2.9-.5-2 .4-3.6 1.1-5.2 1.5-3.3 3.4-6.5 5.4-9.5 1.1-1.7 2.6-3.1 3.8-4.7 2-2.8 5.9-3.5 8.5-1.4 1.1.9 1.5 2.2 1.7 3.6-.1.1-.1.2-.1.3z"/><path d="m99 143.9c-.3-1.8.8-3.4 1.5-5 1-2.3 2.2-4.5 3.1-6.8 1.1-2.9 2.7-5.6 4.1-8.3 1.2-2.3 2.7-3.8 5-4.4 1.6-.5 3.3-.4 4.6 1.1 1.1 1.2.6 2.6.2 3.7-1.7 4.9-3.3 9.8-5.4 14.6-1 2.1-1.6 4.4-2.9 6.4-1.2 2-2.5 3.9-4.7 5-1.2.6-2.6 1.2-3.8.2-1.3-1.1-2.3-2.6-2-4.7.1-.6.2-1.1.3-1.8z"/><path d="m286.8 341c.7.8 1.6 1.3 2.5 1.9.4.2.8.5 1.2.8.9.9 1.2 1.8.7 3.2-1.4 4.1-2.6 8.3-3.8 12.4-.9 3.2-2.3 6.2-3.8 9.1-.6 1.3-1.8 2.3-3.3 2.6-.7.1-1.4.4-2 .6-1.7.6-3.1 0-4.4-1-2-1.6-1.8-3.6-1-5.7 1.3-3.7 2.5-7.5 4.2-11.1.9-2.1 1.3-4.3 2.2-6.4 1.2-3.1 3.5-5 6.1-6.6.4 0 .9.1 1.4.2z"/><path d="m125.2 68.7c0-.1 0-.2 0-.3.2-2.1 1-4.3 1.6-6.3 1.2-3.6 2.7-7.1 5.1-10 .7-.8 1.3-1.8 2.1-2.6 1.7-1.8 3.5-1.4 5.3-.7 1 .4 1.6 1.1 2.1 2.2 1.2 2.7 1 5.3-.1 8.1-1 2.6-1.9 5.3-2.9 8-1.3 3.5-2.8 6.9-5.2 9.9-1.5 1.8-4.6 2.6-6.2.8-1.6-2.2-1.9-6.6-1.8-9.1z"/><path d="m301.2.1c-.2.6-.4 1.2-.7 1.8-1.9 5.7-3.5 11.5-5.7 17.1-.9 2.2-1.4 4.6-1.2 6.9.2 2.1 0 4.2-.3 6.3-.5 3 1.4 4.9 3.4 4.5 2.5-.5 4.5-2.5 6.4-4.6 2.2-2.4 3.9-5.5 5.3-8.7 2.4-5.2 4.8-10.4 6.4-16.1.1-.5.3-1.1.4-1.6.3-2.2.5-4.1.5-5.7z"/><path d="m312.2 418.3c-4.1-2.6-8-.2-10.3 5.3-.2.5-.4 1-.6 1.6h14.6c-.2-3.1-1.1-5.2-3.7-6.9z"/><path d="m257.8 117.6c-.4 4-1.9 7.5-4.2 10.7-1.5 2.1-2.7 4.5-4.5 6.5-1.8 2.1-3.8 3.6-6.4 4.5-2.7 1-6-1.2-5.7-4.7.2-2.9 1-5.6 2-8.2 1-2.8 1.6-5.8 2.7-8.6 1.1-2.6 2.3-5.2 3.3-7.8 1.2-3.2 6.6-5 9.6-2.8 2.9 2.1 3.5 5.2 3.3 8.6.1.6-.1 1.2-.1 1.8z"/><path d="m150.5 95.9c-.4 1.8-.7 3.3-1.2 4.8-1.3 4.3-2.5 8.7-4.7 12.6-.7 1.1-1.4 2.1-2.3 3.1-.8.9-1.3 2.1-2.1 2.9-1.4 1.3-3 2.5-4.7 3.2-2.7 1.2-4.6-.3-5.9-2.2-1.2-1.7-.9-3.6-.5-5.5 1-5.3 3.2-10.1 5.8-14.7.8-1.5 2-2.8 2.8-4.3.8-1.2 1.3-2.6 2.4-3.6 1.3-1.2 2.5-2.6 4.4-2.7 3-.2 5 1.8 5.8 4.5 0 .7.3 1.4.2 1.9z"/><path d="m318.6 399.6c-.5-.1-1-.2-1.6-.6-4.8-3.1.7-12.2 2-16.2 1.2-3.6 2.9-6.9 4.3-10.4.7-1.9 2-3.3 3.5-4.6.1-.1.3-.3.5-.3 1.8 0 3.8-1.1 5.5.2 1.6 1.2 2.4 3 2.7 5.2.6 4.2-1.3 7.7-2.5 11.4-1.7 5.4-3.3 14.7-10.4 15-1.4-.1-2.7.5-4 .3z"/><path d="m241.8 423.5c.8-2 .4-4 0-5.9-.6-3-4.7-4.2-6.8-3-2.6 1.5-4.3 3.8-5.7 6.3-.7 1.2-1 2.6-1.7 3.8-.1.2-.2.4-.4.6h13.9c.3-.7.5-1.3.7-1.8z"/><path d="m227.2.1c-1.4 2.3-2.6 4.7-3.5 7.3-.9 2.5-1.8 5-2.4 7.4-.2 2-.2 2.1.8 4.6.6 1.5 2.3 2.6 3.9 2.5.5 0 1-.2 1.4 0 1.6.7 2.7-.3 3.7-1.4 1.4-1.5 2.9-3.1 4-5s1.5-4.2 2.3-6.2c1.3-3.1 2.6-6.1 3.8-9.2 0 0-14 0-14 0z"/><path d="m333.9 34.2c-1 3.4-2.3 6.9-4 10.3-1.8 3.7-4.2 6.9-6.2 10.5-.9 1.7-2.3 2.4-4.2 2.1-.8-.2-1.7-.1-2.5.1-3 .7-5.5-2.6-4.7-5.8 1-4.1 2.7-8 4.5-11.8.5-1 .8-2 1.2-3 .5-1.5 1.3-3 2.2-4.3 1.2-1.7 2.4-3.5 3.5-5.2.7-1 1.5-1.3 2.6-1.3 2.2 0 4 .9 5.4 2.3 1.7 1.4 2.5 3.4 2.2 6.1z"/><path d="m271.8 393.6c-.7 2.8-1.5 6-2.2 9.3-.8 3.5-1.9 7.2-3.8 10.2-2.6 3.9-5.8 4.9-10 3.3-2.3-.9-3.8-5.3-2.8-8.4.8-2.3 1.5-4.5 2.1-6.8 1.2-3.8 2.6-7.5 4.6-11 .6-1.1 1.3-2.1 2.1-3 1.2-1.5 2.8-1.2 4.4-1.1.6.1 1.3.4 1.9.6 3 1.1 4.2 3.1 3.7 6.9z"/><path d="m279.4 119.4c-.9-.1-1.8-.1-2.6-.3-2.3-.7-3.4-2.6-4.1-4.8-.1-.4-.1-.8.1-1.1 1.5-2.3 1.7-5.1 2.9-7.5 1.4-2.8 1.5-5.9 2.4-8.8.8-2.5 2.3-4.5 4.6-5.7 1.2-.6 2.5-1.1 3.9-1.3 3-.6 6.4 2 6 5.9-.6 5.4-2 10.6-3.8 15.7-.8 2.2-2.1 4.2-3.2 6.4-.9 1.7-2.3 2.2-4 2-.8-.3-1.5-.4-2.2-.5 0 .1 0 .1 0 0z"/><path d="m197.3 364.4c.1-1.8 1.1-3.3 1.6-5 2.1-6.6 5.5-12.4 9.3-18 .4-.6.7-1.3 1.3-1.8 2.2-2.1 6.2-1.2 7.7 1.4 1.1 1.9.5 3.7.1 5.6-.6 2.7-1.8 5.1-2.5 7.7-.9 3.3-2.9 6.2-4.3 9.3-.4.9-.7 1.8-1.1 2.6-.7 1.7-1.5 3.4-2.4 5-.7 1.3-2.6 1.5-4.1.6-1.9-1-3.5-2.4-5.1-3.9-1.1-1-.5-2.3-.5-3.5z"/><path d="m248.5 38.4c-.1.6-.2 1.1-.3 1.7-.9 5.2-1.9 8.6-5.6 12.4-1.1 1.1-2.6 1.5-4 .9-2-.9-4.1-1.8-4.8-4.1-1-3.3-1.4-6.7.3-10.1 1.1-2.2 1.5-4.7 1.9-7.1.2-1.3.6-2.6 1.2-3.7.5-.9 1-1.9 1.3-2.9.5-1.4 1.6-2.6 2-4 .1-.4.6-.6.9-.8 1.8-1.1 4-.7 5.1 1.1.7 1.3 2.1 2 2.5 3.5.1.3.3.6.3 1-.2 4-.2 8-.8 12.1z"/><path d="m200.3 18c-.9 4.8-2.1 9.3-3.7 13.7-1.4 3.8-3.1 7.4-5.1 10.9-1.3 2.3-2.8 2.9-5.3 2.3-1.6-.4-3.1-1-4.2-2.3-1.4-1.7-1.7-3.7-1.3-5.8 1-4.3 2.5-8.4 4.6-12.3 1.5-2.8 2.8-5.6 4.7-8.2.6-.8 1.2-1.4 1.9-2.1 1.2-1.2 2.7-.9 4-.8 1.3.2 2.5.9 3.6 1.8 1 .8 1 1.8.8 2.8z"/><path d="m274.9 419.9c-2.5-.1-4.9 1.3-5.1 4.1 0 .4-.1.8-.2 1.2h10.8c-.4-2.9-2.6-5.2-5.5-5.3z"/><path d="m280.4.1h-10.8c-.1.8-.3 1.5-.6 2.3-1.1 3.1-1.7 6.4-2.9 9.5-.9 2.2-1.4 4.5-2.4 6.7s-2.1 4.7-1.3 7.2c1 3.2 6.3 5.4 8.9 2.5 1.9-2.2 3-4.8 4-7.4 1.2-2.9 2.1-5.9 2.8-9 .6-2.6 1.8-5 2.4-8.1.2-.5-.1-1.5 0-2.5 0-.5 0-.9-.1-1.2z"/><path d="m155.3.1h1.4c-.5-.1-1-.1-1.4 0z"/><path d="m158 .5c-.5-.2-.9-.3-1.4-.4h-1.4c-.9.1-1.7.5-2.5 1.1-3.4 2.5-6.4 5.6-8.8 9.2-1.4 2.1-2.5 4.5-3.6 6.8-1.5 3-2.7 6.1-3.2 9.4-.1.5 0 .9.2 1.2.6 1.2 1.5 2 2.9 2 1.8-.1 3.7-.3 5.5-.6.3 0 .5-.2.7-.4 1-1.2 2.2-2.4 3-3.7 3.1-5.3 6.3-10.5 9.3-15.8 1.1-1.9 1.6-3.9 1.2-6.2-.2-1.3-.7-2.2-1.9-2.6z"/><path d="m220 89.9c-.2 1.8 0 3.7-.2 5.5-.3 2.1-.2 4.4-1.3 6.1-2.2 3.7-3.6 7.9-6.8 10.9-1.2 1.1-2.2 2.4-3.7 3.1-1.6.9-5.2-.2-5.8-1.8-.2-.6 0-1.2.1-1.8.4-2.2 1-4.4 1.1-6.7.1-2.4 1-4.6 1.8-6.8 1.3-3.6 3-7.1 4.5-10.7.3-.7.8-1.4 1.5-1.7 2.6-1.3 5.3-1.8 8-.1.9.6.9 1.8 1 2.8-.1.4-.2.8-.2 1.2z"/><path d="m181.9 419.2c-3.6-.6-7.1 2.1-8.6 5-.2.3-.3.6-.5 1h12.6c.8-2.8-.3-5.6-3.5-6z"/><path d="m172.8.1c-.7 1.4-1.3 2.7-2.1 4-1.5 2.6-3.2 5.2-4.3 8.1-.9 2.4-2.1 4.8-3 7.2-.9 2.3.8 5.2 3.1 4.7 2.3-.4 4.7-1 6.3-3.1 3.6-4.4 7.2-8.8 9.4-14.1.9-2.2 2.5-4.2 3.2-6.5 0-.1.1-.2.1-.3 0 0-12.7 0-12.7 0z"/><path d="m170.4 110.6c1.8-3.1 3.3-6.7 5.9-9.6.6-.7.9-1.7 1.4-2.5 1.7-2.2 3.5-4.4 5.5-6.3.8-.8 1.5-.9 2.5-.2 1.5 1 2.9 2.2 3.8 3.7 1.3 2.1 1.4 4.4.2 6.7-1.7 3.2-3.5 6.2-5.8 9-2.5 3-5.3 5.7-7.9 8.6-1.3 1.4-2.8 1.9-4.4 1.4-1.8-.5-2.5-2-2.6-3.7-.2-2.4.6-4.6 1.4-7.1z"/><path d="m198.5 411.2c-.2-3.9 1.5-7.4 2.8-10.9.7-1.9 1.3-3.9 2.2-5.7.8-1.7 2-3.1 3.8-4 1.9-.9 3.7-1.9 5.8-1.7s3.3 1.8 2.9 3.9c-.9 4.6-2.1 9.1-4.1 13.4-1.5 3.2-3 6.5-4.6 9.6-1.5 2.8-4.9 3.6-7.3 1.3-2-1.8-1.6-2.8-1.5-5.9z"/><path d="m160.6 375.2c2.5 0 5.3 3.8 4.4 6.9-1.2 4.2-3.1 8-5.2 11.8-1 1.8-2 3.7-3 5.5-.7 1.3-1.7 2.2-3.2 2.5-.2 0-.4.1-.5.2-2.4 1-4.9.4-6.6-1.6-.5-.6-.8-1.4-.4-2.2.2-.5.4-1 .3-1.4-.2-4.4 1.8-8.2 3.8-11.9.7-1.3 1.2-2.7 1.9-3.9 1.5-2.7 3.6-4.6 6.4-5.6.8-.4 1.5-.4 2.1-.3z"/><path d="m341.5 423.3c2.2-3.6 3.6-6.6 4.5-10.8.4-2.1-.6-4.2-1.1-6.2-.5-1.9-1.8-2.8-3.7-3.1-.6-.2-1.3.1-2 .5-2.5 1.6-4.2 4.1-5.5 6.7-1.8 3.4-2.9 6.8-4.2 10.4-.5 1.3-1.1 2.5-1.5 3.8-.1.2-.1.4-.2.6h12.6c.3-.6.7-1.3 1.1-1.9z"/><path d="m327.7.1c-.7 3.4 2.2 4.5 4.7 6.1 1.1.7 2.2.5 3.3-.5 1.8-1.6 3.2-3.6 4.5-5.6 0 0-12.5 0-12.5 0z"/><path d="m251.9 370.6c-.1 1.8-.7 3.8-1.1 5.2-1 3.6-2.9 7-4.8 10.2-1.3 2.2-2.8 4-4.7 5.5-3.9 3-8.9-1.1-8.1-5.7.6-3.5 2.6-7 4.3-10 1-1.8 1.5-4 2.6-5.7 1.3-2.1 2.5-4.5 5.1-5 1.9-.4 5 .5 6.1 2.3.5.9.6 2 .6 3.2z"/><path d="m295.3 397.5c-3.6-.5-5.8-2.6-6.4-5.9-.1-.9 0-1.8.4-2.6 2.6-4.9 4.3-10.4 8.3-14.5.6-.7 1.3-1.3 2-1.9 2.4-2 6.8-.7 8 2.2.7 1.5.3 2.7-.2 4.1-1.4 4.1-3.6 7.8-5.1 11.8-.8 2.2-2.1 3.8-3.6 5.5-1 1.1-2.2 1.7-3.4 1.3z"/><path d="m188.9 379.7c-.3 2.5-1.3 4.5-2 6.5-1.5 4.1-3 8.1-4.7 12.1-1 2.3-2.6 4.2-4.8 5.4-.4.2-.8.4-1.3.3-2.3-.6-4.3-1.5-5.3-3.9-.1-.3-.2-.7-.1-1.1.9-2.9 1.3-5.9 2.6-8.6 1.9-3.9 3.1-8.1 5.7-11.7 2.4-3.3 5.7-3.4 8.8-2.4.6.2 1 .7 1.1 1.4.1.8.1 1.5 0 2z"/><path d="m183.5 335.5c.8.3 1.8 1.2 2.2 2.2 1.1 2.5 1.6 5-.3 7.7-1.6 2.3-2.8 4.9-4.1 7.5-1 2-2.2 3.9-3 5.9-.3.7-.5 1.5-.8 2.3-.7 1.8-3 3.3-4.9 3.3-.6 0-1-.5-1.5-.7-1-.6-2-1.2-2.9-2-1-.9-.8-2.1-.5-3.3.7-3 2.3-5.5 3.1-8.4 1.2-4.1 3.3-7.6 6.3-10.5 1.4-1.4 2.8-2.9 4.7-3.7.5-.3 1-.4 1.7-.3z"/><path d="m180.1 60.2c3.6-.2 5.1 4.7 4 7.6-2.1 5.9-4.4 11.7-7.6 17.1-.8 1.4-2 2.4-3.4 3-.3.1-.7.3-1.1.2-2.3-.1-4.9-2.7-5.1-5.2-.2-2.9.5-5.5 2.1-7.9.6-.9.9-2 1.4-3 1.4-3.3 3.2-6.4 5.1-9.4 1.2-1.8 2.9-2.7 4.6-2.4z"/><path d="m247.2 87.6c-.6-.2-1.2-.3-1.7-.5-2.1-.9-2.7-3.7-1.5-6.5.8-1.7 1.2-3.5 1.7-5.3 1.9-6.2 3.8-12.4 6.6-18 1.6-3.2 3.7-3.8 6.1-3.9 1 0 1.9 0 2.7.8 1.7 1.5 2.5 5.5 1.7 8.3-2.2 6.9-4.4 13.8-7.6 20-2 4.1-4.8 5.4-8 5.1z"/><path d="m315.2 85.5c-.7 3.6-2.6 6.9-4.6 10.1-.6.9-1.3 1.7-2 2.5-1.3 1.6-3.2 1.8-5 2.3-.6.2-1.3-.5-1.8-1-1.7-1.7-2.1-4-1.6-6.3 1-3.7 1.6-7.5 2.9-11.1.9-2.5 2.5-4.5 3.9-6.6 1-1.5 4.4-1.6 5.8-.4 1.2 1 2.1 2.2 3.1 3.4.7.8.6 1.9.2 2.9-.4 1.3-1 2.5-.9 4.2z"/><path d="m198.5 76.3c-1-.3-2-.3-2.9-1s-1.2-1.6-1.1-2.9c.1-2.1.7-4.1 1.2-6 1.7-6.5 3.9-12.7 7.5-17.8 1.6-2.3 3.6-3.1 5.7-3 1.6.1 3.1 2.3 3.3 4.9.2 1.6.1 3.2-.3 4.9-.8 2.6-1.3 5.5-2.3 7.9-1.5 3.6-3.1 7.2-5.6 9.9-.2.2-.4.4-.5.7-1.4 2.5-3.1 2.9-5 2.4z"/><path d="m286 71.2c-1.2-.1-2.2-.4-3.1-.7-1.8-.6-2.6-2.5-2.2-4.6.7-3.4 1.6-6.7 2.7-10 1-2.7 2.6-5 4.3-7.3.8-1.1 2.2-1.4 3.4-.9.8.3 1.7.2 2.3 1.2 1.3 2.1 1.8 4.2 1.2 6.7-.6 2.7-1.2 5.5-1.7 8.2-.4 2.2-1.4 4.1-2.8 5.7-1.1 1.4-2.5 2.1-4.1 1.7z"/><path d="m155 54.3c.1-1.7.9-3.1 1.8-4.4 1.4-2 3-3.9 4.7-5.6.7-.7 1.4-1.4 2.3-1.8 2-1 4.4-.2 5 2.4 0 .1 0 .3.1.4 1.5 2.1.6 4.2-.1 6.2-1.5 4.5-3.8 8.5-6.6 12.3-1.2 1.5-3.3 1.7-4.8-.4-.4-.6-.8-1.1-1.5-1.6s-1-1.4-1.1-2.3c0-.1 0-.2 0-.3.2-1.6-.1-3.2.2-4.9z"/><path d="m368.6 347.2c-2.6 5.4-5.5 10.7-9 15.6-1.7 2.4-4 4.2-6.6 5.2-.8.3-2.5-.2-3-1-.7-.9-1.5-1.7-1.8-2.9-.5-2 .4-3.6 1.1-5.2 1.5-3.3 3.4-6.5 5.4-9.5 1.1-1.7 2.6-3.1 3.8-4.7 2-2.8 5.9-3.5 8.5-1.4 1.1.9 1.5 2.2 1.7 3.6 0 .1-.1.2-.1.3z"/><path d="m313.9 356.5c-.3-1.8.8-3.4 1.5-5 1-2.3 2.2-4.5 3.1-6.8 1.1-2.9 2.7-5.6 4.1-8.3 1.2-2.3 2.7-3.8 5-4.4 1.6-.5 3.3-.4 4.6 1.1 1.1 1.2.6 2.6.2 3.7-1.7 4.9-3.3 9.8-5.4 14.6-1 2.1-1.6 4.4-2.9 6.4-1.2 2-2.5 3.9-4.7 5-1.2.6-2.6 1.2-3.8.2-1.3-1.1-2.3-2.6-2-4.7.2-.6.2-1.1.3-1.8z"/><path d="m76.6 128.4c.7.8 1.6 1.3 2.5 1.9.4.3.8.5 1.2.8.9.9 1.2 1.8.7 3.2-1.4 4.1-2.6 8.3-3.8 12.4-.9 3.2-2.3 6.2-3.8 9.1-.6 1.3-1.8 2.3-3.3 2.6-.7.1-1.4.4-2 .6-1.7.6-3.1 0-4.4-1-2-1.6-1.8-3.6-1-5.7 1.3-3.7 2.5-7.5 4.2-11.1.9-2.1 1.3-4.3 2.2-6.4 1.2-3.1 3.5-5 6.1-6.6.3.1.8.1 1.4.2z"/><path d="m340.1 281.3c0-.1 0-.2 0-.3.2-2.1 1-4.3 1.6-6.3 1.2-3.6 2.7-7.1 5.1-10 .7-.8 1.3-1.8 2.1-2.6 1.7-1.8 3.5-1.4 5.3-.7 1 .4 1.6 1.1 2.1 2.2 1.2 2.7 1 5.3-.1 8.1-1 2.6-1.9 5.3-2.9 8-1.3 3.5-2.8 6.9-5.2 9.9-1.5 1.8-4.6 2.6-6.2.8-1.6-2.2-1.9-6.6-1.8-9.1z"/><path d="m104.7 219.9c-1.6 5.6-4 10.8-6.4 16.1-1.5 3.2-3.1 6.2-5.3 8.7-2 2.1-3.9 4.1-6.4 4.6-2 .4-3.9-1.5-3.4-4.5.3-2.2.5-4.3.3-6.3-.2-2.3.3-4.7 1.2-6.9 2.2-5.6 3.8-11.4 5.7-17.1.4-1.1.8-2.3 1.3-3.4 2.3-5.5 6.2-7.9 10.3-5.3 4 2.5 4.1 6.3 3.2 12.6-.2.5-.4 1-.5 1.5z"/><path d="m47.5 330.2c-.4 4-1.9 7.5-4.2 10.7-1.5 2.1-2.7 4.5-4.5 6.5-1.8 2.1-3.8 3.6-6.4 4.5-2.7 1-6-1.2-5.7-4.7.2-2.9 1-5.6 2-8.2 1-2.8 1.6-5.8 2.7-8.6 1.1-2.6 2.3-5.2 3.3-7.8 1.2-3.2 6.6-5 9.6-2.8 2.9 2.1 3.5 5.2 3.3 8.6.1.6 0 1.2-.1 1.8z"/><path d="m362.4 308.4c-.4 1.8-.7 3.3-1.2 4.8-1.3 4.3-2.5 8.7-4.7 12.6-.7 1.1-1.4 2.1-2.3 3.1-.8.9-1.3 2.1-2.1 2.9-1.4 1.3-3 2.5-4.7 3.2-2.7 1.2-4.6-.3-5.9-2.2-1.2-1.7-.9-3.6-.5-5.5 1-5.3 3.2-10.1 5.8-14.7.8-1.5 2-2.8 2.8-4.3.8-1.2 1.3-2.6 2.4-3.6 1.3-1.2 2.5-2.6 4.4-2.7 3-.2 5 1.8 5.8 4.5 0 .8.3 1.5.2 1.9z"/><path d="m107.4 187c-.5-.1-1-.2-1.6-.6-4.8-3.1.7-12.3 2-16.2 1.2-3.6 2.9-6.9 4.3-10.4.7-1.9 2-3.3 3.5-4.6.1-.1.3-.3.5-.3 1.8 0 3.8-1.1 5.5.2 1.6 1.2 2.4 3 2.7 5.2.6 4.2-1.3 7.7-2.5 11.4-1.7 5.4-3.3 14.7-10.4 15-1.4 0-2.7.5-4 .3z"/><path d="m12 227.3c.6-2.3 1.5-4.8 2.4-7.4 1-2.8 2.3-5.4 3.9-7.9.7-1.1 1-2.6 1.7-3.8 1.4-2.5 3.1-4.8 5.7-6.3 2.1-1.2 6.1 0 6.8 3 .4 2 .8 3.9 0 6-1.4 3.7-2.9 7.2-4.5 10.9-.9 2-1.2 4.3-2.3 6.2-1 1.9-2.5 3.5-4 5-1 1.1-2 2-3.7 1.4-.4-.2-.9 0-1.4 0-1.6.1-3.3-.9-3.9-2.5-.9-2.4-.9-2.5-.7-4.6z"/><path d="m122.6 246.7c-1 3.4-2.3 6.9-4 10.3-1.8 3.7-4.2 6.9-6.2 10.5-.9 1.7-2.3 2.5-4.2 2.1-.8-.2-1.7-.1-2.5.1-3 .7-5.5-2.6-4.7-5.8 1-4.1 2.7-8 4.5-11.8.5-1 .8-2 1.2-3 .5-1.5 1.3-3 2.2-4.3 1.2-1.7 2.4-3.5 3.5-5.2.7-1 1.5-1.3 2.6-1.3 2.2 0 4 .9 5.4 2.3 1.7 1.5 2.5 3.5 2.2 6.1z"/><path d="m61.5 181.1c-.7 2.8-1.5 6-2.2 9.3-.8 3.5-1.9 7.2-3.8 10.2-2.6 3.9-5.8 4.9-10 3.3-2.3-.9-3.8-5.3-2.8-8.4.8-2.2 1.5-4.5 2.1-6.8 1.2-3.8 2.6-7.5 4.6-11 .6-1.1 1.3-2.1 2.1-3 1.2-1.5 2.8-1.2 4.4-1.1.6.1 1.3.4 1.9.6 3.1 1 4.2 3 3.7 6.9z"/><path d="m69.1 332c-.9-.1-1.8-.1-2.6-.3-2.3-.7-3.4-2.6-4.1-4.8-.1-.4-.1-.8.1-1.1 1.5-2.3 1.7-5.1 2.9-7.5 1.4-2.8 1.5-5.9 2.4-8.8.8-2.5 2.3-4.5 4.6-5.7 1.2-.7 2.5-1.1 3.9-1.3 3-.6 6.4 2 6 5.9-.6 5.4-2 10.6-3.8 15.7-.8 2.2-2.1 4.2-3.2 6.3-.9 1.7-2.3 2.2-4 2-.8-.2-1.5-.3-2.2-.4z"/><path d="m416.8 146.8c-.5 1.7-1.5 3.2-1.6 5 0 1.2-.6 2.6.5 3.6 1.6 1.5 3.2 2.8 5.1 3.9 1.5.8 3.4.7 4.1-.6.2-.4.5-.8.7-1.3v-27.7c-3.6 5.3-6.8 10.8-8.8 17.1z"/><path d="m9.9 128.4c-1.5-2.6-5.5-3.5-7.7-1.4-.5.5-.8 1.2-1.3 1.8-.2.3-.4.6-.6.8v27.7c.6-1.2 1.2-2.5 1.7-3.7.4-.9.7-1.8 1.1-2.6 1.4-3.1 3.3-6 4.3-9.3.7-2.6 1.9-5 2.5-7.7.5-1.9 1.1-3.7 0-5.6z"/><path d="m38.3 251c-.1.6-.2 1.1-.3 1.7-.9 5.2-1.9 8.6-5.6 12.4-1.1 1.1-2.6 1.5-4 .9-2-.9-4.1-1.8-4.8-4.1-1-3.3-1.4-6.7.3-10.1 1.1-2.2 1.5-4.7 1.9-7.1.2-1.3.6-2.6 1.2-3.7.5-.9 1-1.9 1.3-2.9.5-1.4 1.6-2.6 2-4 .1-.4.6-.6.9-.8 1.8-1.1 4-.7 5.1 1.1.7 1.3 2.1 2 2.5 3.5.1.3.3.6.3 1-.3 4-.3 8-.8 12.1z"/><path d="m418.2 230.6c-.9 4.8-2.1 9.3-3.7 13.7-1.4 3.8-3.1 7.4-5.1 10.9-1.3 2.3-2.8 2.9-5.3 2.3-1.6-.4-3.1-1-4.2-2.3-1.4-1.7-1.7-3.7-1.3-5.8 1-4.3 2.5-8.4 4.6-12.3 1.5-2.8 2.8-5.6 4.7-8.2.6-.8 1.2-1.4 1.9-2.1 1.2-1.2 2.7-.9 4-.8 1.3.2 2.5.9 3.6 1.8 1 .8 1.1 1.8.8 2.8z"/><path d="m70.2 216.3c-.5 3.1-1.8 5.5-2.4 8.1-.7 3.1-1.6 6.1-2.8 9-1.1 2.6-2.2 5.2-4 7.4-2.6 2.9-7.9.8-8.9-2.5-.7-2.4.4-5 1.3-7.2 1-2.2 1.5-4.5 2.4-6.7 1.2-3.1 1.8-6.4 2.9-9.5.4-1.1.6-2.3.7-3.5.2-2.7 2.7-4.2 5.1-4.1 3.3.1 5.7 3 5.5 6.5.1 1 .4 1.9.2 2.5z"/><path d="m352.2 242.3c-1.4 0-2.3-.9-2.9-2-.2-.3-.2-.8-.2-1.2.5-3.4 1.7-6.5 3.2-9.4 1.2-2.3 2.2-4.7 3.6-6.8 2.4-3.6 5.4-6.6 8.8-9.2 1.6-1.2 3.4-1.5 5.2-.7 1.1.5 1.7 1.3 1.9 2.6.4 2.2-.1 4.2-1.2 6.2-3 5.4-6.2 10.6-9.3 15.8-.8 1.4-2 2.5-3 3.7-.2.2-.4.4-.7.4-1.7.3-3.6.5-5.4.6z"/><path d="m423.1 311.1c-.8 2.2-1.7 4.4-1.8 6.8-.1 2.3-.7 4.5-1.1 6.7-.1.6-.3 1.2-.1 1.8.6 1.5 3.8 2.5 5.5 1.9v-23.3c-.9 2-1.7 4.1-2.5 6.1z"/><path d="m11.8 298.6c-2.6-1.7-5.3-1.2-8 .1-.6.3-1.2 1-1.5 1.7-.6 1.5-1.3 3.1-1.9 4.6v23.3c.1 0 .2-.1.3-.1 1.5-.8 2.5-2 3.7-3.1 3.2-3 4.6-7.2 6.8-10.9 1-1.7 1-4 1.3-6.1.2-1.8.1-3.7.2-5.5 0-.4.1-.8.1-1.1-.1-1.2-.1-2.3-1-2.9z"/><path d="m397.9 206.7c3.3.3 4.3 3.4 3.4 6.3-.7 2.3-2.3 4.3-3.2 6.5-2.2 5.4-5.8 9.7-9.4 14.1-1.7 2-4 2.6-6.3 3.1-2.2.4-4-2.4-3.1-4.7 1-2.4 2.1-4.7 3-7.2 1.1-2.9 2.8-5.4 4.3-8.1.9-1.6 1.7-3.3 2.6-5 1.6-2.9 5.1-5.6 8.7-5z"/><path d="m383.3 323.1c1.8-3.1 3.3-6.7 5.9-9.6.6-.7.9-1.7 1.4-2.5 1.7-2.2 3.5-4.4 5.5-6.3.8-.8 1.5-.9 2.5-.2 1.5 1 2.9 2.2 3.8 3.7 1.3 2.1 1.4 4.4.2 6.7-1.7 3.2-3.5 6.2-5.8 9-2.5 3-5.3 5.7-7.9 8.6-1.3 1.4-2.8 1.9-4.4 1.4-1.8-.5-2.5-2-2.6-3.7-.2-2.3.6-4.6 1.4-7.1z"/><path d="m425.3 178c-1.7.8-2.9 2.2-3.8 4s-1.5 3.8-2.2 5.7c-1.3 3.6-3 7-2.8 10.9-.2 3.2-.5 4.1 1.5 6 2.4 2.3 5.9 1.5 7.3-1.3.1-.2.2-.5.3-.7v-24.7c-.1 0-.2 0-.3.1z"/><path d="m5.9 176.3c-2-.2-3.7.7-5.5 1.5v24.7c1.5-2.9 2.9-6 4.3-9 2-4.3 3.2-8.8 4.1-13.4.4-2.1-.8-3.6-2.9-3.8z"/><path d="m372.6 162.6c2.5 0 5.3 3.8 4.4 6.9-1.2 4.2-3.1 8-5.2 11.8-1 1.8-2 3.7-3 5.5-.7 1.3-1.7 2.2-3.2 2.5-.2 0-.4.1-.5.2-2.4 1-4.9.4-6.6-1.5-.5-.6-.8-1.4-.4-2.2.2-.5.4-1 .3-1.4-.2-4.4 1.8-8.2 3.8-11.9.7-1.3 1.2-2.7 1.9-3.9 1.5-2.7 3.6-4.6 6.4-5.6.7-.4 1.4-.5 2.1-.4z"/><path d="m129.9 190.6c2 .3 3.2 1.2 3.7 3.1.5 2 1.5 4 1.1 6.2-.8 4.2-2.2 7.2-4.5 10.8-1.7 2.7-3.3 5.4-5.8 7.5-1.1 1-2.2 1.2-3.3.5-2.7-1.7-5.8-2.8-4.6-6.7.4-1.3 1-2.5 1.5-3.8 1.3-3.6 2.4-6.9 4.2-10.4 1.4-2.6 3-5.1 5.5-6.7.8-.4 1.6-.7 2.2-.5z"/><path d="m41.6 158c-.1 1.8-.7 3.8-1.1 5.2-1 3.6-2.9 7-4.8 10.2-1.3 2.2-2.8 4-4.7 5.5-3.9 3-8.9-1.1-8.1-5.7.6-3.5 2.6-7 4.3-10 1-1.8 1.5-4 2.6-5.7 1.3-2.1 2.5-4.5 5.1-5 1.9-.4 5 .5 6.1 2.3.5.9.7 2 .6 3.2z"/><path d="m85 184.9c-3.6-.5-5.8-2.6-6.4-5.9-.1-.9 0-1.8.4-2.6 2.6-4.9 4.3-10.4 8.3-14.5.6-.7 1.3-1.3 2-1.9 2.4-2 6.8-.7 8 2.2.7 1.5.3 2.7-.2 4.1-1.4 4.1-3.6 7.8-5.1 11.8-.8 2.2-2.1 3.8-3.6 5.5-1 1.1-2.1 1.7-3.4 1.3z"/><path d="m404.8 167.1c-.3 2.5-1.3 4.5-2 6.5-1.5 4.1-3 8.1-4.7 12.1-1 2.3-2.6 4.2-4.8 5.4-.4.2-.8.4-1.3.3-2.3-.6-4.3-1.5-5.3-3.9-.1-.3-.2-.7-.1-1.1.9-2.9 1.3-5.9 2.6-8.6 1.9-3.9 3.1-8.1 5.7-11.7 2.4-3.3 5.7-3.4 8.8-2.4.6.2 1 .7 1.1 1.4.1.8.1 1.6 0 2z"/><path d="m399.5 122.9c.8.3 1.8 1.2 2.2 2.2 1.1 2.5 1.6 5-.3 7.7-1.6 2.3-2.8 4.9-4.1 7.5-1 2-2.2 3.9-3 5.9-.3.7-.5 1.5-.8 2.3-.7 1.8-3 3.3-4.9 3.3-.6 0-1-.5-1.5-.7-1-.6-2-1.2-2.9-2-1-.9-.8-2.1-.5-3.3.7-3 2.3-5.5 3.1-8.4 1.2-4.1 3.3-7.6 6.3-10.5 1.4-1.4 2.8-2.9 4.7-3.7.5-.3.9-.4 1.7-.3z"/><path d="m396.1 272.8c3.6-.2 5.1 4.7 4 7.6-2.1 5.9-4.4 11.7-7.6 17.1-.8 1.4-2 2.4-3.4 3-.3.1-.7.3-1.1.2-2.3-.1-4.9-2.7-5.1-5.2-.2-2.9.5-5.5 2.1-7.9.6-.9.9-2 1.4-3 1.4-3.3 3.2-6.4 5.1-9.4 1.1-1.8 2.8-2.7 4.6-2.4z"/><path d="m36.9 300.1c-.6-.2-1.2-.3-1.7-.5-2.1-.9-2.7-3.7-1.5-6.5.8-1.7 1.2-3.5 1.7-5.3 1.9-6.2 3.8-12.4 6.6-18 1.6-3.2 3.7-3.8 6.1-3.9 1 0 1.9 0 2.7.8 1.7 1.5 2.5 5.5 1.7 8.3-2.2 6.9-4.4 13.8-7.6 20-1.9 4.1-4.7 5.5-8 5.1z"/><path d="m104.9 298.1c-.7 3.6-2.6 6.9-4.6 10.1-.6.9-1.3 1.7-2 2.5-1.3 1.6-3.2 1.8-5 2.3-.6.2-1.3-.5-1.8-1-1.7-1.7-2.1-4-1.6-6.3 1-3.7 1.6-7.5 2.9-11.1.9-2.5 2.5-4.5 3.9-6.6 1-1.5 4.4-1.6 5.8-.4 1.2 1 2.1 2.2 3.1 3.4.7.8.6 1.9.2 2.9-.4 1.2-.9 2.5-.9 4.2z"/><path d="m421.1 261.1c-3.6 5.1-5.8 11.3-7.5 17.8-.5 2-1.1 4-1.2 6.1-.1 1.3.2 2.2 1.1 2.9s1.9.7 2.9 1c1.9.5 3.6.1 4.9-2.5.1-.3.3-.5.5-.7 1.5-1.7 2.7-3.7 3.8-5.8v-21.7c-1.6.1-3.2 1-4.5 2.9z"/><path d="m4.9 263c-.3-2.5-1.8-4.8-3.3-4.9-.4 0-.8 0-1.2.1v21.7c.6-1.3 1.2-2.7 1.8-4.1 1-2.5 1.5-5.3 2.3-7.9.5-1.7.6-3.3.4-4.9z"/><path d="m75.7 283.7c-1.2-.1-2.2-.4-3.1-.7-1.8-.6-2.6-2.5-2.2-4.6.7-3.4 1.6-6.7 2.7-10 1-2.7 2.6-5 4.3-7.3.8-1.1 2.2-1.4 3.4-.9.8.3 1.7.2 2.3 1.2 1.3 2.1 1.8 4.2 1.2 6.7-.6 2.7-1.2 5.5-1.7 8.2-.4 2.2-1.4 4.1-2.8 5.7-1 1.5-2.5 2.2-4.1 1.7z"/><path d="m366.9 266.9c.1-1.7.9-3.1 1.8-4.4 1.4-2 3-3.9 4.7-5.6.7-.7 1.4-1.4 2.3-1.8 2-1 4.4-.2 5 2.4 0 .1 0 .3.1.4 1.5 2.1.6 4.2-.1 6.2-1.5 4.5-3.8 8.5-6.6 12.2-1.2 1.5-3.3 1.7-4.8-.4-.4-.6-.8-1.1-1.5-1.6s-1-1.4-1.1-2.3c0-.1 0-.2 0-.3.2-1.5-.1-3.1.2-4.8z"/><path d="m156.7 347.2c-2.6 5.4-5.5 10.7-9 15.6-1.7 2.4-4 4.2-6.6 5.2-.8.3-2.5-.2-3-1-.7-.9-1.5-1.7-1.8-2.9-.5-2 .4-3.6 1.1-5.2 1.5-3.3 3.4-6.5 5.4-9.5 1.1-1.7 2.6-3.1 3.8-4.7 2-2.8 5.9-3.5 8.5-1.4 1.1.9 1.5 2.2 1.7 3.6-.1.1-.1.2-.1.3z"/><path d="m99 356.5c-.3-1.8.8-3.4 1.5-5 1-2.3 2.2-4.5 3.1-6.8 1.1-2.9 2.7-5.6 4.1-8.3 1.2-2.3 2.7-3.8 5-4.4 1.6-.5 3.3-.4 4.6 1.1 1.1 1.2.6 2.6.2 3.7-1.7 4.9-3.3 9.8-5.4 14.6-1 2.1-1.6 4.4-2.9 6.4-1.2 2-2.5 3.9-4.7 5-1.2.6-2.6 1.2-3.8.2-1.3-1.1-2.3-2.6-2-4.7.1-.6.2-1.1.3-1.8z"/><path d="m286.8 128.4c.7.8 1.6 1.3 2.5 1.9.4.3.8.5 1.2.8.9.9 1.2 1.8.7 3.2-1.4 4.1-2.6 8.3-3.8 12.4-.9 3.2-2.3 6.2-3.8 9.1-.6 1.3-1.8 2.3-3.3 2.6-.7.1-1.4.4-2 .6-1.7.6-3.1 0-4.4-1-2-1.6-1.8-3.6-1-5.7 1.3-3.7 2.5-7.5 4.2-11.1.9-2.1 1.3-4.3 2.2-6.4 1.2-3.1 3.5-5 6.1-6.6.4.1.9.1 1.4.2z"/><path d="m125.2 281.3c0-.1 0-.2 0-.3.2-2.1 1-4.3 1.6-6.3 1.2-3.6 2.7-7.1 5.1-10 .7-.8 1.3-1.8 2.1-2.6 1.7-1.8 3.5-1.4 5.3-.7 1 .4 1.6 1.1 2.1 2.2 1.2 2.7 1 5.3-.1 8.1-1 2.6-1.9 5.3-2.9 8-1.3 3.5-2.8 6.9-5.2 9.9-1.5 1.8-4.6 2.6-6.2.8-1.6-2.2-1.9-6.6-1.8-9.1z"/><path d="m314.9 219.9c-1.6 5.6-4 10.8-6.4 16.1-1.5 3.2-3.1 6.2-5.3 8.7-2 2.1-3.9 4.1-6.4 4.6-2 .4-3.9-1.5-3.4-4.5.3-2.2.5-4.3.3-6.3-.2-2.3.3-4.7 1.2-6.9 2.2-5.6 3.8-11.4 5.7-17.1.4-1.1.8-2.3 1.3-3.4 2.3-5.5 6.2-7.9 10.3-5.3 4 2.5 4.1 6.3 3.2 12.6-.1.5-.3 1-.5 1.5z"/><path d="m257.8 330.2c-.4 4-1.9 7.5-4.2 10.7-1.5 2.1-2.7 4.5-4.5 6.5-1.8 2.1-3.8 3.6-6.4 4.5-2.7 1-6-1.2-5.7-4.7.2-2.9 1-5.6 2-8.2 1-2.8 1.6-5.8 2.7-8.6 1.1-2.6 2.3-5.2 3.3-7.8 1.2-3.2 6.6-5 9.6-2.8 2.9 2.1 3.5 5.2 3.3 8.6.1.6-.1 1.2-.1 1.8z"/><path d="m150.5 308.4c-.4 1.8-.7 3.3-1.2 4.8-1.3 4.3-2.5 8.7-4.7 12.6-.7 1.1-1.4 2.1-2.3 3.1-.8.9-1.3 2.1-2.1 2.9-1.4 1.3-3 2.5-4.7 3.2-2.7 1.2-4.6-.3-5.9-2.2-1.2-1.7-.9-3.6-.5-5.5 1-5.3 3.2-10.1 5.8-14.7.8-1.5 2-2.8 2.8-4.3.8-1.2 1.3-2.6 2.4-3.6 1.3-1.2 2.5-2.6 4.4-2.7 3-.2 5 1.8 5.8 4.5 0 .8.3 1.5.2 1.9z"/><path d="m318.6 187c-.5-.1-1-.2-1.6-.6-4.8-3.1.7-12.3 2-16.2 1.2-3.6 2.9-6.9 4.3-10.4.7-1.9 2-3.3 3.5-4.6.1-.1.3-.3.5-.3 1.8 0 3.8-1.1 5.5.2 1.6 1.2 2.4 3 2.7 5.2.6 4.2-1.3 7.7-2.5 11.4-1.7 5.4-3.3 14.7-10.4 15-1.4 0-2.7.5-4 .3z"/><path d="m221.3 227.3c.6-2.3 1.5-4.8 2.4-7.4 1-2.8 2.3-5.4 3.9-7.9.7-1.1 1-2.6 1.7-3.8 1.4-2.5 3.1-4.8 5.7-6.3 2.1-1.2 6.1 0 6.8 3 .4 2 .8 3.9 0 6-1.4 3.7-2.9 7.2-4.5 10.9-.9 2-1.2 4.3-2.3 6.2-1 1.9-2.5 3.5-4 5-1 1.1-2 2-3.7 1.4-.4-.2-.9 0-1.4 0-1.6.1-3.3-.9-3.9-2.5-.9-2.4-.9-2.5-.7-4.6z"/><path d="m333.9 246.7c-1 3.4-2.3 6.9-4 10.3-1.8 3.7-4.2 6.9-6.2 10.5-.9 1.7-2.3 2.5-4.2 2.1-.8-.2-1.7-.1-2.5.1-3 .7-5.5-2.6-4.7-5.8 1-4.1 2.7-8 4.5-11.8.5-1 .8-2 1.2-3 .5-1.5 1.3-3 2.2-4.3 1.2-1.7 2.4-3.5 3.5-5.2.7-1 1.5-1.3 2.6-1.3 2.2 0 4 .9 5.4 2.3 1.7 1.5 2.5 3.5 2.2 6.1z"/><path d="m271.8 181.1c-.7 2.8-1.5 6-2.2 9.3-.8 3.5-1.9 7.2-3.8 10.2-2.6 3.9-5.8 4.9-10 3.3-2.3-.9-3.8-5.3-2.8-8.4.8-2.2 1.5-4.5 2.1-6.8 1.2-3.8 2.6-7.5 4.6-11 .6-1.1 1.3-2.1 2.1-3 1.2-1.5 2.8-1.2 4.4-1.1.6.1 1.3.4 1.9.6 3 1 4.2 3 3.7 6.9z"/><path d="m279.4 332c-.9-.1-1.8-.1-2.6-.3-2.3-.7-3.4-2.6-4.1-4.8-.1-.4-.1-.8.1-1.1 1.5-2.3 1.7-5.1 2.9-7.5 1.4-2.8 1.5-5.9 2.4-8.8.8-2.5 2.3-4.5 4.6-5.7 1.2-.7 2.5-1.1 3.9-1.3 3-.6 6.4 2 6 5.9-.6 5.4-2 10.6-3.8 15.7-.8 2.2-2.1 4.2-3.2 6.3-.9 1.7-2.3 2.2-4 2-.8-.2-1.5-.3-2.2-.4z"/><path d="m197.3 151.8c.1-1.8 1.1-3.3 1.6-5 2.1-6.6 5.5-12.4 9.3-18 .4-.6.7-1.3 1.3-1.8 2.2-2.1 6.2-1.2 7.7 1.4 1.1 1.9.5 3.7.1 5.6-.6 2.7-1.8 5.1-2.5 7.7-.9 3.3-2.9 6.2-4.3 9.3-.4.9-.7 1.8-1.1 2.6-.7 1.7-1.5 3.4-2.4 5-.7 1.3-2.6 1.5-4.1.6-1.9-1-3.5-2.4-5.1-3.9-1.1-.9-.5-2.3-.5-3.5z"/><path d="m248.5 251c-.1.6-.2 1.1-.3 1.7-.9 5.2-1.9 8.6-5.6 12.4-1.1 1.1-2.6 1.5-4 .9-2-.9-4.1-1.8-4.8-4.1-1-3.3-1.4-6.7.3-10.1 1.1-2.2 1.5-4.7 1.9-7.1.2-1.3.6-2.6 1.2-3.7.5-.9 1-1.9 1.3-2.9.5-1.4 1.6-2.6 2-4 .1-.4.6-.6.9-.8 1.8-1.1 4-.7 5.1 1.1.7 1.3 2.1 2 2.5 3.5.1.3.3.6.3 1-.2 4-.2 8-.8 12.1z"/><path d="m200.3 230.6c-.9 4.8-2.1 9.3-3.7 13.7-1.4 3.8-3.1 7.4-5.1 10.9-1.3 2.3-2.8 2.9-5.3 2.3-1.6-.4-3.1-1-4.2-2.3-1.4-1.7-1.7-3.7-1.3-5.8 1-4.3 2.5-8.4 4.6-12.3 1.5-2.8 2.8-5.6 4.7-8.2.6-.8 1.2-1.4 1.9-2.1 1.2-1.2 2.7-.9 4-.8 1.3.2 2.5.9 3.6 1.8 1 .8 1 1.8.8 2.8z"/><path d="m280.5 216.3c-.5 3.1-1.8 5.5-2.4 8.1-.7 3.1-1.6 6.1-2.8 9-1.1 2.6-2.2 5.2-4 7.4-2.6 2.9-7.9.8-8.9-2.5-.7-2.4.4-5 1.3-7.2 1-2.2 1.5-4.5 2.4-6.7 1.2-3.1 1.8-6.4 2.9-9.5.4-1.1.6-2.3.7-3.5.2-2.7 2.7-4.2 5.1-4.1 3.3.1 5.7 3 5.5 6.5.1 1 .4 1.9.2 2.5z"/><path d="m140.3 242.3c-1.4 0-2.3-.9-2.9-2-.2-.3-.2-.8-.2-1.2.5-3.4 1.7-6.5 3.2-9.4 1.2-2.3 2.2-4.7 3.6-6.8 2.4-3.6 5.4-6.6 8.8-9.2 1.6-1.2 3.4-1.5 5.2-.7 1.1.5 1.7 1.3 1.9 2.6.4 2.2-.1 4.2-1.2 6.2-3 5.4-6.2 10.6-9.3 15.8-.8 1.4-2 2.5-3 3.7-.2.2-.4.4-.7.4-1.7.3-3.6.5-5.4.6z"/><path d="m220 302.5c-.2 1.8 0 3.7-.2 5.5-.3 2.1-.2 4.4-1.3 6.1-2.2 3.7-3.6 7.9-6.8 10.9-1.2 1.1-2.2 2.4-3.7 3.1-1.6.9-5.2-.2-5.8-1.8-.2-.6 0-1.2.1-1.8.4-2.2 1-4.4 1.1-6.7.1-2.4 1-4.6 1.8-6.8 1.3-3.6 3-7.1 4.5-10.7.3-.7.8-1.4 1.5-1.7 2.6-1.3 5.3-1.8 8-.1.9.6.9 1.8 1 2.8-.1.4-.2.8-.2 1.2z"/><path d="m181.9 206.7c3.3.3 4.3 3.4 3.4 6.3-.7 2.3-2.3 4.3-3.2 6.5-2.2 5.4-5.8 9.7-9.4 14.1-1.7 2-4 2.6-6.3 3.1-2.2.4-4-2.4-3.1-4.7 1-2.4 2.1-4.7 3-7.2 1.1-2.9 2.8-5.4 4.3-8.1.9-1.6 1.7-3.3 2.6-5 1.7-2.9 5.1-5.6 8.7-5z"/><path d="m170.4 323.1c1.8-3.1 3.3-6.7 5.9-9.6.6-.7.9-1.7 1.4-2.5 1.7-2.2 3.5-4.4 5.5-6.3.8-.8 1.5-.9 2.5-.2 1.5 1 2.9 2.2 3.8 3.7 1.3 2.1 1.4 4.4.2 6.7-1.7 3.2-3.5 6.2-5.8 9-2.5 3-5.3 5.7-7.9 8.6-1.3 1.4-2.8 1.9-4.4 1.4-1.8-.5-2.5-2-2.6-3.7-.2-2.3.6-4.6 1.4-7.1z"/><path d="m198.5 198.6c-.2-3.9 1.5-7.4 2.8-10.9.7-1.9 1.3-3.9 2.2-5.7.8-1.7 2-3.1 3.8-4 1.9-.9 3.7-1.9 5.8-1.7s3.3 1.8 2.9 3.9c-.9 4.6-2.1 9.1-4.1 13.4-1.5 3.2-3 6.5-4.6 9.6-1.5 2.8-4.9 3.6-7.3 1.3-2-1.8-1.6-2.7-1.5-5.9z"/><path d="m160.6 162.6c2.5 0 5.3 3.8 4.4 6.9-1.2 4.2-3.1 8-5.2 11.8-1 1.8-2 3.7-3 5.5-.7 1.3-1.7 2.2-3.2 2.5-.2 0-.4.1-.5.2-2.4 1-4.9.4-6.6-1.5-.5-.6-.8-1.4-.4-2.2.2-.5.4-1 .3-1.4-.2-4.4 1.8-8.2 3.8-11.9.7-1.3 1.2-2.7 1.9-3.9 1.5-2.7 3.6-4.6 6.4-5.6.8-.4 1.5-.5 2.1-.4z"/><path d="m341.2 190.6c2 .3 3.2 1.2 3.7 3.1.5 2 1.5 4 1.1 6.2-.8 4.2-2.2 7.2-4.5 10.8-1.7 2.7-3.3 5.4-5.8 7.5-1.1 1-2.2 1.2-3.3.5-2.7-1.7-5.8-2.8-4.6-6.7.4-1.3 1-2.5 1.5-3.8 1.3-3.6 2.4-6.9 4.2-10.4 1.4-2.6 3-5.1 5.5-6.7.8-.4 1.5-.7 2.2-.5z"/><path d="m251.9 158c-.1 1.8-.7 3.8-1.1 5.2-1 3.6-2.9 7-4.8 10.2-1.3 2.2-2.8 4-4.7 5.5-3.9 3-8.9-1.1-8.1-5.7.6-3.5 2.6-7 4.3-10 1-1.8 1.5-4 2.6-5.7 1.3-2.1 2.5-4.5 5.1-5 1.9-.4 5 .5 6.1 2.3.5.9.6 2 .6 3.2z"/><path d="m295.3 184.9c-3.6-.5-5.8-2.6-6.4-5.9-.1-.9 0-1.8.4-2.6 2.6-4.9 4.3-10.4 8.3-14.5.6-.7 1.3-1.3 2-1.9 2.4-2 6.8-.7 8 2.2.7 1.5.3 2.7-.2 4.1-1.4 4.1-3.6 7.8-5.1 11.8-.8 2.2-2.1 3.8-3.6 5.5-1 1.1-2.2 1.7-3.4 1.3z"/><path d="m188.9 167.1c-.3 2.5-1.3 4.5-2 6.5-1.5 4.1-3 8.1-4.7 12.1-1 2.3-2.6 4.2-4.8 5.4-.4.2-.8.4-1.3.3-2.3-.6-4.3-1.5-5.3-3.9-.1-.3-.2-.7-.1-1.1.9-2.9 1.3-5.9 2.6-8.6 1.9-3.9 3.1-8.1 5.7-11.7 2.4-3.3 5.7-3.4 8.8-2.4.6.2 1 .7 1.1 1.4.1.8.1 1.6 0 2z"/><path d="m183.5 122.9c.8.3 1.8 1.2 2.2 2.2 1.1 2.5 1.6 5-.3 7.7-1.6 2.3-2.8 4.9-4.1 7.5-1 2-2.2 3.9-3 5.9-.3.7-.5 1.5-.8 2.3-.7 1.8-3 3.3-4.9 3.3-.6 0-1-.5-1.5-.7-1-.6-2-1.2-2.9-2-1-.9-.8-2.1-.5-3.3.7-3 2.3-5.5 3.1-8.4 1.2-4.1 3.3-7.6 6.3-10.5 1.4-1.4 2.8-2.9 4.7-3.7.5-.3 1-.4 1.7-.3z"/><path d="m180.1 272.8c3.6-.2 5.1 4.7 4 7.6-2.1 5.9-4.4 11.7-7.6 17.1-.8 1.4-2 2.4-3.4 3-.3.1-.7.3-1.1.2-2.3-.1-4.9-2.7-5.1-5.2-.2-2.9.5-5.5 2.1-7.9.6-.9.9-2 1.4-3 1.4-3.3 3.2-6.4 5.1-9.4 1.2-1.8 2.9-2.7 4.6-2.4z"/><path d="m247.2 300.1c-.6-.2-1.2-.3-1.7-.5-2.1-.9-2.7-3.7-1.5-6.5.8-1.7 1.2-3.5 1.7-5.3 1.9-6.2 3.8-12.4 6.6-18 1.6-3.2 3.7-3.8 6.1-3.9 1 0 1.9 0 2.7.8 1.7 1.5 2.5 5.5 1.7 8.3-2.2 6.9-4.4 13.8-7.6 20-2 4.1-4.8 5.5-8 5.1z"/><path d="m315.2 298.1c-.7 3.6-2.6 6.9-4.6 10.1-.6.9-1.3 1.7-2 2.5-1.3 1.6-3.2 1.8-5 2.3-.6.2-1.3-.5-1.8-1-1.7-1.7-2.1-4-1.6-6.3 1-3.7 1.6-7.5 2.9-11.1.9-2.5 2.5-4.5 3.9-6.6 1-1.5 4.4-1.6 5.8-.4 1.2 1 2.1 2.2 3.1 3.4.7.8.6 1.9.2 2.9-.4 1.2-1 2.5-.9 4.2z"/><path d="m198.5 288.9c-1-.3-2-.3-2.9-1s-1.2-1.6-1.1-2.9c.1-2.1.7-4.1 1.2-6.1 1.7-6.5 3.9-12.7 7.5-17.8 1.6-2.3 3.6-3.1 5.7-3 1.6.1 3.1 2.3 3.3 4.9.2 1.6.1 3.2-.3 4.9-.8 2.6-1.3 5.5-2.3 7.9-1.5 3.6-3.1 7.2-5.6 9.9-.2.2-.4.4-.5.7-1.4 2.5-3.1 2.9-5 2.5z"/><path d="m286 283.7c-1.2-.1-2.2-.4-3.1-.7-1.8-.6-2.6-2.5-2.2-4.6.7-3.4 1.6-6.7 2.7-10 1-2.7 2.6-5 4.3-7.3.8-1.1 2.2-1.4 3.4-.9.8.3 1.7.2 2.3 1.2 1.3 2.1 1.8 4.2 1.2 6.7-.6 2.7-1.2 5.5-1.7 8.2-.4 2.2-1.4 4.1-2.8 5.7-1.1 1.5-2.5 2.2-4.1 1.7z"/><path d="m155 266.9c.1-1.7.9-3.1 1.8-4.4 1.4-2 3-3.9 4.7-5.6.7-.7 1.4-1.4 2.3-1.8 2-1 4.4-.2 5 2.4 0 .1 0 .3.1.4 1.5 2.1.6 4.2-.1 6.2-1.5 4.5-3.8 8.5-6.6 12.2-1.2 1.5-3.3 1.7-4.8-.4-.4-.6-.8-1.1-1.5-1.6s-1-1.4-1.1-2.3c0-.1 0-.2 0-.3.2-1.5-.1-3.1.2-4.8z"/></g></svg>